<svg width="89" height="89" viewBox="0 0 89 89" fill="none" xmlns="http://www.w3.org/2000/svg">
<path d="M44.5 61.0931C47.5169 61.0931 50.1568 63.7329 50.1568 66.7499C50.1568 69.7668 47.5169 72.4067 44.5 72.4067C41.483 72.4067 38.8432 69.7668 38.8432 66.7499C39.2203 63.3558 41.483 61.0931 44.5 61.0931ZM44.5 55.4363C41.483 55.4363 38.8432 52.7965 38.8432 49.7795C38.8432 49.7795 33.1864 33.5633 33.1864 27.5294C33.1864 21.4955 38.089 16.5933 44.5 16.5933C50.5339 16.5933 55.8135 21.4955 55.8135 27.5294L50.1568 49.7795C50.1568 52.7965 47.5169 55.4363 44.5 55.4363ZM44.5 10.9365C26.0212 10.9365 10.9364 26.0209 10.9364 44.4998C10.9364 62.9786 26.0212 78.0635 44.5 78.0635C62.9788 78.0635 78.0636 62.9786 78.0636 44.4998C78.0636 26.0209 62.9788 10.9365 44.5 10.9365ZM44.5 89C19.9873 89 0 69.0125 0 44.4998C0 19.987 19.9873 0 44.5 0C69.0127 0 89 19.987 89 44.4998C89 69.0125 69.0127 89 44.5 89Z" fill="white"/>
</svg>
