<svg width="43" height="47" viewBox="0 0 43 47" fill="none" xmlns="http://www.w3.org/2000/svg">
<g opacity="0.5">
<path d="M0 23.4981C0 15.9376 0 8.37697 0 0.816381C0 0.125085 0.126383 0.000740146 0.828591 0.000740146C14.6365 0 28.4443 0 42.2522 0C42.8445 0 43 0.15395 43 0.746807C43 15.9302 43 31.1135 43 46.2961C43 46.8349 42.8325 46.9993 42.2843 46.9993C28.4264 46.9993 14.5691 46.9993 0.711183 46.9993C0.158539 46.9993 0.00149565 46.8335 0.00149565 46.2539C0.00149565 38.6682 0.00149565 31.0832 0.00149565 23.4974L0 23.4981ZM5.64534 5.5696V41.4156H37.3614V5.5696H5.64534ZM1.16437 1.97323V45.0867C2.21805 44.0357 3.19322 43.0506 4.18633 42.0832C4.40993 41.8656 4.49369 41.6458 4.49294 41.3379C4.48471 34.9504 4.48696 28.5622 4.48696 22.1748C4.48696 16.6503 4.48845 11.1259 4.47873 5.60142C4.47873 5.41269 4.41217 5.17288 4.28654 5.04409C3.32409 4.06118 2.33995 3.10047 1.36104 2.13384C1.31243 2.08573 1.2541 2.0465 1.16437 1.97397V1.97323ZM41.8476 45.0431V1.95769C41.7085 2.08351 41.6173 2.15975 41.5328 2.24264C40.6152 3.14858 39.7043 4.06118 38.7785 4.9575C38.5826 5.14697 38.5093 5.33941 38.5093 5.6066C38.5145 17.5466 38.5123 29.4874 38.5235 41.4274C38.5235 41.6214 38.6245 41.8626 38.7613 42.0018C39.6714 42.9322 40.604 43.8403 41.5298 44.7551C41.6143 44.8388 41.7063 44.915 41.8476 45.0431ZM1.98099 1.1339C2.06101 1.2353 2.08643 1.27675 2.12009 1.31006C3.11544 2.29593 4.10557 3.28699 5.11363 4.25954C5.2288 4.37056 5.44193 4.43421 5.60944 4.43421C16.1912 4.44236 26.7729 4.4431 37.3547 4.43125C37.5618 4.43125 37.8176 4.32393 37.9671 4.18108C38.9169 3.27292 39.8434 2.34108 40.776 1.41516C40.8493 1.34262 40.9121 1.25899 41.0205 1.1339H1.98099ZM41.013 45.8594C40.942 45.7691 40.9106 45.7195 40.8694 45.6788C39.8756 44.693 38.8855 43.7027 37.8774 42.7301C37.763 42.6198 37.5469 42.5658 37.3778 42.5658C26.7886 42.5584 16.1994 42.5576 5.60944 42.5687C5.42398 42.5687 5.1929 42.6635 5.05979 42.7923C4.09584 43.7204 3.15059 44.6678 2.20085 45.6107C2.13579 45.6751 2.08344 45.7521 1.9952 45.8594H41.013Z" fill="#7488A6"/>
<path d="M6.73047 23.4893C6.73047 18.1736 6.73047 12.8586 6.73047 7.54284C6.73047 6.80343 6.8748 6.66058 7.62487 6.66058C16.883 6.66058 26.141 6.66058 35.3999 6.66058C36.1223 6.66058 36.2711 6.80565 36.2711 7.52803C36.2711 18.1713 36.2711 28.8139 36.2711 39.4572C36.2711 40.201 36.132 40.338 35.3774 40.3387C26.0939 40.3387 16.8112 40.3387 7.52765 40.3387C6.90546 40.3387 6.73271 40.1662 6.73196 39.5467C6.73196 34.194 6.73196 28.842 6.73122 23.4893H6.73047ZM31.8739 30.195C31.9247 30.2572 31.9606 30.3075 32.0025 30.3519C33.3875 31.8196 34.0486 33.5604 34.0284 35.5655C34.0171 36.6505 34.0254 37.7363 34.0269 38.8214C34.0269 38.9509 34.0411 39.0797 34.05 39.2277C34.2729 39.2277 34.4464 39.2277 34.6199 39.2277C34.7934 39.2277 34.9549 39.2277 35.115 39.2277V7.80263H7.88063V39.2018H8.97395C8.97395 39.0323 8.97395 38.8873 8.97395 38.7422C8.97544 37.558 8.96273 36.3737 8.98143 35.1902C9.00386 33.7595 9.42788 32.4465 10.2527 31.2704C10.5137 30.8981 10.8173 30.5547 11.1008 30.1987C9.17362 27.9427 9.13996 24.3057 11.7529 21.986C11.7207 21.9261 11.6886 21.861 11.6534 21.7988C10.2744 19.36 11.0387 16.5378 13.4594 15.0842C13.5978 15.0013 13.7137 14.8237 13.766 14.666C14.8242 11.4952 17.0019 9.54493 20.3252 9.01203C24.2984 8.37476 28.0196 10.7795 29.2086 14.6275C29.2834 14.8695 29.4031 15.0213 29.6214 15.153C31.4446 16.2536 32.3405 18.272 31.8843 20.3281C31.758 20.8973 31.497 21.4361 31.2913 22.006C33.6432 24.0533 34.0142 27.6252 31.8746 30.1957L31.8739 30.195ZM22.3084 13.3226C22.5948 13.3226 22.882 13.3212 23.1684 13.3226C23.7308 13.3256 23.8991 13.4832 23.9379 14.0376C24.0434 15.5586 25.1038 16.7229 26.6196 16.9827C27.6464 17.1588 27.6531 17.1588 27.6659 18.1921C27.6688 18.4134 27.7324 18.5118 27.9583 18.5732C28.9506 18.8426 29.5623 19.645 29.5354 20.6012C29.5085 21.5545 28.8355 22.3354 27.8394 22.536C27.6158 22.5811 27.5357 22.6736 27.443 22.8831C27.1304 23.5892 26.8133 24.3034 26.4013 24.9548C25.9459 25.6734 25.2556 26.1797 24.5175 26.6105C24.2408 26.7718 24.1959 27.4957 24.4622 27.5793C25.1913 27.8095 25.8838 28.1537 26.6892 28.1367C28.1198 28.1063 29.4539 28.483 30.6482 29.2683C30.9555 29.4704 31.0842 29.3853 31.2659 29.1366C32.7638 27.0923 32.351 24.2427 30.3214 22.6847C29.774 22.2643 29.75 22.0985 30.1584 21.5286C31.5276 19.6191 30.8987 17.0337 28.7928 15.9687C28.4615 15.8014 28.2955 15.583 28.2103 15.2241C27.4901 12.208 24.682 10.0305 21.5299 10.0223C18.3562 10.0142 15.5212 12.1843 14.7973 15.2056C14.7038 15.5971 14.5101 15.8162 14.1601 15.9938C12.0662 17.053 11.45 19.6768 12.838 21.559C13.2582 22.1296 13.2328 22.3006 12.6592 22.7402C10.6521 24.2805 10.2467 27.1204 11.7304 29.1662C11.9107 29.4149 12.0385 29.4756 12.3205 29.2876C13.2111 28.6932 14.1983 28.3143 15.2699 28.2077C16.3064 28.1048 17.3623 28.1352 18.3307 27.6644C18.4878 27.5882 18.7256 27.603 18.6949 27.3321C18.6643 27.059 18.8019 26.7652 18.4369 26.5601C16.9435 25.7223 15.9983 24.4529 15.5242 22.8254C15.4927 22.718 15.3529 22.5915 15.2415 22.5648C14.1369 22.3021 13.4639 21.5434 13.4661 20.5354C13.4684 19.5339 14.1302 18.7649 15.2153 18.5347C15.4269 18.4896 15.4666 18.3786 15.5399 18.2046C15.8353 17.503 16.0731 16.7525 16.5038 16.1367C17.8955 14.1479 19.8772 13.256 22.3099 13.3226H22.3084ZM26.586 19.998L26.5479 19.9958C26.5479 19.4777 26.5366 18.9596 26.5523 18.4422C26.5598 18.1869 26.4798 18.0877 26.2136 18.0277C24.6469 17.6747 23.5947 16.728 23.0376 15.2396C22.9403 14.9806 22.9321 14.6001 22.7482 14.4847C22.5328 14.3492 22.1708 14.4336 21.8725 14.4366C19.605 14.4551 17.6375 15.7577 16.8314 17.856C16.2578 19.3496 16.272 20.9291 16.625 22.4464C17.12 24.5736 18.576 25.8311 20.7522 26.2056C23.4661 26.6726 26.1291 24.7135 26.4566 22.023C26.5381 21.3532 26.5441 20.6738 26.5845 19.9988L26.586 19.998ZM32.8782 39.2026C32.8879 39.0864 32.9021 38.9909 32.9021 38.8954C32.9029 37.6742 32.9193 36.4529 32.8976 35.2317C32.8393 31.9136 30.1359 29.275 26.7842 29.2313C26.4903 29.2276 26.3489 29.3024 26.248 29.5925C25.7499 31.0254 25.2279 32.4502 24.7067 33.8757C24.4824 34.4908 24.1092 34.5804 23.6022 34.1548C23.1841 33.8032 22.7698 33.4479 22.3518 33.0971C22.2823 33.0386 22.1993 32.995 22.0938 32.9247V39.2285C22.2621 39.2285 22.3974 39.2285 22.5328 39.2285C24.5018 39.2285 26.4708 39.2285 28.4406 39.2285C28.9835 39.2285 28.979 39.2263 29.0658 38.7C29.2804 37.4025 29.1391 36.1465 28.6418 34.926C28.478 34.5241 28.5932 34.2147 28.9215 34.0904C29.2288 33.9734 29.5444 34.1178 29.6715 34.5056C29.8712 35.1125 30.115 35.7268 30.1711 36.3538C30.2556 37.2878 30.1928 38.2352 30.1928 39.2033H32.8782V39.2026ZM20.9167 32.8751C20.3297 33.3695 19.8256 33.8069 19.3074 34.2273C18.9066 34.553 18.5274 34.4479 18.33 33.9749C18.2919 33.8839 18.2605 33.7899 18.2268 33.6974C17.728 32.3163 17.2247 30.9374 16.7371 29.5526C16.6541 29.3172 16.5434 29.2261 16.2847 29.2321C14.7883 29.2669 13.4661 29.7146 12.307 30.685C10.851 31.904 10.1406 33.4487 10.1024 35.3094C10.0785 36.4811 10.0964 37.6534 10.0972 38.8251C10.0972 38.9443 10.1121 39.0642 10.1211 39.1996H12.8282C12.7901 38.5364 12.7198 37.8999 12.7258 37.2634C12.7348 36.2797 12.9591 35.3316 13.3577 34.4294C13.5005 34.1052 13.7989 33.9786 14.0853 34.0911C14.3792 34.2058 14.4981 34.4841 14.3957 34.8268C14.3673 34.9208 14.3276 35.0119 14.2917 35.1036C13.8273 36.296 13.7346 37.521 13.9418 38.7777C13.9963 39.1108 14.1167 39.2418 14.4899 39.2374C16.4836 39.2152 18.4781 39.227 20.4725 39.227C20.6161 39.227 20.7604 39.227 20.916 39.227V32.8736L20.9167 32.8751ZM19.1391 32.9113C19.6836 32.4502 20.1771 32.0409 20.655 31.6153C20.7036 31.5717 20.6976 31.4066 20.655 31.3341C20.1577 30.494 19.6529 29.6591 19.1369 28.8302C19.0861 28.7488 18.9327 28.6577 18.855 28.6777C18.487 28.7717 18.1296 28.9027 17.737 29.0308C18.2081 30.3341 18.662 31.5894 19.1399 32.9113H19.1391ZM23.8639 32.9121C24.344 31.582 24.7979 30.3253 25.2653 29.0315C24.8765 28.9034 24.5287 28.7769 24.172 28.6799C24.0942 28.6585 23.9417 28.7132 23.9006 28.7791C23.3404 29.6799 22.7945 30.5888 22.2284 31.5228C22.7616 31.9758 23.2769 32.414 23.8639 32.9121ZM21.4798 30.5288C21.5621 30.4289 21.6055 30.3874 21.6361 30.3378C22.1177 29.5474 22.6121 28.7636 23.0667 27.9583C23.1819 27.754 23.1669 27.4787 23.2275 27.15C22.0422 27.4535 20.9519 27.455 19.7957 27.1545C19.8309 27.4542 19.7927 27.7022 19.8915 27.8754C20.391 28.7532 20.9257 29.6118 21.4798 30.5295V30.5288ZM15.3312 21.405C15.3312 20.9054 15.3327 20.4436 15.3297 19.981C15.3297 19.8862 15.3133 19.7908 15.3043 19.6946C14.8728 19.7708 14.6021 20.0861 14.5871 20.5072C14.5722 20.9336 14.8227 21.2607 15.3312 21.405ZM27.6958 21.385C28.1475 21.2977 28.4234 20.9543 28.4137 20.5191C28.404 20.0972 28.1288 19.7723 27.6958 19.6975V21.385Z" fill="#7488A6"/>
<path d="M21.5601 24.7964C20.9327 24.7934 20.4189 24.6024 19.9807 24.2205C19.6756 23.9541 19.6322 23.6321 19.8551 23.3797C20.0682 23.1384 20.3801 23.1325 20.6867 23.3634C21.267 23.8001 21.7246 23.7994 22.3132 23.3612C22.6205 23.1325 22.9331 23.1406 23.1448 23.3819C23.3661 23.6351 23.3205 23.957 23.0169 24.2235C22.5899 24.5987 22.0851 24.7793 21.5594 24.7971L21.5601 24.7964Z" fill="#7488A6"/>
<path d="M22.0611 20.1335C22.0454 20.206 22.0364 20.28 22.0133 20.3496C21.8151 20.9454 21.6207 21.5427 21.412 22.1348C21.2879 22.4871 20.9917 22.6426 20.6896 22.5397C20.3815 22.4353 20.2439 22.1481 20.3583 21.7892C20.5528 21.1793 20.7547 20.5716 20.9708 19.9684C21.0747 19.6783 21.3036 19.5384 21.6192 19.6028C21.8996 19.6605 22.0267 19.8604 22.0611 20.132V20.1335Z" fill="#7488A6"/>
<path d="M18.4998 20.166C18.0982 20.1616 17.7654 19.8285 17.7646 19.4303C17.7646 19.0173 18.1191 18.6776 18.5357 18.6931C18.9365 18.7079 19.2625 19.0499 19.2528 19.4466C19.2431 19.8433 18.9006 20.1705 18.5005 20.166H18.4998Z" fill="#7488A6"/>
<path d="M25.2355 19.4185C25.2415 19.8144 24.9117 20.1549 24.5116 20.166C24.0951 20.1778 23.7436 19.8344 23.7481 19.4214C23.7526 19.0232 24.0876 18.6939 24.4899 18.6931C24.893 18.6924 25.2295 19.0195 25.2355 19.4185Z" fill="#7488A6"/>
</g>
</svg>
