<svg width="50" height="50" viewBox="0 0 50 50" fill="none" xmlns="http://www.w3.org/2000/svg">
<g opacity="0.5" clip-path="url(#clip0_98_810)">
<path d="M11.7175 43.7503C11.7175 43.5394 11.7175 43.3855 11.7175 43.2308C11.7175 38.584 11.7175 33.9371 11.7175 29.2903C11.7175 29.2379 11.7175 29.1864 11.7175 29.1341C11.7206 28.4951 12.0035 28.1327 12.4981 28.1311C12.9926 28.1303 13.2786 28.4943 13.2802 29.1309C13.2817 29.5738 13.2653 30.0167 13.2911 30.458C13.2981 30.5791 13.4013 30.7596 13.5052 30.8017C15.4569 31.5953 17.4157 32.3718 19.3737 33.1513C19.4081 33.1654 19.4479 33.1654 19.5143 33.1763C19.5214 33.042 19.5245 32.9162 19.5347 32.7912C19.5706 32.3483 19.9058 32.0304 20.3261 32.0367C20.7449 32.0429 21.0653 32.3671 21.0926 32.8162C21.0989 32.9201 21.095 33.0248 21.095 33.1287C21.095 36.5132 21.095 39.897 21.095 43.2816C21.095 43.4222 21.095 43.562 21.095 43.7261H29.6887C29.6887 43.5753 29.6887 43.4253 29.6887 43.2754C29.6887 40.1126 29.684 36.9491 29.6981 33.7864C29.6989 33.545 29.7841 33.2677 29.9208 33.0717C30.1052 32.8076 30.4169 32.7483 30.7302 32.8678C31.0529 32.9904 31.2381 33.2326 31.2459 33.5802C31.2576 34.1004 31.2373 34.6222 31.2615 35.1416C31.267 35.2635 31.3686 35.4455 31.4717 35.4876C33.436 36.2852 35.4065 37.0663 37.377 37.8497C37.3988 37.8583 37.427 37.8505 37.502 37.8505C37.502 37.2842 37.5012 36.7179 37.502 36.1516C37.5035 35.5189 37.7965 35.1541 38.2942 35.1619C38.7786 35.1689 39.063 35.5259 39.063 36.1352C39.0646 38.5043 39.063 40.8734 39.063 43.2418C39.063 43.3949 39.063 43.548 39.063 43.7503H39.5545C42.6923 43.7503 45.8301 43.7503 48.9679 43.7503C49.7578 43.7503 50.0188 44.0221 49.9945 44.8134C49.9188 47.2715 47.9225 49.536 45.4926 49.9062C45.1214 49.9625 44.7425 49.9953 44.3674 49.9953C31.4522 50 18.5361 50 5.62085 49.9984C2.91904 49.9984 0.801652 48.3628 0.147685 45.7648C0.0562702 45.4023 0.021892 45.0211 0.0062655 44.6462C-0.0187368 44.0658 0.296136 43.7542 0.886035 43.7526C2.35727 43.7471 3.8285 43.7503 5.29973 43.7503C7.2921 43.7503 9.2837 43.7503 11.2761 43.7503C11.4042 43.7503 11.5323 43.7503 11.7175 43.7503ZM48.3584 45.3336H1.64704C1.69002 45.4922 1.71893 45.6289 1.76268 45.7609C2.29398 47.345 3.74646 48.4206 5.42709 48.4323C7.74449 48.4479 10.0619 48.437 12.3793 48.437C23.0162 48.437 33.6539 48.4416 44.2909 48.4245C44.8636 48.4237 45.4707 48.3292 46.0028 48.1261C47.2662 47.6433 48.0186 46.6755 48.3577 45.3336H48.3584ZM13.2919 43.7182H19.5308C19.5308 43.4659 19.5151 43.2441 19.5347 43.0254C19.5558 42.7903 19.4573 42.6786 19.244 42.5942C17.3579 41.8475 15.4749 41.0906 13.5904 40.3384C13.5013 40.3024 13.4044 40.2868 13.2919 40.2563V43.7182ZM19.5308 37.1194C19.5308 36.4468 19.5167 35.8501 19.537 35.2533C19.5464 34.9877 19.4557 34.8651 19.2096 34.769C17.9876 34.2941 16.7735 33.7981 15.5562 33.3115C14.8131 33.0146 14.0677 32.7217 13.2802 32.41C13.2802 33.0638 13.2934 33.6606 13.2739 34.2566C13.2645 34.5316 13.3513 34.6683 13.6154 34.7698C14.8389 35.2416 16.0523 35.7376 17.2704 36.2227C18.0033 36.5148 18.7377 36.8038 19.53 37.1178L19.5308 37.1194ZM13.2809 36.3125C13.2809 36.9897 13.2934 37.5998 13.2747 38.209C13.2669 38.4598 13.3606 38.5754 13.5864 38.6637C14.892 39.1745 16.1922 39.6994 17.4946 40.2181C18.1548 40.4813 18.8166 40.7406 19.5308 41.0234C19.5308 40.3634 19.5159 39.7564 19.5378 39.1511C19.5472 38.8808 19.4456 38.7644 19.2034 38.6722C18.3064 38.3286 17.4181 37.963 16.5258 37.606C15.4671 37.1827 14.4076 36.7609 13.2809 36.3117V36.3125ZM31.2522 37.0944C31.2522 37.7802 31.2654 38.3903 31.2459 38.9995C31.2373 39.2565 31.3451 39.3612 31.5663 39.4479C32.8718 39.9595 34.172 40.4836 35.4744 41.0031C36.1339 41.2655 36.7949 41.5257 37.5027 41.8053C37.5027 41.1546 37.4895 40.5594 37.509 39.965C37.5176 39.6916 37.4348 39.551 37.1691 39.451C36.2948 39.1214 35.4315 38.7621 34.5634 38.4153C33.4813 37.9825 32.3984 37.5513 31.2529 37.0952L31.2522 37.0944ZM37.459 43.7362C37.4856 43.6948 37.5113 43.6526 37.5379 43.6112C37.4207 43.5308 37.3129 43.4261 37.184 43.3738C35.9698 42.8793 34.7525 42.3935 33.5352 41.9068C32.7914 41.61 32.046 41.3171 31.2811 41.0148V43.7354H37.459V43.7362Z" fill="#7488A6"/>
<path d="M15.6044 18.7554V17.1877C15.1809 17.1096 14.7676 17.0572 14.3675 16.9557C12.0493 16.3636 10.5969 14.6444 10.2398 12.2534C9.67255 8.45322 11.8618 6.0552 14.3855 4.8265C15.0715 4.49297 15.6106 4.84369 15.6239 5.60918C15.6262 5.72322 15.6239 5.83805 15.6239 6.02083C15.7083 5.9474 15.752 5.92397 15.7739 5.88726C16.4333 4.77495 17.0287 3.6314 17.2186 2.33396C17.2795 1.91685 17.2561 1.47942 17.2115 1.05684C17.1623 0.588167 17.2866 0.24682 17.6561 0.0765365C18.0085 -0.0859356 18.3562 0.00701718 18.6445 0.390545C20.7963 3.24943 22.2909 6.38483 22.6191 9.99515C22.7527 11.4707 22.6144 12.9134 21.855 14.2296C20.9564 15.7863 19.5344 16.6026 17.8335 17.0064C17.6327 17.0541 17.4295 17.0939 17.2084 17.1408V18.7554C17.4545 18.7554 17.6967 18.7554 17.9382 18.7554C18.4851 18.7554 19.032 18.7468 19.5782 18.7585C20.8189 18.7858 21.8573 19.788 21.8659 21.0222C21.8846 23.6772 21.8862 26.3314 21.8659 28.9864C21.8565 30.2526 20.7666 31.2634 19.4993 31.2517C18.2601 31.2399 17.2069 30.2128 17.192 28.9638C17.174 27.4804 17.1865 25.9963 17.1858 24.513C17.1858 24.3958 17.192 24.2779 17.1803 24.1615C17.1365 23.7467 16.7951 23.4382 16.3935 23.4436C15.988 23.4491 15.6575 23.7592 15.6294 24.1818C15.6122 24.4411 15.627 24.702 15.6223 24.9621C15.6005 26.2674 14.5254 27.3531 13.2659 27.3445C12.0181 27.3351 10.9516 26.2619 10.9391 24.9746C10.9258 23.6733 10.925 22.3719 10.9391 21.0706C10.9539 19.7833 11.9673 18.7772 13.2557 18.7577C14.023 18.746 14.7902 18.7554 15.6028 18.7554H15.6044ZM15.5575 15.5122C15.4426 15.4317 15.3926 15.3919 15.3387 15.3591C14.1261 14.6311 13.7354 13.5438 14.3316 12.2627C14.7355 11.3941 15.2426 10.5693 15.7505 9.75456C16.0732 9.23668 16.731 9.22575 17.0483 9.74285C17.5913 10.6271 18.0882 11.5418 18.564 12.4635C18.8031 12.9267 18.8047 13.4414 18.6523 13.9492C18.4601 14.5905 18.0249 15.0365 17.4889 15.42C17.5983 15.4325 17.6967 15.4286 17.7889 15.4044C19.836 14.8646 21.0299 13.3633 21.0854 11.2442C21.1471 8.89612 20.4767 6.72462 19.4571 4.64294C19.2321 4.18286 18.9766 3.73685 18.6914 3.20178C18.6132 3.408 18.5687 3.51188 18.5343 3.61968C17.8999 5.62246 16.792 7.36044 15.5169 9.00313C15.2176 9.38822 14.8496 9.47961 14.4894 9.28902C14.1816 9.12577 14.0566 8.85862 14.0597 8.5165C14.0636 7.97987 14.0605 7.44324 14.0605 6.8371C13.8855 6.95583 13.7854 7.01363 13.6956 7.08471C11.5774 8.77192 11.2688 11.1184 12.1869 13.3711C12.7228 14.6857 14.2308 15.6223 15.5559 15.5122H15.5575ZM20.3118 25.0254C20.3118 23.7498 20.315 22.4743 20.3103 21.1987C20.3079 20.6652 20.0157 20.3238 19.525 20.3223C17.442 20.3129 15.3582 20.3145 13.2752 20.3223C12.8604 20.3238 12.5181 20.6175 12.5119 21.0136C12.4924 22.354 12.4931 23.6951 12.5103 25.0355C12.5158 25.4386 12.9119 25.7815 13.2831 25.7792C13.6534 25.776 14.0198 25.4316 14.0519 25.0269C14.0738 24.7551 14.0409 24.4786 14.0667 24.2076C14.0925 23.9381 14.1238 23.66 14.216 23.4085C14.598 22.3626 15.6958 21.7252 16.7615 21.904C17.885 22.0931 18.732 23.0499 18.7437 24.1849C18.7586 25.63 18.7476 27.075 18.7484 28.5193C18.7484 28.6498 18.7437 28.7802 18.7508 28.9099C18.7758 29.3535 19.1016 29.6816 19.5188 29.6886C19.9501 29.6957 20.3032 29.3582 20.3064 28.8927C20.3157 27.6038 20.3095 26.315 20.3111 25.0269L20.3118 25.0254ZM16.4857 11.7003C16.4349 11.6972 16.3841 11.6941 16.3333 11.691C16.1146 12.1542 15.8817 12.6119 15.6809 13.0829C15.5301 13.436 15.6872 13.7226 15.9755 13.9281C16.2576 14.1288 16.5677 14.1273 16.8475 13.9195C17.1319 13.7078 17.2795 13.4219 17.1256 13.0688C16.9248 12.6072 16.6998 12.1565 16.4857 11.7011V11.7003Z" fill="#7488A6"/>
<path d="M35.1748 21.8368V23.4225C35.3123 23.4288 35.4491 23.4405 35.5858 23.4413C36.2499 23.4436 36.914 23.4303 37.5774 23.4475C38.7963 23.4788 39.8253 24.4825 39.837 25.6987C39.8581 27.846 39.8604 29.994 39.8362 32.1413C39.8221 33.3653 38.7462 34.3714 37.5196 34.3769C36.2702 34.3824 35.1951 33.3763 35.1654 32.1366C35.1412 31.1087 35.16 30.08 35.1568 29.052C35.1553 28.4888 34.8459 28.1303 34.3732 28.1319C33.8997 28.1342 33.6067 28.4881 33.5942 29.0575C33.5864 29.4074 33.6075 29.7667 33.5379 30.1057C33.2942 31.3016 32.1894 32.1374 31.0494 32.0234C29.8556 31.9039 28.9172 30.8634 28.9094 29.6293C28.9008 28.3537 28.8992 27.0781 28.9094 25.8026C28.9203 24.47 29.9329 23.4592 31.2627 23.4436C32.0175 23.435 32.7715 23.442 33.5606 23.442V21.8283C32.5488 21.6416 31.6276 21.2479 30.8377 20.573C29.3235 19.2787 28.1851 16.9228 29.461 14.1655C30.1259 12.7283 30.858 11.3176 31.6315 9.93498C32.2535 8.82424 32.9746 7.76895 33.67 6.70038C34.0481 6.11923 34.674 6.08799 35.0443 6.6418C36.65 9.04451 38.186 11.4871 39.3096 14.1663C40.062 15.9597 40.0237 17.6805 38.9822 19.3498C38.1813 20.6339 36.9742 21.4283 35.1733 21.8368H35.1748ZM34.424 8.5071C34.3435 8.55319 34.3146 8.561 34.3021 8.57897C34.1239 8.85079 33.9427 9.12106 33.7723 9.39757C32.6082 11.2926 31.4463 13.1883 30.6994 15.3013C30.2244 16.6448 30.5283 17.8407 31.3901 18.9155C31.8761 19.5216 32.5035 19.9426 33.284 20.1012C33.2239 20.0184 33.1457 19.963 33.066 19.9091C32.2402 19.3459 31.8456 18.3624 32.1292 17.4189C32.4699 16.2847 33.109 15.2966 33.7981 14.3491C34.1044 13.928 34.7217 13.9468 34.9975 14.4014C35.5608 15.3325 36.1218 16.2753 36.5671 17.2658C36.9601 18.1398 36.6375 19.0983 35.9085 19.7325C35.7678 19.8544 35.617 19.9645 35.4538 20.0934C35.5131 20.1098 35.5397 20.1262 35.56 20.1215C37.4438 19.6396 38.7173 17.4017 38.1235 15.5442C37.3063 12.9899 35.8288 10.7786 34.4255 8.5071H34.424ZM34.3826 25.0043C33.3668 25.0043 32.3511 25.0004 31.3354 25.0058C30.8236 25.0082 30.4814 25.2948 30.4767 25.7659C30.4634 27.0672 30.4634 28.3693 30.4767 29.6707C30.4806 30.1003 30.8557 30.4604 31.2424 30.4658C31.6425 30.4713 32.0066 30.0987 32.0292 29.648C32.0401 29.427 32.0316 29.2059 32.0331 28.9841C32.0441 27.6171 33.059 26.5681 34.3708 26.5673C35.6842 26.5657 36.7093 27.6124 36.7195 28.9747C36.7265 29.9378 36.7195 30.9009 36.7218 31.8648C36.7226 32.4561 37.0328 32.8217 37.5172 32.8115C37.9868 32.8014 38.2814 32.446 38.2821 31.8718C38.2845 29.8933 38.2845 27.9147 38.2821 25.9361C38.2821 25.2956 37.993 25.0074 37.3516 25.0058C36.3616 25.0027 35.3725 25.0051 34.3826 25.0051V25.0043ZM34.4583 16.3714C34.4052 16.3722 34.3521 16.3737 34.2982 16.3745C34.0692 16.8744 33.8138 17.3634 33.6223 17.8774C33.5114 18.1742 33.6895 18.4351 33.9411 18.6116C34.2107 18.8007 34.5373 18.8452 34.7709 18.621C34.9545 18.4445 35.1717 18.1094 35.1178 17.9164C34.9693 17.3821 34.6873 16.8846 34.4576 16.3722L34.4583 16.3714Z" fill="#7488A6"/>
<path d="M42.1871 4.7156C42.1871 4.97493 42.1988 5.23504 42.1839 5.49281C42.1589 5.93414 41.8237 6.2544 41.4065 6.25362C40.9877 6.25283 40.6471 5.93414 40.633 5.49047C40.6158 4.95931 40.6158 4.42737 40.633 3.89699C40.6471 3.45566 40.9916 3.13618 41.4096 3.13696C41.8277 3.13696 42.1613 3.45722 42.1847 3.90011C42.1988 4.17116 42.1871 4.44455 42.1871 4.71638V4.7156Z" fill="#7488A6"/>
<path d="M39.0738 6.25753C39.32 6.25753 39.5669 6.2505 39.813 6.25909C40.2865 6.27628 40.6177 6.59497 40.6232 7.02849C40.6287 7.46123 40.2974 7.80258 39.8317 7.8143C39.3262 7.82757 38.8207 7.82601 38.3152 7.81508C37.8433 7.80492 37.5104 7.47842 37.5049 7.04724C37.4995 6.60122 37.8409 6.27315 38.3355 6.25909C38.5816 6.25206 38.8277 6.25753 39.0746 6.25831L39.0738 6.25753Z" fill="#7488A6"/>
<path d="M43.7497 6.25987C44.0224 6.25987 44.2951 6.24581 44.5662 6.263C45.0037 6.29034 45.3202 6.63715 45.3116 7.05583C45.303 7.45811 44.9928 7.79633 44.5717 7.81117C44.0279 7.8307 43.4825 7.83148 42.9379 7.81117C42.5004 7.79555 42.184 7.43858 42.1926 7.0199C42.2011 6.61762 42.5121 6.29815 42.9325 6.25987C42.9582 6.25753 42.984 6.25753 43.0098 6.25753C43.2559 6.25753 43.5028 6.25753 43.7489 6.25753V6.25909L43.7497 6.25987Z" fill="#7488A6"/>
<path d="M40.6298 9.34373C40.6298 9.0844 40.6165 8.82428 40.6329 8.56574C40.6595 8.14315 40.9837 7.83227 41.3869 7.82211C41.8049 7.81118 42.1659 8.12675 42.1815 8.56339C42.2018 9.10705 42.2002 9.65227 42.1815 10.1967C42.1666 10.6201 41.8322 10.9302 41.4291 10.9403C41.0111 10.9513 40.6603 10.6357 40.6329 10.199C40.6149 9.91472 40.6298 9.62883 40.6298 9.34373Z" fill="#7488A6"/>
<path d="M3.12651 15.6317C3.12651 15.3591 3.11323 15.0865 3.12964 14.8154C3.15542 14.3928 3.48045 14.082 3.88283 14.071C4.30084 14.0601 4.66181 14.3756 4.67822 14.8115C4.69853 15.3552 4.69697 15.9004 4.67822 16.4448C4.66337 16.8682 4.32975 17.1783 3.92659 17.1892C3.50858 17.2002 3.15776 16.8846 3.12964 16.4487C3.11245 16.1777 3.12651 15.9043 3.12651 15.6325V15.6317Z" fill="#7488A6"/>
<path d="M1.54155 18.753C1.28215 18.753 1.02197 18.7647 0.763354 18.7507C0.321906 18.7257 0.000782752 18.3914 1.42961e-06 17.9743C-0.000779893 17.5564 0.318781 17.2127 0.760229 17.1986C1.29153 17.1814 1.82439 17.1814 2.35569 17.1986C2.79792 17.2127 3.11826 17.5548 3.11982 17.9727C3.1206 18.3906 2.80104 18.7265 2.35882 18.7499C2.08692 18.764 1.81423 18.7522 1.54155 18.753Z" fill="#7488A6"/>
<path d="M6.25687 17.1939C6.50299 17.1939 6.74989 17.1869 6.99601 17.1955C7.46871 17.2119 7.80155 17.5314 7.8078 17.9633C7.81405 18.3961 7.48355 18.739 7.01788 18.7507C6.49987 18.764 5.98029 18.7655 5.46227 18.7499C5.01613 18.7366 4.69501 18.4039 4.68954 17.9852C4.68329 17.5525 5.01457 17.2166 5.47946 17.1963C5.73808 17.1854 5.99826 17.1939 6.25687 17.1939Z" fill="#7488A6"/>
<path d="M3.1244 20.2895C3.1244 20.0435 3.1158 19.7966 3.12596 19.5506C3.14549 19.0842 3.4799 18.7531 3.91197 18.7577C4.33076 18.7624 4.66673 19.0819 4.67923 19.5271C4.69485 20.0583 4.69642 20.5902 4.67767 21.1206C4.66204 21.5612 4.31357 21.8791 3.89556 21.8744C3.47833 21.8705 3.1494 21.5487 3.12674 21.105C3.11346 20.8332 3.1244 20.5606 3.12361 20.2887L3.1244 20.2895Z" fill="#7488A6"/>
<path d="M46.8766 30.4792C46.8766 30.7252 46.8844 30.972 46.8758 31.2181C46.8594 31.6899 46.5391 32.025 46.1086 32.0312C45.6765 32.0383 45.3319 31.7079 45.3194 31.2423C45.3054 30.7244 45.3046 30.205 45.3194 29.6871C45.3327 29.2426 45.6671 28.9193 46.0836 28.913C46.5164 28.906 46.8532 29.2364 46.8735 29.7019C46.8844 29.9605 46.8758 30.2206 46.8758 30.4792H46.8766Z" fill="#7488A6"/>
<path d="M43.7186 33.5926C43.4592 33.5926 43.1991 33.6059 42.9412 33.5895C42.5029 33.5622 42.1857 33.2177 42.1935 32.7998C42.2013 32.3975 42.5107 32.057 42.9311 32.0414C43.4749 32.021 44.0202 32.021 44.564 32.0414C45.0023 32.057 45.3203 32.4124 45.3117 32.8295C45.3039 33.2302 44.993 33.5629 44.5734 33.5895C44.289 33.6075 44.003 33.5926 43.7179 33.5926H43.7186Z" fill="#7488A6"/>
<path d="M48.4059 33.5927C48.1465 33.5927 47.8864 33.6059 47.6277 33.5895C47.1879 33.5622 46.8722 33.2185 46.88 32.7998C46.8878 32.3976 47.198 32.057 47.6191 32.0421C48.1629 32.0218 48.7091 32.0218 49.2529 32.0421C49.6928 32.0578 50.0076 32.4108 49.9998 32.8303C49.9928 33.231 49.6811 33.5528 49.2615 33.5927C49.2357 33.595 49.2099 33.595 49.1834 33.595C48.924 33.595 48.6646 33.595 48.4052 33.595V33.5927H48.4059Z" fill="#7488A6"/>
<path d="M45.3155 35.1486C45.3155 34.9026 45.3077 34.6557 45.3171 34.4097C45.3343 33.9379 45.6546 33.6051 46.0867 33.5997C46.5195 33.5942 46.861 33.9238 46.8727 34.3909C46.886 34.9088 46.8875 35.4283 46.8711 35.9461C46.8579 36.3906 46.5219 36.7124 46.1047 36.7179C45.6695 36.7233 45.3374 36.3953 45.3171 35.9266C45.3061 35.6681 45.3147 35.408 45.3147 35.1494L45.3155 35.1486Z" fill="#7488A6"/>
</g>
<defs>
<clipPath id="clip0_98_810">
<rect width="50" height="50" fill="white"/>
</clipPath>
</defs>
</svg>
