<svg width="40" height="48" viewBox="0 0 40 48" fill="none" xmlns="http://www.w3.org/2000/svg">
<g opacity="0.5" clip-path="url(#clip0_98_848)">
<path d="M35.5534 9.04976C36.5775 9.24099 37.4735 9.62868 38.2272 10.3156C39.4031 11.3872 39.9962 12.728 39.9977 14.3275C40.0014 21.726 39.9992 29.1252 39.9992 36.5236C39.9992 38.0482 39.9999 39.5735 39.9992 41.098C39.9984 42.915 39.021 44.2941 37.3224 44.8475C37.0884 44.924 37.024 45.0305 37.0307 45.2667C37.0469 45.9033 37.0395 46.5415 37.0373 47.1789C37.0351 47.7293 36.7656 47.9993 36.2176 47.9993C25.8511 47.9993 15.4853 48.003 5.11877 47.9978C2.32277 47.9963 0.0214037 45.6251 0.0169609 42.7463C0.0102967 37.8345 0.01548 32.9227 0.01548 28.0116C0.01548 23.525 0.0547247 19.0376 0.00141112 14.5517C-0.0319099 11.7381 1.8548 9.50045 4.3598 9.07526C4.38127 9.07151 4.40052 9.05126 4.4605 9.01377C4.4605 8.87879 4.45828 8.71831 4.4605 8.55858C4.48642 7.17353 4.41607 5.77723 4.56046 4.40492C4.81148 2.01725 7.05213 0.0202857 9.41866 0.0135366C16.4775 -0.00521076 23.5364 -0.00446086 30.5953 0.0135366C32.9588 0.0195358 35.2047 2.02175 35.4542 4.40342C35.5964 5.76373 35.5282 7.14728 35.5534 8.51959C35.5564 8.69207 35.5534 8.86454 35.5534 9.04976ZM5.9592 30.0018C6.07472 29.9163 6.15321 29.8653 6.22355 29.8038C7.23725 28.9182 8.41163 28.4885 9.75261 28.49C17.0336 28.4953 24.3146 28.4975 31.5956 28.4885C32.4227 28.4878 33.1847 28.652 33.8822 29.1049C33.9274 29.1342 33.9896 29.1372 34.0732 29.1597C34.0732 29.0045 34.0732 28.8807 34.0732 28.7562C34.0732 24.0072 34.0732 19.2581 34.0732 14.509C34.0732 11.4344 34.0843 8.35986 34.0688 5.28604C34.0577 3.18559 32.4531 1.51258 30.4427 1.50958C23.4823 1.50058 16.5227 1.50358 9.56231 1.51408C9.21133 1.51408 8.84554 1.58157 8.51085 1.69255C6.90552 2.22423 5.94514 3.61753 5.94439 5.40753C5.94069 13.4809 5.94291 21.5543 5.94291 29.6284C5.94291 29.7356 5.95254 29.8428 5.95994 30.0018H5.9592ZM35.5394 45.0035H35.0595C25.1262 45.0035 15.1928 45.0042 5.25946 45.002C3.96069 45.002 2.97661 44.0241 2.97586 42.7568C2.97586 41.4917 3.97401 40.5011 5.25576 40.5011C15.5097 40.5011 25.7637 40.5018 36.0184 40.5033C36.1295 40.5033 36.2413 40.4981 36.3516 40.5101C36.7478 40.5558 37.0395 40.8843 37.0329 41.2667C37.0262 41.6529 36.7285 41.9656 36.328 41.9986C36.205 42.0084 36.0814 42.0031 35.9577 42.0031C25.8267 42.0031 15.6963 42.0031 5.56528 42.0031C5.40534 42.0031 5.24243 41.9934 5.08471 42.0174C4.7093 42.0751 4.44569 42.4066 4.45828 42.7808C4.47087 43.1587 4.75373 43.4594 5.13655 43.4939C5.27131 43.5059 5.40756 43.5007 5.5438 43.5007C15.7733 43.5007 26.0029 43.5007 36.2324 43.4969C37.5231 43.4969 38.519 42.5056 38.5145 41.2472C38.5101 39.9904 37.5157 39.0051 36.2198 39.0051C25.9163 39.0013 15.6127 39.0013 5.30907 39.0088C4.94328 39.0088 4.56491 39.0523 4.21466 39.1535C2.43014 39.6665 1.26539 41.4355 1.52085 43.2037C1.80149 45.1444 3.31204 46.495 5.23577 46.4965C15.2187 46.5017 25.201 46.5002 35.1839 46.5002C35.3017 46.5002 35.4187 46.4875 35.5394 46.48V45.002V45.0035ZM31.0877 35.9935C30.8944 35.9935 30.7248 35.9935 30.5553 35.9935C23.6082 35.995 16.6612 35.9972 9.71337 35.9987C8.44051 35.9987 7.42237 34.9991 7.4194 33.7468C7.41644 32.478 8.41459 31.4881 9.69412 31.4889C16.9744 31.4911 24.2546 31.4926 31.5349 31.4941C31.6586 31.4941 31.7822 31.4889 31.9051 31.4986C32.2554 31.5286 32.5279 31.7911 32.579 32.1383C32.6278 32.4735 32.4279 32.8244 32.0903 32.9272C31.9059 32.9834 31.7023 32.9909 31.5075 32.9909C24.4983 32.9939 17.4897 32.9931 10.4805 32.9939C10.1843 32.9939 9.88812 32.9901 9.59193 33.0029C9.23947 33.0186 8.96031 33.2811 8.90848 33.6253C8.85517 33.9823 9.06398 34.3415 9.41718 34.4352C9.61637 34.4877 9.83184 34.4914 10.0399 34.4914C12.7915 34.4952 15.5431 34.4952 18.2954 34.4937C22.8241 34.4899 27.3528 34.4929 31.8807 34.4734C33.1084 34.4682 34.0747 33.4468 34.0658 32.244C34.0562 30.9789 33.0884 30.0026 31.8207 30.0018C24.5649 29.9973 17.3091 29.9966 10.054 29.9966C9.74595 29.9966 9.43347 29.9838 9.12988 30.0273C7.20541 30.3063 5.82888 32.0333 5.94958 33.998C6.06805 35.9207 7.66524 37.4723 9.60822 37.476C16.6789 37.4918 23.7496 37.4858 30.8196 37.4873C30.9026 37.4873 30.9855 37.47 31.0869 37.4588V35.9935H31.0877ZM35.5542 10.5795C35.5542 10.7745 35.5542 10.9208 35.5542 11.067C35.5542 18.0148 35.5542 24.9625 35.5564 31.9103C35.5564 33.911 34.6745 35.1851 32.8241 35.8517C32.736 35.884 32.6064 35.977 32.6034 36.046C32.5842 36.5259 32.593 37.0073 32.593 37.503C33.5823 37.503 34.5071 37.4978 35.432 37.5053C35.9 37.509 36.3805 37.47 36.8315 37.5668C37.3987 37.6882 37.9414 37.9275 38.5027 38.1194C38.5049 38.0857 38.516 38.0024 38.516 37.9192C38.5168 30.0341 38.522 22.1489 38.5042 14.2638C38.5034 13.7771 38.3946 13.2612 38.2124 12.8097C37.7334 11.6249 36.8367 10.902 35.5534 10.5795H35.5542ZM5.99919 37.5165C5.92218 37.3973 5.90145 37.3538 5.86961 37.3193C4.86183 36.2162 4.45013 34.9039 4.45235 33.4131C4.4642 25.9644 4.45902 18.5157 4.45976 11.067C4.45976 10.9208 4.45976 10.7745 4.45976 10.5818C4.28131 10.632 4.15173 10.6613 4.02585 10.7048C2.499 11.235 1.50012 12.617 1.49863 14.2638C1.49197 22.4121 1.49493 30.5612 1.49641 38.7096C1.49641 38.8003 1.51641 38.8911 1.53418 39.0485C2.79445 37.8202 4.27316 37.398 5.99845 37.5158L5.99919 37.5165Z" fill="#7488A6"/>
</g>
<defs>
<clipPath id="clip0_98_848">
<rect width="40" height="48" fill="white"/>
</clipPath>
</defs>
</svg>
