<svg width="38" height="48" viewBox="0 0 38 48" fill="none" xmlns="http://www.w3.org/2000/svg">
<g opacity="0.5" clip-path="url(#clip0_98_790)">
<path d="M15.0606 46.3865H22.9469V37.6228H24.5199C24.527 37.7564 24.5397 37.8844 24.5397 38.0131C24.5412 40.9994 24.5412 43.9857 24.5405 46.9729C24.5405 47.7264 24.2642 48 23.5074 48C20.4992 48 17.491 48 14.4827 48C13.7236 48 13.4584 47.732 13.4576 46.9664C13.4568 42.8602 13.4528 38.7539 13.4647 34.6477C13.4655 34.3245 13.361 34.1901 13.0705 34.0741C8.49721 32.2453 5.2998 29.0158 3.48696 24.396C3.37376 24.1072 3.25185 23.9776 2.9249 23.992C2.2536 24.0216 1.57992 24.0056 0.907027 23.9992C0.306969 23.9936 0.00218997 23.692 0.00139834 23.088C-0.0017682 19.9681 -0.0017682 16.8483 0.00139834 13.7284C0.00139834 13.1004 0.302219 12.8068 0.932359 12.802C1.60525 12.7972 2.27814 12.7876 2.95102 12.8068C3.23047 12.8148 3.36822 12.7268 3.47034 12.4564C4.75199 9.06371 6.87674 6.33581 9.90394 4.37667C10.9069 3.72709 12.0184 3.24471 13.0982 2.72393C13.3705 2.59273 13.4797 2.46633 13.4639 2.16874C13.4418 1.74316 13.4528 1.31597 13.46 0.888787C13.4695 0.325606 13.7655 0.0056167 14.3102 0.00401675C17.4371 -0.00158306 20.5641 -0.00158306 23.691 0.00401675C24.2175 0.00481673 24.5254 0.321606 24.5389 0.851988C24.55 1.30477 24.561 1.75996 24.5349 2.21114C24.5191 2.49033 24.6267 2.60873 24.8729 2.70153C27.274 3.6079 29.348 5.01505 31.1039 6.89899C32.5961 8.49973 33.7345 10.3277 34.5032 12.3852C34.6172 12.6908 34.7502 12.8252 35.0921 12.81C35.7634 12.7796 36.4371 12.7956 37.11 12.8028C37.6855 12.8092 37.9974 13.1156 37.9982 13.6924C38.0022 16.8259 38.0022 19.9586 37.9982 23.092C37.9982 23.6944 37.6911 23.9944 37.0886 24C36.4292 24.0056 35.769 24.0192 35.1096 23.9944C34.785 23.9824 34.629 24.0816 34.5079 24.3992C33.1898 27.8567 30.9891 30.6038 27.8843 32.5717C26.9415 33.1693 25.8973 33.6077 24.8864 34.0909C24.6378 34.2093 24.5175 34.3221 24.5349 34.6133C24.561 35.0508 24.542 35.4916 24.542 35.9668H22.9588C22.9588 35.8116 22.9588 35.6572 22.9588 35.502C22.9588 32.5685 22.9548 29.6358 22.9635 26.7023C22.9643 26.4279 22.9018 26.2879 22.6247 26.1791C21.2409 25.6384 20.4208 24.2528 20.6021 22.8209C20.7881 21.3473 21.9336 20.1961 23.3886 20.0194C24.812 19.8458 26.1601 20.6769 26.7072 22.0769C26.7847 22.2761 26.8441 22.4105 27.1101 22.4089C30.131 22.3969 33.1526 22.4017 36.1743 22.4009C36.2376 22.4009 36.3018 22.3897 36.3896 22.3817V14.4195C36.2685 14.4139 36.1426 14.4035 36.0168 14.4035C33.0743 14.4035 30.1326 14.4067 27.1901 14.3979C26.928 14.3971 26.8022 14.4627 26.7024 14.7259C26.1704 16.1267 24.8088 16.9603 23.3878 16.7859C21.9328 16.6075 20.7881 15.4555 20.6013 13.9836C20.42 12.5516 21.2441 11.174 22.6207 10.6181C22.8084 10.5421 22.9659 10.5029 22.9651 10.2229C22.9524 7.41017 22.9564 4.59666 22.9548 1.78396C22.9548 1.74556 22.9429 1.70636 22.9311 1.63596H15.0614C15.0543 1.77356 15.0424 1.90315 15.0424 2.03275C15.0416 4.72626 15.0456 7.41897 15.0353 10.1125C15.0345 10.3957 15.1168 10.5229 15.3844 10.6277C16.7603 11.17 17.5867 12.574 17.3952 13.9939C17.1981 15.4587 16.0858 16.5827 14.6379 16.7819C13.232 16.9755 11.8482 16.1395 11.2996 14.7539C11.2173 14.5451 11.1626 14.3939 10.8753 14.3947C7.8544 14.4075 4.83274 14.4035 1.81186 14.4043C1.75962 14.4043 1.70737 14.4131 1.6195 14.4203V22.4025H2.03906C4.95465 22.4025 7.87023 22.3993 10.7866 22.4081C11.0589 22.4089 11.1967 22.3425 11.3028 22.0641C11.8339 20.6689 13.2098 19.8386 14.6268 20.0225C16.0842 20.2113 17.2178 21.3633 17.3983 22.8377C17.5733 24.268 16.7429 25.6488 15.3607 26.1887C15.1303 26.2791 15.0353 26.3783 15.0361 26.6399C15.0432 33.1061 15.0416 39.5723 15.0424 46.0385C15.0424 46.1425 15.0527 46.2465 15.0606 46.3889V46.3865ZM32.9262 12.8004C32.1853 9.69409 27.2296 4.70706 24.542 4.34387C24.542 5.43824 24.5365 6.5294 24.5515 7.61976C24.5531 7.72056 24.6616 7.85895 24.7582 7.91335C26.7222 9.03572 28.2548 10.5909 29.3726 12.57C29.432 12.6748 29.584 12.7892 29.6948 12.7908C30.7611 12.8076 31.8282 12.8004 32.9262 12.8004ZM5.07656 12.8004C6.17693 12.8004 7.24326 12.8068 8.30959 12.79C8.41963 12.7884 8.57004 12.67 8.62941 12.5644C9.74562 10.5837 11.283 9.03492 13.2454 7.91095C13.3404 7.85655 13.4465 7.71656 13.4481 7.61576C13.4623 6.527 13.4568 5.43744 13.4568 4.34307C10.6544 4.81586 5.72174 9.78689 5.07656 12.7996V12.8004ZM32.9373 24.0016C31.8361 24.0016 30.769 23.9936 29.7027 24.0128C29.5832 24.0152 29.4217 24.1448 29.356 24.26C28.2453 26.2103 26.7301 27.7447 24.8001 28.8687C24.6742 28.9423 24.5595 29.147 24.5523 29.2958C24.5246 29.907 24.5405 30.5206 24.5405 31.1334C24.5405 31.5782 24.5405 32.0221 24.5405 32.4861C28.1851 31.1982 31.6477 27.6911 32.9365 24.0016H32.9373ZM5.07498 24.0016C5.74074 27.0303 10.6742 32.0005 13.4568 32.4573C13.4568 31.363 13.4623 30.2734 13.4473 29.1838C13.4457 29.083 13.3388 28.9439 13.2438 28.8895C11.2838 27.7631 9.74403 26.2167 8.62862 24.2352C8.56925 24.1304 8.41805 24.0136 8.30801 24.012C7.24168 23.9952 6.17456 24.0016 5.07498 24.0016ZM27.6389 12.8004C26.8053 11.51 25.8174 10.5117 24.542 9.67169C24.542 10.1885 24.5452 10.6221 24.542 11.0556C24.5365 11.6716 24.2761 11.9508 23.6657 12.0036C22.7799 12.0796 22.1473 12.778 22.1703 13.654C22.1925 14.4771 22.8796 15.1739 23.695 15.1979C24.5523 15.2235 25.2545 14.5747 25.3305 13.686C25.3835 13.0652 25.6551 12.8068 26.267 12.8012C26.6961 12.7972 27.1251 12.8012 27.6389 12.8012V12.8004ZM13.4584 27.1263C13.4584 26.6335 13.4576 26.2359 13.4584 25.8376C13.4608 25.1032 13.6697 24.8712 14.3988 24.7936C15.238 24.704 15.8649 23.9704 15.8293 23.12C15.7961 22.3153 15.1161 21.6329 14.3189 21.6041C13.4687 21.5737 12.757 22.2017 12.6723 23.0568C12.601 23.7784 12.3572 23.9992 11.6305 24.0008C11.2323 24.0008 10.8341 24.0008 10.3583 24.0008C11.1991 25.2912 12.1791 26.2879 13.4576 27.1263H13.4584ZM10.3963 12.742C10.4747 12.7764 10.4977 12.7948 10.5206 12.7948C10.9164 12.798 11.3115 12.798 11.7073 12.8012C12.3493 12.8068 12.6145 13.0548 12.6699 13.6996C12.7459 14.5795 13.4623 15.2307 14.3173 15.1979C15.1311 15.1667 15.8119 14.4667 15.8309 13.642C15.8499 12.794 15.2111 12.082 14.3616 12.0044C13.6967 11.9436 13.4623 11.6852 13.4592 11.0044C13.4568 10.5869 13.4592 10.1701 13.4592 9.67329C12.1807 10.5117 11.1998 11.5084 10.3971 12.742H10.3963ZM27.6009 24.06C27.5217 24.0256 27.4988 24.0072 27.4758 24.0072C27.08 24.004 26.685 24.004 26.2892 24C25.6487 23.9944 25.3859 23.7464 25.3289 23.0976C25.2521 22.2177 24.5389 21.5713 23.6784 21.6033C22.8772 21.6329 22.2028 22.3097 22.1695 23.1184C22.1339 23.9864 22.7727 24.7168 23.638 24.796C24.303 24.8576 24.5373 25.1152 24.5405 25.7968C24.5428 26.2143 24.5405 26.6327 24.5405 27.1311C25.8134 26.2863 26.7974 25.292 27.6001 24.06H27.6009Z" fill="#7488A6"/>
<path d="M19.7406 11.9852H18.208C18.208 11.2836 18.1684 10.5932 18.2206 9.90926C18.2642 9.33568 18.0599 8.95249 17.6617 8.5597C16.3967 7.31094 16.6469 7.80213 16.6271 6.08378C16.6168 5.17821 16.6223 4.27184 16.6255 3.36547C16.6279 2.70469 16.9176 2.4039 17.5588 2.4007C18.5215 2.39671 19.4841 2.39671 20.4467 2.4007C21.0721 2.4039 21.3698 2.7015 21.3737 3.33027C21.3793 4.07265 21.3753 4.81503 21.3753 5.5782H19.8079V4.03345H18.2103C18.2103 4.93982 18.2032 5.84139 18.219 6.74296C18.2206 6.85336 18.3275 6.97735 18.4138 7.06775C18.7613 7.43254 19.1381 7.77013 19.4659 8.15172C19.6194 8.33091 19.7683 8.5845 19.7762 8.80929C19.8094 9.80766 19.792 10.8076 19.7889 11.8068C19.7889 11.8668 19.7572 11.9268 19.7414 11.9844L19.7406 11.9852Z" fill="#7488A6"/>
<path d="M31.6879 20.8001V19.2169H33.2166V17.6042C32.3078 17.6042 31.4022 17.5986 30.4973 17.613C30.4007 17.6146 30.2954 17.725 30.2139 17.8058C29.8648 18.1498 29.5481 18.5338 29.1682 18.8378C28.9386 19.021 28.6196 19.1729 28.3338 19.1857C27.3506 19.2273 26.3642 19.2017 25.3564 19.2017V17.601C26.0293 17.601 26.6991 17.5666 27.3632 17.6114C27.9324 17.6498 28.3354 17.473 28.7407 17.0506C29.9709 15.7675 29.4706 16.0235 31.2272 16.0027C32.1107 15.9923 32.9941 15.9979 33.8776 16.0011C34.5323 16.0035 34.8307 16.297 34.8331 16.9426C34.8371 17.9154 34.8371 18.8882 34.8331 19.8601C34.8299 20.4921 34.5339 20.7937 33.9132 20.7985C33.1786 20.8041 32.4447 20.8001 31.6895 20.8001H31.6879Z" fill="#7488A6"/>
<path d="M6.32087 16.0003V17.5858H4.7764V19.2002C5.29729 19.2002 5.82452 19.1514 6.33908 19.2114C7.22017 19.3138 7.93026 19.0938 8.45195 18.3338C8.87468 17.7178 9.4692 17.5338 10.2054 17.5866C11.0034 17.645 11.8085 17.5994 12.6397 17.5994V19.1666C12.5542 19.177 12.4552 19.1986 12.3563 19.1986C11.8021 19.2018 11.2448 19.2434 10.6962 19.189C10.0598 19.1258 9.62753 19.3641 9.19134 19.8241C8.07117 21.0049 8.47174 20.7825 6.90985 20.7985C5.97414 20.8081 5.03763 20.8033 4.10113 20.7985C3.47337 20.7953 3.17334 20.4985 3.17017 19.8729C3.16463 18.8866 3.16463 17.901 3.17017 16.9146C3.17334 16.3107 3.47653 16.0059 4.07343 16.0011C4.80964 15.9955 5.54507 15.9995 6.32246 15.9995L6.32087 16.0003Z" fill="#7488A6"/>
<path d="M18.2393 31.2126H19.7608V44.7737H18.2393V31.2126Z" fill="#7488A6"/>
<path d="M16.6268 18.3834C16.6323 17.0698 17.7018 15.9995 19.0056 16.0019C20.3079 16.0043 21.3726 17.081 21.3726 18.3962C21.3726 19.7297 20.2944 20.8097 18.9732 20.7993C17.6749 20.7889 16.6205 19.7041 16.626 18.3842L16.6268 18.3834ZM18.9914 17.6042C18.5655 17.609 18.214 17.9674 18.2124 18.3978C18.2116 18.8426 18.5885 19.2114 19.0278 19.1962C19.4498 19.181 19.7989 18.8074 19.7878 18.3818C19.7767 17.9522 19.4157 17.5994 18.9914 17.6042Z" fill="#7488A6"/>
<path d="M18.2095 26.4127H19.792C19.792 26.6831 19.792 26.9431 19.792 27.2023C19.792 27.8535 19.7864 28.5047 19.7951 29.155C19.7983 29.367 19.7413 29.4774 19.5094 29.4702C19.1682 29.4598 18.8246 29.4854 18.485 29.4566C18.3876 29.4486 18.2238 29.3094 18.2222 29.2278C18.2032 28.3015 18.2103 27.3751 18.2103 26.4119L18.2095 26.4127Z" fill="#7488A6"/>
</g>
<defs>
<clipPath id="clip0_98_790">
<rect width="38" height="48" fill="white"/>
</clipPath>
</defs>
</svg>
