<svg width="34" height="48" viewBox="0 0 34 48" fill="none" xmlns="http://www.w3.org/2000/svg">
<g opacity="0.5" clip-path="url(#clip0_98_802)">
<path d="M26.3983 7.77675C26.1347 8.57282 25.883 9.33119 25.6328 10.0903C25.4679 10.5901 25.3105 11.0922 25.1435 11.5912C24.5517 13.3651 22.7259 13.9975 21.1881 12.9587C20.0142 12.1657 18.8411 11.3719 17.6768 10.5645C17.4674 10.419 17.3227 10.4265 17.1185 10.5683C15.9743 11.3606 14.8204 12.1393 13.6688 12.9203C12.0516 14.0171 10.2562 13.3907 9.63551 11.5128C9.23827 10.3112 8.84029 9.10956 8.4579 7.9034C8.37474 7.64181 8.27747 7.58603 8.0072 7.66895C6.4576 8.14388 4.89908 8.59016 3.34651 9.05604C2.23721 9.38924 1.6781 10.1574 1.67736 11.3364C1.67587 15.3183 1.67736 19.3009 1.67439 23.2827C1.67439 23.4817 1.66548 23.6883 1.61127 23.8768C1.50064 24.2612 1.13384 24.4934 0.756652 24.455C0.362383 24.415 0.049046 24.0984 0.00969329 23.6906C-0.00218677 23.5662 0.00152575 23.4395 0.00152575 23.3136C0.00152575 19.3318 4.0744e-05 15.3492 0.00301076 11.3673C0.00449577 9.3523 1.06999 7.95617 2.99233 7.39832C4.70306 6.90228 6.41008 6.39042 8.11264 5.86423C8.28416 5.81146 8.47275 5.64109 8.54923 5.47524C9.27763 3.89517 9.9934 2.30906 10.6899 0.713914C10.9082 0.211095 11.2408 1.66207e-05 11.7814 0.000770472C15.5184 0.0120782 19.2547 0.013586 22.9909 1.66207e-05C23.5649 -0.00224493 23.902 0.226172 24.1329 0.756884C24.8561 2.42214 25.6149 4.07082 26.3485 5.73155C26.4488 5.95846 26.5809 6.08209 26.8193 6.15145C28.2456 6.56456 29.6668 6.99425 31.0902 7.41792C32.9375 7.96748 33.9986 9.39301 33.9986 11.341C34 20.9511 33.9986 30.5604 33.9986 40.1705C33.9986 40.2964 34.0023 40.4223 33.9882 40.5467C33.9436 40.9432 33.6459 41.2402 33.2598 41.2817C32.8692 41.3239 32.5054 41.1083 32.3933 40.7269C32.3346 40.5271 32.3272 40.307 32.3272 40.0959C32.3242 30.5612 32.3272 21.0272 32.3168 11.4925C32.3168 11.0997 32.2574 10.6881 32.1319 10.3187C31.9522 9.78878 31.5691 9.37642 31.0404 9.2053C29.5116 8.71077 27.9709 8.25771 26.3983 7.7775V7.77675ZM11.7383 2.6091C11.6692 2.70031 11.6314 2.73348 11.6128 2.7757C11.0433 4.04142 10.4716 5.30563 9.91544 6.57737C9.86346 6.69648 9.88277 6.87288 9.92435 7.00405C10.3483 8.32706 10.7797 9.64781 11.2185 10.9655C11.4962 11.8008 12.0301 11.9832 12.7607 11.4932C13.7705 10.8155 14.7744 10.128 15.7797 9.44352C15.9193 9.34853 16.0537 9.2445 16.2178 9.12539C14.7209 6.94676 13.2456 4.80054 11.739 2.60834L11.7383 2.6091ZM23.0904 2.56839C21.5557 4.80205 20.0751 6.95656 18.5894 9.11861C18.6792 9.19625 18.7215 9.24149 18.7713 9.27541C19.8798 10.03 20.9862 10.7884 22.1007 11.5339C22.7578 11.9742 23.3221 11.7684 23.5753 11.0047C24.0126 9.6855 24.45 8.36626 24.865 7.04024C24.9214 6.86082 24.8977 6.61657 24.8234 6.44093C24.4284 5.50766 24.0059 4.5872 23.5909 3.66223C23.4387 3.323 23.282 2.98678 23.0912 2.56839H23.0904ZM17.4006 7.88078C18.8195 5.81598 20.2051 3.79943 21.6218 1.73689H13.1773C14.5999 3.80621 15.9832 5.819 17.4006 7.88078Z" fill="#7488A6"/>
<path d="M14.8594 46.3008C14.8594 46.0973 14.8594 45.9488 14.8594 45.8003C14.8594 35.5615 14.8594 25.3234 14.8602 15.0846C14.8602 14.9466 14.8542 14.8079 14.8646 14.67C14.898 14.2222 15.2292 13.8912 15.6569 13.8716C16.0831 13.8513 16.4499 14.1513 16.5189 14.5931C16.5442 14.7529 16.5345 14.9187 16.5345 15.0816C16.5352 25.3076 16.5352 35.5336 16.536 45.7596C16.536 45.9209 16.536 46.083 16.536 46.3008C16.7142 46.3008 16.8582 46.3008 17.0023 46.3008C21.3333 46.3008 25.6636 46.3016 29.9946 46.3008C31.372 46.3008 32.1895 45.547 32.3261 44.1599C32.3803 43.6088 32.7218 43.2779 33.2141 43.2998C33.6975 43.3209 34.0019 43.6918 33.996 44.2526C33.9744 46.3121 32.2763 47.9804 30.1535 47.9925C27.4189 48.0076 24.6842 47.9978 21.9496 47.9978C15.9487 47.9978 9.947 47.9993 3.94609 47.9955C1.95098 47.994 0.425874 46.7373 0.0627897 44.7999C0.00784435 44.5067 0.00413184 44.2006 0.00413184 43.8998C0.000419318 38.5339 0.000419318 33.1695 0.00190433 27.8051C0.00190433 27.0633 0.292223 26.66 0.826826 26.6562C1.37331 26.6517 1.67625 27.0693 1.67625 27.83C1.67625 33.1816 1.70001 38.5339 1.6614 43.8847C1.65101 45.2794 2.60512 46.331 4.07083 46.3136C7.49822 46.2737 10.9256 46.3008 14.353 46.3001C14.5 46.3001 14.6463 46.3001 14.8602 46.3001L14.8594 46.3008Z" fill="#7488A6"/>
<path d="M26.2542 19.2406C27.2803 19.2406 28.3072 19.2278 29.3326 19.2451C30.0454 19.2572 30.4664 19.9771 30.0654 20.5236C29.9184 20.7242 29.6029 20.9074 29.3615 20.9111C27.2974 20.9413 25.2325 20.936 23.1676 20.9224C22.6552 20.9194 22.3122 20.5349 22.3256 20.063C22.3389 19.5926 22.6931 19.2489 23.2121 19.2444C24.2256 19.2346 25.2399 19.2413 26.2534 19.2413L26.2542 19.2406Z" fill="#7488A6"/>
<path d="M19.405 41.342C20.0643 41.3405 20.6108 41.8885 20.6138 42.5542C20.6167 43.2176 20.0695 43.7754 19.4131 43.7777C18.7553 43.7807 18.2081 43.2296 18.2051 42.5632C18.2021 41.8976 18.7471 41.3428 19.4042 41.3412L19.405 41.342Z" fill="#7488A6"/>
<path d="M19.3961 23.6114C20.0658 23.6061 20.6064 24.1353 20.616 24.8048C20.6249 25.4636 20.0799 26.0283 19.425 26.0381C18.7731 26.0479 18.2148 25.496 18.2081 24.8334C18.2007 24.1617 18.7316 23.6159 19.3968 23.6107L19.3961 23.6114Z" fill="#7488A6"/>
<path d="M19.4225 32.4759C20.0848 32.4812 20.6232 33.0353 20.615 33.7025C20.6068 34.3636 20.0462 34.9222 19.3988 34.9146C18.7498 34.9071 18.2026 34.3387 18.2071 33.6783C18.2123 33.0097 18.7573 32.4699 19.4218 32.4759H19.4225Z" fill="#7488A6"/>
<path d="M19.4048 14.9293C20.076 14.9278 20.6181 15.4713 20.6158 16.1422C20.6129 16.8109 20.059 17.3612 19.3974 17.3537C18.7492 17.3461 18.2161 16.8086 18.2072 16.1535C18.1975 15.4826 18.7373 14.9315 19.4056 14.93L19.4048 14.9293Z" fill="#7488A6"/>
</g>
<defs>
<clipPath id="clip0_98_802">
<rect width="34" height="48" fill="white"/>
</clipPath>
</defs>
</svg>
