<svg width="49" height="48" viewBox="0 0 49 48" fill="none" xmlns="http://www.w3.org/2000/svg">
<path d="M40.024 37.5408C42.2881 38.2204 43.1966 39.7867 43.0403 42.0386C45.2508 42.707 46.191 44.214 46.0618 46.4982C46.564 46.4982 47.0489 46.4915 47.533 46.5005C47.9627 46.508 48.2806 46.781 48.3252 47.1568C48.372 47.5559 48.0828 47.9362 47.681 47.9888C47.5451 48.0068 47.4046 47.9977 47.2664 47.9977C31.8868 47.9977 16.5079 47.9977 1.12836 47.9977C1.04 47.9977 0.952399 47.9985 0.864041 47.9977C0.34522 47.991 0.00614102 47.7007 9.94392e-05 47.2589C-0.00669734 46.8013 0.335405 46.5042 0.880657 46.4982C1.29602 46.4945 1.71137 46.4952 2.12673 46.493C2.1509 46.493 2.17506 46.4825 2.25814 46.4645C2.12673 44.265 3.03826 42.7227 5.2525 42.0536C5.28346 41.5758 5.26911 41.0852 5.3552 40.6126C5.62632 39.1288 6.51141 38.1431 7.9493 37.6788C8.26044 37.5783 8.31104 37.4372 8.31104 37.1537C8.30425 28.5653 8.30425 19.9769 8.30727 11.3885C8.30727 9.75998 9.02395 8.5425 10.517 7.85237C10.9814 7.63783 11.5267 7.55832 12.044 7.5043C12.6043 7.44579 13.1753 7.49005 13.7417 7.49005C14.8518 7.49005 15.3744 7.13149 15.7293 6.07604C16.1424 4.84805 16.7874 3.76484 17.6642 2.80616C21.0686 -0.915295 27.1857 -0.939301 30.6218 2.75815C31.5054 3.70858 32.1647 4.78579 32.5778 6.01452C32.9599 7.15174 33.4508 7.48255 34.6735 7.49155C35.4022 7.4968 36.1431 7.44729 36.8567 7.55981C38.75 7.85987 40.0172 9.37741 40.021 11.2843C40.0301 15.5721 40.024 19.8599 40.024 24.1477C40.024 28.4858 40.024 32.8239 40.024 37.1612C40.024 37.285 40.024 37.4095 40.024 37.5385V37.5408ZM13.8995 37.477C13.7152 36.7021 13.8111 36.018 14.2076 35.3759C14.2544 35.3001 14.2182 35.1366 14.1676 35.0428C13.1836 33.2357 14.3307 31.2996 16.4052 31.2748C16.7421 31.2711 17.0925 30.8427 16.9724 30.5337C16.5276 29.3905 16.6107 28.1985 16.6175 27.014C16.6197 26.5437 16.9286 26.2556 17.4119 26.2474C17.9406 26.2384 18.4692 26.2286 18.9971 26.2504C21.1177 26.3374 22.7753 27.2556 23.961 29.0086C24.0207 29.0964 24.0879 29.1789 24.1679 29.2862C24.2306 29.2059 24.2721 29.1617 24.3039 29.1107C24.9088 28.1415 25.7297 27.4138 26.7462 26.8827C28.1146 26.1671 29.5872 26.2099 31.0599 26.2616C31.4208 26.2744 31.6889 26.5347 31.6987 26.8955C31.7305 28.0672 31.806 29.2464 31.4095 30.3867C31.2366 30.8825 31.5152 31.2696 32.031 31.2748C33.6857 31.2906 34.9144 32.8126 34.4099 34.3752C34.203 35.0173 34.1592 35.5191 34.4205 36.138C34.5821 36.5228 34.4937 37.0112 34.5179 37.4673H35.471V11.9879C34.9997 11.9879 34.5496 11.9969 34.1003 11.9857C33.2726 11.9647 32.4796 11.7771 31.7312 11.4291C29.9882 10.6189 28.9 9.26414 28.3056 7.45629C27.4757 4.93357 24.6074 3.77384 22.2248 4.96657C21.0308 5.56444 20.3323 6.55837 19.9328 7.80736C19.5151 9.11336 18.698 10.1411 17.5615 10.916C16.5147 11.6293 15.351 11.9774 14.0845 11.9909C13.6752 11.9954 13.2659 11.9909 12.8604 11.9909V37.4778H13.9003L13.8995 37.477ZM38.494 37.483C38.5016 37.3652 38.5121 37.2805 38.5121 37.1949C38.5121 28.5563 38.5152 19.9177 38.5099 11.2783C38.5099 9.97152 37.5289 9.00609 36.2178 8.99184C35.5631 8.98509 34.9083 8.99859 34.2543 8.98659C33.3843 8.97008 32.645 8.64077 32.0197 8.03991C31.5009 7.54106 31.2864 6.88994 31.0538 6.24032C29.5744 2.11528 24.4753 0.232422 20.6389 2.38308C18.8649 3.37702 17.7072 4.8473 17.0789 6.76316C16.6235 8.15168 15.4371 8.97683 13.9644 8.98884C13.3981 8.99334 12.8317 8.98884 12.2653 8.99034C10.7564 8.99334 9.81615 9.92502 9.81539 11.4246C9.81464 19.9762 9.81539 28.527 9.81539 37.0787C9.81539 37.2099 9.81539 37.3412 9.81539 37.471H11.325C11.325 36.3608 11.325 35.2761 11.325 34.1906C11.325 26.6142 11.325 19.0385 11.325 11.4621C11.325 10.7457 11.581 10.4921 12.3007 10.4906C12.9177 10.4891 13.534 10.4974 14.151 10.4861C15.2468 10.4659 16.2172 10.0998 17.0653 9.41192C17.8968 8.73829 18.3355 7.83362 18.6867 6.84793C19.6828 4.05065 22.6266 2.4596 25.525 3.16173C27.7241 3.69433 29.122 5.1016 29.8304 7.22375C30.3643 8.82306 31.448 9.92577 33.1011 10.3001C34.0172 10.5079 34.9967 10.4546 35.949 10.4854C36.7759 10.5124 37.0025 10.7134 37.0025 11.5341C37.0025 20.0227 37.0025 28.512 37.0025 37.0007C37.0025 37.1574 37.0025 37.3142 37.0025 37.483H38.494ZM44.5212 46.4795C44.8135 44.4518 43.4594 43.4631 41.9075 43.4759C35.6688 43.5269 29.4301 43.4969 23.1907 43.4969C17.5411 43.4969 11.8907 43.4969 6.24105 43.4969C4.53581 43.4969 3.48156 44.7909 3.82517 46.4787H44.5212V46.4795ZM21.6644 35.7749C21.1486 35.7794 20.7952 36.0345 20.6578 36.4328C20.5158 36.8446 20.6427 37.2437 21.0067 37.531C21.6327 38.0254 21.6373 38.4634 21.0225 38.9473C20.8073 39.1168 20.5845 39.8947 20.6834 40.1348C20.8768 40.6059 21.4349 40.8324 21.9476 40.6479C22.7338 40.3651 22.9966 40.5023 23.2217 41.314C23.3485 41.7716 23.6582 41.9951 24.1641 41.9959C24.6754 41.9959 24.976 41.7791 25.1059 41.3147C25.3339 40.5008 25.596 40.3643 26.3799 40.6479C26.8542 40.8196 27.3503 40.6494 27.5905 40.233C27.7551 39.9472 27.6026 39.1933 27.3352 38.9698C26.6805 38.4229 26.6842 38.0569 27.3518 37.5078C27.7408 37.1882 27.8367 36.6909 27.5927 36.261C27.3556 35.8432 26.8579 35.6699 26.3852 35.8402C25.5968 36.1245 25.3324 35.988 25.1066 35.1816C24.9881 34.7577 24.6422 34.4952 24.2011 34.4944C23.634 34.4929 23.338 34.7292 23.199 35.2941C23.0442 35.9227 22.6417 36.1267 22.0435 35.8889C21.894 35.8297 21.7354 35.7944 21.6652 35.7742L21.6644 35.7749ZM41.5329 41.9779C41.5329 41.7708 41.5329 41.6088 41.5329 41.4468C41.5284 39.918 40.6018 38.9975 39.0627 38.996C37.6157 38.9945 36.168 38.9885 34.721 38.999C33.9591 39.0043 33.188 38.9098 32.4434 39.1791C32.2961 39.2323 32.1164 39.2323 31.957 39.2106C31.7222 39.1791 31.593 39.2743 31.4646 39.4574C31.1135 39.9585 30.6347 40.3523 30.0267 40.4003C29.3826 40.4513 28.9325 40.6591 28.7021 41.2712C28.6817 41.326 28.6289 41.3732 28.582 41.4145C28.3759 41.5975 28.1674 41.7768 27.9356 41.9771H41.5322L41.5329 41.9779ZM6.81651 41.9719H20.262C19.9592 41.587 19.6126 41.1865 19.3165 40.7514C19.2033 40.5841 19.1187 40.5083 18.914 40.5121C18.0123 40.5301 17.3183 40.1393 16.8017 39.4154C16.7466 39.3381 16.6718 39.2331 16.5933 39.2203C16.0767 39.1341 15.5579 39.0133 15.0383 39.0065C13.0378 38.9825 11.0365 38.9945 9.03528 38.999C8.41375 39.0005 7.88738 39.2391 7.4471 39.6734C6.80367 40.308 6.73344 41.1002 6.815 41.9726L6.81651 41.9719ZM18.9654 39.0193C19.0114 38.99 19.207 38.936 19.2478 38.8258C19.3445 38.5625 19.6677 38.3787 19.4426 37.9901C18.4669 36.309 19.6488 34.2746 21.5919 34.2874C21.931 34.2896 22.1025 34.1366 22.181 33.8951C22.2354 33.7255 22.1908 33.4817 22.1017 33.3182C21.891 32.9319 21.4522 32.7931 20.9885 32.9079C20.2749 33.0849 20.0166 32.9281 19.827 32.2057C19.7055 31.7429 19.3248 31.4354 18.8785 31.4391C18.4843 31.4421 18.0312 31.8134 17.9285 32.2178C17.7397 32.9611 17.4089 33.1322 16.6945 32.8576C16.076 32.6198 15.4492 32.9454 15.3359 33.5755C15.2626 33.9821 15.4182 34.3047 15.749 34.5544C16.3456 35.0053 16.3403 35.4839 15.7392 35.946C15.7293 35.9535 15.7188 35.961 15.709 35.9685C15.3963 36.216 15.2634 36.5386 15.3382 36.9286C15.4084 37.2962 15.5964 37.543 16.0246 37.5213C16.1032 37.5175 16.1832 37.6023 16.267 37.6143C16.4075 37.6345 16.5661 37.6705 16.6915 37.627C17.4217 37.3735 17.72 37.522 17.933 38.2729C18.0629 38.732 18.4073 39.0095 18.9669 39.0193H18.9654ZM27.1109 32.8636C26.6321 32.8666 26.2878 33.0992 26.1299 33.478C25.9744 33.8531 26.253 34.2724 26.6608 34.2754C28.6931 34.2874 29.8568 36.2565 28.8781 38.0254C28.6832 38.3779 29.051 38.9945 29.4573 38.9945C29.918 38.9945 30.2669 38.7012 30.4134 38.1919C30.5954 37.5573 30.9677 37.3795 31.5787 37.597C31.7335 37.6518 31.9283 37.6098 32.1028 37.5918C32.2251 37.579 32.3535 37.5498 32.4607 37.4935C32.6148 37.4132 32.8036 37.3337 32.8874 37.198C33.1419 36.7876 33.0113 36.2775 32.6148 35.964C31.9736 35.4569 31.9736 35.0368 32.6156 34.5259C32.9924 34.2259 33.1132 33.7751 32.9297 33.3535C32.7099 32.8494 32.1519 32.6401 31.5983 32.8801C31.2547 33.0294 30.9232 33.0654 30.6649 32.7751C30.5252 32.6183 30.4632 32.3835 30.396 32.175C30.2805 31.8164 29.8538 31.4594 29.4845 31.4391C29.0744 31.4166 28.6681 31.6964 28.5314 32.1C28.4997 32.1937 28.4892 32.295 28.4627 32.391C28.3313 32.8636 27.9567 33.0767 27.4825 32.9536C27.3375 32.9161 27.191 32.8831 27.1117 32.8644L27.1109 32.8636ZM24.9714 32.4518C25.5084 31.7129 26.2228 31.3881 27.083 31.3431C27.1585 31.3393 27.2484 31.2411 27.2982 31.1646C27.8691 30.2921 28.6651 29.8766 29.7201 29.9486C29.8145 29.9553 29.9769 29.8496 30.0071 29.7618C30.2261 29.1159 30.2389 28.449 30.1838 27.7807C26.6563 27.3748 24.7177 30.3184 24.9714 32.451V32.4518ZM23.387 32.4811C23.5132 29.6508 21.0203 27.3336 18.0591 27.8174C18.1392 28.4513 18.2094 29.0904 18.3121 29.725C18.3272 29.8165 18.5085 29.9546 18.6044 29.9478C19.6594 29.8773 20.4546 30.2906 21.0271 31.1616C21.0769 31.2381 21.1653 31.3386 21.24 31.3431C22.1009 31.3873 22.8123 31.7182 23.3863 32.4811H23.387Z" fill="#7488A6"/>
</svg>
