<svg width="45" height="56" viewBox="0 0 45 56" fill="none" xmlns="http://www.w3.org/2000/svg">
<g opacity="0.5" clip-path="url(#clip0_71_526)">
<path d="M13.8601 41.3856C12.043 41.3419 11.2299 42.183 11.249 43.6688C11.2982 47.4851 11.2646 51.3026 11.2646 55.1202C11.2646 55.3577 11.2646 55.5964 11.2646 55.9237C10.7993 55.9237 10.3867 55.9115 9.97532 55.9273C9.62391 55.9406 9.53276 55.7613 9.53516 55.4437C9.54355 54.4948 9.53515 53.5447 9.53755 52.5957C9.54595 49.3236 9.55554 46.0526 9.56394 42.7805C9.56394 42.7235 9.54235 42.6665 9.53036 42.6084C8.05274 42.9247 6.92894 44.3087 6.79941 45.9399C6.55354 49.0594 6.30048 52.1788 6.04981 55.2983C6.03422 55.4971 6.00783 55.6958 5.97665 55.9782C5.42854 55.937 4.90562 55.897 4.31913 55.8521C4.31913 55.6655 4.30834 55.5116 4.32033 55.3589C4.58779 51.9777 4.85045 48.5964 5.1311 45.2152C5.22345 44.0966 5.71759 43.1247 6.56434 42.4387C7.34872 41.8025 8.20986 41.182 9.13937 40.8305C10.6242 40.2694 12.1977 39.9507 13.7269 39.5047C15.165 39.0854 16.597 38.6454 18.023 38.1873C18.4308 38.0564 18.4452 37.2299 18.0494 36.8676C16.621 35.5599 15.7407 33.9372 15.382 32.0369C15.2441 31.3085 15.2165 30.5571 15.1302 29.7403C14.9251 29.7294 14.6936 29.7076 14.4621 29.7076C10.9648 29.7064 7.46506 29.6421 3.96892 29.7294C1.44307 29.7973 -0.0213531 27.977 0.000235389 25.7131C0.0709977 18.4029 0.0242226 11.0914 0.025422 3.77995C0.0266213 1.45551 1.47185 0 3.77223 0C16.2444 0 28.7165 0 41.1899 0C43.5826 0 45.0015 1.42884 45.0015 3.83449C45.0015 11.2271 45.0027 18.6186 44.9979 26.0113C44.9967 27.8255 44.0012 29.2034 42.3677 29.5985C41.8711 29.7185 41.3314 29.6434 40.8205 29.7185C40.3192 29.7924 39.7902 29.8615 39.3405 30.076C37.6626 30.8795 36.0122 31.7424 34.3499 32.581C34.1928 32.661 34.0297 32.7313 33.7598 32.8573C33.7598 31.9617 33.7395 31.1461 33.7682 30.3317C33.7838 29.8809 33.6843 29.6761 33.1794 29.6967C32.2211 29.7367 31.2604 29.7173 30.3021 29.7039C29.9579 29.6991 29.8056 29.7912 29.802 30.1802C29.7744 32.8307 28.8796 35.1066 26.9139 36.9185C26.4557 37.3414 26.6404 38.1073 27.2257 38.2746C29.0104 38.7848 30.8118 39.2381 32.5845 39.7883C34.0837 40.2536 35.6165 40.6899 37.0173 41.3807C38.8307 42.2763 39.849 43.7803 39.951 45.9496C40.0961 49.0533 40.4259 52.1498 40.673 55.2486C40.6874 55.4256 40.6754 55.6049 40.6754 55.8425C40.1417 55.8921 39.6163 55.9418 39.0214 55.9976C38.9147 54.7408 38.8092 53.5386 38.712 52.3364C38.5381 50.1828 38.327 48.0317 38.2155 45.8745C38.1471 44.5583 37.4911 43.6943 36.4572 43.035C36.1754 42.8544 35.8707 42.7102 35.4881 42.5017C35.4881 42.9417 35.4881 43.2895 35.4881 43.6385C35.4881 47.456 35.4881 51.2723 35.4881 55.0899C35.4881 55.6457 35.2191 55.9241 34.681 55.9249C34.4039 55.9249 34.1281 55.9249 33.7622 55.9249V55.1674C33.7622 51.3911 33.7215 47.6136 33.7802 43.8373C33.8066 42.08 32.9671 41.4074 31.2088 41.3577C31.1944 41.6061 31.168 41.857 31.168 42.1079C31.1656 46.4501 31.1656 50.7924 31.1656 55.1347C31.1656 55.6599 30.903 55.9232 30.3777 55.9249C30.2781 55.9249 30.1762 55.9115 30.0778 55.9273C29.5297 56.0158 29.417 55.754 29.4194 55.2413C29.4374 50.6773 29.4194 46.112 29.4445 41.548C29.4481 40.9771 29.2826 40.7142 28.7393 40.5857C28.1193 40.4391 27.5172 40.2112 26.9115 40.0064C26.6153 39.9058 26.4246 39.9361 26.2063 40.2246C24.3665 42.6508 20.6472 42.6229 18.7618 40.2027C18.6515 40.0609 18.3565 39.9446 18.1921 39.9882C17.4401 40.1858 16.7097 40.4681 15.9589 40.6705C15.5308 40.7857 15.6003 41.0886 15.6003 41.3807C15.5979 45.5618 15.6003 49.7417 15.6003 53.9228C15.6003 54.4475 15.5883 54.9735 15.6003 55.4983C15.6075 55.8109 15.4792 55.9103 15.1769 55.9309C13.8624 56.0218 13.8636 56.0303 13.8636 54.6984C13.8636 50.4773 13.8636 46.2562 13.8636 42.0351C13.8636 41.8182 13.8636 41.6001 13.8636 41.3856H13.8601ZM35.4857 30.0421C36.2893 29.6373 36.9717 29.3173 37.6338 28.9574C38.766 28.3405 39.8874 27.8425 41.2535 27.9552C42.5919 28.0654 43.2636 27.2935 43.2648 25.9107C43.2696 18.5398 43.2696 11.169 43.2648 3.79813C43.2648 2.40807 42.6183 1.76939 41.2367 1.76939C28.7465 1.76818 16.2564 1.76818 3.76503 1.76939C2.41815 1.76939 1.7621 2.41292 1.7609 3.75935C1.7561 11.1508 1.7561 18.541 1.7609 25.9325C1.7609 27.3044 2.43254 27.9794 3.79381 27.9806C7.51063 27.9867 11.2287 27.9746 14.9455 27.9927C15.3748 27.9952 15.4864 27.8049 15.6483 27.4498C16.0885 26.4851 16.4843 25.4574 17.1259 24.6369C18.9106 22.3573 21.2673 21.3454 24.1242 22.0883C26.8815 22.8045 28.4899 24.7896 29.363 27.4365C29.5021 27.8582 29.6808 28.0012 30.1174 27.9939C31.7353 27.9685 33.3545 27.9939 34.9736 27.9782C35.3658 27.9746 35.5109 28.1079 35.4905 28.5017C35.4665 28.9623 35.4845 29.4252 35.4845 30.0445L35.4857 30.0421ZM28.0641 30.751C28.0641 28.6326 27.6191 27.1735 26.6872 25.8731C24.8246 23.2735 21.5336 22.8542 19.1936 24.9133C16.14 27.6001 16.2084 33.0622 19.3255 35.6678C21.2181 37.2493 23.7644 37.276 25.6534 35.6872C27.3289 34.2777 28.0257 32.3992 28.0629 30.7523L28.0641 30.751ZM20.1063 38.1449C19.9 39.0078 20.2922 39.478 20.8907 39.8198C22.0385 40.4754 23.1779 40.4366 24.2861 39.7131C24.8186 39.3653 25.0969 38.8975 24.887 38.1667C23.3026 38.7448 21.7207 38.7715 20.1075 38.1449H20.1063Z" fill="#7488A6"/>
<path d="M19.9374 46.3216C19.9374 45.5508 19.9182 44.8685 19.9506 44.1874C19.9578 44.025 20.1341 43.7341 20.2373 43.7317C21.83 43.7026 23.4228 43.7111 25.1091 43.7111C25.1091 44.4298 25.1318 45.0891 25.1007 45.7471C25.0791 46.2004 25.2374 46.3579 25.6835 46.3288C26.2005 46.2949 26.721 46.3325 27.2403 46.3179C27.5581 46.3095 27.7201 46.4052 27.7177 46.7591C27.7081 48.2109 27.7093 49.664 27.7177 51.1159C27.7189 51.4637 27.551 51.5728 27.2355 51.5679C26.697 51.5583 26.1573 51.5825 25.6188 51.5607C25.223 51.5449 25.0971 51.7122 25.1031 52.0963C25.1199 53.1652 25.0923 54.2354 25.1151 55.3031C25.1246 55.7539 25.0179 55.949 24.5202 55.9369C23.1637 55.9042 21.8048 55.9139 20.4483 55.932C20.0609 55.9369 19.9242 55.8121 19.9314 55.4146C19.9518 54.3057 19.9254 53.1955 19.9446 52.0866C19.9518 51.6928 19.8151 51.5425 19.4253 51.5595C18.9072 51.5813 18.3866 51.551 17.8685 51.5679C17.4991 51.5801 17.3204 51.4625 17.324 51.0541C17.3384 49.6422 17.3396 48.2303 17.3204 46.8185C17.3156 46.4052 17.4871 46.3022 17.8589 46.3143C18.515 46.3361 19.171 46.3204 19.9374 46.3204V46.3216ZM21.6513 49.8192C21.6513 50.9293 21.6369 51.9558 21.6549 52.981C21.6789 54.382 21.3874 54.1627 22.9154 54.199C23.2896 54.2075 23.4 54.0584 23.3928 53.7021C23.376 52.895 23.388 52.0866 23.388 51.2783C23.388 50.8032 23.388 50.3282 23.388 49.7925H25.9426C25.9558 49.5731 25.9762 49.4156 25.9738 49.2568C25.9558 47.874 26.1585 48.0825 24.8032 48.0716C23.3868 48.0607 23.4 48.0692 23.382 46.6488C23.364 45.2527 23.6674 45.4708 22.1238 45.4357C21.7472 45.4272 21.6357 45.5811 21.6477 45.9362C21.6657 46.4609 21.6309 46.9869 21.6585 47.5105C21.6801 47.9237 21.5494 48.0982 21.1188 48.0752C20.5803 48.0461 20.0382 48.0486 19.5008 48.0837C19.3497 48.0934 19.0955 48.2509 19.0847 48.3612C19.0379 48.8314 19.0643 49.3102 19.0643 49.8204H21.6513V49.8192Z" fill="#7488A6"/>
<path d="M32.8533 6.11892V7.86408C32.6254 7.86408 32.4323 7.86408 32.2392 7.86408C26.0469 7.86408 19.8558 7.85802 13.6635 7.87741C13.1178 7.87862 12.9835 7.7041 13.0039 7.18662C13.0507 5.97955 12.8672 6.12134 14.0629 6.12134C20.0549 6.1165 26.0469 6.11892 32.0401 6.11892H32.8545H32.8533Z" fill="#7488A6"/>
<path d="M32.8854 14.8119C32.6156 14.8276 32.4213 14.8482 32.227 14.8482C26.0527 14.8494 19.8783 14.8519 13.7028 14.841C13.4786 14.841 13.0684 14.7246 13.06 14.6325C13.0156 14.1623 13.06 13.68 13.1211 13.2085C13.1271 13.1576 13.4462 13.1237 13.6189 13.1237C19.8532 13.1188 26.0874 13.1237 32.3229 13.1104C32.7811 13.1104 32.9274 13.2655 32.8902 13.7066C32.8614 14.0459 32.8842 14.3901 32.8842 14.8119H32.8854Z" fill="#7488A6"/>
<path d="M20.8324 16.6165C23.2096 16.6165 25.5855 16.6274 27.9626 16.6068C28.4328 16.6031 28.5923 16.7401 28.5755 17.2212C28.5299 18.5604 28.7134 18.3386 27.4589 18.341C22.9049 18.3519 18.3509 18.3446 13.7982 18.3434C13.2736 18.3434 13.0114 18.0817 13.0114 17.5581C13.0114 17.4369 13.0258 17.3145 13.0114 17.1957C12.9538 16.7473 13.1337 16.6031 13.5835 16.6068C16.0002 16.6262 18.4169 16.6165 20.8336 16.6165H20.8324Z" fill="#7488A6"/>
<path d="M26.8192 9.6626V11.3132H19.9912V9.6626H26.8192Z" fill="#7488A6"/>
<path d="M18.1868 11.3495C16.5041 11.3495 14.9101 11.3544 13.3162 11.3362C13.2154 11.3362 13.0427 11.158 13.0307 11.049C12.9936 10.689 12.9828 10.3194 13.0331 9.96308C13.0511 9.83219 13.2694 9.63465 13.3989 9.63223C14.8765 9.6092 16.3554 9.60799 17.833 9.63223C17.9529 9.63465 18.1556 9.85158 18.17 9.98489C18.2144 10.4018 18.1856 10.8272 18.1856 11.3483L18.1868 11.3495Z" fill="#7488A6"/>
<path d="M32.8832 9.61415C32.8832 10.1389 32.9108 10.5813 32.8664 11.0151C32.8532 11.1387 32.6337 11.3363 32.5054 11.3387C31.33 11.3642 30.1534 11.3678 28.9781 11.3351C28.8365 11.3314 28.5859 11.066 28.5847 10.9194C28.5715 9.33662 28.4048 9.64202 29.7397 9.61779C30.7531 9.59961 31.7666 9.61415 32.8844 9.61415H32.8832Z" fill="#7488A6"/>
<path d="M33.7608 19.7094V19.77C33.7608 21.0898 33.7608 21.1019 32.4499 20.9564C32.2952 20.9395 32.0565 20.6971 32.0445 20.5444C31.9977 19.9457 32.0013 19.3385 32.0445 18.7386C32.0541 18.5993 32.2808 18.3787 32.4259 18.3617C33.7596 18.203 33.7608 18.2139 33.7608 19.7094Z" fill="#7488A6"/>
<path d="M37.2146 19.6755C37.2146 19.7761 37.2146 19.8779 37.2146 19.9784C37.2014 21.1019 37.3441 20.9395 36.2215 20.9892C35.6542 21.0134 35.4 20.8486 35.4803 20.2511C35.5127 20.0136 35.4851 19.7676 35.4839 19.5252C35.4815 18.2999 35.7022 18.1085 36.9052 18.3642C37.0299 18.3908 37.175 18.6175 37.1978 18.769C37.2446 19.0647 37.211 19.3725 37.211 19.6755H37.2134H37.2146Z" fill="#7488A6"/>
<path d="M7.75505 6.8983C7.68189 6.93951 7.6663 6.95526 7.64711 6.95769C6.59967 7.07484 6.07635 6.60704 6.07715 5.5543C6.07715 5.19436 6.07715 4.83563 6.07715 4.42358H7.75505V6.8983Z" fill="#7488A6"/>
<path d="M11.2391 4.37144V6.98068C10.7641 6.98068 10.3096 7.00856 9.8622 6.9625C9.74346 6.95038 9.56356 6.71649 9.55636 6.5759C9.52278 5.9748 9.51918 5.36884 9.55996 4.76773C9.56955 4.62836 9.78424 4.40658 9.92456 4.38962C10.3335 4.33872 10.7533 4.37144 11.2391 4.37144Z" fill="#7488A6"/>
</g>
<defs>
<clipPath id="clip0_71_526">
<rect width="45" height="56" fill="white"/>
</clipPath>
</defs>
</svg>
