<svg width="47" height="46" viewBox="0 0 47 46" fill="none" xmlns="http://www.w3.org/2000/svg">
<g opacity="0.5">
<path d="M38.3564 35.9766C40.5261 36.6279 41.3968 38.1289 41.2469 40.287C43.3653 40.9275 44.2664 42.3718 44.1426 44.5608C44.6239 44.5608 45.0885 44.5543 45.5524 44.563C45.9642 44.5701 46.2689 44.8318 46.3116 45.192C46.3565 45.5744 46.0793 45.9389 45.6943 45.9892C45.564 46.0065 45.4294 45.9978 45.297 45.9978C30.5582 45.9978 15.8201 45.9978 1.08134 45.9978C0.996668 45.9978 0.912715 45.9986 0.828039 45.9978C0.330836 45.9914 0.00588514 45.7132 9.52959e-05 45.2897C-0.00641828 44.8512 0.32143 44.5665 0.843963 44.5608C1.24202 44.5572 1.64007 44.5579 2.03812 44.5558C2.06128 44.5558 2.08444 44.5457 2.16405 44.5284C2.03812 42.4207 2.91166 40.9426 5.03364 40.3014C5.06331 39.8435 5.04956 39.3733 5.13207 38.9204C5.39189 37.4985 6.2401 36.5538 7.61808 36.1088C7.91626 36.0125 7.96475 35.8774 7.96475 35.6056C7.95824 27.3751 7.95824 19.1446 7.96113 10.914C7.96113 9.35332 8.64795 8.18657 10.0788 7.52519C10.5239 7.31959 11.0464 7.24339 11.5421 7.19163C12.0792 7.13555 12.6263 7.17797 13.1691 7.17797C14.233 7.17797 14.7338 6.83434 15.074 5.82287C15.4698 4.64605 16.0879 3.60798 16.9282 2.68924C20.1907 -0.877158 26.0529 -0.900163 29.3459 2.64323C30.1927 3.55406 30.8245 4.58638 31.2204 5.76392C31.5866 6.85375 32.057 7.17078 33.2287 7.17941C33.9271 7.18444 34.6371 7.13699 35.321 7.24482C37.1354 7.53238 38.3499 8.98669 38.3535 10.8141C38.3622 14.9233 38.3564 19.0324 38.3564 23.1416C38.3564 27.2989 38.3564 31.4562 38.3564 35.6128C38.3564 35.7314 38.3564 35.8508 38.3564 35.9744V35.9766ZM13.3204 35.9155C13.1438 35.1729 13.2357 34.5172 13.6156 33.9019C13.6605 33.8293 13.6258 33.6725 13.5773 33.5827C12.6343 31.8509 13.7336 29.9954 15.7217 29.9717C16.0445 29.9681 16.3803 29.5576 16.2652 29.2614C15.8389 28.1659 15.9185 27.0236 15.9251 25.8884C15.9272 25.4377 16.2232 25.1616 16.6864 25.1537C17.193 25.1451 17.6996 25.1358 18.2055 25.1566C20.2378 25.24 21.8264 26.1199 22.9626 27.7999C23.0198 27.8841 23.0842 27.9631 23.1609 28.0659C23.221 27.989 23.2608 27.9466 23.2912 27.8977C23.8709 26.9689 24.6576 26.2716 25.6317 25.7626C26.9431 25.0768 28.3544 25.1178 29.7657 25.1674C30.1116 25.1796 30.3686 25.4291 30.378 25.7748C30.4084 26.8977 30.4807 28.0278 30.1008 29.1205C29.935 29.5957 30.2021 29.9667 30.6964 29.9717C32.2821 29.9868 33.4596 31.4454 32.9762 32.9429C32.7779 33.5582 32.7359 34.0392 32.9863 34.6322C33.1412 35.001 33.0565 35.469 33.0796 35.9061H33.993V11.4884C33.5414 11.4884 33.11 11.497 32.6794 11.4863C31.8862 11.4661 31.1263 11.2864 30.4091 10.9528C28.7387 10.1764 27.6958 8.87813 27.1262 7.14562C26.3309 4.728 23.5821 3.6166 21.2988 4.75963C20.1545 5.33258 19.4851 6.28511 19.1022 7.48205C18.702 8.73364 17.9189 9.71851 16.8297 10.4611C15.8266 11.1448 14.7114 11.4783 13.4977 11.4913C13.1054 11.4956 12.7131 11.4913 12.3245 11.4913V35.9162H13.3211L13.3204 35.9155ZM36.8901 35.9212C36.8973 35.8083 36.9075 35.7271 36.9075 35.6452C36.9075 27.3665 36.9104 19.0878 36.9053 10.8083C36.9053 9.55604 35.9652 8.63084 34.7088 8.61718C34.0813 8.61071 33.4538 8.62365 32.8271 8.61215C31.9933 8.59633 31.2848 8.28074 30.6855 7.70491C30.1883 7.22685 29.9828 6.60286 29.7599 5.9803C28.3421 2.02715 23.4555 0.222738 19.7789 2.28379C18.0789 3.23631 16.9694 4.64533 16.3673 6.48137C15.9309 7.81202 14.7939 8.6028 13.3826 8.6143C12.8398 8.61861 12.297 8.6143 11.7542 8.61574C10.3082 8.61862 9.40714 9.51147 9.40642 10.9485C9.4057 19.1438 9.40642 27.3384 9.40642 35.5337C9.40642 35.6595 9.40642 35.7853 9.40642 35.9097H10.8532C10.8532 34.8458 10.8532 33.8062 10.8532 32.766C10.8532 25.5053 10.8532 18.2452 10.8532 10.9845C10.8532 10.2979 11.0985 10.055 11.7882 10.0535C12.3795 10.0521 12.9701 10.06 13.5614 10.0492C14.6115 10.0298 15.5415 9.67897 16.3542 9.01975C17.1511 8.37419 17.5715 7.50722 17.9081 6.5626C18.8627 3.88187 21.6838 2.35711 24.4615 3.02999C26.569 3.5404 27.9086 4.88903 28.5875 6.92276C29.0991 8.45543 30.1377 9.51219 31.7219 9.87092C32.5998 10.07 33.5385 10.019 34.4511 10.0485C35.2436 10.0744 35.4607 10.267 35.4607 11.0535C35.4607 19.1884 35.4607 27.324 35.4607 35.459C35.4607 35.6092 35.4607 35.7595 35.4607 35.9212H36.8901ZM42.6662 44.5428C42.9463 42.5997 41.6486 41.6522 40.1614 41.6644C34.1826 41.7133 28.2039 41.6845 22.2244 41.6845C16.8102 41.6845 11.3952 41.6845 5.981 41.6845C4.34682 41.6845 3.33649 42.9246 3.66579 44.5421H42.6662V44.5428ZM20.7618 34.2843C20.2674 34.2886 19.9287 34.533 19.797 34.9148C19.661 35.3094 19.7825 35.6919 20.1314 35.9672C20.7314 36.441 20.7357 36.8608 20.1466 37.3245C19.9403 37.4869 19.7268 38.2324 19.8216 38.4625C20.0069 38.9139 20.5417 39.131 21.0332 38.9542C21.7866 38.6832 22.0384 38.8147 22.2541 39.5926C22.3757 40.0311 22.6724 40.2453 23.1573 40.246C23.6473 40.246 23.9353 40.0383 24.0598 39.5933C24.2784 38.8133 24.5295 38.6825 25.2807 38.9542C25.7352 39.1188 26.2107 38.9556 26.4409 38.5566C26.5986 38.2828 26.4524 37.5603 26.1962 37.346C25.5688 36.822 25.5724 36.4712 26.2122 35.9449C26.5849 35.6387 26.6768 35.1621 26.443 34.7501C26.2158 34.3497 25.7389 34.1837 25.2858 34.3469C24.5302 34.6193 24.2769 34.4885 24.0605 33.7157C23.9469 33.3095 23.6154 33.0579 23.1928 33.0572C22.6492 33.0557 22.3655 33.2822 22.2324 33.8235C22.084 34.4259 21.6983 34.6215 21.1251 34.3936C20.9818 34.3368 20.8298 34.303 20.7625 34.2836L20.7618 34.2843ZM39.8024 40.2288C39.8024 40.0304 39.8024 39.8751 39.8024 39.7198C39.798 38.2547 38.91 37.3726 37.4351 37.3712C36.0484 37.3698 34.661 37.364 33.2743 37.3741C32.5441 37.3791 31.8052 37.2885 31.0916 37.5466C30.9504 37.5977 30.7782 37.5977 30.6255 37.5768C30.4004 37.5466 30.2766 37.6379 30.1536 37.8133C29.8171 38.2935 29.3582 38.671 28.7756 38.717C28.1583 38.7658 27.7269 38.965 27.5062 39.5516C27.4867 39.6041 27.436 39.6494 27.3911 39.6889C27.1935 39.8643 26.9938 40.0361 26.7716 40.2281H39.8017L39.8024 40.2288ZM6.53248 40.223H19.4178C19.1276 39.8542 18.7954 39.4704 18.5117 39.0534C18.4031 38.8931 18.3221 38.8205 18.1259 38.8241C17.2618 38.8413 16.5967 38.4668 16.1017 37.7731C16.0488 37.699 15.9772 37.5984 15.9019 37.5862C15.4069 37.5035 14.9097 37.3877 14.4117 37.3813C12.4946 37.3583 10.5767 37.3698 8.6588 37.3741C8.06318 37.3755 7.55874 37.6041 7.1368 38.0204C6.52018 38.6285 6.45288 39.3877 6.53104 40.2238L6.53248 40.223ZM18.1751 37.3935C18.2193 37.3655 18.4067 37.3137 18.4458 37.208C18.5385 36.9557 18.8482 36.7796 18.6325 36.4072C17.6975 34.7962 18.8301 32.8465 20.6923 32.8588C21.0172 32.8609 21.1815 32.7143 21.2568 32.4828C21.3089 32.3203 21.2662 32.0867 21.1808 31.93C20.9789 31.5597 20.5584 31.4267 20.114 31.5367C19.4301 31.7064 19.1826 31.5561 19.0009 30.8638C18.8844 30.4203 18.5196 30.1255 18.0919 30.1291C17.7141 30.132 17.2799 30.4879 17.1815 30.8753C17.0005 31.5878 16.6835 31.7517 15.9989 31.4886C15.4061 31.2607 14.8054 31.5727 14.6969 32.1765C14.6267 32.5662 14.7758 32.8753 15.0928 33.1147C15.6645 33.5467 15.6595 34.0054 15.0834 34.4482C15.074 34.4554 15.0638 34.4626 15.0544 34.4698C14.7548 34.707 14.6274 35.0161 14.6991 35.3899C14.7664 35.7422 14.9466 35.9787 15.3569 35.9579C15.4322 35.9543 15.5089 36.0355 15.5892 36.047C15.7239 36.0664 15.8758 36.1009 15.996 36.0592C16.6958 35.8163 16.9817 35.9586 17.1858 36.6782C17.3103 37.1182 17.6403 37.3842 18.1766 37.3935H18.1751ZM25.9813 31.4943C25.5225 31.4972 25.1924 31.72 25.0412 32.0831C24.8921 32.4425 25.1591 32.8444 25.55 32.8472C27.4975 32.8587 28.6128 34.7458 27.6748 36.441C27.4881 36.7788 27.8406 37.3698 28.2299 37.3698C28.6714 37.3698 29.0058 37.0887 29.1462 36.6006C29.3206 35.9924 29.6774 35.822 30.2629 36.0305C30.4113 36.083 30.598 36.0427 30.7652 36.0255C30.8824 36.0132 31.0054 35.9852 31.1082 35.9313C31.2558 35.8544 31.4368 35.7782 31.5171 35.648C31.761 35.2548 31.6358 34.766 31.2558 34.4655C30.6414 33.9795 30.6414 33.5769 31.2566 33.0874C31.6177 32.7998 31.7335 32.3678 31.5576 31.9637C31.347 31.4806 30.8122 31.2801 30.2817 31.5101C29.9524 31.6532 29.6347 31.6877 29.3872 31.4095C29.2533 31.2592 29.1939 31.0342 29.1295 30.8344C29.0188 30.4907 28.6099 30.1486 28.256 30.1291C27.863 30.1076 27.4736 30.3757 27.3426 30.7625C27.3122 30.8523 27.3021 30.9494 27.2768 31.0414C27.1509 31.4943 26.7919 31.6985 26.3374 31.5806C26.1984 31.5446 26.058 31.513 25.982 31.495L25.9813 31.4943ZM23.931 31.0996C24.4455 30.3915 25.1302 30.0803 25.9545 30.0371C26.0269 30.0335 26.113 29.9394 26.1608 29.866C26.7079 29.03 27.4707 28.6317 28.4818 28.7007C28.5723 28.7072 28.7279 28.6058 28.7568 28.5217C28.9667 27.9028 28.979 27.2637 28.9262 26.6231C25.5456 26.2342 23.6878 29.0551 23.931 31.0989V31.0996ZM22.4126 31.1277C22.5334 28.4153 20.1444 26.1947 17.3067 26.6584C17.3834 27.2658 17.4507 27.8783 17.5491 28.4865C17.5636 28.5742 17.7373 28.7065 17.8292 28.7C18.8402 28.6324 19.6023 29.0285 20.1509 29.8632C20.1987 29.9365 20.2834 30.0328 20.355 30.0371C21.1801 30.0795 21.8618 30.3966 22.4119 31.1277H22.4126Z" fill="#7488A6"/>
<path d="M23.1681 8.6172C25.1562 8.62151 26.7752 10.2349 26.7745 12.212C26.7737 14.2021 25.1359 15.8161 23.1283 15.8039C21.1446 15.7917 19.5321 14.1676 19.5401 12.1904C19.548 10.2176 21.1771 8.61288 23.1674 8.6172H23.1681ZM25.327 12.2242C25.3335 11.0401 24.3688 10.0652 23.1804 10.0551C21.9892 10.0458 20.9998 11.0034 20.9875 12.1782C20.9752 13.3803 21.9501 14.3645 23.1522 14.3653C24.3435 14.366 25.3205 13.404 25.327 12.2235V12.2242Z" fill="#7488A6"/>
<path d="M23.1623 17.9613C25.476 17.9613 27.7898 17.9613 30.1028 17.9613C30.223 17.9613 30.3446 17.9549 30.464 17.9685C30.8331 18.0102 31.1081 18.31 31.1139 18.6681C31.1204 19.0398 30.8382 19.3533 30.4524 19.3935C30.3453 19.405 30.236 19.3993 30.1274 19.3993C25.4883 19.3993 20.8485 19.3993 16.2094 19.3993C16.0893 19.3993 15.9677 19.4057 15.8483 19.3921C15.4784 19.3504 15.2041 19.0506 15.1984 18.6925C15.1918 18.3208 15.4741 18.0066 15.8598 17.9671C15.9908 17.9534 16.1247 17.9606 16.2572 17.9606C18.5586 17.9606 20.8601 17.9606 23.1623 17.9606V17.9613Z" fill="#7488A6"/>
<path d="M23.1544 21.556C25.4797 21.556 27.8058 21.556 30.1311 21.556C30.2513 21.556 30.3736 21.5496 30.4923 21.5661C30.8563 21.6171 31.1226 21.932 31.1147 22.2894C31.1074 22.6323 30.8469 22.93 30.4973 22.9824C30.391 22.9983 30.2809 22.9932 30.1724 22.9932C25.4971 22.9932 20.8211 22.9932 16.1458 22.9932C16.0372 22.9932 15.9272 22.999 15.8208 22.9832C15.4561 22.93 15.1905 22.6165 15.1984 22.2592C15.2057 21.9162 15.4662 21.6171 15.8158 21.5668C15.946 21.5481 16.0799 21.5553 16.2124 21.5553C18.5261 21.5553 20.8399 21.5553 23.1529 21.5553L23.1544 21.556Z" fill="#7488A6"/>
</g>
</svg>
