<svg width="50" height="53" viewBox="0 0 50 53" fill="none" xmlns="http://www.w3.org/2000/svg">
<g opacity="0.5" clip-path="url(#clip0_71_508)">
<path d="M49.8773 21.5822C49.8214 25.1767 48.9915 28.61 47.7094 31.9378C45.581 37.4645 42.6699 42.5144 38.6281 46.8419C36.4891 49.1328 34.0744 51.0493 31.1401 52.2152C29.1264 53.0156 27.051 53.1622 24.9342 52.8427C24.4975 52.7772 24.0609 52.6091 23.6637 52.4068C22.7171 51.9259 21.7763 51.4275 20.8663 50.8802C19.5804 50.1062 19.1389 48.6763 19.8388 47.3306C21.2905 44.5374 22.7778 41.7628 24.3038 39.0107C25.0595 37.6473 26.5411 37.2867 27.9369 38.0373C29.298 38.7693 30.6523 39.5159 31.9922 40.288C32.3749 40.5089 32.588 40.463 32.8723 40.1277C36.3965 35.9653 38.9172 31.2547 40.4567 25.9977C40.5733 25.5989 40.4885 25.3976 40.1145 25.2002C38.7755 24.4946 37.4559 23.7528 36.1343 23.0139C34.5862 22.148 34.1602 20.6615 35.0007 19.0792C36.3878 16.4727 37.7759 13.8662 39.1708 11.2636C40.0383 9.64519 41.4775 9.1966 43.0709 10.0713C44.1139 10.644 45.2407 11.1327 46.1353 11.895C47.8222 13.3326 48.8893 15.2452 49.3761 17.4246C49.6797 18.7812 49.7983 20.1807 49.9998 21.5607L49.8773 21.5802V21.5822ZM47.9494 21.5841C47.9311 19.5659 47.7017 17.6279 46.7503 15.8687C46.143 14.7458 45.5049 13.616 44.3221 12.973C43.6011 12.5811 42.882 12.1843 42.16 11.7924C41.516 11.4425 41.2249 11.5285 40.8741 12.1833C39.4889 14.7732 38.1066 17.364 36.7262 19.9559C36.3493 20.6635 36.437 20.9528 37.1204 21.33C38.7553 22.233 40.3911 23.1351 42.0221 24.045C42.6092 24.3724 42.7538 24.7272 42.5889 25.3839C40.9878 31.7394 37.9918 37.3297 33.6261 42.1664C32.9976 42.8623 32.7104 42.9014 31.9064 42.4567C30.3005 41.5673 28.6955 40.676 27.0857 39.7945C26.4948 39.471 26.1825 39.5668 25.8625 40.161C24.4474 42.79 23.0352 45.4199 21.6279 48.0528C21.3097 48.648 21.4071 48.9617 21.9951 49.2911C22.7393 49.7084 23.4815 50.1325 24.2411 50.5196C24.5949 50.6994 24.9785 50.8665 25.3651 50.9252C27.2467 51.2096 29.0724 51.0004 30.8345 50.2322C33.0998 49.2442 35.02 47.7616 36.7378 46.0024C40.8596 41.7804 43.7611 36.7677 45.8933 31.2752C47.106 28.1507 47.8964 24.9236 47.9485 21.5851L47.9494 21.5841Z" fill="#7488A6"/>
<path d="M15.9032 1.19038C20.2072 1.19038 24.5122 1.19038 28.8163 1.19038C30.6738 1.19038 31.8093 2.34557 31.8093 4.23864C31.8103 11.9243 31.8093 19.6099 31.8142 27.2965C31.8142 27.8057 31.7235 28.2406 31.2194 28.4674C30.7046 28.699 30.3297 28.4478 29.9807 28.0891C29.304 27.3933 28.6081 26.717 27.9449 26.0084C27.6807 25.726 27.4108 25.6146 27.0233 25.6155C19.0409 25.6273 11.0584 25.6243 3.07692 25.6243C1.11529 25.6234 0 24.4965 0 22.5126C0 16.4229 0 10.3322 0 4.24254C0 2.3485 1.13457 1.19135 2.99113 1.19038C7.29516 1.1894 11.6002 1.19038 15.9042 1.19038H15.9032ZM29.7417 25.1533L29.8814 25.0643C29.8814 24.908 29.8814 24.7506 29.8814 24.5942C29.8814 17.8195 29.8814 11.0457 29.8814 4.27089C29.8814 3.40498 29.6212 3.14502 28.7555 3.14502C20.2111 3.14502 11.6657 3.14502 3.12126 3.14502C2.15732 3.14502 1.9279 3.37566 1.9279 4.34712C1.9279 10.3889 1.9279 16.4297 1.9279 22.4715C1.9279 23.4322 2.16406 23.6677 3.12994 23.6677C11.3052 23.6677 19.4804 23.6707 27.6557 23.6609C28.1434 23.6609 28.53 23.7928 28.849 24.1633C29.1392 24.4995 29.4438 24.8229 29.7417 25.1523V25.1533Z" fill="#7488A6"/>
<path d="M19.277 34.429C19.2722 36.0308 17.9699 37.3482 16.39 37.3492C14.7975 37.3492 13.4866 36.0054 13.4981 34.383C13.5097 32.7851 14.8236 31.4794 16.4093 31.4892C17.9834 31.499 19.2818 32.8301 19.278 34.429H19.277ZM17.3481 34.4035C17.3404 33.8846 16.9076 33.4507 16.3958 33.4458C15.8617 33.4409 15.4193 33.8924 15.428 34.4338C15.4357 34.9528 15.8665 35.3887 16.3784 35.3936C16.9057 35.3984 17.3568 34.9391 17.3491 34.4035H17.3481Z" fill="#7488A6"/>
<path d="M37.6425 3.63364C37.3128 4.03727 37.1296 4.3119 36.8983 4.53277C36.4684 4.94324 35.8958 4.92467 35.5208 4.52397C35.167 4.14575 35.167 3.57304 35.5565 3.16257C35.7772 2.93094 36.0481 2.74721 36.3382 2.50777C36.0201 2.17254 35.7994 1.94581 35.5854 1.71223C35.168 1.25777 35.1564 0.660633 35.5516 0.274592C35.9401 -0.104607 36.5031 -0.0987435 36.9311 0.331277C37.1557 0.557037 37.3186 0.846324 37.5085 1.10727L37.7552 1.07013C37.9557 0.816027 38.1331 0.537491 38.3625 0.313685C38.7934 -0.105585 39.3612 -0.0977662 39.74 0.293161C40.1169 0.681157 40.1121 1.25387 39.7024 1.69073C39.4836 1.92431 39.2291 2.1227 38.8493 2.46476C39.1992 2.73939 39.4778 2.91238 39.6995 3.14205C40.115 3.57207 40.116 4.15357 39.742 4.53766C39.3612 4.92858 38.7944 4.9364 38.3625 4.52006C38.1321 4.29821 37.9529 4.02065 37.6405 3.63266L37.6425 3.63364Z" fill="#7488A6"/>
<path d="M6.18301 43.7086C6.18012 44.2139 5.79551 44.5989 5.29618 44.597C4.79686 44.5941 4.41802 44.2051 4.42091 43.6969C4.42381 43.1877 4.8036 42.8075 5.30678 42.8104C5.809 42.8134 6.18591 43.2004 6.18301 43.7086Z" fill="#7488A6"/>
<path d="M18.3147 13.8955C18.3147 14.219 18.3147 14.476 18.3147 14.734C18.3147 16.672 18.3166 18.61 18.3128 20.5471C18.3108 21.3505 17.9561 21.7081 17.1647 21.713C16.3135 21.7179 15.4624 21.7189 14.6112 21.713C13.8564 21.7072 13.4978 21.3397 13.4959 20.5637C13.4911 18.5446 13.494 16.5254 13.494 14.5063C13.494 14.3284 13.494 14.1515 13.494 13.8964C12.7672 13.8964 12.0683 13.8964 11.3685 13.8964C9.78086 13.8955 9.63916 13.7518 9.63916 12.1451C9.63916 11.4776 9.6353 10.8101 9.64012 10.1426C9.64687 9.37732 10.0083 9.01571 10.7728 9.01082C11.6548 9.00593 12.5358 9.00984 13.494 9.00984C13.494 8.25535 13.494 7.53018 13.494 6.80501C13.4959 5.26183 13.653 5.10252 15.1732 5.10057C15.8479 5.10057 16.5227 5.09568 17.1965 5.10252C17.9532 5.10936 18.3079 5.4739 18.3118 6.25087C18.3166 7.14512 18.3128 8.03839 18.3128 9.00984C18.7523 9.00984 19.162 9.00984 19.5726 9.00984C20.1028 9.00984 20.633 8.99909 21.1622 9.01375C21.7724 9.02939 22.1541 9.40957 22.1637 10.0292C22.1782 10.9733 22.1772 11.9183 22.1647 12.8624C22.156 13.5055 21.7714 13.8867 21.1304 13.8945C20.2166 13.9052 19.3027 13.8974 18.3128 13.8974L18.3147 13.8955ZM16.3868 19.7437C16.3868 19.5385 16.3868 19.3802 16.3868 19.2209C16.3868 17.6093 16.4041 15.9987 16.3829 14.388C16.3502 11.9232 16.3569 11.8929 18.7774 11.9398C19.2526 11.9486 19.7288 11.9408 20.2175 11.9408V10.9635C19.3317 10.9635 18.4689 10.9655 17.6072 10.9635C16.7203 10.9615 16.3897 10.6254 16.3878 9.72426C16.3858 8.85054 16.3878 7.97682 16.3878 7.09528H15.4238C15.4238 8.04425 15.4296 8.95414 15.4219 9.86304C15.4161 10.5726 15.045 10.9498 14.3548 10.9625C13.9538 10.9703 13.5518 10.9635 13.1508 10.9635C12.6293 10.9635 12.1078 10.9635 11.6027 10.9635V11.9408C12.5021 11.9408 13.3658 11.9389 14.2304 11.9408C15.0826 11.9438 15.4209 12.2887 15.4219 13.1595C15.4238 15.1777 15.4219 17.1959 15.4219 19.2131C15.4219 19.3851 15.4219 19.5561 15.4219 19.7428H16.3858L16.3868 19.7437Z" fill="#7488A6"/>
</g>
<defs>
<clipPath id="clip0_71_508">
<rect width="50" height="53" fill="white"/>
</clipPath>
</defs>
</svg>
