<svg width="52" height="54" viewBox="0 0 52 54" fill="none" xmlns="http://www.w3.org/2000/svg">
<g opacity="0.5" clip-path="url(#clip0_71_539)">
<path d="M41.4411 7.90504C40.8451 7.33732 40.4117 6.94217 39.9987 6.52545C39.5349 6.05774 39.5143 5.44786 39.9273 5.04879C40.3304 4.65952 40.9058 4.6811 41.3648 5.13213C41.7934 5.55278 42.2004 5.99499 42.6594 6.47152C42.904 6.19501 43.0938 5.98028 43.3267 5.7175C42.9295 5.31451 42.5185 4.90269 42.1124 4.48695C41.6211 3.98395 41.5771 3.38387 41.9959 2.97598C42.4245 2.55926 42.9901 2.60926 43.5078 3.11619C43.8454 3.44761 44.1879 3.77608 44.5079 4.12416C44.6977 4.33105 44.8454 4.33595 45.092 4.1977C47.3055 2.96323 49.8742 4.2379 50.2216 6.73626C50.3214 7.45498 50.2001 8.15213 49.8214 8.76397C49.5983 9.1248 49.6628 9.33267 49.9544 9.58662C50.2979 9.88666 50.614 10.2191 50.9252 10.5544C51.3636 11.026 51.3714 11.5977 50.9663 11.9967C50.569 12.388 49.9809 12.3674 49.5307 11.9173C49.106 11.4927 48.7068 11.0417 48.2625 10.5652C47.9925 10.8603 47.7997 11.0721 47.5668 11.3261C48.0111 11.7791 48.4739 12.2301 48.9133 12.7047C49.2352 13.0527 49.2871 13.4646 49.0434 13.8793C48.8213 14.2588 48.4602 14.4186 48.0424 14.3206C47.8193 14.2686 47.5952 14.1235 47.4259 13.9617C47.0031 13.5587 46.6107 13.1233 46.1371 12.6282C45.6214 13.1655 45.1547 13.6381 44.7026 14.1245C40.1122 19.0623 35.5287 24.0061 30.9285 28.9342C30.6047 29.2813 30.5929 29.5205 30.815 29.9353C32.9943 33.9946 32.2496 39.0619 29.0194 42.3467C28.4646 42.9105 28.0046 42.9301 27.3979 42.4163C26.1229 41.3367 24.5347 41.3671 23.3301 42.5114C22.4191 43.3762 21.5159 44.2518 20.6225 45.1353C19.3915 46.3531 19.3279 48.0003 20.4473 49.3181C20.9405 49.8996 20.9229 50.381 20.3876 50.9027C16.8326 54.3698 11.6844 54.9924 7.41797 52.448C7.04025 52.2224 6.81421 52.2587 6.48835 52.5225C5.3229 53.4677 5.16927 53.4461 4.0958 52.3705C3.16129 51.4351 2.22678 50.4997 1.2952 49.5613C0.765805 49.0279 0.690457 48.5612 1.19441 48.016C1.74925 47.4159 1.75707 46.9639 1.3363 46.2227C-0.897726 42.2967 -0.277326 37.3637 2.78357 33.976C2.92546 33.8191 3.05756 33.6505 3.20728 33.5014C3.59381 33.1161 4.12222 33.1053 4.57725 33.4642C6.18891 34.7339 7.58041 34.6516 9.03649 33.1984C9.83302 32.4023 10.6354 31.612 11.4251 30.8089C12.6512 29.5627 12.71 27.9488 11.5895 26.6251C11.1051 26.0524 11.1247 25.569 11.657 25.0347C14.943 21.7323 20.0892 20.993 24.2089 23.2403C24.4858 23.3913 24.6815 23.4805 24.9721 23.207C30.269 18.2142 35.5766 13.2332 40.8862 8.2541C41.0154 8.13252 41.1916 8.06192 41.4421 7.907L41.4411 7.90504ZM8.64605 50.8782C11.4574 52.6294 15.6828 52.3126 18.1986 50.232C18.453 50.0222 18.4159 49.8761 18.2867 49.6231C17.269 47.6307 17.5919 45.4245 19.1527 43.841C20.0921 42.8879 21.0619 41.9643 22.0316 41.0426C23.0532 40.0719 24.2793 39.562 25.6826 39.712C26.5055 39.8003 27.306 40.0934 28.171 40.3082C30.4735 37.799 30.6369 33.3544 29.0556 30.955C28.9196 31.105 28.7914 31.2482 28.6603 31.3884C27.6162 32.5131 26.576 33.6407 25.527 34.7604C24.9868 35.337 24.4525 35.3634 23.9173 34.8261C22.3506 33.2534 20.7888 31.6757 19.2349 30.0902C18.7143 29.5588 18.7349 29.0342 19.277 28.5145C19.8299 27.9831 20.3964 27.4654 20.9562 26.9408C21.6656 26.276 22.3741 25.6102 23.107 24.9229C22.9984 24.8444 22.9387 24.7905 22.8702 24.7533C20.2174 23.3188 16.129 23.762 13.8196 25.7191C13.5887 25.9152 13.6132 26.0564 13.7355 26.2936C14.7659 28.3076 14.4723 30.4452 12.9145 32.0826C11.9917 33.0514 11.0415 33.9966 10.0708 34.9163C8.48752 36.4155 6.34744 36.7263 4.41579 35.7321C4.05764 35.5478 3.91086 35.6409 3.71025 35.9125C2.41857 37.6676 1.84025 39.6326 1.99388 41.8025C2.08391 43.086 2.44499 44.2959 3.13389 45.4569C3.27578 45.2863 3.39125 45.1529 3.49987 45.0137C4.27194 44.0224 5.03716 43.0242 5.81609 42.0378C6.34352 41.3691 6.91304 41.3328 7.51485 41.9319C9.05312 43.4635 10.5865 45 12.115 46.5423C12.6914 47.1238 12.6591 47.7013 12.0191 48.2121C11.0494 48.9848 10.0669 49.7408 9.09031 50.5056C8.95331 50.6134 8.82218 50.7291 8.64605 50.8752V50.8782ZM24.75 32.7209C30.7074 26.3084 36.6902 19.8683 42.63 13.4744C41.9069 12.74 41.2346 12.0585 40.5212 11.3339C34.1215 17.318 27.7013 23.3217 21.2585 29.346C22.4299 30.4785 23.566 31.5767 24.75 32.7209ZM6.73788 44.0449C5.55873 45.5628 4.3649 47.0992 3.24838 48.5347C4.0185 49.3446 4.73088 50.0947 5.455 50.8576C6.98545 49.6613 8.50709 48.471 9.98274 47.3179C8.87992 46.206 7.82798 45.1451 6.73788 44.0449ZM44.0636 11.9183C45.3758 10.6181 46.6881 9.3562 47.9533 8.04721C48.4905 7.49126 48.3849 6.58624 47.8222 6.06362C47.2331 5.51552 46.3544 5.54493 45.7584 6.14011C44.6184 7.27848 43.4804 8.41981 42.3433 9.56211C42.2347 9.67193 42.1359 9.79155 42.0439 9.89352C42.7386 10.5897 43.3913 11.2437 44.0636 11.9173V11.9183Z" fill="#7488A6"/>
<path d="M21.6382 4.74367V2.58555C21.1783 2.81205 20.7741 3.00816 20.372 3.20916C19.6283 3.58078 18.8924 3.96808 18.1409 4.32107C17.8502 4.45736 17.7406 4.62307 17.7446 4.95252C17.7641 6.37329 17.7436 7.79504 17.7583 9.21581C17.7632 9.63351 17.6037 9.93649 17.2856 10.1787C16.2855 10.9435 14.484 10.9788 13.4527 10.2522C12.6571 9.69234 12.662 8.8893 13.4732 8.34413C14.1543 7.88623 14.9283 7.81269 15.7953 7.83917C15.7953 7.64404 15.7953 7.47147 15.7953 7.2989C15.7953 6.20464 15.8002 5.11039 15.7953 4.01515C15.7924 3.53862 16.0008 3.20622 16.4206 2.99541C18.3141 2.04627 20.2046 1.08929 22.104 0.148969C22.9269 -0.258926 23.6198 0.18819 23.6237 1.11968C23.6315 2.83461 23.6158 4.55051 23.6325 6.26544C23.6374 6.72824 23.4554 7.05867 23.0835 7.28517C21.9161 7.99899 20.7096 8.0235 19.4991 7.41656C19.0813 7.20673 18.7368 6.88414 18.7417 6.35858C18.7466 5.83695 19.0754 5.47514 19.5099 5.31531C20.1704 5.07411 20.871 4.94174 21.6402 4.74073L21.6382 4.74367Z" fill="#7488A6"/>
<path d="M52.0003 27.4575C51.9954 29.0616 50.6705 30.3853 49.0686 30.3882C47.4549 30.3912 46.1192 29.0361 46.1329 27.4124C46.1466 25.8053 47.4745 24.5012 49.0872 24.5091C50.6832 24.5169 52.0052 25.8563 52.0003 27.4575ZM50.0412 27.4261C50.0285 26.8868 49.5559 26.4456 49.0196 26.4711C48.4991 26.4956 48.0802 26.9447 48.091 27.4683C48.1027 28.0056 48.5754 28.4488 49.1116 28.4252C49.6273 28.4017 50.054 27.9438 50.0412 27.4271V27.4261Z" fill="#7488A6"/>
<path d="M3.07449 6.86462C3.07449 5.67134 3.07449 4.54766 3.07449 3.42399C3.07449 3.24456 3.06569 3.06414 3.08036 2.88569C3.1244 2.35719 3.53441 1.96597 4.03836 1.95812C4.56286 1.95028 5.01691 2.35131 5.0218 2.9053C5.03942 4.73298 5.05214 6.56164 5.00712 8.38835C5.00027 8.6727 4.73802 9.02078 4.49534 9.2159C3.5119 10.0023 1.69474 9.98757 0.682926 9.23551C-0.041199 8.69819 -0.0764267 7.89319 0.69369 7.43626C1.19177 7.14015 1.8063 7.03229 2.37875 6.87345C2.57348 6.81952 2.79561 6.86462 3.07449 6.86462Z" fill="#7488A6"/>
<path d="M10.9028 16.6346C10.9028 15.4648 10.9028 14.3255 10.9028 13.1861C10.9028 13.0067 10.893 12.8253 10.9116 12.6478C10.9654 12.1467 11.3725 11.7742 11.8598 11.7643C12.3657 11.7545 12.8383 12.135 12.8452 12.6556C12.8677 14.5157 12.8755 16.3777 12.8325 18.2367C12.8266 18.5054 12.5624 18.8319 12.3285 19.0192C11.3461 19.8036 9.52694 19.7948 8.51414 19.0447C7.77534 18.4976 7.78708 17.7298 8.54154 17.1935C9.02299 16.8513 9.39582 16.7611 10.9018 16.6356L10.9028 16.6346Z" fill="#7488A6"/>
<path d="M39.2006 34.924C38.999 35.1809 38.8238 35.4633 38.5919 35.6878C38.1555 36.1094 37.5811 36.1026 37.1936 35.7113C36.812 35.326 36.81 34.7367 37.2308 34.3112C37.4578 34.0817 37.7426 33.9111 38.0019 33.714L38.0048 33.4444C37.7455 33.2483 37.4588 33.0786 37.2318 32.8502C36.811 32.4286 36.812 31.8353 37.1916 31.45C37.5772 31.0588 38.1555 31.0509 38.59 31.4716C38.8219 31.6961 39 31.9775 39.2016 32.2344C39.2877 32.2452 39.3738 32.256 39.4589 32.2668C39.6517 32.0059 39.8161 31.7157 40.0441 31.4892C40.4795 31.0558 41.0461 31.0509 41.4434 31.4323C41.8476 31.8216 41.8417 32.4138 41.4092 32.8708C41.1978 33.0943 40.959 33.2914 40.687 33.5414C40.9639 33.8268 41.191 34.0523 41.4082 34.2866C41.8368 34.7504 41.8495 35.3387 41.4464 35.726C41.0491 36.1084 40.4844 36.1055 40.047 35.6741C39.8181 35.4486 39.6527 35.1593 39.4579 34.8985C39.3728 34.9063 39.2867 34.9142 39.2016 34.923L39.2006 34.924Z" fill="#7488A6"/>
<path d="M39.7655 47.4638C39.2567 47.4628 38.8731 47.0745 38.876 46.5637C38.878 46.0538 39.2655 45.6694 39.7743 45.6724C40.2851 45.6753 40.6668 46.0607 40.6638 46.5715C40.6609 47.0814 40.2744 47.4647 39.7655 47.4638Z" fill="#7488A6"/>
<path d="M13.8822 44.4105C13.8822 44.9753 13.6992 45.2851 13.3244 45.4607C12.9056 45.6568 12.5259 45.5597 12.2059 45.243C11.4182 44.4625 10.6383 43.6761 9.85547 42.8907C9.4983 42.5328 9.1333 42.1838 8.78885 41.8141C8.37688 41.3719 8.38765 40.8101 8.79276 40.4159C9.16363 40.0551 9.75565 40.0423 10.1578 40.4365C11.3096 41.567 12.4496 42.7093 13.5769 43.8644C13.7471 44.0389 13.8245 44.3036 13.8822 44.4105Z" fill="#7488A6"/>
<path d="M18.5955 31.1118C18.7364 31.1942 19.0231 31.2942 19.2198 31.4864C20.3304 32.5689 21.4235 33.669 22.5136 34.7721C22.9892 35.2525 23.0166 35.8428 22.6114 36.2517C22.2073 36.6586 21.6075 36.6321 21.1368 36.1635C20.0369 35.0702 18.9468 33.9681 17.8488 32.8728C17.5161 32.5414 17.385 32.16 17.569 31.7158C17.7275 31.3324 18.0377 31.1452 18.5965 31.1118H18.5955Z" fill="#7488A6"/>
</g>
<defs>
<clipPath id="clip0_71_539">
<rect width="52" height="54" fill="white"/>
</clipPath>
</defs>
</svg>
