<svg width="60" height="31" viewBox="0 0 60 31" fill="none" xmlns="http://www.w3.org/2000/svg">
<g opacity="0.5" clip-path="url(#clip0_71_521)">
<path d="M21.9317 26.034C21.0377 29.16 18.9498 30.948 16.1599 30.999C13.195 31.054 11.1341 29.381 10.0471 26.005H0.00044443C0.00044443 25.791 0.00044443 25.615 0.00044443 25.44C0.00044443 18.042 -0.000555537 10.644 0.00044443 3.246C0.00244436 1.245 1.2444 0.001 3.24134 0C16.4049 0 29.5675 0 42.73 0C44.767 0 45.9939 1.229 45.9989 3.267C46.0009 4.149 45.9989 5.031 45.9989 5.999C46.3319 5.999 46.6399 5.996 46.9479 5.999C48.6888 6.019 49.9728 7.295 49.9968 9.034C50.0058 9.664 49.9978 10.295 49.9978 10.962H47.9979C47.9979 10.469 47.9979 9.961 47.9979 9.452C47.9959 8.266 47.7149 7.991 46.5149 7.998C46.3669 7.998 46.2199 7.998 46.0349 7.998V12.974C46.1919 12.981 46.3669 12.995 46.5419 12.995C49.2748 12.997 52.0067 12.994 54.7396 12.998C57.8525 13.002 59.9915 15.132 59.9965 18.235C60.0015 20.634 59.9965 23.034 59.9975 25.433V25.983H55.9586C54.8176 29.429 52.7937 31.062 49.7878 30.993C47.7149 30.945 44.881 29.629 44.067 26.031H21.9317V26.034ZM42.0161 8.016V23.972H44.059C44.9 20.322 47.7979 19.016 49.9288 19C52.8297 18.978 54.9136 20.691 55.9426 23.964H57.9705V19.988H56.0306V17.982H57.9695C57.9935 16.333 56.6516 15.01 54.9786 15.004C51.5297 14.993 48.0809 15.001 44.631 15.001C44.437 15.001 44.242 15.001 43.983 15.001V6.031H2.04138V20.018H7.95718V22.026H2.03038V23.965H10.0651C10.8701 20.457 13.58 19.116 15.6969 19.009C17.0389 18.942 18.2718 19.298 19.3798 20.055C20.7678 21.003 21.5797 22.339 21.9197 23.96H31.9664V21.979H24.0366V19.99H32.0124V8.016H42.0161ZM43.978 3.979C43.987 3.809 43.997 3.694 43.999 3.579C44.014 2.256 43.762 2.001 42.441 2.001C29.4635 2.001 16.4859 2.001 3.50933 2.001C3.30933 2.001 3.10734 1.986 2.91035 2.012C2.42736 2.075 2.10137 2.358 2.02938 2.833C1.97338 3.201 2.01838 3.584 2.01838 3.979H43.978ZM19.9978 25.008C19.9978 22.796 18.2048 21.001 15.9959 21.003C13.786 21.005 11.999 22.802 12.004 25.016C12.009 27.219 13.815 29.006 16.0299 28.998C18.2078 28.99 19.9988 27.19 19.9988 25.008H19.9978ZM49.9868 21.002C47.7829 21.007 45.9929 22.813 46.0019 25.024C46.0109 27.205 47.8049 28.994 49.9868 28.998C52.1967 29.002 53.9967 27.208 53.9977 25C53.9977 22.793 52.1967 20.997 49.9878 21.002H49.9868ZM34.0233 15.966H35.9583V10.034H34.0233V15.966ZM39.9591 15.985V10.033H38.0392V15.985H39.9591ZM35.9693 23.975V18.041H34.0303V23.975H35.9693ZM39.9711 18.028H38.0352V23.973H39.9711V18.028Z" fill="#7488A6"/>
<path d="M29.9581 14.987H4.04102V8.03101H29.9581V14.986V14.987ZM9.96682 12.976V10.043H6.03395V12.976H9.96682ZM12.0397 10.017V12.97H15.9616V10.017H12.0397ZM18.0155 12.96H21.9674V10.041H18.0155V12.96ZM24.0423 10.015V12.968H27.9582V10.015H24.0423Z" fill="#7488A6"/>
<path d="M14.0021 24.976C14.0131 23.879 14.92 22.993 16.022 23.003C17.1119 23.012 18.0079 23.928 17.9969 25.023C17.9869 26.115 17.0729 27.009 15.976 26.998C14.886 26.988 13.9911 26.071 14.0021 24.976Z" fill="#7488A6"/>
<path d="M50.0413 23.002C51.1282 23.021 52.0172 23.95 51.9962 25.043C51.9752 26.131 51.0482 27.018 49.9533 26.998C48.8663 26.978 47.9803 26.05 48.0003 24.954C48.0203 23.858 48.9353 22.983 50.0403 23.002H50.0413Z" fill="#7488A6"/>
</g>
<defs>
<clipPath id="clip0_71_521">
<rect width="60" height="31" fill="white"/>
</clipPath>
</defs>
</svg>
