<svg width="46" height="46" viewBox="0 0 46 46" fill="none" xmlns="http://www.w3.org/2000/svg">
<g opacity="0.5" clip-path="url(#clip0_71_549)">
<path d="M22.8103 46.0001C17.3608 46.0001 11.9113 46.0001 6.46184 46.0001C5.85954 46.0001 5.67626 45.8707 5.55048 45.2741C5.13074 43.2768 4.72321 41.2772 4.31425 39.2777C3.66954 36.1267 3.02914 32.9744 2.38587 29.8227C1.61466 26.0472 0.840581 22.2731 0.0722493 18.4968C-0.129716 17.5049 0.100999 16.5986 0.648678 15.7606C3.43092 11.4999 6.211 7.23848 8.9918 2.9778C9.28002 2.53649 9.56104 2.09088 9.85788 1.65604C10.6003 0.569306 11.6303 0.00293941 12.9506 0.00222067C19.5264 -0.000654283 26.1014 6.4456e-05 32.6771 0.00150193C34.0118 0.00150193 35.0662 0.557806 35.7957 1.67257C38.8834 6.39109 41.9582 11.1182 45.0423 15.8389C45.7481 16.9185 45.6913 18.0598 45.4383 19.2615C44.4975 23.735 43.589 28.2149 42.6705 32.6933C42.0459 35.7365 41.4249 38.7803 40.8018 41.8235C40.5624 42.9929 40.3252 44.163 40.0794 45.3309C39.9709 45.8448 39.7632 46.0008 39.2306 46.0008C33.7574 46.0008 28.2835 46.0008 22.8103 46.0008V46.0001ZM26.662 24.775C27.1342 25.0697 27.5568 25.3622 28.0075 25.6037C28.2943 25.7575 28.6141 25.889 28.9325 25.9365C30.5058 26.1701 31.8987 26.7896 33.0796 27.8483C34.8312 29.4195 35.7203 31.3967 35.7562 33.7513C35.767 34.4665 35.7576 35.1816 35.7576 35.9377C36.1774 35.9377 36.5569 35.9377 36.9371 35.9377C37.6048 35.9377 37.6019 35.9377 37.7371 35.2779C38.8935 29.6387 40.05 23.9987 41.2107 18.3602C41.2646 18.0986 41.2323 17.8859 41.0799 17.6537C38.2272 13.2953 35.3832 8.93255 32.5427 4.56621C32.4249 4.38509 32.3019 4.30818 32.082 4.30818C25.9131 4.31393 19.7434 4.31393 13.5745 4.3089C13.361 4.3089 13.228 4.36928 13.1073 4.55471C10.2532 8.94117 7.39117 13.3219 4.54209 17.7105C4.44362 17.8622 4.3969 18.0957 4.42781 18.2733C4.56293 19.051 4.73543 19.8222 4.89427 20.5962C5.48292 23.469 6.07013 26.3418 6.65949 29.2139C7.10224 31.3716 7.54714 33.5285 7.99922 35.6833C8.01863 35.776 8.11997 35.9197 8.18753 35.9226C8.74456 35.942 9.30301 35.9334 9.88376 35.9334C9.88376 35.6193 9.87729 35.357 9.88519 35.0954C9.90891 34.2825 9.88519 33.4631 9.9736 32.6574C10.3416 29.3109 13.2791 26.3526 16.6241 25.9631C17.5656 25.8531 18.173 25.189 18.9758 24.7858C18.8867 24.7132 18.8522 24.6808 18.8134 24.6535C16.6457 23.1161 15.6071 21.0145 15.6294 18.3617C15.648 16.1817 15.6294 14.0011 15.6373 11.8212C15.6387 11.4036 15.666 10.9831 15.7192 10.5691C16.0204 8.23681 18.114 6.09281 20.4449 5.85132C21.7142 5.71979 23.0029 5.74494 24.283 5.75716C27.4749 5.78807 29.9704 8.28209 30.002 11.4754C30.0264 13.9307 30.0192 16.3866 30.0005 18.8425C29.9898 20.2951 29.5319 21.6168 28.7039 22.8107C28.1656 23.5869 27.4835 24.2158 26.6606 24.7735L26.662 24.775ZM40.2095 37.3946H5.44986C5.46782 37.5448 5.47501 37.6756 5.50089 37.8021C5.9386 39.9296 6.38637 42.0549 6.81043 44.1845C6.86937 44.4814 6.97143 44.569 7.27186 44.569C17.6411 44.5611 28.0111 44.5619 38.3803 44.5676C38.6527 44.5676 38.772 44.5058 38.8295 44.2111C39.1609 42.5135 39.521 40.8208 39.8688 39.126C39.9853 38.5568 40.0938 37.9861 40.2102 37.3939L40.2095 37.3946ZM39.071 35.9384C39.4944 35.9384 39.8753 35.9277 40.2555 35.9427C40.4632 35.9514 40.5595 35.8795 40.594 35.6747C40.658 35.2973 40.7385 34.9221 40.8154 34.547C41.9216 29.1543 43.0263 23.7608 44.1389 18.3689C44.2725 17.722 44.169 17.1355 43.8104 16.5857C40.7493 11.8923 37.6882 7.19823 34.6278 2.50415C34.1585 1.78397 33.4986 1.4361 32.6362 1.43682C26.1079 1.44114 19.5795 1.44185 13.052 1.43467C12.1442 1.43395 11.4707 1.79835 10.9784 2.55518C7.94029 7.22051 4.89499 11.8815 1.86047 16.549C1.69444 16.8049 1.51045 17.1104 1.5047 17.3957C1.49392 17.9736 1.55213 18.5629 1.66569 19.13C2.38443 22.7086 3.12617 26.2829 3.86072 29.8586C4.25531 31.7812 4.64702 33.7046 5.0488 35.6258C5.0718 35.7365 5.16524 35.9154 5.23495 35.9197C5.66907 35.9471 6.10606 35.9334 6.55599 35.9334C6.54665 35.8292 6.54665 35.7817 6.53731 35.7358C5.33845 29.8852 4.14103 24.0347 2.93211 18.1863C2.85449 17.8097 2.93858 17.5172 3.13983 17.2095C6.13984 12.619 9.13699 8.02694 12.1248 3.42773C12.3799 3.0353 12.6789 2.86496 13.1555 2.86639C19.6119 2.87861 26.0683 2.87789 32.524 2.86783C32.9711 2.86783 33.26 3.02667 33.5001 3.3961C36.4045 7.86307 39.3061 12.3322 42.24 16.7797C42.6511 17.4036 42.7769 17.9578 42.618 18.706C41.5708 23.6343 40.5775 28.5742 39.5662 33.5098C39.4038 34.3033 39.2435 35.0975 39.0725 35.937L39.071 35.9384ZM17.0726 15.0943C17.0726 16.2917 17.0697 17.4388 17.0726 18.5852C17.0819 21.5974 19.1016 23.9333 22.0872 24.3869C25.0642 24.8397 28.1196 22.6145 28.4668 19.6195C28.6342 18.1777 28.548 16.7057 28.558 15.2467C28.558 15.1676 28.3978 15.0346 28.295 15.0152C27.4001 14.8427 26.5736 14.515 25.839 13.9731C25.5436 13.7553 25.2662 13.5116 24.9758 13.2766C24.9234 13.3133 24.881 13.3355 24.8479 13.3672C23.542 14.6257 21.9722 15.1547 20.1732 15.1C19.1584 15.0691 18.1421 15.0943 17.0711 15.0943H17.0726ZM34.3209 35.9183C34.3209 35.1924 34.3238 34.5002 34.3209 33.8074C34.3036 30.6737 32.1934 28.0819 29.1381 27.425C28.8118 27.3545 28.6292 27.3948 28.4811 27.7477C27.8098 29.3469 27.104 30.9317 26.4061 32.5194C26.1344 33.1368 25.6026 33.2424 25.1182 32.7803C24.8759 32.5489 24.6438 32.3066 24.4059 32.0702C24.1414 31.8064 23.8769 31.5426 23.5614 31.2293V35.919H34.3209V35.9183ZM22.0829 31.3241L22.0024 31.2702C21.5352 31.7496 21.0738 32.2341 20.6002 32.707C20.0359 33.2712 19.5278 33.172 19.2116 32.449C18.5208 30.8706 17.8208 29.2966 17.1459 27.7125C17.0201 27.4178 16.8627 27.3459 16.5731 27.412C14.0826 27.9863 12.413 29.4683 11.5994 31.8984C11.2537 32.9319 11.3248 34.0029 11.3227 35.0666C11.3227 35.3491 11.3227 35.6308 11.3227 35.9183H22.0829V31.3241ZM28.5688 13.5864C28.5688 12.8216 28.5825 12.1051 28.5659 11.3892C28.5135 9.10648 26.662 7.24495 24.3843 7.19608C23.3429 7.1738 22.3007 7.17667 21.26 7.19608C19.5062 7.22914 17.925 8.36259 17.3507 10.025C17.1933 10.4807 17.1143 10.9781 17.0848 11.4611C17.041 12.1834 17.0733 12.91 17.0733 13.6539C18.3476 13.6539 19.568 13.6698 20.787 13.6489C21.868 13.6309 22.8203 13.2421 23.6311 12.5262C23.9092 12.2812 24.1608 12.0066 24.4318 11.7529C24.794 11.4136 25.1498 11.4079 25.5127 11.7414C25.7945 12.0008 26.0518 12.2869 26.3393 12.5392C26.9624 13.0869 27.6826 13.4398 28.5681 13.5849L28.5688 13.5864ZM19.9971 25.843C19.5228 26.1377 19.075 26.4324 18.61 26.6983C18.38 26.8299 18.3678 26.9556 18.4705 27.1856C19.0074 28.3852 19.5264 29.5934 20.0539 30.7973C20.0891 30.8785 20.1466 30.9497 20.2243 31.0754C20.7382 30.5522 21.2147 30.0498 21.712 29.5704C21.8939 29.3958 21.9039 29.2635 21.7839 29.0479C21.2362 28.0668 20.7072 27.0764 20.1689 26.0903C20.1251 26.0098 20.064 25.9379 19.9964 25.8423L19.9971 25.843ZM25.6428 25.838C25.5695 25.9501 25.5063 26.0342 25.456 26.1255C25.0592 26.8478 24.6618 27.5702 24.2708 28.2968C24.0904 28.6325 23.7504 29.0048 23.8 29.3081C23.8532 29.6308 24.2779 29.8953 24.5496 30.1763C24.835 30.4717 25.1311 30.7578 25.4624 31.0877C26.0712 29.694 26.6512 28.3723 27.219 27.0455C27.2471 26.9794 27.2025 26.8263 27.1428 26.7867C26.657 26.4655 26.1589 26.1614 25.6421 25.8387L25.6428 25.838ZM23.9387 25.843H21.7049C22.0693 26.533 22.425 27.2058 22.8239 27.9604C23.2243 27.1993 23.5765 26.5309 23.9387 25.843Z" fill="#7488A6"/>
<path d="M22.8422 21.5614C22.4842 21.5614 22.1256 21.5693 21.7684 21.5592C21.3357 21.547 21.0295 21.2444 21.0274 20.847C21.0252 20.4502 21.3321 20.1354 21.7619 20.1289C22.4656 20.1182 23.1699 20.1182 23.8743 20.1289C24.3084 20.1354 24.6132 20.4416 24.6153 20.8405C24.6175 21.238 24.3106 21.5456 23.8808 21.5592C23.535 21.57 23.1886 21.5614 22.8429 21.5614H22.8422Z" fill="#7488A6"/>
</g>
<defs>
<clipPath id="clip0_71_549">
<rect width="45.6112" height="46" fill="white"/>
</clipPath>
</defs>
</svg>
