<svg width="56" height="30" viewBox="0 0 56 30" fill="none" xmlns="http://www.w3.org/2000/svg">
<g opacity="0.5" clip-path="url(#clip0_71_515)">
<path d="M1.86847 20.6401C1.86847 18.5115 1.86847 16.4635 1.86847 14.4165C1.86847 13.5243 2.04112 13.2926 2.90717 13.0899C6.52441 12.2465 10.1426 11.4032 13.7635 10.5748C14.1088 10.496 14.2824 10.3393 14.4028 10.0016C15.4947 6.94415 16.6071 3.8933 17.713 0.840578C17.9538 0.178248 18.1927 0.000938145 18.8824 0.000938145C29.6146 0 40.3469 0 51.0792 0C51.906 0 52.2065 0.284258 52.2793 1.09106C52.5863 4.48433 52.8607 7.88136 53.22 11.2699C53.4356 13.3038 53.7874 15.3237 54.0721 17.351C54.1085 17.6127 54.1262 17.8792 54.1281 18.1437C54.1355 18.9543 54.1309 19.7639 54.1309 20.6392C54.4108 20.6392 54.6535 20.6364 54.8961 20.6392C55.6371 20.6476 55.9917 20.991 55.9955 21.7246C56.002 22.8814 56.0029 24.039 55.9955 25.1958C55.9917 25.9012 55.6306 26.2624 54.9269 26.2662C53.4804 26.2718 52.0339 26.2765 50.5873 26.2615C50.2803 26.2587 50.1347 26.3497 49.9975 26.6424C48.9719 28.8283 47.2426 30.0216 44.8367 29.9991C42.4728 29.9775 40.779 28.7785 39.7786 26.6246C39.6554 26.3591 39.5294 26.2596 39.2345 26.2606C31.4419 26.269 23.6494 26.269 15.8568 26.2606C15.5432 26.2606 15.4107 26.3647 15.2782 26.648C14.2591 28.8142 12.5447 30.0066 10.1594 30C7.79548 29.9934 6.09045 28.8104 5.07975 26.6611C4.93417 26.3525 4.77925 26.2559 4.45541 26.2606C3.33553 26.2784 2.21564 26.2718 1.09575 26.2662C0.358489 26.2624 0.0075905 25.9097 0.00385754 25.1732C-0.0017419 24.0315 -0.000808664 22.8907 0.00385754 21.749C0.0075905 20.9835 0.352889 20.6467 1.12655 20.6392C1.35612 20.6373 1.58477 20.6392 1.8694 20.6392L1.86847 20.6401ZM20.1628 5.62887C19.5282 5.62887 18.9552 5.64669 18.385 5.6223C18.0686 5.60823 17.9239 5.71424 17.8157 6.02008C17.1876 7.80067 16.525 9.56908 15.8979 11.3497C15.7234 11.8441 15.4303 12.1143 14.9189 12.2287C12.9022 12.679 10.8929 13.1631 8.87617 13.6125C8.50288 13.696 8.36382 13.8423 8.39275 14.2345C8.43102 14.7476 8.40395 15.2655 8.40115 15.7815C8.39275 17.5686 7.22154 18.7535 5.45398 18.7629C4.8987 18.7657 4.34342 18.7629 3.77135 18.7629V20.5998H52.3325C52.2476 19.034 52.1645 17.5142 52.0796 15.9494C51.7679 15.9494 51.584 15.9494 51.4011 15.9494C46.2235 15.9494 41.0459 15.9494 35.8683 15.9494C34.809 15.9494 34.5365 15.6802 34.5337 14.6294C34.5337 14.4512 34.5337 14.272 34.5337 14.0731C34.2482 14.0731 34.0466 14.0731 33.845 14.0731C28.9007 14.0731 23.9564 14.0731 19.0112 14.0731C17.9071 14.0731 17.5376 13.5665 17.8829 12.5252C18.4036 10.9547 18.93 9.38708 19.4516 7.81662C19.6868 7.10926 19.9145 6.39909 20.1646 5.62981L20.1628 5.62887ZM18.6472 3.75164C18.9057 3.75164 19.0756 3.75164 19.2463 3.75164C24.549 3.75164 29.8507 3.75164 35.1534 3.75164C36.0997 3.75164 36.3993 4.0556 36.4002 5.02001C36.4002 7.84946 36.4002 10.6789 36.4002 13.5074C36.4002 13.6866 36.4002 13.8667 36.4002 14.0384H51.6307C51.2387 9.9753 50.8486 5.94221 50.4567 1.87535H49.8174C43.8465 1.87535 37.8757 1.87535 31.9048 1.87535C27.862 1.87535 23.8192 1.87254 19.7764 1.88473C19.5972 1.88473 19.3191 1.98136 19.2585 2.1127C19.0252 2.61742 18.8628 3.15498 18.6481 3.7507L18.6472 3.75164ZM54.115 22.5521H1.89927V24.3552H54.115V22.5521ZM34.5057 12.1706V5.66452H28.0272V12.1706H34.5057ZM26.1057 12.1743V5.62887C24.8999 5.62887 23.7222 5.642 22.5453 5.62043C22.2122 5.61386 22.0937 5.7452 21.9975 6.04165C21.3807 7.9414 20.7433 9.83457 20.1152 11.7306C20.0695 11.8685 20.0471 12.0148 20.0051 12.1959C21.9583 12.1959 23.8547 12.1959 25.7501 12.1959C25.8565 12.1959 25.9629 12.1846 26.1057 12.1762V12.1743ZM7.02649 26.2727C7.49591 27.3704 8.91443 28.1603 10.2686 28.1434C11.6414 28.1256 13.073 27.1077 13.2867 26.3131C13.2456 26.3 13.2055 26.2746 13.1644 26.2746C11.1337 26.2727 9.10388 26.2727 7.02649 26.2727ZM41.7402 26.2878C42.2908 27.4539 43.7458 28.2166 45.1493 28.1359C46.3234 28.0684 47.7428 27.1874 48.0069 26.2878H41.7402ZM6.52907 14.1735C5.63036 14.3836 4.79885 14.5722 3.97199 14.7786C3.88054 14.8011 3.75082 14.9278 3.74895 15.0094C3.73029 15.6267 3.73868 16.244 3.73868 16.8819C4.41995 16.8819 5.02562 16.8988 5.63036 16.8772C6.12125 16.8594 6.49921 16.5057 6.52254 16.0226C6.55147 15.4325 6.52907 14.8396 6.52907 14.1726V14.1735Z" fill="#7488A6"/>
<path d="M25.1676 17.8013H21.499V15.9888H25.1676V17.8013Z" fill="#7488A6"/>
<path d="M28.8915 17.8079H27.1016V15.9747H28.8915V17.8079Z" fill="#7488A6"/>
<path d="M30.8135 17.7864V15.9879H32.6352V17.7864H30.8135Z" fill="#7488A6"/>
<path d="M43.8688 5.6448V3.78821H45.725V5.60821H47.5588V7.49106H45.7436V12.1687H43.8884V7.52671H42.0303V5.6448H43.8688Z" fill="#7488A6"/>
</g>
<defs>
<clipPath id="clip0_71_515">
<rect width="56" height="30" fill="white"/>
</clipPath>
</defs>
</svg>
