<?xml version="1.0" encoding="utf-8"?><svg xmlns="http://www.w3.org/2000/svg" xmlns:xlink="http://www.w3.org/1999/xlink"><symbol viewBox="0 0 24 25" id="arrow-left" xmlns="http://www.w3.org/2000/svg"><path d="M3.304 11.282a1 1 0 00-.022 1.414l6.26 6.465a1 1 0 101.437-1.391l-5.565-5.747 5.747-5.565A1 1 0 109.77 5.02l-6.466 6.26zm15.68 1.96a1 1 0 00.032-2l-.032 2zm-15-.242l15 .242.032-2-15-.242-.032 2z"/></symbol><symbol viewBox="0 0 24 25" id="arrow-right" xmlns="http://www.w3.org/2000/svg"><path d="M20.707 12.947a1 1 0 000-1.414L14.343 5.17a1 1 0 10-1.414 1.414l5.657 5.657-5.657 5.657a1 1 0 101.414 1.414l6.364-6.364zM5 11.24a1 1 0 100 2v-2zm15 0H5v2h15v-2z"/></symbol><symbol viewBox="0 0 22 24" id="basket" xmlns="http://www.w3.org/2000/svg"><g clip-path="url(#ca)"><path d="M10.363 18.443a2.046 2.046 0 00-2.045 2.042 2.046 2.046 0 004.09 0 2.046 2.046 0 00-2.045-2.042zm6.134 0a2.046 2.046 0 00-2.045 2.042 2.046 2.046 0 004.089 0 2.046 2.046 0 00-2.044-2.042zm3.978-8.199L7.413 6.891a.614.614 0 00-.75.73L8.67 16.4h-.786L5.482 5.895a.613.613 0 00-.474-.464l-4.27-.882A.614.614 0 00.489 5.75l3.885.802L6.797 17.15a.613.613 0 00.598.477h12.07a.615.615 0 00.607-.53l.858-6.175a.613.613 0 00-.455-.678zm-8.14 3.91a.613.613 0 01-1.227 0v-2.696a.613.613 0 011.227 0v2.696zm2.625 0a.613.613 0 01-1.227 0v-1.88a.613.613 0 011.227 0v1.88zm2.625 0a.613.613 0 01-1.227 0v-1.226a.613.613 0 011.227 0v1.226z"/></g><path fill-rule="evenodd" clip-rule="evenodd" d="M16.268 4.568a2.996 2.996 0 00-1.693-.523c-.627 0-1.21.193-1.693.523-.28-.843-.492-1.752-.492-2.383C12.39.98 13.37 0 14.575 0s2.185.98 2.185 2.185c0 .631-.212 1.54-.492 2.383zm-4.722 2.274l.024.006v-.011l-.024.005zm4.972 1.217c-1.333-.33-2.766-.681-4.129-1.013a2.185 2.185 0 114.129 1.013zm4.436 1.103c-.866-.217-2.155-.538-3.618-.9a2.995 2.995 0 00.243-1.425c.87.18 1.762.45 2.308.765.596.344.969.928 1.067 1.56zM9.869 6.439c-.36-.086-.706-.167-1.03-.243a2.19 2.19 0 01-.376-2.667 2.188 2.188 0 013.147-.7c.098.738.338 1.599.61 2.353a3.01 3.01 0 00-.449.774c-.628.113-1.305.278-1.902.483zm10.124.075a3.43 3.43 0 01-.217.114c-.696-.295-1.587-.526-2.397-.672a3.01 3.01 0 00-.449-.774c.262-.727.494-1.553.599-2.273.095-.067.189-.128.278-.18a2.188 2.188 0 012.986.8 2.188 2.188 0 01-.8 2.985z"/><defs><clipPath id="ca"><path transform="translate(0 3.064)" d="M0 0h20.936v20.936H0z"/></clipPath></defs></symbol><symbol viewBox="0 0 33 33" id="calculator" xmlns="http://www.w3.org/2000/svg"><path d="M23.228 28.525H9.508c-1.494 0-2.58-1.222-2.58-2.58V6.792c0-1.494 1.222-2.58 2.58-2.58h13.72c1.494 0 2.58 1.221 2.58 2.58v19.153c0 1.358-1.222 2.58-2.58 2.58zm2.581-17.658H6.792"/><path d="M10.867 20.24s.136.135 0 0v.135-.136zm0 0c0 .135 0 0 0 0zm5.433.135s.136 0 0 0v.136-.136zm5.434-.135s.136.135 0 0v.135-.136zm0 0c0 .135 0 0 0 0zm-10.867-4.076s.136.136 0 0v.136-.136zm0 0c0 .136 0 0 0 0zm5.433.136s.136 0 0 0v.136-.136zm5.434-.136s.136.136 0 0v.136-.136zm0 0c0 .136 0 0 0 0zm-10.867 8.15s.136.136 0 0v.136-.136zm0 0c0 .136 0 0 0 0zm5.433.136s.136 0 0 0v.136-.136zm5.434-.136s.136.136 0 0v.136-.136zm0 0c0 .136 0 0 0 0z"/></symbol><symbol viewBox="0 0 344.96 344.96" id="check" xmlns="http://www.w3.org/2000/svg"><g data-name="Слой 2"><path class="ecls-1" d="M321.85 86.24l-40-23.11-23.1-40H212.5L172.48 0l-40 23.11H86.24l-23.11 40-40 23.1v46.21L0 172.48l23.11 40v46.21l40 23.11 23.11 40h46.21l40 23.1 40-23.11h46.21l23.11-40 40-23.11V212.5l23.11-40-23.11-40V86.24zM156.91 243.07a16.79 16.79 0 01-23.34 0l-50.45-50.44a16.19 16.19 0 010-22.89l13.35-13.35a16.19 16.19 0 0122.89 0l25.87 25.87 80.34-80.35a16.19 16.19 0 0122.89 0l13.35 13.35a16.19 16.19 0 010 22.89z" data-name="Capa 1"/></g></symbol><symbol viewBox="0 0 24 25" id="dd-arrow-up" xmlns="http://www.w3.org/2000/svg"><path d="M16 14.5l-4-4-4 4"/></symbol><symbol viewBox="0 0 26 26" id="ddGroup-icon" xmlns="http://www.w3.org/2000/svg"><path d="M24.25 13.165c0 6.25-5 11.25-11.25 11.25s-11.25-5-11.25-11.25S6.75 1.916 13 1.916s11.25 5 11.25 11.25zm-15 0h7.5"/><path d="M13.624 16.29l3.125-3.125-3.125-3.125"/></symbol><symbol viewBox="0 0 24 24" id="fb" xmlns="http://www.w3.org/2000/svg"><path d="M13.397 20.997v-8.196h2.765l.411-3.209h-3.176V7.548c0-.926.258-1.56 1.587-1.56h1.684v-2.86A22.108 22.108 0 0014.201 3c-2.444 0-4.122 1.492-4.122 4.231v2.355H7.332v3.21h2.753v8.201h3.312z"/></symbol><symbol viewBox="0 0 24 24" id="instagram" xmlns="http://www.w3.org/2000/svg"><path d="M11.999 7.377a4.624 4.624 0 100 9.248 4.624 4.624 0 000-9.248zm0 7.627a3.004 3.004 0 110-6.008 3.004 3.004 0 010 6.008zm4.807-6.719a1.078 1.078 0 100-2.156 1.078 1.078 0 000 2.156z"/><path d="M20.533 6.11A4.605 4.605 0 0017.9 3.48a6.607 6.607 0 00-2.186-.42c-.963-.042-1.268-.054-3.71-.054s-2.755 0-3.71.054a6.554 6.554 0 00-2.184.42 4.6 4.6 0 00-2.633 2.63 6.585 6.585 0 00-.419 2.186c-.043.962-.056 1.267-.056 3.71 0 2.442 0 2.753.056 3.71.015.748.156 1.486.419 2.187a4.61 4.61 0 002.634 2.632 6.583 6.583 0 002.185.45c.963.042 1.268.055 3.71.055s2.755 0 3.71-.055a6.616 6.616 0 002.186-.42 4.613 4.613 0 002.633-2.632c.263-.7.404-1.438.419-2.186.043-.962.056-1.267.056-3.71s0-2.753-.056-3.71a6.583 6.583 0 00-.421-2.217zm-1.218 9.533a5.046 5.046 0 01-.311 1.688 2.987 2.987 0 01-1.712 1.71c-.535.2-1.1.305-1.67.312-.95.044-1.218.055-3.654.055-2.438 0-2.687 0-3.655-.055a4.961 4.961 0 01-1.67-.311 2.984 2.984 0 01-1.718-1.711 5.08 5.08 0 01-.311-1.67c-.043-.95-.053-1.217-.053-3.653 0-2.437 0-2.686.053-3.655a5.038 5.038 0 01.311-1.687c.305-.79.93-1.41 1.719-1.712a5.01 5.01 0 011.669-.311c.95-.043 1.218-.055 3.655-.055s2.687 0 3.654.055a4.96 4.96 0 011.67.31 2.99 2.99 0 011.712 1.713 5.06 5.06 0 01.311 1.669c.043.95.054 1.218.054 3.655 0 2.436 0 2.698-.043 3.654h-.011v-.001z"/></symbol><symbol viewBox="0 0 30 58" id="sServices-icon-1" xmlns="http://www.w3.org/2000/svg"><path d="M19.153 43.012c1.183 1.167 2.253 2.22 3.32 3.277 2.123 2.106 4.243 4.215 6.367 6.32.305.301.588.607.442 1.085-.15.486-.544.625-.993.704-.514.091-1.03.183-1.533.318a.588.588 0 00-.349.355c-.142.544-.24 1.1-.345 1.654-.078.407-.262.736-.68.86-.405.117-.714-.073-.996-.354-1.6-1.599-3.206-3.19-4.812-4.784-.11-.11-.227-.215-.405-.383-.013.237-.027.379-.027.52-.001 1.32.002 2.64-.001 3.96-.002.735-.332 1.07-1.058 1.07-2.285.003-4.57.003-6.854 0-.705 0-1.045-.336-1.047-1.034-.005-1.465-.001-2.93-.001-4.509-.187.166-.307.26-.414.367-1.512 1.498-3.02 2.997-4.532 4.496-.116.116-.23.233-.35.344-.642.602-1.412.372-1.608-.49a30.494 30.494 0 01-.34-1.7c-.042-.243-.144-.358-.39-.4-.485-.082-.963-.203-1.449-.282-.462-.075-.886-.19-1.052-.692-.17-.52.164-.831.487-1.15 3.073-3.051 6.143-6.103 9.214-9.155.114-.113.223-.232.465-.484-.199-.128-.4-.215-.545-.357-1.526-1.505-3.052-3.008-4.56-4.53C2.1 35.002.698 31.332 1.16 27.113c.592-5.402 3.561-9.148 8.576-11.292.311-.133.458-.255.456-.627-.017-1.905 1.07-2.968 2.99-2.971h.554v-1.397c-.954-.276-1.788-.766-2.371-1.604-.773-1.11-.992-2.308-.494-3.586.606-1.557 1.633-2.852 2.663-4.144.047-.058.098-.112.145-.169.784-.933 1.19-.934 1.979.018 1.008 1.215 1.94 2.477 2.639 3.903 1.163 2.373-.321 4.83-2.379 5.47-.112.034-.22.077-.34.12v1.39c.31 0 .605-.005.899 0 1.468.028 2.675 1.182 2.643 2.638-.014.644.212.883.784 1.14 4.687 2.097 7.518 5.662 8.205 10.744.586 4.34-.766 8.112-3.826 11.26-1.535 1.58-3.11 3.12-4.67 4.675-.114.114-.264.194-.458.333l-.002-.002zm-.011-25.407c0 .916.02 1.747-.01 2.574-.013.369.1.582.415.788 4.791 3.138 5.51 9.594 1.53 13.701-.973 1.003-1.98 1.974-2.971 2.96l-6.646 6.604-8.33 8.273c-.11.11-.21.227-.432.468 1.42-.063 2.003.635 1.99 1.96.228-.211.349-.317.462-.43l9.658-9.591c2.692-2.674 5.385-5.345 8.072-8.023 5.159-5.14 4.657-13.401-1.077-17.768a10.786 10.786 0 00-2.661-1.516zm-4.5 20.947c.903-.9 1.759-1.744 2.6-2.602.08-.08.103-.242.103-.366.005-6.868.005-13.735.002-20.603 0-.617-.356-.973-.97-.977-1.134-.008-2.27-.007-3.404 0-.651.004-.991.344-.997.993-.007.771-.002 1.543-.002 2.314 0 6.052-.002 12.104.005 18.156 0 .18.02.415.131.53.813.847 1.65 1.67 2.532 2.555zm-1.249 1.151c-.141-.101-.29-.182-.407-.296-1.627-1.612-3.293-3.188-4.862-4.854-2.135-2.267-2.873-4.98-2.228-8.018.504-2.373 1.85-4.205 3.864-5.564.16-.109.394-.273.4-.418.035-.974.018-1.948.018-2.98-.188.077-.325.125-.455.187-7.547 3.622-9.2 13.153-3.306 19.064 1.544 1.548 3.1 3.084 4.653 4.624.101.1.214.188.297.26l2.026-2.003v-.002zm3.956 16.12V55.3c0-1.407-.03-2.816.015-4.221.018-.584-.144-.996-.575-1.393-.717-.66-1.378-1.384-2.106-2.126-.86.862-1.666 1.65-2.444 2.463a.987.987 0 00-.255.612c-.02 1.6-.013 3.2-.011 4.8 0 .127.02.253.03.388h5.346zm-1.3-9.492l8.518 8.402c.148-.412.198-.998.518-1.314.327-.324.92-.385 1.355-.546l-8.494-8.427-1.898 1.885h.001zm3.106-12.357a6.996 6.996 0 002.655-6.33c-.214-1.91-1.081-3.487-2.655-4.771v11.1zm-9.006.049V22.96c-3.173 2.33-3.925 7.775 0 11.063zM14.66 2.942c-.827 1.063-1.603 2.072-2.093 3.26-.372.903-.059 1.895.745 2.485a2.28 2.28 0 002.71-.012c.802-.597 1.103-1.586.724-2.49-.49-1.173-1.251-2.178-2.086-3.242v-.001zM8.47 5.057c-.096.68-.759 1.141-1.316.846a68.784 68.784 0 01-3.285-1.881c-.407-.246-.478-.75-.251-1.14.236-.406.73-.586 1.156-.352a76.984 76.984 0 013.203 1.846c.22.136.331.45.492.682h.001zm-3.994 6.271c-.48-.001-.828-.268-.939-.657-.115-.404.025-.767.44-1.016.65-.389 1.311-.757 1.968-1.134.348-.2.69-.41 1.043-.6.508-.274 1.02-.148 1.279.3.25.432.118.936-.36 1.22a181.43 181.43 0 01-3.05 1.754c-.139.078-.304.105-.381.13v.003zM24.86 2.424c.466.028.762.218.906.607.148.397.023.793-.37 1.039-.554.346-1.128.661-1.693.988-.451.26-.9.522-1.355.772-.513.28-1.019.165-1.284-.279-.266-.444-.128-.952.375-1.248.997-.588 2.004-1.163 3.012-1.734.138-.078.304-.109.41-.144l-.002-.001zm.962 7.835c.022.776-.646 1.285-1.196.998a62.245 62.245 0 01-3.326-1.9c-.402-.242-.47-.754-.242-1.141.24-.405.73-.58 1.16-.343A81.4 81.4 0 0125.42 9.72c.213.13.322.428.402.539z"/></symbol><symbol viewBox="0 0 30 58" id="sServicesSlider-icon-1" xmlns="http://www.w3.org/2000/svg"><path d="M19.153 43.012c1.183 1.167 2.253 2.22 3.32 3.277 2.123 2.106 4.243 4.215 6.367 6.32.305.301.588.607.442 1.085-.15.486-.544.625-.993.704-.514.091-1.03.183-1.533.318a.588.588 0 00-.349.355c-.142.544-.24 1.1-.345 1.654-.078.407-.262.736-.68.86-.405.117-.714-.073-.996-.354-1.6-1.599-3.206-3.19-4.812-4.784-.11-.11-.227-.215-.405-.383-.013.237-.027.379-.027.52-.001 1.32.002 2.64-.001 3.96-.002.735-.332 1.07-1.058 1.07-2.285.003-4.57.003-6.854 0-.705 0-1.045-.336-1.047-1.034-.005-1.465-.001-2.93-.001-4.509-.187.166-.307.26-.414.367-1.512 1.498-3.02 2.997-4.532 4.496-.116.116-.23.233-.35.344-.642.602-1.412.372-1.608-.49a30.494 30.494 0 01-.34-1.7c-.042-.243-.144-.358-.39-.4-.485-.082-.963-.203-1.449-.282-.462-.075-.886-.19-1.052-.692-.17-.52.164-.831.487-1.15 3.073-3.051 6.143-6.103 9.214-9.155.114-.113.223-.232.465-.484-.199-.128-.4-.215-.545-.357-1.526-1.505-3.052-3.008-4.56-4.53C2.1 35.002.698 31.332 1.16 27.113c.592-5.402 3.561-9.148 8.576-11.292.311-.133.458-.255.456-.627-.017-1.905 1.07-2.968 2.99-2.971h.554v-1.397c-.954-.276-1.788-.766-2.371-1.604-.773-1.11-.992-2.308-.494-3.586.606-1.557 1.633-2.852 2.663-4.144.047-.058.098-.112.145-.169.784-.933 1.19-.934 1.979.018 1.008 1.215 1.94 2.477 2.639 3.903 1.163 2.373-.321 4.83-2.379 5.47-.112.034-.22.077-.34.12v1.39c.31 0 .605-.005.899 0 1.468.028 2.675 1.182 2.643 2.638-.014.644.212.883.784 1.14 4.687 2.097 7.518 5.662 8.205 10.744.586 4.34-.766 8.112-3.826 11.26-1.535 1.58-3.11 3.12-4.67 4.675-.114.114-.264.194-.458.333l-.002-.002zm-.011-25.407c0 .916.02 1.747-.01 2.574-.013.369.1.582.415.788 4.791 3.138 5.51 9.594 1.53 13.701-.973 1.003-1.98 1.974-2.971 2.96l-6.646 6.604-8.33 8.273c-.11.11-.21.227-.432.468 1.42-.063 2.003.635 1.99 1.96.228-.211.349-.317.462-.43l9.658-9.591c2.692-2.674 5.385-5.345 8.072-8.023 5.159-5.14 4.657-13.401-1.077-17.768a10.786 10.786 0 00-2.661-1.516zm-4.5 20.947c.903-.9 1.759-1.744 2.6-2.602.08-.08.103-.242.103-.366.005-6.868.005-13.735.002-20.603 0-.617-.356-.973-.97-.977-1.134-.008-2.27-.007-3.404 0-.651.004-.991.344-.997.993-.007.771-.002 1.543-.002 2.314 0 6.052-.002 12.104.005 18.156 0 .18.02.415.131.53.813.847 1.65 1.67 2.532 2.555zm-1.249 1.151c-.141-.101-.29-.182-.407-.296-1.627-1.612-3.293-3.188-4.862-4.854-2.135-2.267-2.873-4.98-2.228-8.018.504-2.373 1.85-4.205 3.864-5.564.16-.109.394-.273.4-.418.035-.974.018-1.948.018-2.98-.188.077-.325.125-.455.187-7.547 3.622-9.2 13.153-3.306 19.064 1.544 1.548 3.1 3.084 4.653 4.624.101.1.214.188.297.26l2.026-2.003v-.002zm3.956 16.12V55.3c0-1.407-.03-2.816.015-4.221.018-.584-.144-.996-.575-1.393-.717-.66-1.378-1.384-2.106-2.126-.86.862-1.666 1.65-2.444 2.463a.987.987 0 00-.255.612c-.02 1.6-.013 3.2-.011 4.8 0 .127.02.253.03.388h5.346zm-1.3-9.492l8.518 8.402c.148-.412.198-.998.518-1.314.327-.324.92-.385 1.355-.546l-8.494-8.427-1.898 1.885h.001zm3.106-12.357a6.996 6.996 0 002.655-6.33c-.214-1.91-1.081-3.487-2.655-4.771v11.1zm-9.006.049V22.96c-3.173 2.33-3.925 7.775 0 11.063zM14.66 2.942c-.827 1.063-1.603 2.072-2.093 3.26-.372.903-.059 1.895.745 2.485a2.28 2.28 0 002.71-.012c.802-.597 1.103-1.586.724-2.49-.49-1.173-1.251-2.178-2.086-3.242v-.001zM8.47 5.057c-.095.68-.759 1.141-1.316.846A68.79 68.79 0 013.87 4.022c-.407-.246-.477-.75-.25-1.14.235-.406.73-.586 1.155-.352a76.984 76.984 0 013.203 1.846c.221.136.331.45.492.682h.001zm-3.994 6.271c-.48-.001-.827-.268-.939-.657-.115-.404.026-.767.44-1.016.65-.389 1.311-.757 1.968-1.134.348-.2.69-.41 1.043-.6.508-.274 1.02-.148 1.279.3.25.432.118.936-.36 1.22-1.01.597-2.029 1.176-3.05 1.754-.139.078-.304.105-.381.13v.003zM24.86 2.424c.466.028.762.218.906.607.148.397.023.793-.37 1.039-.554.346-1.128.661-1.693.988-.451.26-.899.522-1.355.772-.513.28-1.019.165-1.284-.279-.266-.444-.127-.952.375-1.248.998-.588 2.004-1.163 3.012-1.734.138-.078.304-.109.41-.144l-.001-.001zm.962 7.835c.022.776-.646 1.285-1.197.998a62.245 62.245 0 01-3.325-1.9c-.402-.242-.47-.754-.242-1.141.24-.405.73-.58 1.16-.343A81.4 81.4 0 0125.42 9.72c.213.13.322.428.402.539z"/></symbol><symbol viewBox="0 0 74 55" id="sServicesSlider-icon-2" xmlns="http://www.w3.org/2000/svg"><g clip-path="url(#la)"><path d="M66.084 31.458c.668.167 1.273.284 1.856.47 1.494.475 2.444 1.739 2.475 3.236.033 1.538-.872 2.828-2.368 3.382-.146.054-.288.12-.502.21.862.994 1.688 1.952 2.52 2.906a923.835 923.835 0 003.46 3.958c.377.43.627.882.368 1.464-.265.596-.763.747-1.368.74-1.372-.016-2.744.023-4.115-.02a2.885 2.885 0 01-1.288-.345c-3.204-1.808-6.385-3.657-9.588-5.467-.273-.154-.69-.224-.985-.141-2.771.781-5.532 1.605-8.294 2.419-.126.037-.245.1-.49.339.182.115.388.204.545.348 2.75 2.538 5.495 5.083 8.241 7.626.146.136.296.268.426.418.314.358.414.769.234 1.221-.187.468-.541.762-1.042.766-2.426.014-4.85.02-7.276-.01-.29-.003-.604-.189-.86-.36-4.438-2.955-8.865-5.926-13.306-8.875a1.929 1.929 0 00-.983-.306c-2.266-.026-4.532-.014-6.798-.014h-.665c0 .423.013.797-.002 1.168-.03.728-.485 1.214-1.204 1.217-2.464.015-4.931.048-7.395-.018-1.303-.034-2.287-.756-2.9-1.911-.187-.355-.393-.461-.78-.466-1.707-.02-3.428.042-5.119-.152-2.776-.317-5.178-1.556-7.09-3.602C-.05 39.685-.506 37.338.579 34.847c1.091-2.51 3.118-3.778 5.844-3.782 14.094-.015 28.19-.012 42.284.003.76 0 1.414-.147 2.078-.542 2.135-1.273 4.31-2.478 6.458-3.728a3.09 3.09 0 00.809-.685 765.882 765.882 0 005.268-6.343c.383-.465.813-.706 1.431-.693 1.391.029 2.783.007 4.174.01 1.268.005 1.772.744 1.302 1.923-1.297 3.257-2.598 6.512-3.897 9.77-.08.2-.15.404-.249.674l.004.004zm-35.65 11.555l.051-.12c-1.136-.761-2.273-1.52-3.407-2.281-.664-.446-.908-.924-.754-1.476.166-.598.638-.893 1.442-.893 4.174 0 8.35.006 12.524-.007.533-.002.954.157 1.34.52 1.203 1.134 2.433 2.238 3.628 3.378.315.3.598.37 1.01.243 1.48-.457 2.97-.878 4.456-1.318 1.077-.32 2.153-.646 3.23-.97l.076-.167c-.076-.026-.158-.042-.227-.08-.933-.533-1.862-1.069-2.794-1.604-.701-.403-.983-.904-.831-1.482.156-.6.63-.905 1.431-.905 4.194-.001 8.389.004 12.583-.006.512-.001.911.153 1.279.517.149.149.44.212.665.209.271-.004.54-.115.81-.188.745-.203 1.093-.575 1.084-1.15-.01-.573-.35-.986-1.125-1.107-1.666-.26-3.342-.63-5.014-.635-16.459-.05-32.919-.033-49.377-.033-.17 0-.341.025-.546.041v.762c-.007 3.848-2.52 6.373-6.346 6.377H4.353c1.362 1.263 2.925 2.05 4.693 2.233 1.615.166 3.252.102 4.879.168.43.018.663-.103.876-.504.65-1.228 1.713-1.873 3.095-1.888 2.345-.028 4.692-.014 7.037-.006.891.002 1.335.468 1.348 1.38.005.329 0 .657 0 .994h4.15l.003-.002zm1.26-2.375l-.05.114c.153.113.302.233.461.34 2.74 1.835 5.52 3.611 8.204 5.525 1.26.9 2.52 1.365 4.066 1.221 1.094-.102 2.204-.019 3.405-.019-.106-.15-.14-.219-.19-.267-2.418-2.245-4.835-4.492-7.262-6.728a.776.776 0 00-.479-.179c-2.718-.01-5.437-.007-8.155-.007zm33.86-14.364c-1.494 0-2.863-.015-4.229.015-.194.004-.45.174-.565.343-.93 1.376-2.212 2.305-3.67 3.037-.639.32-1.246.7-1.864 1.06-.117.068-.217.168-.324.253l.045.152c2.796 0 5.593.002 8.39-.01.125 0 .318-.114.363-.224.617-1.503 1.214-3.015 1.854-4.626zM9.517 33.47c-1.224 0-2.419-.066-3.604.015-2.1.143-3.708 2.146-3.459 4.237.021.184.223.493.345.496 1.27.02 2.56.124 3.807-.057 2.137-.308 3.274-2.222 2.911-4.69zm46.61 4.774l-.04.144c1.27.727 2.539 1.46 3.818 2.175.143.08.344.072.52.073 1.666.005 3.332.005 4.998 0 .143 0 .286-.034.52-.063-.39-.45-.764-.792-1.028-1.205-.598-.936-1.396-1.203-2.496-1.153-2.093.096-4.194.028-6.292.028v.001zm-3.154 14.358c-2.043-2.325-2.168-2.383-5.03-2.386H45.97c1.052.854 2.121 1.57 3.194 2.281.08.053.181.1.272.102 1.141.007 2.284.005 3.537.005v-.002zM63.036 23.88c1.176 0 2.18.01 3.184-.013a.534.534 0 00.39-.265c.291-.668.546-1.353.845-2.112-.804 0-1.53-.006-2.256.007a.46.46 0 00-.302.15c-.59.694-1.168 1.397-1.86 2.232zm1.441 19.157l-.032.142c1.046.601 2.126 1.15 3.128 1.819.785.523 1.59.438 2.576.397-.713-.816-1.342-1.543-1.981-2.26-.056-.062-.177-.095-.266-.095-1.142-.006-2.282-.003-3.424-.003zm-42.942 2.346h2.33V43.08h-2.33v2.303zm-2.457.038v-2.385c-.793.053-1.673-.273-2.13.59-.17.323-.17.894.005 1.214.463.852 1.336.543 2.125.581zm41.834-31.119c-1.606.017-2.964-.426-4.138-1.367-.302-.242-.537-.29-.906-.172-1.8.573-3.577.46-5.272-.375-1.658-.818-2.795-2.082-2.821-4.027-.025-1.952 1.08-3.267 2.75-4.055.802-.38 1.343-.856 1.834-1.607C53.773.546 55.865-.344 58.382.12c2.47.452 4.04 2.021 4.698 4.455.108.4.285.591.643.75 1.66.737 2.855 1.896 3.09 3.787.223 1.771-.89 3.537-2.726 4.445a7.01 7.01 0 01-3.177.747h.002zm-.053-2.39c1.083-.016 2.168-.273 3.02-1.138.784-.796.82-1.806-.033-2.516-.544-.453-1.25-.742-1.922-1.002-.672-.26-1.002-.575-1.045-1.277-.117-1.924-1.32-3.299-3.096-3.542-1.782-.244-3.324.758-3.92 2.58-.19.573-.548.88-1.123 1.026-.458.114-.922.264-1.334.488-.687.373-1.243.906-1.251 1.76-.01.883.55 1.436 1.256 1.823 1.463.8 2.96.797 4.461.08.835-.399 1.228-.322 1.84.36.82.913 1.84 1.358 3.145 1.36l.002-.001zm-48.126 11.97c-1.19.007-2.539-.478-3.756-1.4-.19-.143-.55-.197-.782-.128-1.77.524-3.507.46-5.175-.32-1.754-.819-2.974-2.121-2.96-4.177.014-2.03 1.239-3.313 2.98-4.095.669-.3 1.105-.67 1.479-1.31C5.776 10.304 8.13 9.22 10.63 9.686c2.472.46 4.051 2.002 4.726 4.43.115.411.284.63.672.795 1.372.588 2.423 1.525 2.907 2.982.57 1.712-.143 3.592-1.769 4.754-1.224.873-2.607 1.232-4.433 1.237h-.001zm.604-2.395a4.254 4.254 0 002.414-.771c1.316-.927 1.325-2.337-.007-3.23-.451-.304-.995-.487-1.519-.657-.72-.234-1.023-.566-1.064-1.319-.1-1.86-1.325-3.25-3.08-3.495-1.764-.247-3.354.75-3.913 2.508-.207.652-.598.981-1.247 1.117a4.468 4.468 0 00-1.167.43c-.711.378-1.297.905-1.315 1.783-.018.907.565 1.466 1.295 1.859 1.45.776 2.928.767 4.41.066.843-.4 1.244-.33 1.843.342.833.933 1.873 1.38 3.35 1.367z"/><path d="M15.586 35.877h2.309v2.317h-2.309v-2.317zm5.896.006v2.325h-2.31v-2.325h2.31zm1.261-.007h2.31v2.318h-2.31v-2.318zm22.58 2.348h-2.291v-2.34h2.291v2.34zm1.276-2.344h2.316v2.317H46.6V35.88z"/></g><defs><clipPath id="la"><path d="M0 0h74v55H0z"/></clipPath></defs></symbol><symbol viewBox="0 0 57 56" id="sServicesSlider-icon-3" xmlns="http://www.w3.org/2000/svg"><path d="M55.964 54.044v1.742H.457v-1.742h.504c1.971 0 3.942.01 5.913-.01a1.3 1.3 0 00.72-.253c.853-.645 1.682-1.324 2.578-2.038L0 42.473c.453-.43.877-.822 1.287-1.229 3.475-3.448 6.952-6.896 10.42-10.351 2.4-2.392 5.29-3.557 8.691-3.562 2.005-.003 3.923.3 5.724 1.2.212.105.344.072.497-.104.879-1.01 1.766-2.012 2.657-3.01.147-.167.176-.292.06-.505-.393-.73-.32-1.402.238-2.012 3.328-3.649 6.664-7.29 10-10.933.477-.522 1.07-.724 1.779-.615.123.019.306-.021.384-.106.495-.533.968-1.087 1.486-1.676-.176-.144-.329-.276-.488-.398-1.267-.966-2.537-1.929-3.803-2.897-1.035-.791-1.163-1.788-.361-2.82.501-.645 1.011-1.285 1.52-1.925.842-1.06 1.881-1.195 2.965-.372 2.62 1.991 5.237 3.987 7.855 5.98 1.682 1.281 3.366 2.562 5.047 3.845 1.09.83 1.224 1.81.392 2.879-.52.67-1.043 1.335-1.575 1.995-.743.926-1.813 1.077-2.768.37-1.088-.806-2.16-1.637-3.237-2.46-.369-.28-.702-.254-1 .082-.394.443-.787.887-1.17 1.32.638 1.228.583 1.684-.345 2.698-3.201 3.503-6.408 7-9.61 10.504-.557.61-1.204.895-2.04.676-.115-.03-.31.022-.387.108a183.184 183.184 0 00-3.1 3.512c-.088.102-.053.391.028.536.777 1.391 1.278 2.866 1.454 4.452.323 2.913-.394 5.56-2.075 7.95-.229.325-.191.506-.004.84.43.766 1.049 1.27 1.785 1.728.536.333 1.027.539 1.671.558 1.273.037 2.353.585 3.276 1.458.168.158.418.285.647.317 2.192.31 3.883 1.375 5.02 3.267.158.263.35.27.594.27 3.957-.002 7.914-.001 11.871 0h.58v.002zM2.534 42.438c.198.15.324.23.432.328 2.764 2.514 5.536 5.019 8.279 7.555.408.378.76.55 1.286.323.172-.073.389-.038.57-.097.187-.061.403-.136.526-.274 1.147-1.28 2.54-2.188 4.15-2.786.19-.07.385-.231.492-.403 1.715-2.726 4.138-4.006 7.396-3.633.15.017.394-.078.469-.199 1.481-2.37 1.611-4.797.208-7.24-2.405-4.186-8.593-4.268-11.462-1.312-2.05 2.114-4.182 4.152-6.254 6.245-.331.334-.525.335-.802-.016a5.19 5.19 0 00-.63-.63c-.192-.172-.18-.306 0-.476.366-.348.722-.709 1.08-1.066 1.637-1.625 3.309-3.216 4.901-4.884 2.006-2.102 4.42-3.036 7.33-2.986 5.84.1 9.942 5.645 8.17 11.165-.224.697-.568 1.358-.864 2.054.242.14.517.265.75.443.28.215.431.168.632-.122 2.766-3.985 2.088-9.532-1.578-12.783-2.104-1.867-4.588-2.593-7.38-2.534-2.796.059-5.187.993-7.166 2.956-3.116 3.091-6.228 6.188-9.346 9.277-.357.355-.74.685-1.189 1.095zm7.68 11.577h30.652c-.105-.137-.164-.236-.244-.314-.874-.856-1.923-1.369-3.15-1.408-.527-.017-.893-.178-1.227-.562-.561-.648-1.259-1.103-2.129-1.208-.457-.055-.927 0-1.384-.05-.242-.027-.523-.12-.697-.278-.837-.766-1.79-1.286-2.925-1.423-.585-.072-1.18-.07-1.803-.104v-1.747h1.222c-1.939-2.382-5.977-2.297-7.832.018h1.202v1.776c-2.374-.138-4.462.49-6.285 2.098.399.195.738.342 1.055.527.095.055.21.245.18.314-.21.467-.455.92-.705 1.406-1-.546-1.978-.932-3.114-.728-1.14.205-1.916.946-2.816 1.684zm44.864-41.423L41.703 2.375l-1.842 2.334 13.375 10.22 1.842-2.337zm-25.2 18.752l3.041-3.435-2.048-1.603-2.897 3.286 1.904 1.753v-.001zM43.94 17.752l1.295-1.412-4.254-3.267-1.28 1.4 4.239 3.279zm-1.212 1.32L38.49 15.8l-1.148 1.254 4.243 3.273 1.143-1.256h.001zm-6.598 7.215c-1.396-1.077-2.733-2.112-4.08-3.135-.06-.047-.241-.031-.298.025-.29.285-.56.594-.866.926l4.253 3.266.99-1.082zm-2.119-5.593l-.908.996c1.378 1.064 2.704 2.091 4.038 3.108.072.055.254.079.302.032.273-.261.52-.548.807-.861l-4.238-3.275zm1.208-1.325l4.239 3.274.914-.993-4.243-3.274-.91.992zm11.561-7.107l-2.115-1.614-1.585 1.792 2.095 1.638 1.605-1.816z"/><path d="M24.534 48.702c1.707.028 3.011.687 4.096 1.83.165.173.141.293-.02.443-.25.233-.506.465-.726.725-.237.284-.41.242-.64-.01-.682-.747-1.527-1.18-2.555-1.2-1.065-.02-1.95.393-2.658 1.166-.257.28-.454.348-.703.013-.087-.119-.21-.21-.313-.317-.684-.71-.774-.48.046-1.245 1-.933 2.21-1.378 3.473-1.406z"/></symbol><symbol viewBox="0 0 56 53" id="sServicesSlider-icon-4" xmlns="http://www.w3.org/2000/svg"><path d="M27.736 52.229H1.263C.258 52.229 0 51.97 0 50.959V1.794C0 .89.292.604 1.211.604H54.34c.94 0 1.218.28 1.218 1.225v49.123c0 1.028-.253 1.277-1.3 1.277H27.735zm.973-49.831V50.42h25.019V2.4H28.709v-.001zm-26.88 0v48.02h25.016V2.399H1.829z"/><path d="M41.226 10.396h9.49c.148 0 .298-.009.446.008a.893.893 0 01.805.866.894.894 0 01-.819.898c-.133.014-.268.007-.402.007H31.72c-.823 0-1.243-.294-1.253-.875-.01-.594.427-.906 1.267-.906h9.49v.002zm-.006 4.45h9.49c.148 0 .299-.008.447.008.458.05.799.418.81.86a.895.895 0 01-.814.904c-.148.016-.298.007-.447.007h-18.98c-.828 0-1.244-.29-1.258-.87-.013-.594.426-.911 1.262-.911h9.49v.002zm-.002 4.45h9.49c.164 0 .33-.009.492.014.433.06.757.428.768.853a.892.892 0 01-.767.9c-.162.022-.328.013-.492.013h-18.98c-.837 0-1.275-.318-1.26-.912.015-.581.432-.869 1.26-.869h9.49v.001zm-.002 4.45h9.489c.164 0 .33-.01.492.014.45.062.78.453.77.896a.893.893 0 01-.765.857c-.161.023-.328.013-.492.013l-18.98.001c-.837 0-1.275-.316-1.262-.91.014-.58.432-.87 1.257-.87h9.49zm3.587 13.352c2.029 0 4.057-.012 6.085.013.285.004.653.115.827.312.171.193.264.604.172.835-.1.253-.439.422-.692.602-.071.051-.204.017-.308.017h-12.17c-.06 0-.12.002-.18-.002-.532-.032-.911-.416-.899-.911.012-.476.384-.852.9-.862.806-.015 1.612-.005 2.416-.005h3.849zm-.015 6.23c-2.043 0-4.087-.002-6.13.003-.39.001-.755-.105-.887-.468a1.317 1.317 0 01.015-.874c.154-.381.546-.444.946-.444 2.625.008 5.25.004 7.876.004 1.431 0 2.863-.002 4.295 0 .653.003 1.06.345 1.065.882.004.538-.406.896-1.05.897-2.042.003-4.086 0-6.13 0zM41.22 5.945c1.745 0 3.49-.017 5.234.017.29.005.665.162.835.377.155.196.197.625.083.847-.125.241-.469.472-.747.513-.54.08-1.1.026-1.651.026H36.34c-.164 0-.329.006-.492-.003-.515-.03-.888-.392-.899-.867-.01-.493.37-.898.904-.905 1.103-.015 2.207-.006 3.31-.006h2.058v.001zm-5.827 22.252c1.282 0 2.564-.002 3.846 0 .677.003 1.093.358 1.08.912-.013.534-.42.867-1.078.867-2.564.003-5.129.003-7.692 0-.674 0-1.094-.36-1.08-.91.014-.534.422-.867 1.078-.869 1.282-.003 2.564 0 3.846 0zM4.48 32.647c0-1.72-.004-3.44 0-5.16.006-2.71 1.927-4.625 4.648-4.63 3.479-.004 6.957-.005 10.435 0 2.694.005 4.623 1.925 4.628 4.606.006 3.44.006 6.88 0 10.32-.006 2.764-1.924 4.652-4.716 4.655-3.48.003-6.957.003-10.435 0-2.574-.003-4.542-1.939-4.56-4.496-.012-1.764-.002-3.529-.002-5.293l.002-.002zm7.18 1.46c-.902-.967-.958-2.13-.91-3.321.011-.296-.002-.593.005-.89a3.58 3.58 0 013.226-3.467c1.825-.172 3.552 1.024 3.826 2.818.16 1.04.096 2.127.014 3.184-.037.473-.363.924-.565 1.381-.046.104-.124.195-.202.314 2.515 1.37 3.668 3.49 3.557 6.373.249-.124.443-.193.605-.308.785-.552 1.184-1.313 1.184-2.272 0-3.515.006-7.029-.003-10.544-.003-1.597-1.165-2.736-2.782-2.738a3356.84 3356.84 0 00-10.525 0c-1.669.001-2.815 1.139-2.817 2.795-.005 3.485-.005 6.97.003 10.455 0 .293.032.598.119.876.258.817.789 1.39 1.665 1.73-.112-2.89 1.05-5.004 3.599-6.386zM9.878 40.62h8.918c.163-1.978-.416-3.6-2.146-4.647-1.519-.917-3.107-.915-4.626.002-1.732 1.045-2.312 2.666-2.146 4.645zm6.248-9.71c0-.326.009-.652-.002-.977a1.783 1.783 0 00-1.788-1.735 1.78 1.78 0 00-1.787 1.735 37 37 0 000 1.864 1.78 1.78 0 001.787 1.737 1.79 1.79 0 001.789-1.737c.01-.295.002-.592 0-.887zM11.648 7.726c0-.856-.003-1.653 0-2.45.003-.795.315-1.108 1.11-1.11 1.075-.004 2.15-.005 3.224 0 .705.004 1.036.338 1.04 1.044.005.814.002 1.628.002 2.515h1.929c1.54 0 1.654.115 1.655 1.636 0 .89.004 1.78 0 2.67-.005.696-.344 1.03-1.051 1.034-.82.004-1.64 0-2.532 0v6.856c0 .85-.304 1.154-1.155 1.155-1.06.001-2.12.004-3.18-.002-.704-.003-1.04-.337-1.04-1.042-.004-2.135-.002-4.271-.002-6.407v-.56H9.99c-.343 0-.687.011-1.03-.004-.518-.023-.88-.362-.888-.874a138.606 138.606 0 01-.002-3.56c.006-.552.378-.892.954-.899.85-.01 1.7-.002 2.624-.002h.001zM9.89 9.506v1.78h2.398c.85 0 1.153.302 1.153 1.154v6.827h1.792v-6.819c0-.873.297-1.162 1.19-1.164h2.354V9.505c-.83 0-1.619.002-2.41 0-.822-.003-1.133-.312-1.134-1.128-.002-.795 0-1.591 0-2.396H13.44c0 .82.002 1.604 0 2.387-.002.827-.306 1.134-1.126 1.137-.802.003-1.603 0-2.425 0zM5.374 5.943V8.58c0 .375-.154.71-.51.81-.27.075-.645.069-.87-.07-.208-.129-.383-.476-.392-.733-.041-1.17-.027-2.342-.014-3.513.006-.542.36-.897.903-.903a167.41 167.41 0 013.538 0c.542.004.924.387.926.881.002.494-.382.88-.921.889-.864.013-1.728.003-2.66.003zm17.923.002c-.89 0-1.71.004-2.53 0-.645-.004-1.055-.359-1.05-.897.004-.537.412-.88 1.065-.882 1.09-.004 2.179-.005 3.269 0 .699.003 1.034.34 1.036 1.046.005 1.083.004 2.165 0 3.248-.002.64-.362 1.047-.904 1.042-.542-.005-.882-.408-.885-1.06-.004-.813 0-1.625 0-2.497h-.001zM5.374 46.889c.9 0 1.746-.006 2.593.002.548.004.925.311.984.78.062.489-.298.974-.809.984-1.238.026-2.478.022-3.716.003-.485-.008-.83-.38-.835-.875a147.213 147.213 0 010-3.56.88.88 0 01.872-.891c.499-.01.9.367.908.9.016.859.005 1.719.005 2.657h-.002zm17.923 0c0-.873-.002-1.672 0-2.471.003-.679.35-1.093.906-1.086.556.006.884.413.885 1.105.002 1.053.004 2.105 0 3.159-.002.734-.331 1.07-1.056 1.072-1.09.005-2.18.004-3.269 0-.645-.002-1.054-.36-1.047-.9.008-.537.415-.875 1.07-.877.817-.004 1.636 0 2.511 0v-.002z"/></symbol><symbol viewBox="0 0 34 57" id="sServicesSlider-icon-5" xmlns="http://www.w3.org/2000/svg"><g clip-path="url(#oa)"><path d="M28.732 51.27c.066.043.1.08.142.092 1.645.538 2.29 1.422 2.292 3.144 0 .427.002.855 0 1.282-.005.879-.328 1.21-1.194 1.211-4.012.002-8.025.001-12.037.001H4.103c-.963 0-1.266-.306-1.267-1.278 0-.507-.004-1.014.002-1.52.015-1.386.834-2.44 2.172-2.805.074-.02.146-.052.277-.1l-.6-1.935C3.103 44.27 1.739 39.123.877 33.855c-.526-3.205-.88-6.428-.522-9.685.128-1.169.364-2.312.868-3.383.113-.24.054-.358-.136-.51C.325 19.66-.02 18.845 0 17.863c.013-.601-.009-1.203.007-1.803.04-1.48 1.255-2.704 2.728-2.744.64-.017 1.284-.003 1.99-.003 0-.64-.004-1.235 0-1.83.02-2.714 1.701-4.937 4.315-5.58.736-.181 1.526-.155 2.293-.184.768-.028 1.54-.006 2.36-.006-.885-2.09-.55-3.854 1.35-5.129 1.291-.865 2.979-.745 4.21.184C20.702 1.864 21 3.2 20.33 5.714c1.077 0 2.14.003 3.205 0 1.08-.003 2.091.255 3.005.834 1.722 1.092 2.633 2.674 2.727 4.717.03.66.005 1.323.005 2.047.605 0 1.166-.002 1.727 0 1.799.009 2.989 1.2 2.998 3.002.003.554 0 1.108 0 1.662 0 .926-.358 1.682-1.05 2.295-.11.098-.228.337-.182.438.824 1.868 1.002 3.845 1.014 5.849.019 3.146-.426 6.245-1.016 9.325-.971 5.069-2.332 10.035-3.915 14.942-.047.146-.079.298-.118.444h.001zm3.066-26.56h-.46c-9.551 0-19.102.003-28.654-.01-.447 0-.547.145-.567.556-.15 3.104.245 6.16.782 9.202.981 5.553 2.466 10.975 4.202 16.334.129.397.31.522.73.521 6.121-.016 12.243-.015 18.364-.003.395 0 .582-.103.693-.5.96-3.406 1.998-6.79 2.895-10.213.979-3.734 1.72-7.525 1.997-11.385.105-1.474.017-2.962.017-4.502zm-14.82-5.7h13.975c.809 0 1.152-.345 1.157-1.15.004-.46 0-.919 0-1.378 0-.964-.304-1.268-1.276-1.268h-18.27c-3.18 0-6.359-.002-9.538.001-.781 0-1.124.348-1.132 1.127-.005.459-.002.918 0 1.377 0 .997.298 1.293 1.299 1.293h13.786v-.002zm10.41-5.71c0-.643.005-1.24 0-1.837-.021-2.19-1.652-3.84-3.832-3.845-4.371-.01-8.743-.009-13.115.007a4.04 4.04 0 00-1.291.217c-2.053.716-3.157 3.201-2.448 5.459h20.687V13.3zM2.42 22.773h29.14c-.21-.51-.397-.958-.58-1.408-.14-.348-.371-.467-.761-.465-4.107.016-8.214.009-12.321.009-4.705 0-9.41-.003-14.115.01-.206 0-.515.072-.597.214-.287.499-.495 1.042-.765 1.64zm2.335 32.29h24.483c.149-1.304.004-1.888-1.569-1.88-7.109.037-14.218.032-21.327.003-1.505-.007-1.686.445-1.614 1.698.003.047.013.092.027.18zm14.132-51.24a1.905 1.905 0 00-1.89-1.905 1.898 1.898 0 00-1.882 1.862c-.015 1.046.83 1.921 1.865 1.93a1.899 1.899 0 001.907-1.886z"/><path d="M19.852 40.839H14.18v-5.674h-2.81v-5.687h2.782v-2.83h5.671v2.802h2.82v5.687h-2.791v5.703-.001zm-3.82-12.306v2.834h-2.769v1.905h2.814v5.647h1.877v-5.674h2.796V31.34h-2.823v-2.81h-1.894v.002z"/></g><defs><clipPath id="oa"><path d="M0 0h34v57H0z"/></clipPath></defs></symbol><symbol viewBox="0 0 13 11" id="telegram" xmlns="http://www.w3.org/2000/svg"><path d="M.61 5.224l2.76 1.03 1.075 3.46c.047.233.327.28.514.14L6.502 8.59c.14-.14.374-.14.561 0l2.76 2.01c.186.141.467.048.514-.186l2.057-9.82c.047-.234-.187-.467-.42-.374L.61 4.617c-.28.093-.28.514 0 .607zm3.695.515l5.424-3.32c.093-.047.187.093.093.14L5.38 6.721c-.14.14-.28.327-.28.56l-.14 1.123c0 .14-.235.187-.281 0l-.562-2.057c-.14-.234-.046-.515.188-.608z"/></symbol><symbol viewBox="0 0 12 13" id="viber" xmlns="http://www.w3.org/2000/svg"><path d="M9.288.309a17.896 17.896 0 00-6.618 0C1.707.514.492 1.666.283 2.57a12.788 12.788 0 000 5.349c.251.905 1.466 2.057 2.387 2.262.042 0 .084.042.084.083v2.592c0 .123.167.205.251.082l1.257-1.275s1.005-1.029 1.173-1.194c0 0 .041-.04.083-.04 1.257.04 2.555-.083 3.812-.289.963-.205 2.178-1.357 2.387-2.262a12.79 12.79 0 000-5.349C11.466 1.666 10.251.514 9.288.31zm.042 7.734c-.21.412-.46.74-.88.946l-.377.124a5.345 5.345 0 01-.419-.124c-1.34-.534-2.596-1.275-3.602-2.345A9.886 9.886 0 012.67 4.587c-.167-.37-.335-.7-.46-1.07-.126-.329.083-.658.293-.905.209-.246.46-.41.754-.534.209-.124.418-.041.586.123.335.411.67.823.921 1.275.168.288.126.618-.167.823a.733.733 0 00-.21.165c-.041.041-.125.082-.167.164a.394.394 0 00-.042.37c.335.947.963 1.687 1.927 2.099.167.082.293.123.502.123.294-.04.42-.37.629-.535.209-.164.46-.164.712-.04.21.123.418.287.67.452.21.164.419.288.628.452.126.083.168.288.084.494zM7.57 4.958c-.083 0-.041 0 0 0-.167 0-.209-.083-.25-.206 0-.082 0-.206-.043-.288a.78.78 0 00-.293-.453l-.251-.123c-.126-.041-.21-.041-.335-.041-.126-.041-.168-.124-.168-.247 0-.082.126-.165.21-.165.67.041 1.173.412 1.256 1.193v.165c0 .082-.042.165-.125.165zm-.418-1.81a3.18 3.18 0 00-.67-.206c-.084 0-.21-.042-.294-.042-.125 0-.209-.082-.167-.205 0-.124.084-.206.21-.165.418.041.795.124 1.172.288.754.37 1.173.988 1.299 1.81v.535c-.042.165-.336.206-.377 0 0-.04-.042-.123-.042-.164 0-.37-.084-.74-.252-1.07a2.239 2.239 0 00-.88-.782zm2.262 2.468c-.126 0-.21-.124-.21-.247 0-.247-.042-.494-.084-.74-.167-1.317-1.256-2.387-2.555-2.593-.209-.04-.418-.04-.586-.082-.126 0-.293 0-.335-.164-.042-.124.084-.247.21-.247h.083c1.717.04.084 0 0 0 1.76.04 3.225 1.193 3.519 2.92.041.289.083.577.083.906.084.123 0 .247-.125.247z"/></symbol><symbol viewBox="0 0 24 24" id="vk" xmlns="http://www.w3.org/2000/svg"><path d="M21.579 6.855c.14-.465 0-.806-.662-.806h-2.193c-.558 0-.813.295-.953.619 0 0-1.115 2.719-2.695 4.482-.51.513-.743.675-1.021.675-.139 0-.341-.162-.341-.627V6.855c0-.558-.161-.806-.626-.806H9.642c-.348 0-.558.258-.558.504 0 .528.79.65.871 2.138v3.228c0 .707-.127.836-.407.836-.743 0-2.551-2.73-3.624-5.853-.209-.607-.42-.852-.98-.852H2.752c-.627 0-.752.295-.752.619 0 .582.743 3.462 3.461 7.27 1.812 2.602 4.363 4.012 6.687 4.012 1.393 0 1.565-.313 1.565-.853v-1.966c0-.626.133-.752.574-.752.324 0 .882.164 2.183 1.417 1.486 1.486 1.732 2.153 2.567 2.153h2.192c.626 0 .939-.313.759-.931-.197-.615-.907-1.51-1.849-2.57-.512-.603-1.277-1.253-1.51-1.578-.325-.42-.231-.604 0-.976.001 0 2.672-3.761 2.95-5.04z"/></symbol><symbol viewBox="0 0 13 13" id="whatsapp" xmlns="http://www.w3.org/2000/svg"><path d="M10.756 2.237A6.257 6.257 0 006.322.4C2.854.4.044 3.2.044 6.656a6.32 6.32 0 00.834 3.106L0 13l3.337-.875a6.42 6.42 0 002.985.744c3.468 0 6.278-2.8 6.278-6.257-.044-1.618-.659-3.193-1.844-4.375zm-1.405 6.65c-.131.35-.746.7-1.053.744a2.462 2.462 0 01-.966-.044c-.22-.087-.527-.175-.878-.35-1.58-.656-2.59-2.23-2.678-2.362-.088-.088-.659-.831-.659-1.619 0-.787.395-1.137.527-1.312.132-.175.307-.175.439-.175h.307c.088 0 .22-.044.351.262.132.306.44 1.094.483 1.138a.278.278 0 010 .262.915.915 0 01-.175.263c-.088.087-.176.218-.22.262-.088.088-.175.175-.088.306.088.175.396.657.879 1.094.614.525 1.097.7 1.273.788.175.087.263.043.35-.044.089-.088.396-.438.484-.613.088-.175.22-.13.351-.087.132.044.922.437 1.054.525.175.087.263.131.307.175.044.131.044.437-.088.787z"/></symbol><symbol viewBox="0 0 37 37" id="why-item-1" xmlns="http://www.w3.org/2000/svg"><path d="M10.9 12.87h12M25.75 21.72l-.6.6-.6-.6c-1.35-1.35-3.45-1.5-4.95-.3s-1.65 3.449-.45 4.949c1.8 2.1 3.75 4.35 5.85 6 2.25-1.65 4.35-3.9 6-6.15 1.2-1.5.9-3.6-.45-4.8-1.35-1.2-3.45-1.05-4.8.3z"/><path d="M15.4 32.368H7.9c-1.65 0-3-1.35-3-3V8.37c0-1.65 1.35-3 3-3h18c1.65 0 3 1.35 3 3v6"/></symbol><symbol viewBox="0 0 37 37" id="why-item-2" xmlns="http://www.w3.org/2000/svg"><path d="M30.4 32.067l-3.45-3.3m-17.1 0l-3.45 3.3m23.111-7.109c2.536-6.122-.371-13.141-6.494-15.677-6.123-2.536-13.143.371-15.68 6.493-2.536 6.123.372 13.142 6.495 15.678 6.123 2.536 13.143-.371 15.68-6.494zM5.5 9.57L10 5.82m21.3 3.75l-4.5-3.75"/><path d="M18.1 14.969v6.3l4.8 2.85"/></symbol><symbol viewBox="0 0 37 37" id="why-item-3" xmlns="http://www.w3.org/2000/svg"><path d="M9.8 32.37h-3c-.9 0-1.5-.6-1.5-1.5v-9c0-.9.6-1.5 1.5-1.5h3c.9 0 1.5.6 1.5 1.5v9c0 .9-.6 1.5-1.5 1.5zm10.5-6h3.45c.6 0 1.35-.15 1.8-.6l3.6-2.7c.9-.75 2.1-.6 3 .15.9.9.9 2.4 0 3.15L29 29.52c-.9.9-1.95 1.35-3 1.65l-4.35.9c-.9.15-1.8.15-2.7 0l-3.9-1.05c-.45-.15-.9-.15-1.5-.15H11.3"/><path d="M20.3 26.37h2.25c1.2 0 2.25-1.05 2.25-2.25v-.45c0-1.05-.75-1.95-1.65-2.25l-3.45-.9c-.6-.15-1.2-.15-1.65-.15-1.35 0-2.7.45-3.9 1.2l-2.7 1.8m12.15-7.5a4.2 4.2 0 100-8.4 4.2 4.2 0 000 8.4z"/><path d="M22.85 7.471c-.15-.9-.6-1.65-1.2-2.25a4.255 4.255 0 00-6 0 4.255 4.255 0 000 6c1.05 1.05 2.4 1.35 3.75 1.2"/></symbol><symbol viewBox="0 0 37 37" id="why-item-4" xmlns="http://www.w3.org/2000/svg"><path d="M15.4 3.871h6m-3 28.497c6.627 0 12-5.372 12-11.999 0-6.626-5.373-11.999-12-11.999s-12 5.373-12 12c0 6.626 5.373 11.998 12 11.998z"/><path d="M18.4 19.62c-.45 0-.75.3-.75.75s.3.75.75.75.75-.3.75-.75-.3-.75-.75-.75zM23.65 25.62c-1.35 1.35-3.3 2.25-5.25 2.25-4.2 0-7.5-3.3-7.5-7.5 0-.45 0-.9.15-1.35m2.1-3.9l4.65 4.65m12.6-11.4l-3.45 3.45m1.95-4.95l3 3"/></symbol></svg>