<?xml version="1.0" encoding="utf-8"?><svg xmlns="http://www.w3.org/2000/svg" xmlns:xlink="http://www.w3.org/1999/xlink"><symbol viewBox="0 0 22 24" id="basket" xmlns="http://www.w3.org/2000/svg"><g clip-path="url(#aa)"><path d="M10.363 18.443a2.046 2.046 0 00-2.045 2.042 2.046 2.046 0 004.09 0 2.046 2.046 0 00-2.045-2.042zm6.134 0a2.046 2.046 0 00-2.045 2.042 2.046 2.046 0 004.089 0 2.046 2.046 0 00-2.044-2.042zm3.978-8.199L7.413 6.891a.614.614 0 00-.75.73L8.67 16.4h-.786L5.482 5.895a.613.613 0 00-.474-.464l-4.27-.882A.614.614 0 00.489 5.75l3.885.802L6.797 17.15a.613.613 0 00.598.477h12.07a.615.615 0 00.607-.53l.858-6.175a.613.613 0 00-.455-.678zm-8.14 3.91a.613.613 0 01-1.227 0v-2.696a.613.613 0 011.227 0v2.696zm2.625 0a.613.613 0 01-1.227 0v-1.88a.613.613 0 011.227 0v1.88zm2.625 0a.613.613 0 01-1.227 0v-1.226a.613.613 0 011.227 0v1.226z"/></g><path fill-rule="evenodd" clip-rule="evenodd" d="M16.268 4.568a2.996 2.996 0 00-1.693-.523c-.627 0-1.21.193-1.693.523-.28-.843-.492-1.752-.492-2.383C12.39.98 13.37 0 14.575 0s2.185.98 2.185 2.185c0 .631-.212 1.54-.492 2.383zm-4.722 2.274l.024.006v-.011l-.024.005zm4.972 1.217c-1.333-.33-2.766-.681-4.129-1.013a2.185 2.185 0 114.129 1.013zm4.436 1.103c-.866-.217-2.155-.538-3.618-.9a2.995 2.995 0 00.243-1.425c.87.18 1.762.45 2.308.765.596.344.969.928 1.067 1.56zM9.869 6.439c-.36-.086-.706-.167-1.03-.243a2.19 2.19 0 01-.376-2.667 2.188 2.188 0 013.147-.7c.098.738.338 1.599.61 2.353a3.01 3.01 0 00-.449.774c-.628.113-1.305.278-1.902.483zm10.124.075a3.43 3.43 0 01-.217.114c-.696-.295-1.587-.526-2.397-.672a3.01 3.01 0 00-.449-.774c.262-.727.494-1.553.599-2.273.095-.067.189-.128.278-.18a2.188 2.188 0 012.986.8 2.188 2.188 0 01-.8 2.985z"/><defs><clipPath id="aa"><path transform="translate(0 3.064)" d="M0 0h20.936v20.936H0z"/></clipPath></defs></symbol><symbol viewBox="0 0 344.96 344.96" id="check" xmlns="http://www.w3.org/2000/svg"><g data-name="Слой 2"><path class="bcls-1" d="M321.85 86.24l-40-23.11-23.1-40H212.5L172.48 0l-40 23.11H86.24l-23.11 40-40 23.1v46.21L0 172.48l23.11 40v46.21l40 23.11 23.11 40h46.21l40 23.1 40-23.11h46.21l23.11-40 40-23.11V212.5l23.11-40-23.11-40V86.24zM156.91 243.07a16.79 16.79 0 01-23.34 0l-50.45-50.44a16.19 16.19 0 010-22.89l13.35-13.35a16.19 16.19 0 0122.89 0l25.87 25.87 80.34-80.35a16.19 16.19 0 0122.89 0l13.35 13.35a16.19 16.19 0 010 22.89z" data-name="Capa 1"/></g></symbol><symbol viewBox="0 0 24 24" id="fb" xmlns="http://www.w3.org/2000/svg"><path d="M13.397 20.997v-8.196h2.765l.411-3.209h-3.176V7.548c0-.926.258-1.56 1.587-1.56h1.684v-2.86A22.108 22.108 0 0014.201 3c-2.444 0-4.122 1.492-4.122 4.231v2.355H7.332v3.21h2.753v8.201h3.312z"/></symbol><symbol viewBox="0 0 24 24" id="instagram" xmlns="http://www.w3.org/2000/svg"><path d="M11.999 7.377a4.624 4.624 0 100 9.248 4.624 4.624 0 000-9.248zm0 7.627a3.004 3.004 0 110-6.008 3.004 3.004 0 010 6.008zm4.807-6.719a1.078 1.078 0 100-2.156 1.078 1.078 0 000 2.156z"/><path d="M20.533 6.11A4.605 4.605 0 0017.9 3.48a6.607 6.607 0 00-2.186-.42c-.963-.042-1.268-.054-3.71-.054s-2.755 0-3.71.054a6.554 6.554 0 00-2.184.42 4.6 4.6 0 00-2.633 2.63 6.585 6.585 0 00-.419 2.186c-.043.962-.056 1.267-.056 3.71 0 2.442 0 2.753.056 3.71.015.748.156 1.486.419 2.187a4.61 4.61 0 002.634 2.632 6.583 6.583 0 002.185.45c.963.042 1.268.055 3.71.055s2.755 0 3.71-.055a6.616 6.616 0 002.186-.42 4.613 4.613 0 002.633-2.632c.263-.7.404-1.438.419-2.186.043-.962.056-1.267.056-3.71s0-2.753-.056-3.71a6.583 6.583 0 00-.421-2.217zm-1.218 9.533a5.046 5.046 0 01-.311 1.688 2.987 2.987 0 01-1.712 1.71c-.535.2-1.1.305-1.67.312-.95.044-1.218.055-3.654.055-2.438 0-2.687 0-3.655-.055a4.961 4.961 0 01-1.67-.311 2.984 2.984 0 01-1.718-1.711 5.08 5.08 0 01-.311-1.67c-.043-.95-.053-1.217-.053-3.653 0-2.437 0-2.686.053-3.655a5.038 5.038 0 01.311-1.687c.305-.79.93-1.41 1.719-1.712a5.01 5.01 0 011.669-.311c.95-.043 1.218-.055 3.655-.055s2.687 0 3.654.055a4.96 4.96 0 011.67.31 2.99 2.99 0 011.712 1.713 5.06 5.06 0 01.311 1.669c.043.95.054 1.218.054 3.655 0 2.436 0 2.698-.043 3.654h-.011v-.001z"/></symbol><symbol viewBox="0 0 13 11" id="telegram" xmlns="http://www.w3.org/2000/svg"><path d="M.61 5.224l2.76 1.03 1.075 3.46c.047.233.327.28.514.14L6.502 8.59c.14-.14.374-.14.561 0l2.76 2.01c.186.141.467.048.514-.186l2.057-9.82c.047-.234-.187-.467-.42-.374L.61 4.617c-.28.093-.28.514 0 .607zm3.695.515l5.424-3.32c.093-.047.187.093.093.14L5.38 6.721c-.14.14-.28.327-.28.56l-.14 1.123c0 .14-.235.187-.281 0l-.562-2.057c-.14-.234-.046-.515.188-.608z"/></symbol><symbol viewBox="0 0 12 13" id="viber" xmlns="http://www.w3.org/2000/svg"><path d="M9.288.309a17.896 17.896 0 00-6.618 0C1.707.514.492 1.666.283 2.57a12.788 12.788 0 000 5.349c.251.905 1.466 2.057 2.387 2.262.042 0 .084.042.084.083v2.592c0 .123.167.205.251.082l1.257-1.275s1.005-1.029 1.173-1.194c0 0 .041-.04.083-.04 1.257.04 2.555-.083 3.812-.289.963-.205 2.178-1.357 2.387-2.262a12.79 12.79 0 000-5.349C11.466 1.666 10.251.514 9.288.31zm.042 7.734c-.21.412-.46.74-.88.946l-.377.124a5.345 5.345 0 01-.419-.124c-1.34-.534-2.596-1.275-3.602-2.345A9.886 9.886 0 012.67 4.587c-.167-.37-.335-.7-.46-1.07-.126-.329.083-.658.293-.905.209-.246.46-.41.754-.534.209-.124.418-.041.586.123.335.411.67.823.921 1.275.168.288.126.618-.167.823a.733.733 0 00-.21.165c-.041.041-.125.082-.167.164a.394.394 0 00-.042.37c.335.947.963 1.687 1.927 2.099.167.082.293.123.502.123.294-.04.42-.37.629-.535.209-.164.46-.164.712-.04.21.123.418.287.67.452.21.164.419.288.628.452.126.083.168.288.084.494zM7.57 4.958c-.083 0-.041 0 0 0-.167 0-.209-.083-.25-.206 0-.082 0-.206-.043-.288a.78.78 0 00-.293-.453l-.251-.123c-.126-.041-.21-.041-.335-.041-.126-.041-.168-.124-.168-.247 0-.082.126-.165.21-.165.67.041 1.173.412 1.256 1.193v.165c0 .082-.042.165-.125.165zm-.418-1.81a3.18 3.18 0 00-.67-.206c-.084 0-.21-.042-.294-.042-.125 0-.209-.082-.167-.205 0-.124.084-.206.21-.165.418.041.795.124 1.172.288.754.37 1.173.988 1.299 1.81v.535c-.042.165-.336.206-.377 0 0-.04-.042-.123-.042-.164 0-.37-.084-.74-.252-1.07a2.239 2.239 0 00-.88-.782zm2.262 2.468c-.126 0-.21-.124-.21-.247 0-.247-.042-.494-.084-.74-.167-1.317-1.256-2.387-2.555-2.593-.209-.04-.418-.04-.586-.082-.126 0-.293 0-.335-.164-.042-.124.084-.247.21-.247h.083c1.717.04.084 0 0 0 1.76.04 3.225 1.193 3.519 2.92.041.289.083.577.083.906.084.123 0 .247-.125.247z"/></symbol><symbol viewBox="0 0 24 24" id="vk" xmlns="http://www.w3.org/2000/svg"><path d="M21.579 6.855c.14-.465 0-.806-.662-.806h-2.193c-.558 0-.813.295-.953.619 0 0-1.115 2.719-2.695 4.482-.51.513-.743.675-1.021.675-.139 0-.341-.162-.341-.627V6.855c0-.558-.161-.806-.626-.806H9.642c-.348 0-.558.258-.558.504 0 .528.79.65.871 2.138v3.228c0 .707-.127.836-.407.836-.743 0-2.551-2.73-3.624-5.853-.209-.607-.42-.852-.98-.852H2.752c-.627 0-.752.295-.752.619 0 .582.743 3.462 3.461 7.27 1.812 2.602 4.363 4.012 6.687 4.012 1.393 0 1.565-.313 1.565-.853v-1.966c0-.626.133-.752.574-.752.324 0 .882.164 2.183 1.417 1.486 1.486 1.732 2.153 2.567 2.153h2.192c.626 0 .939-.313.759-.931-.197-.615-.907-1.51-1.849-2.57-.512-.603-1.277-1.253-1.51-1.578-.325-.42-.231-.604 0-.976.001 0 2.672-3.761 2.95-5.04z"/></symbol><symbol viewBox="0 0 13 13" id="whatsapp" xmlns="http://www.w3.org/2000/svg"><path d="M10.756 2.237A6.257 6.257 0 006.322.4C2.854.4.044 3.2.044 6.656a6.32 6.32 0 00.834 3.106L0 13l3.337-.875a6.42 6.42 0 002.985.744c3.468 0 6.278-2.8 6.278-6.257-.044-1.618-.659-3.193-1.844-4.375zm-1.405 6.65c-.131.35-.746.7-1.053.744a2.462 2.462 0 01-.966-.044c-.22-.087-.527-.175-.878-.35-1.58-.656-2.59-2.23-2.678-2.362-.088-.088-.659-.831-.659-1.619 0-.787.395-1.137.527-1.312.132-.175.307-.175.439-.175h.307c.088 0 .22-.044.351.262.132.306.44 1.094.483 1.138a.278.278 0 010 .262.915.915 0 01-.175.263c-.088.087-.176.218-.22.262-.088.088-.175.175-.088.306.088.175.396.657.879 1.094.614.525 1.097.7 1.273.788.175.087.263.043.35-.044.089-.088.396-.438.484-.613.088-.175.22-.13.351-.087.132.044.922.437 1.054.525.175.087.263.131.307.175.044.131.044.437-.088.787z"/></symbol><symbol viewBox="0 0 37 37" id="why-item-1" xmlns="http://www.w3.org/2000/svg"><path d="M10.9 12.87h12M25.75 21.72l-.6.6-.6-.6c-1.35-1.35-3.45-1.5-4.95-.3s-1.65 3.449-.45 4.949c1.8 2.1 3.75 4.35 5.85 6 2.25-1.65 4.35-3.9 6-6.15 1.2-1.5.9-3.6-.45-4.8-1.35-1.2-3.45-1.05-4.8.3z"/><path d="M15.4 32.368H7.9c-1.65 0-3-1.35-3-3V8.37c0-1.65 1.35-3 3-3h18c1.65 0 3 1.35 3 3v6"/></symbol><symbol viewBox="0 0 37 37" id="why-item-2" xmlns="http://www.w3.org/2000/svg"><path d="M30.4 32.067l-3.45-3.3m-17.1 0l-3.45 3.3m23.111-7.109c2.536-6.122-.371-13.141-6.494-15.677-6.123-2.536-13.143.371-15.68 6.493-2.536 6.123.372 13.142 6.495 15.678 6.123 2.536 13.143-.371 15.68-6.494zM5.5 9.57L10 5.82m21.3 3.75l-4.5-3.75"/><path d="M18.1 14.969v6.3l4.8 2.85"/></symbol><symbol viewBox="0 0 37 37" id="why-item-3" xmlns="http://www.w3.org/2000/svg"><path d="M9.8 32.37h-3c-.9 0-1.5-.6-1.5-1.5v-9c0-.9.6-1.5 1.5-1.5h3c.9 0 1.5.6 1.5 1.5v9c0 .9-.6 1.5-1.5 1.5zm10.5-6h3.45c.6 0 1.35-.15 1.8-.6l3.6-2.7c.9-.75 2.1-.6 3 .15.9.9.9 2.4 0 3.15L29 29.52c-.9.9-1.95 1.35-3 1.65l-4.35.9c-.9.15-1.8.15-2.7 0l-3.9-1.05c-.45-.15-.9-.15-1.5-.15H11.3"/><path d="M20.3 26.37h2.25c1.2 0 2.25-1.05 2.25-2.25v-.45c0-1.05-.75-1.95-1.65-2.25l-3.45-.9c-.6-.15-1.2-.15-1.65-.15-1.35 0-2.7.45-3.9 1.2l-2.7 1.8m12.15-7.5a4.2 4.2 0 100-8.4 4.2 4.2 0 000 8.4z"/><path d="M22.85 7.471c-.15-.9-.6-1.65-1.2-2.25a4.255 4.255 0 00-6 0 4.255 4.255 0 000 6c1.05 1.05 2.4 1.35 3.75 1.2"/></symbol><symbol viewBox="0 0 37 37" id="why-item-4" xmlns="http://www.w3.org/2000/svg"><path d="M15.4 3.871h6m-3 28.497c6.627 0 12-5.372 12-11.999 0-6.626-5.373-11.999-12-11.999s-12 5.373-12 12c0 6.626 5.373 11.998 12 11.998z"/><path d="M18.4 19.62c-.45 0-.75.3-.75.75s.3.75.75.75.75-.3.75-.75-.3-.75-.75-.75zM23.65 25.62c-1.35 1.35-3.3 2.25-5.25 2.25-4.2 0-7.5-3.3-7.5-7.5 0-.45 0-.9.15-1.35m2.1-3.9l4.65 4.65m12.6-11.4l-3.45 3.45m1.95-4.95l3 3"/></symbol></svg>