<svg width="58" height="58" viewBox="0 0 58 58" fill="none" xmlns="http://www.w3.org/2000/svg">
<path d="M47.4903 45.169C50.1767 45.9754 51.2547 47.8339 51.0692 50.5059C53.692 51.299 54.8076 53.0871 54.6544 55.7974C55.2503 55.7974 55.8256 55.7894 56.3999 55.8001C56.9098 55.809 57.2871 56.133 57.3399 56.5789C57.3955 57.0524 57.0523 57.5037 56.5756 57.566C56.4143 57.5874 56.2476 57.5767 56.0836 57.5767C37.8351 57.5767 19.5874 57.5767 1.33885 57.5767C1.23401 57.5767 1.13006 57.5776 1.02522 57.5767C0.409619 57.5687 0.00728658 57.2242 0.000117989 56.7C-0.00794668 56.157 0.397973 55.8045 1.04494 55.7974C1.53778 55.793 2.03062 55.7938 2.52346 55.7912C2.55214 55.7912 2.58081 55.7787 2.67938 55.7574C2.52346 53.1477 3.60502 51.3177 6.23232 50.5237C6.26905 49.9567 6.25203 49.3746 6.35418 48.8139C6.67587 47.0533 7.72607 45.8837 9.43219 45.3328C9.80138 45.2135 9.86142 45.0462 9.86142 44.7097C9.85335 34.5192 9.85335 24.3287 9.85694 14.1382C9.85694 12.2059 10.7073 10.7613 12.4788 9.94243C13.0299 9.68787 13.6769 9.59352 14.2907 9.52943C14.9556 9.46 15.633 9.51252 16.3051 9.51252C17.6223 9.51252 18.2424 9.08706 18.6636 7.83473C19.1537 6.37767 19.919 5.0924 20.9593 3.95488C24.9988 -0.460794 32.257 -0.489278 36.3341 3.89791C37.3825 5.02564 38.1648 6.30379 38.655 7.76174C39.1084 9.1111 39.6908 9.50362 41.1416 9.5143C42.0063 9.52053 42.8853 9.46178 43.7321 9.59529C45.9786 9.95133 47.4822 11.752 47.4867 14.0145C47.4974 19.1022 47.4903 24.1899 47.4903 29.2776C47.4903 34.4249 47.4903 39.5722 47.4903 44.7186C47.4903 44.8655 47.4903 45.0132 47.4903 45.1663V45.169ZM16.4924 45.0933C16.2737 44.1739 16.3875 43.3621 16.858 42.6002C16.9135 42.5103 16.8705 42.3163 16.8105 42.2051C15.6429 40.0609 17.004 37.7636 19.4655 37.7342C19.8652 37.7297 20.281 37.2215 20.1385 36.8548C19.6107 35.4983 19.7093 34.084 19.7173 32.6786C19.72 32.1205 20.0865 31.7787 20.66 31.7689C21.2873 31.7582 21.9145 31.7466 22.5409 31.7725C25.057 31.8757 27.0239 32.9652 28.4308 35.0453C28.5016 35.1494 28.5813 35.2473 28.6763 35.3746C28.7507 35.2794 28.7999 35.2268 28.8376 35.1663C29.5553 34.0163 30.5294 33.153 31.7355 32.5228C33.3592 31.6737 35.1065 31.7244 36.8539 31.7858C37.2822 31.8009 37.6003 32.1098 37.6119 32.5379C37.6496 33.9282 37.7392 35.3274 37.2687 36.6803C37.0635 37.2687 37.3942 37.728 38.0062 37.7342C39.9695 37.7529 41.4274 39.5588 40.8289 41.4129C40.5833 42.1748 40.5314 42.7702 40.8414 43.5046C41.0332 43.9612 40.9283 44.5406 40.957 45.0818H42.0878V14.8494C41.5287 14.8494 40.9946 14.8601 40.4615 14.8468C39.4794 14.8218 38.5385 14.5993 37.6505 14.1863C35.5823 13.225 34.2911 11.6175 33.5859 9.47246C32.6011 6.47914 29.1978 5.10308 26.3707 6.5183C24.954 7.22769 24.1251 8.40704 23.6511 9.88902C23.1556 11.4386 22.186 12.658 20.8374 13.5775C19.5955 14.424 18.2146 14.837 16.7119 14.853C16.2262 14.8583 15.7406 14.853 15.2594 14.853V45.0942H16.4933L16.4924 45.0933ZM45.6748 45.1005C45.6838 44.9607 45.6963 44.8601 45.6963 44.7587C45.6963 34.5085 45.6999 24.2584 45.6936 14.0074C45.6936 12.4569 44.5296 11.3114 42.9741 11.2945C42.1972 11.2864 41.4203 11.3025 40.6443 11.2882C39.612 11.2686 38.7347 10.8779 37.9928 10.1649C37.3772 9.57305 37.1227 8.80046 36.8467 8.02965C35.0913 3.13512 29.041 0.901023 24.4889 3.45287C22.3841 4.63223 21.0104 6.37678 20.2648 8.65003C19.7245 10.2976 18.3168 11.2766 16.5694 11.2909C15.8974 11.2962 15.2253 11.2909 14.5533 11.2927C12.7629 11.2962 11.6473 12.4017 11.6464 14.181C11.6455 24.3279 11.6464 34.4738 11.6464 44.6207C11.6464 44.7765 11.6464 44.9322 11.6464 45.0862H13.4376C13.4376 43.7689 13.4376 42.4819 13.4376 41.1939C13.4376 32.2041 13.4376 23.2153 13.4376 14.2255C13.4376 13.3755 13.7414 13.0746 14.5954 13.0728C15.3275 13.071 16.0587 13.0808 16.7908 13.0675C18.091 13.0435 19.2424 12.6091 20.2487 11.7929C21.2353 10.9936 21.7559 9.92017 22.1726 8.75061C23.3545 5.43152 26.8474 3.54366 30.2865 4.37677C32.8959 5.00873 34.5545 6.67851 35.3951 9.19654C36.0286 11.0942 37.3144 12.4026 39.276 12.8467C40.3629 13.0933 41.5251 13.0301 42.6551 13.0666C43.6363 13.0986 43.9051 13.3372 43.9051 14.3109C43.9051 24.383 43.9051 34.456 43.9051 44.5281C43.9051 44.7142 43.9051 44.9002 43.9051 45.1005H45.6748ZM52.8264 55.7752C53.1732 53.3693 51.5665 52.1962 49.7251 52.2113C42.3226 52.2718 34.9201 52.2362 27.5168 52.2362C20.8132 52.2362 14.1088 52.2362 7.40527 52.2362C5.38194 52.2362 4.13102 53.7716 4.53873 55.7743H52.8264V55.7752ZM25.7058 43.0738C25.0938 43.0791 24.6744 43.3817 24.5113 43.8544C24.3429 44.343 24.4934 44.8165 24.9253 45.1574C25.6682 45.744 25.6735 46.2638 24.9441 46.8379C24.6888 47.0391 24.4244 47.9621 24.5418 48.2469C24.7712 48.8059 25.4334 49.0747 26.0418 48.8557C26.9746 48.5201 27.2865 48.683 27.5535 49.6461C27.7041 50.189 28.0714 50.4543 28.6718 50.4552C29.2785 50.4552 29.6351 50.1979 29.7892 49.647C30.0598 48.6813 30.3708 48.5193 31.3009 48.8557C31.8636 49.0595 32.4523 48.8575 32.7373 48.3635C32.9326 48.0244 32.7516 47.1298 32.4344 46.8646C31.6575 46.2157 31.662 45.7814 32.4541 45.1298C32.9156 44.7507 33.0294 44.1605 32.74 43.6505C32.4586 43.1548 31.8681 42.9492 31.3072 43.1512C30.3717 43.4885 30.058 43.3265 29.7901 42.3697C29.6494 41.8668 29.239 41.5553 28.7157 41.5544C28.0428 41.5526 27.6915 41.833 27.5266 42.5032C27.3429 43.2491 26.8653 43.4912 26.1556 43.209C25.9782 43.1387 25.79 43.0969 25.7067 43.0729L25.7058 43.0738ZM49.2806 50.4338C49.2806 50.1881 49.2806 49.9959 49.2806 49.8036C49.2753 47.9897 48.1758 46.8975 46.3496 46.8958C44.6327 46.894 42.9149 46.8869 41.198 46.8993C40.2939 46.9055 39.379 46.7934 38.4955 47.1129C38.3207 47.1761 38.1075 47.1761 37.9184 47.1503C37.6397 47.1129 37.4865 47.226 37.3342 47.4432C36.9175 48.0377 36.3494 48.505 35.628 48.562C34.8637 48.6225 34.3296 48.869 34.0563 49.5954C34.0321 49.6603 33.9694 49.7164 33.9138 49.7654C33.6692 49.9825 33.4219 50.1953 33.1468 50.4329H49.2797L49.2806 50.4338ZM8.08808 50.4267H24.0418C23.6825 49.9701 23.2712 49.4948 22.9199 48.9785C22.7855 48.78 22.6851 48.6901 22.4423 48.6946C21.3724 48.716 20.5489 48.2522 19.936 47.3933C19.8706 47.3016 19.7819 47.177 19.6887 47.1619C19.0757 47.0595 18.4601 46.9162 17.8436 46.9082C15.4699 46.8797 13.0953 46.894 10.7207 46.8993C9.98328 46.9011 9.35872 47.1841 8.83631 47.6995C8.07285 48.4525 7.98952 49.3924 8.08629 50.4276L8.08808 50.4267ZM22.5032 46.9234C22.5579 46.8886 22.79 46.8245 22.8384 46.6937C22.9531 46.3813 23.3366 46.1632 23.0696 45.7022C21.9118 43.7075 23.3142 41.2936 25.6198 41.3087C26.0221 41.3114 26.2255 41.1298 26.3187 40.8432C26.3832 40.6421 26.3304 40.3528 26.2246 40.1588C25.9746 39.7004 25.454 39.5357 24.9038 39.6719C24.057 39.8819 23.7506 39.6959 23.5257 38.8388C23.3814 38.2896 22.9298 37.9247 22.4002 37.9291C21.9324 37.9327 21.3948 38.3733 21.2729 38.853C21.0489 39.7351 20.6564 39.938 19.8087 39.6123C19.0749 39.3301 18.3311 39.7164 18.1967 40.4641C18.1098 40.9465 18.2944 41.3292 18.6869 41.6256C19.3948 42.1605 19.3885 42.7284 18.6752 43.2767C18.6636 43.2856 18.651 43.2945 18.6394 43.3034C18.2684 43.5971 18.1107 43.9799 18.1994 44.4427C18.2827 44.8788 18.5058 45.1717 19.0139 45.1459C19.1071 45.1414 19.2021 45.242 19.3016 45.2562C19.4682 45.2803 19.6564 45.323 19.8052 45.2714C20.6717 44.9705 21.0256 45.1468 21.2783 46.0377C21.4324 46.5824 21.841 46.9118 22.505 46.9234H22.5032ZM32.1683 39.6194C31.6002 39.6229 31.1916 39.8989 31.0043 40.3483C30.8197 40.7934 31.1504 41.2909 31.6342 41.2945C34.0456 41.3087 35.4264 43.6452 34.2651 45.744C34.0339 46.1623 34.4703 46.894 34.9524 46.894C35.499 46.894 35.913 46.546 36.0868 45.9416C36.3028 45.1886 36.7445 44.9776 37.4695 45.2358C37.6532 45.3007 37.8843 45.2509 38.0913 45.2295C38.2365 45.2144 38.3888 45.1797 38.5161 45.1129C38.6989 45.0177 38.9229 44.9233 39.0224 44.7622C39.3243 44.2754 39.1693 43.6701 38.6989 43.2981C37.9381 42.6964 37.9381 42.1979 38.6998 41.5918C39.1469 41.2358 39.2903 40.7008 39.0725 40.2006C38.8118 39.6025 38.1496 39.3541 37.4928 39.639C37.085 39.8161 36.6917 39.8588 36.3852 39.5143C36.2194 39.3283 36.146 39.0497 36.0662 38.8023C35.9291 38.3768 35.4228 37.9532 34.9846 37.9291C34.4981 37.9024 34.016 38.2344 33.8538 38.7133C33.8162 38.8245 33.8036 38.9447 33.7723 39.0586C33.6164 39.6194 33.1719 39.8722 32.6092 39.7262C32.4371 39.6817 32.2633 39.6425 32.1692 39.6203L32.1683 39.6194ZM29.6297 39.1307C30.2668 38.254 31.1145 37.8686 32.1351 37.8152C32.2247 37.8107 32.3314 37.6941 32.3905 37.6033C33.068 36.5682 34.0124 36.0751 35.2642 36.1605C35.3762 36.1685 35.5689 36.043 35.6047 35.9389C35.8646 35.1726 35.8798 34.3813 35.8144 33.5882C31.6289 33.1067 29.3286 36.5993 29.6297 39.1298V39.1307ZM27.7498 39.1654C27.8994 35.8072 24.9415 33.0577 21.4279 33.6318C21.5229 34.3839 21.6063 35.1423 21.7281 35.8953C21.7461 36.0039 21.9611 36.1677 22.0749 36.1596C23.3267 36.076 24.2703 36.5664 24.9495 37.5998C25.0087 37.6906 25.1135 37.8098 25.2022 37.8152C26.2237 37.8677 27.0678 38.2602 27.7489 39.1654H27.7498Z" fill="#00A5F1"/>
<path d="M28.6852 11.2944C31.1467 11.2998 33.1513 13.2973 33.1504 15.7453C33.1495 18.2093 31.1216 20.2077 28.6359 20.1925C26.1798 20.1774 24.1834 18.1665 24.1932 15.7186C24.2031 13.2759 26.2201 11.2891 28.6843 11.2944H28.6852ZM31.3582 15.7604C31.3663 14.2943 30.1718 13.0872 28.7005 13.0748C27.2255 13.0632 26.0006 14.2489 25.9854 15.7034C25.9701 17.1918 27.1771 18.4104 28.6655 18.4113C30.1405 18.4122 31.3501 17.2212 31.3582 15.7595V15.7604Z" fill="#00A5F1"/>
<path d="M28.679 22.8638C31.5437 22.8638 34.4084 22.8638 37.2723 22.8638C37.421 22.8638 37.5716 22.8558 37.7194 22.8727C38.1764 22.9244 38.5169 23.2956 38.5241 23.7389C38.5322 24.1991 38.1827 24.5872 37.7051 24.637C37.5725 24.6513 37.4372 24.6442 37.3028 24.6442C31.5589 24.6442 25.8142 24.6442 20.0704 24.6442C19.9216 24.6442 19.7711 24.6522 19.6232 24.6353C19.1653 24.5836 18.8257 24.2124 18.8186 23.7691C18.8105 23.3089 19.16 22.9199 19.6376 22.8709C19.7998 22.854 19.9655 22.8629 20.1295 22.8629C22.979 22.8629 25.8285 22.8629 28.679 22.8629V22.8638Z" fill="#00A5F1"/>
<path d="M28.6682 27.3143C31.5473 27.3143 34.4273 27.3143 37.3063 27.3143C37.4551 27.3143 37.6065 27.3063 37.7535 27.3268C38.2042 27.39 38.534 27.7799 38.5241 28.2223C38.5151 28.6469 38.1926 29.0154 37.7598 29.0804C37.628 29.1 37.4918 29.0938 37.3574 29.0938C31.5688 29.0938 25.7793 29.0938 19.9906 29.0938C19.8562 29.0938 19.72 29.1009 19.5883 29.0813C19.1367 29.0154 18.8078 28.6273 18.8177 28.1849C18.8266 27.7603 19.1492 27.39 19.582 27.3277C19.7433 27.3046 19.9091 27.3134 20.0731 27.3134C22.9378 27.3134 25.8025 27.3134 28.6664 27.3134L28.6682 27.3143Z" fill="#00A5F1"/>
</svg>
