<svg width="56" height="53" viewBox="0 0 56 53" fill="none" xmlns="http://www.w3.org/2000/svg">
<path d="M27.7362 52.229C18.9116 52.229 10.0871 52.229 1.26256 52.229C0.258066 52.229 0 51.97 0 50.9598C0 34.5708 0 18.1817 0 1.79275C0 0.890207 0.292122 0.604492 1.21149 0.604492C18.9206 0.604492 36.6297 0.604492 54.3388 0.604492C55.2788 0.604492 55.5574 0.883976 55.5574 1.82924C55.5574 18.2031 55.5574 34.5779 55.5574 50.9517C55.5574 51.9798 55.3038 52.229 54.2563 52.229C45.4166 52.229 36.5768 52.229 27.738 52.229H27.7362ZM28.7093 2.398V50.4204H53.7276V2.39889H28.7093V2.398ZM1.82889 2.398V50.4186H26.8446V2.39889H1.82889V2.398Z" fill="#00A5F1"/>
<path d="M41.2256 10.3955C44.3888 10.3955 47.5519 10.3955 50.7151 10.3955C50.8638 10.3955 51.0143 10.3874 51.1622 10.4044C51.6192 10.456 51.9597 10.8272 51.9669 11.2696C51.9749 11.7298 51.6255 12.1179 51.1479 12.1678C51.0153 12.182 50.8799 12.1749 50.7455 12.1749C44.404 12.1749 38.0625 12.1749 31.721 12.1749C30.8975 12.1749 30.4782 11.8811 30.4683 11.2999C30.4584 10.7061 30.8948 10.3937 31.7354 10.3937C34.8985 10.3937 38.0616 10.3937 41.2248 10.3937L41.2256 10.3955Z" fill="#00A5F1"/>
<path d="M41.2203 14.8458C44.3835 14.8458 47.5466 14.8458 50.7098 14.8458C50.8585 14.8458 51.0091 14.8377 51.1569 14.8538C51.6148 14.9036 51.9562 15.2721 51.967 15.7146C51.9777 16.1748 51.6291 16.5664 51.1533 16.6181C51.0055 16.6341 50.8549 16.6252 50.7062 16.6252C44.3799 16.6252 38.0527 16.6252 31.7264 16.6252C30.8984 16.6252 30.4818 16.3359 30.4683 15.7546C30.4549 15.1609 30.8939 14.844 31.73 14.844C34.8931 14.844 38.0563 14.844 41.2194 14.844L41.2203 14.8458Z" fill="#00A5F1"/>
<path d="M41.2185 19.2962C44.3816 19.2962 47.5448 19.2962 50.7079 19.2962C50.8719 19.2962 51.0386 19.2873 51.1998 19.3095C51.6335 19.3701 51.957 19.7377 51.9678 20.1632C51.9794 20.6047 51.6515 20.9982 51.2007 21.0623C51.0395 21.0854 50.8728 21.0756 50.7088 21.0756C44.3825 21.0756 38.0553 21.0765 31.7291 21.0765C30.8921 21.0765 30.454 20.7578 30.4692 20.1641C30.4844 19.5828 30.9011 19.2953 31.7291 19.2953C34.8922 19.2953 38.0553 19.2953 41.2185 19.2953V19.2962Z" fill="#00A5F1"/>
<path d="M41.2158 23.7462C44.379 23.7462 47.5421 23.7462 50.7053 23.7462C50.8692 23.7462 51.0359 23.7364 51.1972 23.7595C51.6479 23.8219 51.9777 24.2126 51.9678 24.656C51.9589 25.0806 51.6363 25.4509 51.2026 25.5132C51.0413 25.5363 50.8746 25.5265 50.7106 25.5265C44.3844 25.5265 38.0572 25.5274 31.7309 25.5274C30.8931 25.5274 30.4549 25.2114 30.4683 24.6177C30.4818 24.0364 30.9002 23.7462 31.7255 23.7462C34.8887 23.7462 38.0518 23.7462 41.2149 23.7462H41.2158Z" fill="#00A5F1"/>
<path d="M44.8028 37.0978C46.8315 37.0978 48.8602 37.0862 50.888 37.1111C51.173 37.1147 51.5404 37.2259 51.7151 37.4227C51.8863 37.6158 51.9786 38.0271 51.8872 38.2585C51.7877 38.5113 51.4481 38.6796 51.1945 38.8603C51.1237 38.911 50.9911 38.8772 50.8871 38.8772C46.8306 38.8772 42.7732 38.8772 38.7167 38.8772C38.6566 38.8772 38.5975 38.879 38.5375 38.8754C38.0052 38.8434 37.6253 38.4588 37.6378 37.9639C37.6495 37.4876 38.0222 37.112 38.5384 37.1022C39.3439 37.0871 40.1495 37.0969 40.9542 37.0969C42.2365 37.0969 43.5196 37.0969 44.8019 37.0969L44.8028 37.0978Z" fill="#00A5F1"/>
<path d="M44.7875 43.3284C42.7445 43.3284 40.7006 43.3257 38.6575 43.3311C38.2677 43.332 37.903 43.226 37.7713 42.8629C37.6772 42.602 37.6817 42.2451 37.7856 41.9887C37.9398 41.6077 38.3322 41.5445 38.7319 41.5454C41.3574 41.5525 43.982 41.549 46.6075 41.549C48.0394 41.549 49.4713 41.5472 50.9032 41.5499C51.5556 41.5516 51.9633 41.8944 51.9678 42.4311C51.9723 42.9688 51.5619 43.3266 50.9185 43.3275C48.8754 43.3311 46.8315 43.3284 44.7884 43.3284H44.7875Z" fill="#00A5F1"/>
<path d="M41.2203 5.94515C42.9649 5.94515 44.7105 5.92823 46.4542 5.96206C46.7437 5.9674 47.1191 6.12407 47.2894 6.33949C47.4444 6.53533 47.4856 6.96439 47.3718 7.18604C47.2473 7.42727 46.9032 7.65782 46.6254 7.69877C46.0859 7.77978 45.525 7.72548 44.9739 7.72548C42.0957 7.72548 39.2176 7.72548 36.3403 7.72548C36.1763 7.72548 36.0114 7.73082 35.8483 7.72192C35.3331 7.69254 34.9603 7.33024 34.9496 6.85489C34.9388 6.36174 35.3196 5.95672 35.8528 5.9496C36.9559 5.93535 38.0598 5.94426 39.1629 5.94426C39.8493 5.94426 40.5348 5.94426 41.2212 5.94426L41.2203 5.94515Z" fill="#00A5F1"/>
<path d="M35.3932 28.197C36.6755 28.197 37.9568 28.1952 39.2391 28.1979C39.9157 28.1997 40.3323 28.5548 40.3189 29.1085C40.3064 29.6435 39.8995 29.9764 39.2409 29.9764C36.6772 29.9791 34.1127 29.9791 31.549 29.9764C30.8751 29.9764 30.4549 29.6159 30.4692 29.0658C30.4827 28.5317 30.8913 28.1988 31.5472 28.197C32.8295 28.1943 34.1109 28.197 35.3932 28.197Z" fill="#00A5F1"/>
<path d="M4.47947 32.6471C4.47947 30.9275 4.47589 29.207 4.47947 27.4874C4.48574 24.7771 6.40692 22.8616 9.12829 22.8572C12.6068 22.8527 16.0845 22.8519 19.563 22.8572C22.2566 22.8616 24.1859 24.7815 24.1904 27.4633C24.1966 30.9035 24.1966 34.3436 24.1904 37.7837C24.185 40.5474 22.2674 42.4353 19.4743 42.4379C15.9958 42.4406 12.5181 42.4406 9.03958 42.4379C6.46607 42.4353 4.49829 40.4994 4.48037 37.9422C4.46782 36.178 4.47768 34.413 4.47768 32.6489L4.47947 32.6471ZM11.6597 34.1068C10.7574 33.1402 10.7018 31.9769 10.7493 30.786C10.7609 30.4896 10.7475 30.1932 10.7547 29.8959C10.7959 28.0997 12.1956 26.5973 13.9805 26.4291C15.8058 26.2573 17.5326 27.4526 17.8067 29.247C17.9662 30.2866 17.9026 31.3743 17.8211 32.4308C17.7843 32.9035 17.4582 33.3547 17.2557 33.8122C17.21 33.9164 17.132 34.0072 17.054 34.1264C19.5693 35.4962 20.7217 37.6155 20.6106 40.4994C20.8597 40.3747 21.0541 40.3062 21.2163 40.1914C22.0013 39.6387 22.4 38.8785 22.4 37.919C22.4 34.4041 22.4054 30.8901 22.3973 27.3752C22.3937 25.7784 21.2315 24.6391 19.615 24.6365C16.1069 24.6311 12.5988 24.632 9.08976 24.6365C7.42127 24.6382 6.2752 25.7757 6.27251 27.4322C6.26803 30.9168 6.26804 34.4015 6.2761 37.887C6.2761 38.1798 6.30746 38.4851 6.39438 38.7628C6.65245 39.5799 7.18381 40.1531 8.06017 40.4931C7.94816 37.6039 9.11037 35.4891 11.6588 34.1068H11.6597ZM9.87741 40.6195H18.796C18.9591 38.6418 18.3793 37.0192 16.6499 35.9733C15.1311 35.0557 13.5423 35.0583 12.0235 35.9751C10.2923 37.0201 9.71164 38.6409 9.87741 40.6195ZM16.1257 30.9097C16.1257 30.5839 16.1347 30.2582 16.1239 29.9333C16.0908 28.956 15.3058 28.1976 14.3354 28.1976C13.3667 28.1976 12.5728 28.9595 12.5486 29.9333C12.5325 30.5546 12.5334 31.1767 12.5486 31.7971C12.5728 32.7708 13.3676 33.5336 14.3354 33.5336C15.3022 33.5336 16.0899 32.7726 16.1248 31.7971C16.1356 31.5016 16.1266 31.2052 16.1257 30.9097Z" fill="#00A5F1"/>
<path d="M11.6481 7.72582C11.6481 6.87045 11.6454 6.07294 11.6481 5.27542C11.6508 4.48058 11.9626 4.16816 12.7574 4.16549C13.8327 4.16193 14.9071 4.16104 15.9824 4.16638C16.6867 4.16994 17.0182 4.50372 17.0227 5.20956C17.0272 6.02398 17.0236 6.83841 17.0236 7.72493C17.6831 7.72493 18.3185 7.72493 18.9529 7.72493C20.4923 7.72493 20.607 7.83975 20.6079 9.36091C20.6079 10.251 20.6124 11.1411 20.6079 12.0303C20.6035 12.7272 20.2638 13.0601 19.5568 13.0645C18.7369 13.069 17.917 13.0654 17.0245 13.0654C17.0245 13.247 17.0245 13.4028 17.0245 13.5585C17.0245 15.6796 17.0245 17.7998 17.0245 19.9209C17.0245 20.7718 16.7208 21.0753 15.8704 21.0762C14.8103 21.0771 13.7503 21.0797 12.6902 21.0744C11.9859 21.0708 11.6508 20.7371 11.6499 20.0321C11.6463 17.8968 11.6481 15.7606 11.6481 13.6253C11.6481 13.4633 11.6481 13.3013 11.6481 13.0654C11.0799 13.0654 10.5342 13.0654 9.98942 13.0654C9.64623 13.0654 9.30213 13.0761 8.95894 13.061C8.441 13.0378 8.07809 12.6987 8.07092 12.1869C8.05479 11.0004 8.0548 9.81396 8.06914 8.62748C8.07541 8.07474 8.44727 7.73472 9.02345 7.72849C9.87293 7.71781 10.7224 7.72582 11.6472 7.72582H11.6481ZM9.88906 9.5051V11.2853C10.7099 11.2853 11.4984 11.2853 12.287 11.2853C13.1373 11.2862 13.4402 11.5879 13.4402 12.4397C13.4411 14.5439 13.4402 16.6489 13.4402 18.7531C13.4402 18.924 13.4402 19.0949 13.4402 19.2675H15.2324C15.2324 19.0806 15.2324 18.9213 15.2324 18.7611C15.2324 16.6569 15.2324 14.5519 15.2324 12.4477C15.2324 11.5745 15.529 11.2862 16.4215 11.2844C17.2064 11.2835 17.9923 11.2844 18.7764 11.2844V9.5051C17.9466 9.5051 17.1571 9.50688 16.3668 9.5051C15.5442 9.50243 15.2333 9.19268 15.2315 8.37736C15.2297 7.58163 15.2315 6.7859 15.2315 5.98126H13.4402C13.4402 6.80103 13.442 7.58519 13.4402 8.36846C13.4375 9.19535 13.1338 9.50243 12.3139 9.5051C11.5119 9.50777 10.7108 9.5051 9.88906 9.5051Z" fill="#00A5F1"/>
<path d="M5.37375 5.94316C5.37375 6.86448 5.37464 7.72171 5.37375 8.57893C5.37375 8.95369 5.22052 9.2884 4.86479 9.38809C4.59417 9.46376 4.21871 9.45753 3.99469 9.31955C3.78591 9.19048 3.61118 8.84331 3.60222 8.58606C3.561 7.41638 3.57534 6.24403 3.58789 5.07258C3.59416 4.53135 3.9481 4.17618 4.49112 4.16995C5.67035 4.1566 6.84957 4.15749 8.0288 4.16906C8.57092 4.1744 8.95354 4.55717 8.95533 5.05121C8.95712 5.54525 8.57361 5.93158 8.03418 5.9396C7.17037 5.95295 6.30655 5.94316 5.37375 5.94316Z" fill="#00A5F1"/>
<path d="M23.297 5.94505C22.4063 5.94505 21.5864 5.94861 20.7674 5.94416C20.1223 5.9406 19.7119 5.58631 19.7163 5.04776C19.7208 4.51099 20.1294 4.16828 20.7818 4.16561C21.8714 4.16205 22.961 4.16116 24.0506 4.16561C24.7496 4.16917 25.0847 4.50654 25.0874 5.21244C25.0919 6.29489 25.091 7.37733 25.0874 8.45977C25.0847 9.0998 24.7254 9.50749 24.1833 9.50215C23.6411 9.49681 23.3006 9.09356 23.2979 8.44196C23.2944 7.62924 23.2979 6.81652 23.2979 5.94505H23.297Z" fill="#00A5F1"/>
<path d="M5.37378 46.8889C6.27344 46.8889 7.12024 46.8835 7.96703 46.8906C8.51453 46.8951 8.89178 47.2022 8.95092 47.6704C9.01275 48.16 8.65252 48.6452 8.14176 48.655C6.90338 48.6808 5.66411 48.6772 4.42574 48.6576C3.94096 48.6496 3.59596 48.2784 3.59059 47.7826C3.57625 46.5969 3.57625 45.4103 3.59059 44.2237C3.59686 43.7119 3.98218 43.3416 4.46248 43.3318C4.96159 43.3211 5.36213 43.6985 5.37109 44.2317C5.38632 45.0907 5.37557 45.9506 5.37557 46.8889H5.37378Z" fill="#00A5F1"/>
<path d="M23.2971 46.8887C23.2971 46.0163 23.2953 45.217 23.2971 44.4176C23.2998 43.7393 23.6465 43.3254 24.203 43.3316C24.7585 43.3378 25.0865 43.7455 25.0883 44.4372C25.0901 45.4903 25.0919 46.5424 25.0883 47.5955C25.0865 48.3299 24.7567 48.6655 24.0318 48.6681C22.9422 48.6726 21.8526 48.6717 20.763 48.6681C20.1178 48.6655 19.7092 48.3085 19.7164 47.7682C19.7236 47.2314 20.1313 46.8932 20.7863 46.8905C21.6035 46.8869 22.4216 46.8905 23.2971 46.8905V46.8887Z" fill="#00A5F1"/>
</svg>
