<svg width="51" height="57" viewBox="0 0 51 57" fill="none" xmlns="http://www.w3.org/2000/svg">
<path d="M43.6848 44.4783C44.2152 44.8842 44.7556 45.2127 45.1902 45.6461C46.1651 46.6181 46.511 47.8429 46.4232 49.1914C46.3999 49.5527 46.52 49.6978 46.8748 49.8055C48.7368 50.3743 49.968 52.0298 50.0093 53.9658C50.0191 54.4251 50.0137 54.8853 50.0137 55.3454C50.0137 56.4874 49.7996 56.7037 48.6687 56.7037C45.114 56.7037 41.5602 56.7046 38.0054 56.7037C26.3413 56.7037 14.678 56.7037 3.01377 56.7028C2.84979 56.7028 2.68491 56.7064 2.52093 56.6975C2.02988 56.669 1.65174 56.3851 1.64995 55.9124C1.64726 54.9369 1.58991 53.9355 1.78436 52.9911C2.10963 51.4112 3.15715 50.3449 4.69929 49.834C5.13657 49.6889 5.23335 49.4922 5.21543 49.0845C5.15091 47.5758 5.63927 46.2799 6.82209 45.2954C7.17156 45.0044 7.58195 44.7863 7.87856 44.5905C7.4574 43.5455 6.94575 42.5486 6.65542 41.4912C6.23606 39.9638 5.97261 38.3946 5.65271 36.8405C4.80503 32.7309 3.95913 28.6214 3.11682 24.511C2.11053 19.6021 1.05137 14.7022 0.123039 9.77912C-0.669091 5.57968 2.46089 1.37935 6.71276 0.696651C8.21189 0.455436 9.65368 0.734924 11.108 0.99394C15.6323 1.79858 20.1584 2.59432 24.6826 3.39718C28.5026 4.07454 32.3217 4.75635 36.1398 5.43726C38.2985 5.82267 40.4652 6.16981 42.614 6.60506C46.89 7.4729 49.632 11.5415 48.9295 15.813C48.2754 19.7926 47.6893 23.7829 47.0701 27.7687C46.4536 31.7394 45.8255 35.7083 45.218 39.6799C45.0244 40.942 44.8613 42.2077 44.2798 43.3702C44.088 43.7538 43.8738 44.1259 43.6839 44.4783H43.6848ZM25.818 44.2264C30.9247 44.2264 36.0314 44.2229 41.1381 44.2345C41.4742 44.2345 41.691 44.1365 41.889 43.8731C42.5244 43.0275 43.002 42.1062 43.1713 41.064C43.7 37.816 44.2063 34.5636 44.7117 31.3121C45.5298 26.0535 46.3309 20.7913 47.1597 15.5344C47.7019 12.0969 45.4877 8.90772 42.079 8.29979C36.7626 7.35184 31.4435 6.41992 26.1271 5.47732C20.4424 4.46974 14.7577 3.46038 9.07482 2.44745C4.91704 1.7069 1.08542 5.51826 1.90712 9.64115C3.0308 15.2816 4.21183 20.9115 5.36776 26.5457C6.28265 31.0042 7.20471 35.46 8.10526 39.9211C8.38753 41.3185 8.8051 42.6448 9.694 43.7947C9.93415 44.1054 10.1815 44.2371 10.5874 44.2362C15.6645 44.222 20.7417 44.2264 25.818 44.2273V44.2264ZM48.1884 54.9057C48.3157 53.7433 48.1615 52.7295 47.2243 51.9667C46.623 51.4771 45.9267 51.3828 45.1696 51.3836C37.8092 51.3979 30.4489 51.3943 23.0894 51.3934C17.4459 51.3934 11.8025 51.4023 6.15989 51.381C4.33907 51.3739 2.95643 53.1549 3.50303 54.9057H48.1884ZM44.6328 49.5394C44.6328 49.194 44.6409 48.8985 44.631 48.6039C44.5943 47.4868 43.8729 46.4908 42.7887 46.1766C42.355 46.0511 41.8747 46.0556 41.415 46.0556C30.9928 46.0493 20.5696 46.0511 10.1474 46.0511C9.86426 46.0511 9.57662 46.0253 9.29884 46.0662C7.6877 46.3048 6.71456 47.8108 7.06403 49.5394H44.6319H44.6328Z" fill="#00A5F1"/>
<path d="M35.6766 19.3344C35.6766 22.1978 35.6784 25.0604 35.6766 27.9238C35.6766 28.8397 35.4024 29.1094 34.4723 29.112C29.9623 29.1227 25.4524 29.1352 20.9424 29.1405C19.6431 29.1423 18.3447 29.1236 17.0454 29.1102C16.2784 29.1022 15.9639 28.7898 15.9639 28.0181C15.9621 22.2174 15.9621 16.4176 15.9639 10.6169C15.9639 9.85948 16.2981 9.53103 17.0616 9.53014C22.9013 9.52836 28.7401 9.52836 34.5798 9.53014C35.3486 9.53014 35.6739 9.85235 35.6748 10.6116C35.6775 13.5195 35.6757 16.4265 35.6766 19.3344ZM22.9882 20.877C22.7301 20.1578 22.3923 19.5267 22.2937 18.86C22.1737 18.0465 22.1969 17.2 22.2615 16.3758C22.4111 14.4577 24.0581 13.0184 25.9425 13.0932C27.879 13.1697 29.3709 14.7033 29.4005 16.6553C29.4103 17.2783 29.405 17.9005 29.4005 18.5236C29.3951 19.2267 29.1693 19.8614 28.7804 20.4435C28.7024 20.561 28.6272 20.6802 28.542 20.812C31.1514 22.2299 32.2545 24.4373 32.095 27.2954H33.8602C33.8692 27.1289 33.8835 26.9981 33.8835 26.8672C33.8835 21.84 33.8791 16.8128 33.8934 11.7856C33.8943 11.3726 33.7509 11.3023 33.3773 11.3032C28.3315 11.3139 23.2848 11.3157 18.239 11.3014C17.8295 11.3005 17.7471 11.4323 17.7479 11.8088C17.7596 16.8208 17.7551 21.8338 17.756 26.8459C17.756 26.9901 17.7712 27.1334 17.7802 27.3034H19.5455C19.4039 24.4213 20.5016 22.2121 22.9882 20.877ZM30.2751 27.2909C30.4462 25.2508 29.8297 23.6104 28.0384 22.5984C26.3825 21.6629 24.6988 21.7733 23.1575 22.8894C21.6719 23.9664 21.205 25.4983 21.3681 27.2909H30.2751ZM27.6092 17.5792C27.6092 17.2685 27.6164 16.9579 27.6083 16.6473C27.5815 15.6584 26.8261 14.8947 25.8574 14.8715C24.904 14.8493 24.0823 15.6014 24.0375 16.5796C24.0079 17.2294 24.0043 17.8827 24.0393 18.5316C24.093 19.5383 24.8798 20.2129 25.9237 20.1934C26.8449 20.1765 27.5797 19.4261 27.6083 18.4666C27.6173 18.1711 27.6101 17.8747 27.6101 17.5792H27.6092Z" fill="#00A5F1"/>
<path d="M21.3484 35.7663C18.7077 35.7663 16.0678 35.769 13.4271 35.7645C12.6403 35.7636 12.1771 35.1521 12.4719 34.5156C12.6654 34.0973 13.0247 33.9815 13.4647 33.9824C15.7918 33.9895 18.1189 33.9851 20.446 33.9851C23.3699 33.9851 26.2938 33.9851 29.2168 33.986C29.7769 33.986 30.1129 34.1845 30.2527 34.5877C30.4624 35.1913 30.0197 35.7583 29.3136 35.7628C27.8664 35.7708 26.4193 35.7654 24.973 35.7654C23.7651 35.7654 22.5563 35.7654 21.3484 35.7654V35.7663Z" fill="#00A5F1"/>
<path d="M21.3376 38.4363C23.9784 38.4363 26.6182 38.4363 29.2589 38.4372C29.7948 38.4372 30.1487 38.6686 30.267 39.0781C30.4202 39.6078 30.0582 40.1436 29.4955 40.2086C29.3485 40.2255 29.1971 40.2166 29.0484 40.2166C23.9165 40.2166 18.7856 40.2166 13.6538 40.2166C13.5194 40.2166 13.385 40.222 13.2515 40.2122C12.7479 40.1748 12.3751 39.784 12.3858 39.3113C12.3957 38.8529 12.7559 38.4772 13.2389 38.4434C13.4916 38.4256 13.7461 38.4363 13.9997 38.4363C16.446 38.4363 18.8922 38.4363 21.3385 38.4363H21.3376Z" fill="#00A5F1"/>
<path d="M35.6389 35.7661C34.8047 35.7661 33.9705 35.7697 33.1371 35.7652C32.5036 35.7616 32.0851 35.3896 32.0986 34.8563C32.112 34.3392 32.5197 33.9893 33.1318 33.9875C34.8298 33.984 36.5278 33.984 38.225 33.9875C38.8693 33.9893 39.2653 34.3445 39.2546 34.8964C39.2447 35.4269 38.8567 35.7608 38.2295 35.7643C37.3657 35.7697 36.5019 35.7652 35.638 35.7652L35.6389 35.7661Z" fill="#00A5F1"/>
<path d="M35.6434 40.216C34.7948 40.216 33.9454 40.2213 33.0968 40.2142C32.4973 40.2088 32.0887 39.8299 32.0995 39.3112C32.1102 38.8077 32.5099 38.4421 33.0842 38.4394C34.8119 38.4332 36.5395 38.4341 38.2671 38.4394C38.8756 38.4412 39.2645 38.8068 39.2564 39.3432C39.2492 39.8601 38.8684 40.2088 38.2806 40.2142C37.4015 40.2222 36.5234 40.216 35.6443 40.216H35.6434Z" fill="#00A5F1"/>
</svg>
