<svg width="58" height="58" viewBox="0 0 58 58" fill="none" xmlns="http://www.w3.org/2000/svg">
<path d="M33.2929 15.3021C33.2929 15.0733 33.2857 14.8552 33.2938 14.6372C33.3511 13.0243 33.2499 11.3848 33.5026 9.80225C34.2293 5.25126 37.7258 1.76391 42.2698 0.856028C48.8048 -0.450613 55.1606 4.38075 55.4483 10.9958C55.5988 14.4458 55.4931 17.9064 55.5012 21.3617C55.5038 22.3106 55.5128 23.2603 55.494 24.2091C55.4877 24.5411 55.5764 24.7289 55.8927 24.9007C56.8435 25.4179 57.3453 26.2403 57.3506 27.3298C57.3578 28.8269 57.3524 30.3231 57.3524 31.879H43.0368C43.1569 32.6222 43.2931 33.3013 43.3674 33.9858C43.4364 34.6177 43.466 35.2577 43.4669 35.8932C43.475 40.5653 43.4741 45.2373 43.466 49.9102C43.466 50.2494 43.5296 50.4505 43.8791 50.6312C44.6748 51.0424 45.2366 51.7242 45.2707 52.6277C45.3334 54.2672 45.2886 55.9112 45.2886 57.5828H12.0228C12.0228 57.2899 12.0228 57.0122 12.0228 56.7354C12.0228 55.5489 12.0219 54.3624 12.0228 53.176C12.0228 51.9833 12.5381 51.0878 13.6205 50.5582C13.9135 50.4149 13.8849 50.2049 13.8849 49.9726C13.8849 45.434 13.8929 40.8946 13.8804 36.3561C13.8768 34.9266 13.9467 33.5105 14.3105 32.1211C14.3248 32.0668 14.3123 32.0062 14.3123 31.9066H0.105066C0.0557817 31.8416 0.0226231 31.8193 0.0226231 31.7962C0.0181427 30.1949 -0.0311325 28.5919 0.0315926 26.9924C0.0683315 26.0623 0.614032 25.3431 1.44648 24.9105C1.78609 24.7343 1.86226 24.5287 1.86137 24.1833C1.85151 20.0747 1.86137 15.9661 1.85241 11.8574C1.84703 9.04211 2.70009 6.5214 4.60604 4.43683C7.61505 1.14708 11.3785 -0.0883532 15.7137 1.02514C19.9862 2.12261 22.6771 4.95219 23.7435 9.21657C23.9809 10.1681 24.0042 11.1819 24.0517 12.1699C24.1019 13.2041 24.0625 14.242 24.0625 15.3101H25.8967C25.8967 14.8072 25.8967 14.3087 25.8967 13.8103C25.8994 12.3799 26.6055 11.6741 28.0401 11.6696C28.533 11.6679 29.0258 11.6616 29.5186 11.6714C30.6835 11.6928 31.438 12.4502 31.4551 13.6154C31.4631 14.1628 31.4568 14.7102 31.4568 15.3003H33.2911L33.2929 15.3021ZM25.9415 26.8162C25.799 26.8553 25.6826 26.8794 25.5714 26.9185C25.403 26.9782 25.2345 27.0387 25.0723 27.1135C21.4271 28.7975 19.5023 31.6484 19.4432 35.6289C19.3742 40.3454 19.4298 45.0629 19.4199 49.7803C19.4199 50.1346 19.5077 50.2716 19.893 50.2707C25.7471 50.2601 31.6011 50.2601 37.4551 50.2707C37.8288 50.2707 37.9363 50.1568 37.9355 49.7901C37.9256 45.0727 37.9489 40.3552 37.922 35.6387C37.9041 32.5305 36.6245 30.0178 34.1182 28.1451C33.3063 27.5389 32.4103 27.0868 31.4147 26.8108C31.0339 27.8558 30.2848 28.2661 29.2427 28.2234C28.9443 28.2109 28.6441 28.2056 28.3466 28.2252C27.2247 28.2964 26.3394 27.9706 25.9415 26.8162ZM18.4943 17.6679H18.4844C18.4844 15.5913 18.4916 13.5148 18.4808 11.4382C18.4763 10.5286 18.2057 9.68386 17.7407 8.90415C16.4458 6.73235 13.9368 5.71143 11.4986 6.35585C9.08461 6.99403 7.4197 9.15071 7.40806 11.7311C7.38924 15.8397 7.40805 19.9483 7.39461 24.0569C7.39372 24.4521 7.5129 24.5589 7.90359 24.5571C11.2782 24.5438 14.6528 24.5438 18.0283 24.5571C18.4073 24.5589 18.5041 24.4379 18.5014 24.0747C18.4862 21.9385 18.4943 19.8032 18.4943 17.667V17.6679ZM38.8835 24.5144C39.0322 24.5287 39.1487 24.5491 39.2652 24.5491C42.6846 24.5509 46.1049 24.5447 49.5243 24.558C49.9097 24.5598 49.9589 24.3943 49.958 24.0765C49.95 21.303 49.9545 18.5286 49.9518 15.7551C49.95 14.2865 49.9939 12.8161 49.9258 11.351C49.7968 8.59262 47.5557 6.36297 44.8146 6.18673C41.5323 5.97578 38.8844 8.42618 38.8683 11.7328C38.8476 15.8415 38.8629 19.9501 38.8638 24.0587C38.8638 24.2038 38.8763 24.3498 38.8835 24.5153V24.5144ZM28.6701 55.7723C32.4622 55.7723 36.2553 55.7723 40.0475 55.7723C41.0475 55.7723 42.0484 55.7599 43.0484 55.7786C43.3854 55.7848 43.4893 55.6762 43.4777 55.346C43.4544 54.6944 43.4714 54.0411 43.4705 53.3887C43.4687 52.3669 43.2052 52.1052 42.1676 52.1043C36.7625 52.1034 31.3574 52.1025 25.9532 52.1025C22.3097 52.1025 18.6672 52.1016 15.0238 52.1043C14.203 52.1043 13.8876 52.4247 13.8849 53.2392C13.8831 53.8916 13.884 54.544 13.8849 55.1964C13.8849 55.7706 13.8858 55.7715 14.4709 55.7715C19.2039 55.7715 23.937 55.7715 28.6701 55.7715V55.7723ZM20.3572 23.3751C20.9172 23.0627 21.3841 22.7805 21.8725 22.5393C22.1252 22.4138 22.2067 22.2545 22.2067 21.9839C22.1986 18.4984 22.2345 15.0119 22.1888 11.5263C22.1242 6.54722 18.1063 2.58634 13.0901 2.49378C8.09445 2.40121 3.79688 6.41103 3.71892 11.3448C3.65172 15.6154 3.7019 19.8887 3.70011 24.1611C3.70011 24.1904 3.68756 24.2314 3.7028 24.2483C3.79241 24.3515 3.88201 24.5278 3.98327 24.5358C4.39905 24.5678 4.8202 24.5714 5.23508 24.534C5.34888 24.5242 5.51376 24.3498 5.53795 24.2269C5.58634 23.9839 5.55497 23.7258 5.55497 23.473C5.55497 19.5273 5.52631 15.5816 5.56394 11.6358C5.61323 6.52318 10.6509 3.04563 15.4691 4.76171C18.3921 5.80311 20.3393 8.55257 20.3527 11.7106C20.3679 15.4044 20.3572 19.0974 20.3572 22.7912C20.3572 22.9612 20.3572 23.1321 20.3572 23.3742V23.3751ZM37.0008 23.3716C37.0008 23.0912 37.0008 22.9007 37.0008 22.7102C37.0008 19.0164 36.974 15.3225 37.0098 11.6296C37.0591 6.52585 42.1058 3.04741 46.9248 4.76349C49.8622 5.80933 51.7896 8.5588 51.7995 11.7613C51.8111 15.8557 51.8066 19.9492 51.7959 24.0436C51.795 24.421 51.8837 24.5972 52.2932 24.5545C52.5737 24.5251 52.8631 24.5251 53.1436 24.5554C53.5603 24.6008 53.6696 24.4423 53.6678 24.0347C53.6525 19.926 53.6678 15.8165 53.6552 11.7079C53.6391 6.65402 49.6668 2.62729 44.5897 2.49467C39.6711 2.3665 35.3619 6.24548 35.197 11.1178C35.0743 14.7627 35.1621 18.4147 35.163 22.064C35.163 22.1833 35.2069 22.3622 35.292 22.4129C35.8234 22.7316 36.3727 23.0226 37.0026 23.3707L37.0008 23.3716ZM39.7769 50.2645C40.2832 50.2645 40.7169 50.2387 41.1461 50.2716C41.5529 50.3028 41.6443 50.1452 41.6434 49.7634C41.6317 45.0753 41.6515 40.3882 41.6309 35.7001C41.6067 29.9297 37.9847 24.996 32.5617 23.2986C32.2167 23.1909 31.8664 23.1019 31.4586 22.9879C31.4586 23.5611 31.4748 24.0338 31.4524 24.5046C31.4389 24.793 31.5482 24.9194 31.8215 25.0066C36.7804 26.5776 39.7724 30.6506 39.776 35.8283C39.7787 40.4273 39.776 45.0255 39.776 49.6245C39.776 49.8141 39.776 50.0037 39.776 50.2645H39.7769ZM17.5794 50.2618C17.5794 49.9984 17.5794 49.8079 17.5794 49.6183C17.5794 44.9018 17.565 40.1843 17.5865 35.4678C17.5991 32.6836 18.5767 30.2466 20.445 28.1753C21.8214 26.6488 23.5123 25.6012 25.4899 25.0057C25.6387 24.9612 25.868 24.8295 25.8752 24.7263C25.9137 24.1735 25.8931 23.6163 25.8931 23.0102C25.6136 23.0778 25.411 23.1197 25.213 23.1757C19.5301 24.7859 15.7379 29.7855 15.7236 35.7099C15.712 40.3819 15.7218 45.0549 15.7218 49.7269C15.7218 49.8159 15.6913 49.9236 15.7308 49.9895C15.7935 50.0954 15.8992 50.2458 15.9942 50.2503C16.4987 50.2761 17.0041 50.2627 17.5803 50.2627L17.5794 50.2618ZM17.0955 26.4076C16.979 26.3863 16.9351 26.3711 16.8921 26.3711C12.2209 26.3702 7.54963 26.3667 2.87841 26.3729C2.21531 26.3738 1.87212 26.7352 1.86047 27.4072C1.84792 28.1486 1.87301 28.8901 1.84972 29.6306C1.83896 29.9795 1.98323 30.0472 2.29865 30.0463C6.40266 30.0383 10.5067 30.0383 14.6107 30.0463C14.8983 30.0463 15.0103 29.9261 15.1412 29.6911C15.6905 28.7094 16.2729 27.7463 16.8455 26.777C16.9109 26.6657 16.9898 26.5616 17.0946 26.4058L17.0955 26.4076ZM40.2894 26.3676C40.3244 26.4788 40.3298 26.5242 40.3504 26.5589C40.9911 27.6422 41.6255 28.729 42.2859 29.7997C42.3638 29.9261 42.5852 30.0276 42.7429 30.0311C43.7124 30.0525 44.6829 30.0418 45.6524 30.0418C48.7717 30.0418 51.89 30.0374 55.0092 30.0481C55.3569 30.049 55.5271 29.9858 55.5083 29.5906C55.4787 28.9542 55.5003 28.316 55.5003 27.6787C55.4994 26.6373 55.2269 26.3685 54.1678 26.3676C49.7053 26.3676 45.2438 26.3676 40.7814 26.3676C40.6335 26.3676 40.4857 26.3676 40.2885 26.3676H40.2894ZM24.0678 19.0128C24.2793 19.0128 24.4397 19.0128 24.5992 19.0128C25.4944 19.0128 26.3904 19.028 27.2856 19.0057C27.6521 18.9968 27.7731 19.1036 27.7704 19.4783C27.7543 21.5834 27.7623 23.6893 27.7623 25.7944C27.7623 25.967 27.7623 26.1397 27.7623 26.3364H29.5939C29.5939 26.1326 29.5939 25.959 29.5939 25.7846C29.5939 23.8718 29.5939 21.959 29.5939 20.0471C29.5939 19.3576 29.935 19.0125 30.6172 19.0119C31.4927 19.0119 32.3681 19.0119 33.2929 19.0119C33.2929 18.4975 33.2759 18.0409 33.2983 17.586C33.3144 17.2638 33.1809 17.1819 32.8789 17.1899C32.1925 17.2068 31.5061 17.1944 30.8188 17.1953C30.0022 17.1953 29.5936 16.7835 29.593 15.9598C29.593 15.1641 29.593 14.3684 29.593 13.5175C29.0742 13.5175 28.6145 13.5344 28.1575 13.5121C27.8367 13.4961 27.7516 13.6207 27.757 13.9233C27.7731 14.8722 27.7498 15.821 27.7695 16.7698C27.7767 17.1036 27.6665 17.2077 27.334 17.2015C26.3788 17.1837 25.4236 17.1864 24.4684 17.2051C24.334 17.2077 24.092 17.3359 24.0858 17.4187C24.0499 17.9305 24.0678 18.4458 24.0678 19.0119V19.0128ZM25.903 21.0992C25.894 21.0208 25.8851 20.9425 25.8761 20.8642C25.4567 20.8642 25.0374 20.8633 24.6171 20.8642C24.0132 20.866 23.9657 20.9345 24.1467 21.5585C24.7327 21.4054 25.3179 21.2523 25.9039 21.0992H25.903ZM33.2248 21.5513C33.3744 20.9034 33.3449 20.8651 32.7212 20.8633C32.3941 20.8633 32.0671 20.8562 31.74 20.8686C31.6441 20.8722 31.55 20.9301 31.4559 20.963L31.4577 21.1045C32.0456 21.2532 32.6343 21.4018 33.2248 21.5504V21.5513Z" fill="#00A5F1"/>
<path d="M28.6487 44.7416C24.5474 44.7211 21.2552 41.418 21.2812 37.3486C21.3062 33.3138 24.6486 30.0259 28.7078 30.0428C32.7885 30.0597 36.0968 33.3868 36.0753 37.4518C36.0538 41.4946 32.7258 44.7621 28.6496 44.7416H28.6487ZM32.1702 41.6325C33.9893 40.3197 34.7052 37.6512 33.8629 35.4554C32.9624 33.1056 30.6281 31.6761 28.0868 31.9164C25.6854 32.1443 23.6074 34.0927 23.2077 36.4541C22.8224 38.7344 23.9837 40.8804 25.1818 41.5729C25.5151 41.0896 25.8467 40.6081 26.1773 40.1274C24.6513 38.1933 24.5939 36.3081 26.0169 34.8501C27.3243 33.5097 29.4059 33.3477 30.913 34.4807C31.6425 35.029 32.1048 35.7553 32.2903 36.6508C32.5762 38.0348 32.1004 39.1795 31.1442 40.1497C31.353 40.406 31.5457 40.6134 31.7043 40.8439C31.8701 41.0851 32.0045 41.3477 32.1693 41.6317L32.1702 41.6325ZM28.6917 35.5693C27.6648 35.5622 26.8377 36.3766 26.8341 37.3975C26.8314 38.4087 27.6711 39.2462 28.6854 39.2427C29.6801 39.2391 30.5053 38.422 30.5197 37.426C30.5349 36.4069 29.7168 35.5764 28.6908 35.5693H28.6917ZM30.4686 42.5929C30.2517 41.629 29.4731 41.0255 28.5859 41.0843C27.6988 41.1421 26.982 41.7848 26.9193 42.6054C28.0931 43.0202 29.2652 43.0202 30.4686 42.5929Z" fill="#00A5F1"/>
<path d="M25.0078 48.4256V46.6177H36.0716C36.0716 47.1625 36.0886 47.693 36.0528 48.2191C36.0474 48.2956 35.7947 48.4149 35.6549 48.4158C33.8063 48.4292 31.9568 48.4265 30.1082 48.4265C28.5876 48.4265 27.0661 48.4265 25.5455 48.4265C25.3716 48.4265 25.1969 48.4265 25.0078 48.4265V48.4256Z" fill="#00A5F1"/>
<path d="M21.2811 46.5911C21.8447 46.5911 22.3366 46.5983 22.8268 46.5876C23.0714 46.5822 23.1324 46.7033 23.1288 46.916C23.1216 47.3015 23.1189 47.6869 23.1288 48.0715C23.1351 48.3082 23.0589 48.432 22.799 48.4249C22.3967 48.4151 21.9926 48.4418 21.592 48.4115C21.4818 48.4035 21.2999 48.2513 21.2945 48.156C21.2649 47.6566 21.2802 47.1555 21.2802 46.5902L21.2811 46.5911Z" fill="#00A5F1"/>
<path d="M12.9387 15.3429C10.8938 15.3376 9.24775 13.6836 9.26119 11.6487C9.27463 9.63695 10.9252 8.00438 12.9476 8.00171C14.9871 7.99993 16.6574 9.65742 16.6538 11.6799C16.6502 13.7095 14.988 15.3483 12.9378 15.3429H12.9387ZM14.7953 11.663C14.7909 10.6437 13.9602 9.83634 12.9288 9.84881C11.9189 9.86127 11.1089 10.6687 11.1071 11.6665C11.1044 12.6787 11.9431 13.5172 12.9557 13.5154C13.9736 13.5136 14.7998 12.6813 14.7953 11.663Z" fill="#00A5F1"/>
<path d="M12.9431 22.6978C11.8544 22.6978 10.7657 22.6863 9.67785 22.705C9.33824 22.7112 9.22623 22.5964 9.25132 22.2697C9.28537 21.8299 9.12497 21.2353 9.35347 20.9914C9.57211 20.759 10.1841 20.8721 10.6232 20.8694C12.4718 20.8605 14.3213 20.8774 16.1699 20.857C16.5722 20.8525 16.7012 20.9798 16.6654 21.3652C16.6358 21.6732 16.6421 21.9884 16.6645 22.2973C16.6869 22.6124 16.5605 22.7067 16.2532 22.7032C15.1501 22.6898 14.0462 22.6978 12.9431 22.6978Z" fill="#00A5F1"/>
<path d="M16.66 18.99H9.29248V17.2275C9.4466 17.2159 9.58818 17.1954 9.72976 17.1954C11.8759 17.1936 14.0219 17.2034 16.168 17.1856C16.565 17.1821 16.6967 17.2996 16.6671 17.6895C16.6358 18.1114 16.66 18.5387 16.66 18.99Z" fill="#00A5F1"/>
<path d="M44.3917 15.3429C42.3514 15.3393 40.691 13.6792 40.7017 11.6532C40.7125 9.65208 42.38 8.00082 44.3908 8.00171C46.4419 8.00171 48.0943 9.64139 48.0934 11.6745C48.0925 13.7148 46.4455 15.3465 44.3917 15.3429ZM44.389 9.8488C43.3559 9.85592 42.553 10.6695 42.5628 11.7003C42.5727 12.6964 43.3926 13.51 44.3944 13.5154C45.4052 13.5207 46.2529 12.6804 46.2511 11.6736C46.2493 10.658 45.4177 9.84257 44.389 9.84969V9.8488Z" fill="#00A5F1"/>
<path d="M44.3675 22.6982C43.2788 22.6982 42.1909 22.6893 41.1022 22.7035C40.7948 22.7071 40.6703 22.6154 40.6909 22.2985C40.7142 21.9442 40.7079 21.5872 40.6936 21.233C40.6828 20.9695 40.776 20.8626 41.0511 20.8635C43.2877 20.8698 45.5243 20.8698 47.7609 20.8635C48.0127 20.8635 48.1203 20.9579 48.0996 21.2036C48.0988 21.2187 48.0996 21.233 48.0996 21.2481C48.1403 22.2178 47.6716 22.7017 46.6937 22.7C45.9186 22.6991 45.1435 22.7 44.3675 22.7V22.6982Z" fill="#00A5F1"/>
<path d="M48.0997 18.9917H40.7008C40.7008 18.454 40.6802 17.9395 40.7205 17.4285C40.7277 17.3395 40.9921 17.2042 41.139 17.2033C42.9867 17.1882 44.8353 17.1926 46.683 17.1926C47.0558 17.1926 47.4304 17.1731 47.7995 17.2069C47.9071 17.2167 48.08 17.3787 48.0863 17.4793C48.1167 17.9635 48.0997 18.4504 48.0997 18.9917Z" fill="#00A5F1"/>
</svg>
