<?xml version="1.0" encoding="utf-8"?><svg xmlns="http://www.w3.org/2000/svg" xmlns:xlink="http://www.w3.org/1999/xlink"><symbol viewBox="0 0 24 25" id="arrow-left" xmlns="http://www.w3.org/2000/svg"><path d="M3.304 11.282a1 1 0 00-.022 1.414l6.26 6.465a1 1 0 101.437-1.391l-5.565-5.747 5.747-5.565A1 1 0 109.77 5.02l-6.466 6.26zm15.68 1.96a1 1 0 00.032-2l-.032 2zm-15-.242l15 .242.032-2-15-.242-.032 2z"/></symbol><symbol viewBox="0 0 24 25" id="arrow-right" xmlns="http://www.w3.org/2000/svg"><path d="M20.707 12.947a1 1 0 000-1.414L14.343 5.17a1 1 0 10-1.414 1.414l5.657 5.657-5.657 5.657a1 1 0 101.414 1.414l6.364-6.364zM5 11.24a1 1 0 100 2v-2zm15 0H5v2h15v-2z"/></symbol><symbol viewBox="0 0 22 24" id="basket" xmlns="http://www.w3.org/2000/svg"><g clip-path="url(#aca)"><path d="M10.363 18.443a2.046 2.046 0 00-2.045 2.042 2.046 2.046 0 004.09 0 2.046 2.046 0 00-2.045-2.042zm6.134 0a2.046 2.046 0 00-2.045 2.042 2.046 2.046 0 004.089 0 2.046 2.046 0 00-2.044-2.042zm3.978-8.199L7.413 6.891a.614.614 0 00-.75.73L8.67 16.4h-.786L5.482 5.895a.613.613 0 00-.474-.464l-4.27-.882A.614.614 0 00.489 5.75l3.885.802L6.797 17.15a.613.613 0 00.598.477h12.07a.615.615 0 00.607-.53l.858-6.175a.613.613 0 00-.455-.678zm-8.14 3.91a.613.613 0 01-1.227 0v-2.696a.613.613 0 011.227 0v2.696zm2.625 0a.613.613 0 01-1.227 0v-1.88a.613.613 0 011.227 0v1.88zm2.625 0a.613.613 0 01-1.227 0v-1.226a.613.613 0 011.227 0v1.226z"/></g><path fill-rule="evenodd" clip-rule="evenodd" d="M16.268 4.568a2.996 2.996 0 00-1.693-.523c-.627 0-1.21.193-1.693.523-.28-.843-.492-1.752-.492-2.383C12.39.98 13.37 0 14.575 0s2.185.98 2.185 2.185c0 .631-.212 1.54-.492 2.383zm-4.722 2.274l.024.006v-.011l-.024.005zm4.972 1.217c-1.333-.33-2.766-.681-4.129-1.013a2.185 2.185 0 114.129 1.013zm4.436 1.103c-.866-.217-2.155-.538-3.618-.9a2.995 2.995 0 00.243-1.425c.87.18 1.762.45 2.308.765.596.344.969.928 1.067 1.56zM9.869 6.439c-.36-.086-.706-.167-1.03-.243a2.19 2.19 0 01-.376-2.667 2.188 2.188 0 013.147-.7c.098.738.338 1.599.61 2.353a3.01 3.01 0 00-.449.774c-.628.113-1.305.278-1.902.483zm10.124.075a3.43 3.43 0 01-.217.114c-.696-.295-1.587-.526-2.397-.672a3.01 3.01 0 00-.449-.774c.262-.727.494-1.553.599-2.273.095-.067.189-.128.278-.18a2.188 2.188 0 012.986.8 2.188 2.188 0 01-.8 2.985z"/><defs><clipPath id="aca"><path transform="translate(0 3.064)" d="M0 0h20.936v20.936H0z"/></clipPath></defs></symbol><symbol viewBox="0 0 33 33" id="calculator" xmlns="http://www.w3.org/2000/svg"><path d="M23.228 28.525H9.508c-1.494 0-2.58-1.222-2.58-2.58V6.792c0-1.494 1.222-2.58 2.58-2.58h13.72c1.494 0 2.58 1.221 2.58 2.58v19.153c0 1.358-1.222 2.58-2.58 2.58zm2.581-17.658H6.792"/><path d="M10.867 20.24s.136.135 0 0v.135-.136zm0 0c0 .135 0 0 0 0zm5.433.135s.136 0 0 0v.136-.136zm5.434-.135s.136.135 0 0v.135-.136zm0 0c0 .135 0 0 0 0zm-10.867-4.076s.136.136 0 0v.136-.136zm0 0c0 .136 0 0 0 0zm5.433.136s.136 0 0 0v.136-.136zm5.434-.136s.136.136 0 0v.136-.136zm0 0c0 .136 0 0 0 0zm-10.867 8.15s.136.136 0 0v.136-.136zm0 0c0 .136 0 0 0 0zm5.433.136s.136 0 0 0v.136-.136zm5.434-.136s.136.136 0 0v.136-.136zm0 0c0 .136 0 0 0 0z"/></symbol><symbol viewBox="0 0 344.96 344.96" id="check" xmlns="http://www.w3.org/2000/svg"><g data-name="Слой 2"><path class="aecls-1" d="M321.85 86.24l-40-23.11-23.1-40H212.5L172.48 0l-40 23.11H86.24l-23.11 40-40 23.1v46.21L0 172.48l23.11 40v46.21l40 23.11 23.11 40h46.21l40 23.1 40-23.11h46.21l23.11-40 40-23.11V212.5l23.11-40-23.11-40V86.24zM156.91 243.07a16.79 16.79 0 01-23.34 0l-50.45-50.44a16.19 16.19 0 010-22.89l13.35-13.35a16.19 16.19 0 0122.89 0l25.87 25.87 80.34-80.35a16.19 16.19 0 0122.89 0l13.35 13.35a16.19 16.19 0 010 22.89z" data-name="Capa 1"/></g></symbol><symbol viewBox="0 0 18 18" id="check-icon" xmlns="http://www.w3.org/2000/svg"><path d="M15 6l-8.25 8.708L3 10.75"/></symbol><symbol viewBox="0 0 24 25" id="dd-arrow-up" xmlns="http://www.w3.org/2000/svg"><path d="M16 14.5l-4-4-4 4"/></symbol><symbol viewBox="0 0 26 26" id="ddGroup-icon" xmlns="http://www.w3.org/2000/svg"><path d="M24.25 13.165c0 6.25-5 11.25-11.25 11.25s-11.25-5-11.25-11.25S6.75 1.916 13 1.916s11.25 5 11.25 11.25zm-15 0h7.5"/><path d="M13.624 16.29l3.125-3.125-3.125-3.125"/></symbol><symbol viewBox="0 0 24 24" id="fb" xmlns="http://www.w3.org/2000/svg"><path d="M13.397 20.997v-8.196h2.765l.411-3.209h-3.176V7.548c0-.926.258-1.56 1.587-1.56h1.684v-2.86A22.108 22.108 0 0014.201 3c-2.444 0-4.122 1.492-4.122 4.231v2.355H7.332v3.21h2.753v8.201h3.312z"/></symbol><symbol viewBox="0 0 24 24" id="instagram" xmlns="http://www.w3.org/2000/svg"><path d="M11.999 7.377a4.624 4.624 0 100 9.248 4.624 4.624 0 000-9.248zm0 7.627a3.004 3.004 0 110-6.008 3.004 3.004 0 010 6.008zm4.807-6.719a1.078 1.078 0 100-2.156 1.078 1.078 0 000 2.156z"/><path d="M20.533 6.11A4.605 4.605 0 0017.9 3.48a6.607 6.607 0 00-2.186-.42c-.963-.042-1.268-.054-3.71-.054s-2.755 0-3.71.054a6.554 6.554 0 00-2.184.42 4.6 4.6 0 00-2.633 2.63 6.585 6.585 0 00-.419 2.186c-.043.962-.056 1.267-.056 3.71 0 2.442 0 2.753.056 3.71.015.748.156 1.486.419 2.187a4.61 4.61 0 002.634 2.632 6.583 6.583 0 002.185.45c.963.042 1.268.055 3.71.055s2.755 0 3.71-.055a6.616 6.616 0 002.186-.42 4.613 4.613 0 002.633-2.632c.263-.7.404-1.438.419-2.186.043-.962.056-1.267.056-3.71s0-2.753-.056-3.71a6.583 6.583 0 00-.421-2.217zm-1.218 9.533a5.046 5.046 0 01-.311 1.688 2.987 2.987 0 01-1.712 1.71c-.535.2-1.1.305-1.67.312-.95.044-1.218.055-3.654.055-2.438 0-2.687 0-3.655-.055a4.961 4.961 0 01-1.67-.311 2.984 2.984 0 01-1.718-1.711 5.08 5.08 0 01-.311-1.67c-.043-.95-.053-1.217-.053-3.653 0-2.437 0-2.686.053-3.655a5.038 5.038 0 01.311-1.687c.305-.79.93-1.41 1.719-1.712a5.01 5.01 0 011.669-.311c.95-.043 1.218-.055 3.655-.055s2.687 0 3.654.055a4.96 4.96 0 011.67.31 2.99 2.99 0 011.712 1.713 5.06 5.06 0 01.311 1.669c.043.95.054 1.218.054 3.655 0 2.436 0 2.698-.043 3.654h-.011v-.001z"/></symbol><symbol viewBox="0 0 30 58" id="sServices-icon-1" xmlns="http://www.w3.org/2000/svg"><path d="M19.153 43.012c1.183 1.167 2.253 2.22 3.32 3.277 2.123 2.106 4.243 4.215 6.367 6.32.305.301.588.607.442 1.085-.15.486-.544.625-.993.704-.514.091-1.03.183-1.533.318a.588.588 0 00-.349.355c-.142.544-.24 1.1-.345 1.654-.078.407-.262.736-.68.86-.405.117-.714-.073-.996-.354-1.6-1.599-3.206-3.19-4.812-4.784-.11-.11-.227-.215-.405-.383-.013.237-.027.379-.027.52-.001 1.32.002 2.64-.001 3.96-.002.735-.332 1.07-1.058 1.07-2.285.003-4.57.003-6.854 0-.705 0-1.045-.336-1.047-1.034-.005-1.465-.001-2.93-.001-4.509-.187.166-.307.26-.414.367-1.512 1.498-3.02 2.997-4.532 4.496-.116.116-.23.233-.35.344-.642.602-1.412.372-1.608-.49a30.494 30.494 0 01-.34-1.7c-.042-.243-.144-.358-.39-.4-.485-.082-.963-.203-1.449-.282-.462-.075-.886-.19-1.052-.692-.17-.52.164-.831.487-1.15 3.073-3.051 6.143-6.103 9.214-9.155.114-.113.223-.232.465-.484-.199-.128-.4-.215-.545-.357-1.526-1.505-3.052-3.008-4.56-4.53C2.1 35.002.698 31.332 1.16 27.113c.592-5.402 3.561-9.148 8.576-11.292.311-.133.458-.255.456-.627-.017-1.905 1.07-2.968 2.99-2.971h.554v-1.397c-.954-.276-1.788-.766-2.371-1.604-.773-1.11-.992-2.308-.494-3.586.606-1.557 1.633-2.852 2.663-4.144.047-.058.098-.112.145-.169.784-.933 1.19-.934 1.979.018 1.008 1.215 1.94 2.477 2.639 3.903 1.163 2.373-.321 4.83-2.379 5.47-.112.034-.22.077-.34.12v1.39c.31 0 .605-.005.899 0 1.468.028 2.675 1.182 2.643 2.638-.014.644.212.883.784 1.14 4.687 2.097 7.518 5.662 8.205 10.744.586 4.34-.766 8.112-3.826 11.26-1.535 1.58-3.11 3.12-4.67 4.675-.114.114-.264.194-.458.333l-.002-.002zm-.011-25.407c0 .916.02 1.747-.01 2.574-.013.369.1.582.415.788 4.791 3.138 5.51 9.594 1.53 13.701-.973 1.003-1.98 1.974-2.971 2.96l-6.646 6.604-8.33 8.273c-.11.11-.21.227-.432.468 1.42-.063 2.003.635 1.99 1.96.228-.211.349-.317.462-.43l9.658-9.591c2.692-2.674 5.385-5.345 8.072-8.023 5.159-5.14 4.657-13.401-1.077-17.768a10.786 10.786 0 00-2.661-1.516zm-4.5 20.947c.903-.9 1.759-1.744 2.6-2.602.08-.08.103-.242.103-.366.005-6.868.005-13.735.002-20.603 0-.617-.356-.973-.97-.977-1.134-.008-2.27-.007-3.404 0-.651.004-.991.344-.997.993-.007.771-.002 1.543-.002 2.314 0 6.052-.002 12.104.005 18.156 0 .18.02.415.131.53.813.847 1.65 1.67 2.532 2.555zm-1.249 1.151c-.141-.101-.29-.182-.407-.296-1.627-1.612-3.293-3.188-4.862-4.854-2.135-2.267-2.873-4.98-2.228-8.018.504-2.373 1.85-4.205 3.864-5.564.16-.109.394-.273.4-.418.035-.974.018-1.948.018-2.98-.188.077-.325.125-.455.187-7.547 3.622-9.2 13.153-3.306 19.064 1.544 1.548 3.1 3.084 4.653 4.624.101.1.214.188.297.26l2.026-2.003v-.002zm3.956 16.12V55.3c0-1.407-.03-2.816.015-4.221.018-.584-.144-.996-.575-1.393-.717-.66-1.378-1.384-2.106-2.126-.86.862-1.666 1.65-2.444 2.463a.987.987 0 00-.255.612c-.02 1.6-.013 3.2-.011 4.8 0 .127.02.253.03.388h5.346zm-1.3-9.492l8.518 8.402c.148-.412.198-.998.518-1.314.327-.324.92-.385 1.355-.546l-8.494-8.427-1.898 1.885h.001zm3.106-12.357a6.996 6.996 0 002.655-6.33c-.214-1.91-1.081-3.487-2.655-4.771v11.1zm-9.006.049V22.96c-3.173 2.33-3.925 7.775 0 11.063zM14.66 2.942c-.827 1.063-1.603 2.072-2.093 3.26-.372.903-.059 1.895.745 2.485a2.28 2.28 0 002.71-.012c.802-.597 1.103-1.586.724-2.49-.49-1.173-1.251-2.178-2.086-3.242v-.001zM8.47 5.057c-.096.68-.759 1.141-1.316.846a68.784 68.784 0 01-3.285-1.881c-.407-.246-.478-.75-.251-1.14.236-.406.73-.586 1.156-.352a76.984 76.984 0 013.203 1.846c.22.136.331.45.492.682h.001zm-3.994 6.271c-.48-.001-.828-.268-.939-.657-.115-.404.025-.767.44-1.016.65-.389 1.311-.757 1.968-1.134.348-.2.69-.41 1.043-.6.508-.274 1.02-.148 1.279.3.25.432.118.936-.36 1.22a181.43 181.43 0 01-3.05 1.754c-.139.078-.304.105-.381.13v.003zM24.86 2.424c.466.028.762.218.906.607.148.397.023.793-.37 1.039-.554.346-1.128.661-1.693.988-.451.26-.9.522-1.355.772-.513.28-1.019.165-1.284-.279-.266-.444-.128-.952.375-1.248.997-.588 2.004-1.163 3.012-1.734.138-.078.304-.109.41-.144l-.002-.001zm.962 7.835c.022.776-.646 1.285-1.196.998a62.245 62.245 0 01-3.326-1.9c-.402-.242-.47-.754-.242-1.141.24-.405.73-.58 1.16-.343A81.4 81.4 0 0125.42 9.72c.213.13.322.428.402.539z"/></symbol><symbol viewBox="0 0 30 58" id="sServicesSlider-icon-1" xmlns="http://www.w3.org/2000/svg"><path d="M19.153 43.012c1.183 1.167 2.253 2.22 3.32 3.277 2.123 2.106 4.243 4.215 6.367 6.32.305.301.588.607.442 1.085-.15.486-.544.625-.993.704-.514.091-1.03.183-1.533.318a.588.588 0 00-.349.355c-.142.544-.24 1.1-.345 1.654-.078.407-.262.736-.68.86-.405.117-.714-.073-.996-.354-1.6-1.599-3.206-3.19-4.812-4.784-.11-.11-.227-.215-.405-.383-.013.237-.027.379-.027.52-.001 1.32.002 2.64-.001 3.96-.002.735-.332 1.07-1.058 1.07-2.285.003-4.57.003-6.854 0-.705 0-1.045-.336-1.047-1.034-.005-1.465-.001-2.93-.001-4.509-.187.166-.307.26-.414.367-1.512 1.498-3.02 2.997-4.532 4.496-.116.116-.23.233-.35.344-.642.602-1.412.372-1.608-.49a30.494 30.494 0 01-.34-1.7c-.042-.243-.144-.358-.39-.4-.485-.082-.963-.203-1.449-.282-.462-.075-.886-.19-1.052-.692-.17-.52.164-.831.487-1.15 3.073-3.051 6.143-6.103 9.214-9.155.114-.113.223-.232.465-.484-.199-.128-.4-.215-.545-.357-1.526-1.505-3.052-3.008-4.56-4.53C2.1 35.002.698 31.332 1.16 27.113c.592-5.402 3.561-9.148 8.576-11.292.311-.133.458-.255.456-.627-.017-1.905 1.07-2.968 2.99-2.971h.554v-1.397c-.954-.276-1.788-.766-2.371-1.604-.773-1.11-.992-2.308-.494-3.586.606-1.557 1.633-2.852 2.663-4.144.047-.058.098-.112.145-.169.784-.933 1.19-.934 1.979.018 1.008 1.215 1.94 2.477 2.639 3.903 1.163 2.373-.321 4.83-2.379 5.47-.112.034-.22.077-.34.12v1.39c.31 0 .605-.005.899 0 1.468.028 2.675 1.182 2.643 2.638-.014.644.212.883.784 1.14 4.687 2.097 7.518 5.662 8.205 10.744.586 4.34-.766 8.112-3.826 11.26-1.535 1.58-3.11 3.12-4.67 4.675-.114.114-.264.194-.458.333l-.002-.002zm-.011-25.407c0 .916.02 1.747-.01 2.574-.013.369.1.582.415.788 4.791 3.138 5.51 9.594 1.53 13.701-.973 1.003-1.98 1.974-2.971 2.96l-6.646 6.604-8.33 8.273c-.11.11-.21.227-.432.468 1.42-.063 2.003.635 1.99 1.96.228-.211.349-.317.462-.43l9.658-9.591c2.692-2.674 5.385-5.345 8.072-8.023 5.159-5.14 4.657-13.401-1.077-17.768a10.786 10.786 0 00-2.661-1.516zm-4.5 20.947c.903-.9 1.759-1.744 2.6-2.602.08-.08.103-.242.103-.366.005-6.868.005-13.735.002-20.603 0-.617-.356-.973-.97-.977-1.134-.008-2.27-.007-3.404 0-.651.004-.991.344-.997.993-.007.771-.002 1.543-.002 2.314 0 6.052-.002 12.104.005 18.156 0 .18.02.415.131.53.813.847 1.65 1.67 2.532 2.555zm-1.249 1.151c-.141-.101-.29-.182-.407-.296-1.627-1.612-3.293-3.188-4.862-4.854-2.135-2.267-2.873-4.98-2.228-8.018.504-2.373 1.85-4.205 3.864-5.564.16-.109.394-.273.4-.418.035-.974.018-1.948.018-2.98-.188.077-.325.125-.455.187-7.547 3.622-9.2 13.153-3.306 19.064 1.544 1.548 3.1 3.084 4.653 4.624.101.1.214.188.297.26l2.026-2.003v-.002zm3.956 16.12V55.3c0-1.407-.03-2.816.015-4.221.018-.584-.144-.996-.575-1.393-.717-.66-1.378-1.384-2.106-2.126-.86.862-1.666 1.65-2.444 2.463a.987.987 0 00-.255.612c-.02 1.6-.013 3.2-.011 4.8 0 .127.02.253.03.388h5.346zm-1.3-9.492l8.518 8.402c.148-.412.198-.998.518-1.314.327-.324.92-.385 1.355-.546l-8.494-8.427-1.898 1.885h.001zm3.106-12.357a6.996 6.996 0 002.655-6.33c-.214-1.91-1.081-3.487-2.655-4.771v11.1zm-9.006.049V22.96c-3.173 2.33-3.925 7.775 0 11.063zM14.66 2.942c-.827 1.063-1.603 2.072-2.093 3.26-.372.903-.059 1.895.745 2.485a2.28 2.28 0 002.71-.012c.802-.597 1.103-1.586.724-2.49-.49-1.173-1.251-2.178-2.086-3.242v-.001zM8.47 5.057c-.095.68-.759 1.141-1.316.846A68.79 68.79 0 013.87 4.022c-.407-.246-.477-.75-.25-1.14.235-.406.73-.586 1.155-.352a76.984 76.984 0 013.203 1.846c.221.136.331.45.492.682h.001zm-3.994 6.271c-.48-.001-.827-.268-.939-.657-.115-.404.026-.767.44-1.016.65-.389 1.311-.757 1.968-1.134.348-.2.69-.41 1.043-.6.508-.274 1.02-.148 1.279.3.25.432.118.936-.36 1.22-1.01.597-2.029 1.176-3.05 1.754-.139.078-.304.105-.381.13v.003zM24.86 2.424c.466.028.762.218.906.607.148.397.023.793-.37 1.039-.554.346-1.128.661-1.693.988-.451.26-.899.522-1.355.772-.513.28-1.019.165-1.284-.279-.266-.444-.127-.952.375-1.248.998-.588 2.004-1.163 3.012-1.734.138-.078.304-.109.41-.144l-.001-.001zm.962 7.835c.022.776-.646 1.285-1.197.998a62.245 62.245 0 01-3.325-1.9c-.402-.242-.47-.754-.242-1.141.24-.405.73-.58 1.16-.343A81.4 81.4 0 0125.42 9.72c.213.13.322.428.402.539z"/></symbol><symbol viewBox="0 0 74 55" id="sServicesSlider-icon-2" xmlns="http://www.w3.org/2000/svg"><g clip-path="url(#ama)"><path d="M66.084 31.458c.668.167 1.273.284 1.856.47 1.494.475 2.444 1.739 2.475 3.236.033 1.538-.872 2.828-2.368 3.382-.146.054-.288.12-.502.21.862.994 1.688 1.952 2.52 2.906a923.835 923.835 0 003.46 3.958c.377.43.627.882.368 1.464-.265.596-.763.747-1.368.74-1.372-.016-2.744.023-4.115-.02a2.885 2.885 0 01-1.288-.345c-3.204-1.808-6.385-3.657-9.588-5.467-.273-.154-.69-.224-.985-.141-2.771.781-5.532 1.605-8.294 2.419-.126.037-.245.1-.49.339.182.115.388.204.545.348 2.75 2.538 5.495 5.083 8.241 7.626.146.136.296.268.426.418.314.358.414.769.234 1.221-.187.468-.541.762-1.042.766-2.426.014-4.85.02-7.276-.01-.29-.003-.604-.189-.86-.36-4.438-2.955-8.865-5.926-13.306-8.875a1.929 1.929 0 00-.983-.306c-2.266-.026-4.532-.014-6.798-.014h-.665c0 .423.013.797-.002 1.168-.03.728-.485 1.214-1.204 1.217-2.464.015-4.931.048-7.395-.018-1.303-.034-2.287-.756-2.9-1.911-.187-.355-.393-.461-.78-.466-1.707-.02-3.428.042-5.119-.152-2.776-.317-5.178-1.556-7.09-3.602C-.05 39.685-.506 37.338.579 34.847c1.091-2.51 3.118-3.778 5.844-3.782 14.094-.015 28.19-.012 42.284.003.76 0 1.414-.147 2.078-.542 2.135-1.273 4.31-2.478 6.458-3.728a3.09 3.09 0 00.809-.685 765.882 765.882 0 005.268-6.343c.383-.465.813-.706 1.431-.693 1.391.029 2.783.007 4.174.01 1.268.005 1.772.744 1.302 1.923-1.297 3.257-2.598 6.512-3.897 9.77-.08.2-.15.404-.249.674l.004.004zm-35.65 11.555l.051-.12c-1.136-.761-2.273-1.52-3.407-2.281-.664-.446-.908-.924-.754-1.476.166-.598.638-.893 1.442-.893 4.174 0 8.35.006 12.524-.007.533-.002.954.157 1.34.52 1.203 1.134 2.433 2.238 3.628 3.378.315.3.598.37 1.01.243 1.48-.457 2.97-.878 4.456-1.318 1.077-.32 2.153-.646 3.23-.97l.076-.167c-.076-.026-.158-.042-.227-.08-.933-.533-1.862-1.069-2.794-1.604-.701-.403-.983-.904-.831-1.482.156-.6.63-.905 1.431-.905 4.194-.001 8.389.004 12.583-.006.512-.001.911.153 1.279.517.149.149.44.212.665.209.271-.004.54-.115.81-.188.745-.203 1.093-.575 1.084-1.15-.01-.573-.35-.986-1.125-1.107-1.666-.26-3.342-.63-5.014-.635-16.459-.05-32.919-.033-49.377-.033-.17 0-.341.025-.546.041v.762c-.007 3.848-2.52 6.373-6.346 6.377H4.353c1.362 1.263 2.925 2.05 4.693 2.233 1.615.166 3.252.102 4.879.168.43.018.663-.103.876-.504.65-1.228 1.713-1.873 3.095-1.888 2.345-.028 4.692-.014 7.037-.006.891.002 1.335.468 1.348 1.38.005.329 0 .657 0 .994h4.15l.003-.002zm1.26-2.375l-.05.114c.153.113.302.233.461.34 2.74 1.835 5.52 3.611 8.204 5.525 1.26.9 2.52 1.365 4.066 1.221 1.094-.102 2.204-.019 3.405-.019-.106-.15-.14-.219-.19-.267-2.418-2.245-4.835-4.492-7.262-6.728a.776.776 0 00-.479-.179c-2.718-.01-5.437-.007-8.155-.007zm33.86-14.364c-1.494 0-2.863-.015-4.229.015-.194.004-.45.174-.565.343-.93 1.376-2.212 2.305-3.67 3.037-.639.32-1.246.7-1.864 1.06-.117.068-.217.168-.324.253l.045.152c2.796 0 5.593.002 8.39-.01.125 0 .318-.114.363-.224.617-1.503 1.214-3.015 1.854-4.626zM9.517 33.47c-1.224 0-2.419-.066-3.604.015-2.1.143-3.708 2.146-3.459 4.237.021.184.223.493.345.496 1.27.02 2.56.124 3.807-.057 2.137-.308 3.274-2.222 2.911-4.69zm46.61 4.774l-.04.144c1.27.727 2.539 1.46 3.818 2.175.143.08.344.072.52.073 1.666.005 3.332.005 4.998 0 .143 0 .286-.034.52-.063-.39-.45-.764-.792-1.028-1.205-.598-.936-1.396-1.203-2.496-1.153-2.093.096-4.194.028-6.292.028v.001zm-3.154 14.358c-2.043-2.325-2.168-2.383-5.03-2.386H45.97c1.052.854 2.121 1.57 3.194 2.281.08.053.181.1.272.102 1.141.007 2.284.005 3.537.005v-.002zM63.036 23.88c1.176 0 2.18.01 3.184-.013a.534.534 0 00.39-.265c.291-.668.546-1.353.845-2.112-.804 0-1.53-.006-2.256.007a.46.46 0 00-.302.15c-.59.694-1.168 1.397-1.86 2.232zm1.441 19.157l-.032.142c1.046.601 2.126 1.15 3.128 1.819.785.523 1.59.438 2.576.397-.713-.816-1.342-1.543-1.981-2.26-.056-.062-.177-.095-.266-.095-1.142-.006-2.282-.003-3.424-.003zm-42.942 2.346h2.33V43.08h-2.33v2.303zm-2.457.038v-2.385c-.793.053-1.673-.273-2.13.59-.17.323-.17.894.005 1.214.463.852 1.336.543 2.125.581zm41.834-31.119c-1.606.017-2.964-.426-4.138-1.367-.302-.242-.537-.29-.906-.172-1.8.573-3.577.46-5.272-.375-1.658-.818-2.795-2.082-2.821-4.027-.025-1.952 1.08-3.267 2.75-4.055.802-.38 1.343-.856 1.834-1.607C53.773.546 55.865-.344 58.382.12c2.47.452 4.04 2.021 4.698 4.455.108.4.285.591.643.75 1.66.737 2.855 1.896 3.09 3.787.223 1.771-.89 3.537-2.726 4.445a7.01 7.01 0 01-3.177.747h.002zm-.053-2.39c1.083-.016 2.168-.273 3.02-1.138.784-.796.82-1.806-.033-2.516-.544-.453-1.25-.742-1.922-1.002-.672-.26-1.002-.575-1.045-1.277-.117-1.924-1.32-3.299-3.096-3.542-1.782-.244-3.324.758-3.92 2.58-.19.573-.548.88-1.123 1.026-.458.114-.922.264-1.334.488-.687.373-1.243.906-1.251 1.76-.01.883.55 1.436 1.256 1.823 1.463.8 2.96.797 4.461.08.835-.399 1.228-.322 1.84.36.82.913 1.84 1.358 3.145 1.36l.002-.001zm-48.126 11.97c-1.19.007-2.539-.478-3.756-1.4-.19-.143-.55-.197-.782-.128-1.77.524-3.507.46-5.175-.32-1.754-.819-2.974-2.121-2.96-4.177.014-2.03 1.239-3.313 2.98-4.095.669-.3 1.105-.67 1.479-1.31C5.776 10.304 8.13 9.22 10.63 9.686c2.472.46 4.051 2.002 4.726 4.43.115.411.284.63.672.795 1.372.588 2.423 1.525 2.907 2.982.57 1.712-.143 3.592-1.769 4.754-1.224.873-2.607 1.232-4.433 1.237h-.001zm.604-2.395a4.254 4.254 0 002.414-.771c1.316-.927 1.325-2.337-.007-3.23-.451-.304-.995-.487-1.519-.657-.72-.234-1.023-.566-1.064-1.319-.1-1.86-1.325-3.25-3.08-3.495-1.764-.247-3.354.75-3.913 2.508-.207.652-.598.981-1.247 1.117a4.468 4.468 0 00-1.167.43c-.711.378-1.297.905-1.315 1.783-.018.907.565 1.466 1.295 1.859 1.45.776 2.928.767 4.41.066.843-.4 1.244-.33 1.843.342.833.933 1.873 1.38 3.35 1.367z"/><path d="M15.586 35.877h2.309v2.317h-2.309v-2.317zm5.896.006v2.325h-2.31v-2.325h2.31zm1.261-.007h2.31v2.318h-2.31v-2.318zm22.58 2.348h-2.291v-2.34h2.291v2.34zm1.276-2.344h2.316v2.317H46.6V35.88z"/></g><defs><clipPath id="ama"><path d="M0 0h74v55H0z"/></clipPath></defs></symbol><symbol viewBox="0 0 57 56" id="sServicesSlider-icon-3" xmlns="http://www.w3.org/2000/svg"><path d="M55.964 54.044v1.742H.457v-1.742h.504c1.971 0 3.942.01 5.913-.01a1.3 1.3 0 00.72-.253c.853-.645 1.682-1.324 2.578-2.038L0 42.473c.453-.43.877-.822 1.287-1.229 3.475-3.448 6.952-6.896 10.42-10.351 2.4-2.392 5.29-3.557 8.691-3.562 2.005-.003 3.923.3 5.724 1.2.212.105.344.072.497-.104.879-1.01 1.766-2.012 2.657-3.01.147-.167.176-.292.06-.505-.393-.73-.32-1.402.238-2.012 3.328-3.649 6.664-7.29 10-10.933.477-.522 1.07-.724 1.779-.615.123.019.306-.021.384-.106.495-.533.968-1.087 1.486-1.676-.176-.144-.329-.276-.488-.398-1.267-.966-2.537-1.929-3.803-2.897-1.035-.791-1.163-1.788-.361-2.82.501-.645 1.011-1.285 1.52-1.925.842-1.06 1.881-1.195 2.965-.372 2.62 1.991 5.237 3.987 7.855 5.98 1.682 1.281 3.366 2.562 5.047 3.845 1.09.83 1.224 1.81.392 2.879-.52.67-1.043 1.335-1.575 1.995-.743.926-1.813 1.077-2.768.37-1.088-.806-2.16-1.637-3.237-2.46-.369-.28-.702-.254-1 .082-.394.443-.787.887-1.17 1.32.638 1.228.583 1.684-.345 2.698-3.201 3.503-6.408 7-9.61 10.504-.557.61-1.204.895-2.04.676-.115-.03-.31.022-.387.108a183.184 183.184 0 00-3.1 3.512c-.088.102-.053.391.028.536.777 1.391 1.278 2.866 1.454 4.452.323 2.913-.394 5.56-2.075 7.95-.229.325-.191.506-.004.84.43.766 1.049 1.27 1.785 1.728.536.333 1.027.539 1.671.558 1.273.037 2.353.585 3.276 1.458.168.158.418.285.647.317 2.192.31 3.883 1.375 5.02 3.267.158.263.35.27.594.27 3.957-.002 7.914-.001 11.871 0h.58v.002zM2.534 42.438c.198.15.324.23.432.328 2.764 2.514 5.536 5.019 8.279 7.555.408.378.76.55 1.286.323.172-.073.389-.038.57-.097.187-.061.403-.136.526-.274 1.147-1.28 2.54-2.188 4.15-2.786.19-.07.385-.231.492-.403 1.715-2.726 4.138-4.006 7.396-3.633.15.017.394-.078.469-.199 1.481-2.37 1.611-4.797.208-7.24-2.405-4.186-8.593-4.268-11.462-1.312-2.05 2.114-4.182 4.152-6.254 6.245-.331.334-.525.335-.802-.016a5.19 5.19 0 00-.63-.63c-.192-.172-.18-.306 0-.476.366-.348.722-.709 1.08-1.066 1.637-1.625 3.309-3.216 4.901-4.884 2.006-2.102 4.42-3.036 7.33-2.986 5.84.1 9.942 5.645 8.17 11.165-.224.697-.568 1.358-.864 2.054.242.14.517.265.75.443.28.215.431.168.632-.122 2.766-3.985 2.088-9.532-1.578-12.783-2.104-1.867-4.588-2.593-7.38-2.534-2.796.059-5.187.993-7.166 2.956-3.116 3.091-6.228 6.188-9.346 9.277-.357.355-.74.685-1.189 1.095zm7.68 11.577h30.652c-.105-.137-.164-.236-.244-.314-.874-.856-1.923-1.369-3.15-1.408-.527-.017-.893-.178-1.227-.562-.561-.648-1.259-1.103-2.129-1.208-.457-.055-.927 0-1.384-.05-.242-.027-.523-.12-.697-.278-.837-.766-1.79-1.286-2.925-1.423-.585-.072-1.18-.07-1.803-.104v-1.747h1.222c-1.939-2.382-5.977-2.297-7.832.018h1.202v1.776c-2.374-.138-4.462.49-6.285 2.098.399.195.738.342 1.055.527.095.055.21.245.18.314-.21.467-.455.92-.705 1.406-1-.546-1.978-.932-3.114-.728-1.14.205-1.916.946-2.816 1.684zm44.864-41.423L41.703 2.375l-1.842 2.334 13.375 10.22 1.842-2.337zm-25.2 18.752l3.041-3.435-2.048-1.603-2.897 3.286 1.904 1.753v-.001zM43.94 17.752l1.295-1.412-4.254-3.267-1.28 1.4 4.239 3.279zm-1.212 1.32L38.49 15.8l-1.148 1.254 4.243 3.273 1.143-1.256h.001zm-6.598 7.215c-1.396-1.077-2.733-2.112-4.08-3.135-.06-.047-.241-.031-.298.025-.29.285-.56.594-.866.926l4.253 3.266.99-1.082zm-2.119-5.593l-.908.996c1.378 1.064 2.704 2.091 4.038 3.108.072.055.254.079.302.032.273-.261.52-.548.807-.861l-4.238-3.275zm1.208-1.325l4.239 3.274.914-.993-4.243-3.274-.91.992zm11.561-7.107l-2.115-1.614-1.585 1.792 2.095 1.638 1.605-1.816z"/><path d="M24.534 48.702c1.707.028 3.011.687 4.096 1.83.165.173.141.293-.02.443-.25.233-.506.465-.726.725-.237.284-.41.242-.64-.01-.682-.747-1.527-1.18-2.555-1.2-1.065-.02-1.95.393-2.658 1.166-.257.28-.454.348-.703.013-.087-.119-.21-.21-.313-.317-.684-.71-.774-.48.046-1.245 1-.933 2.21-1.378 3.473-1.406z"/></symbol><symbol viewBox="0 0 56 53" id="sServicesSlider-icon-4" xmlns="http://www.w3.org/2000/svg"><path d="M27.736 52.229H1.263C.258 52.229 0 51.97 0 50.959V1.794C0 .89.292.604 1.211.604H54.34c.94 0 1.218.28 1.218 1.225v49.123c0 1.028-.253 1.277-1.3 1.277H27.735zm.973-49.831V50.42h25.019V2.4H28.709v-.001zm-26.88 0v48.02h25.016V2.399H1.829z"/><path d="M41.226 10.396h9.49c.148 0 .298-.009.446.008a.893.893 0 01.805.866.894.894 0 01-.819.898c-.133.014-.268.007-.402.007H31.72c-.823 0-1.243-.294-1.253-.875-.01-.594.427-.906 1.267-.906h9.49v.002zm-.006 4.45h9.49c.148 0 .299-.008.447.008.458.05.799.418.81.86a.895.895 0 01-.814.904c-.148.016-.298.007-.447.007h-18.98c-.828 0-1.244-.29-1.258-.87-.013-.594.426-.911 1.262-.911h9.49v.002zm-.002 4.45h9.49c.164 0 .33-.009.492.014.433.06.757.428.768.853a.892.892 0 01-.767.9c-.162.022-.328.013-.492.013h-18.98c-.837 0-1.275-.318-1.26-.912.015-.581.432-.869 1.26-.869h9.49v.001zm-.002 4.45h9.489c.164 0 .33-.01.492.014.45.062.78.453.77.896a.893.893 0 01-.765.857c-.161.023-.328.013-.492.013l-18.98.001c-.837 0-1.275-.316-1.262-.91.014-.58.432-.87 1.257-.87h9.49zm3.587 13.352c2.029 0 4.057-.012 6.085.013.285.004.653.115.827.312.171.193.264.604.172.835-.1.253-.439.422-.692.602-.071.051-.204.017-.308.017h-12.17c-.06 0-.12.002-.18-.002-.532-.032-.911-.416-.899-.911.012-.476.384-.852.9-.862.806-.015 1.612-.005 2.416-.005h3.849zm-.015 6.23c-2.043 0-4.087-.002-6.13.003-.39.001-.755-.105-.887-.468a1.317 1.317 0 01.015-.874c.154-.381.546-.444.946-.444 2.625.008 5.25.004 7.876.004 1.431 0 2.863-.002 4.295 0 .653.003 1.06.345 1.065.882.004.538-.406.896-1.05.897-2.042.003-4.086 0-6.13 0zM41.22 5.945c1.745 0 3.49-.017 5.234.017.29.005.665.162.835.377.155.196.197.625.083.847-.125.241-.469.472-.747.513-.54.08-1.1.026-1.651.026H36.34c-.164 0-.329.006-.492-.003-.515-.03-.888-.392-.899-.867-.01-.493.37-.898.904-.905 1.103-.015 2.207-.006 3.31-.006h2.058v.001zm-5.827 22.252c1.282 0 2.564-.002 3.846 0 .677.003 1.093.358 1.08.912-.013.534-.42.867-1.078.867-2.564.003-5.129.003-7.692 0-.674 0-1.094-.36-1.08-.91.014-.534.422-.867 1.078-.869 1.282-.003 2.564 0 3.846 0zM4.48 32.647c0-1.72-.004-3.44 0-5.16.006-2.71 1.927-4.625 4.648-4.63 3.479-.004 6.957-.005 10.435 0 2.694.005 4.623 1.925 4.628 4.606.006 3.44.006 6.88 0 10.32-.006 2.764-1.924 4.652-4.716 4.655-3.48.003-6.957.003-10.435 0-2.574-.003-4.542-1.939-4.56-4.496-.012-1.764-.002-3.529-.002-5.293l.002-.002zm7.18 1.46c-.902-.967-.958-2.13-.91-3.321.011-.296-.002-.593.005-.89a3.58 3.58 0 013.226-3.467c1.825-.172 3.552 1.024 3.826 2.818.16 1.04.096 2.127.014 3.184-.037.473-.363.924-.565 1.381-.046.104-.124.195-.202.314 2.515 1.37 3.668 3.49 3.557 6.373.249-.124.443-.193.605-.308.785-.552 1.184-1.313 1.184-2.272 0-3.515.006-7.029-.003-10.544-.003-1.597-1.165-2.736-2.782-2.738a3356.84 3356.84 0 00-10.525 0c-1.669.001-2.815 1.139-2.817 2.795-.005 3.485-.005 6.97.003 10.455 0 .293.032.598.119.876.258.817.789 1.39 1.665 1.73-.112-2.89 1.05-5.004 3.599-6.386zM9.878 40.62h8.918c.163-1.978-.416-3.6-2.146-4.647-1.519-.917-3.107-.915-4.626.002-1.732 1.045-2.312 2.666-2.146 4.645zm6.248-9.71c0-.326.009-.652-.002-.977a1.783 1.783 0 00-1.788-1.735 1.78 1.78 0 00-1.787 1.735 37 37 0 000 1.864 1.78 1.78 0 001.787 1.737 1.79 1.79 0 001.789-1.737c.01-.295.002-.592 0-.887zM11.648 7.726c0-.856-.003-1.653 0-2.45.003-.795.315-1.108 1.11-1.11 1.075-.004 2.15-.005 3.224 0 .705.004 1.036.338 1.04 1.044.005.814.002 1.628.002 2.515h1.929c1.54 0 1.654.115 1.655 1.636 0 .89.004 1.78 0 2.67-.005.696-.344 1.03-1.051 1.034-.82.004-1.64 0-2.532 0v6.856c0 .85-.304 1.154-1.155 1.155-1.06.001-2.12.004-3.18-.002-.704-.003-1.04-.337-1.04-1.042-.004-2.135-.002-4.271-.002-6.407v-.56H9.99c-.343 0-.687.011-1.03-.004-.518-.023-.88-.362-.888-.874a138.606 138.606 0 01-.002-3.56c.006-.552.378-.892.954-.899.85-.01 1.7-.002 2.624-.002h.001zM9.89 9.506v1.78h2.398c.85 0 1.153.302 1.153 1.154v6.827h1.792v-6.819c0-.873.297-1.162 1.19-1.164h2.354V9.505c-.83 0-1.619.002-2.41 0-.822-.003-1.133-.312-1.134-1.128-.002-.795 0-1.591 0-2.396H13.44c0 .82.002 1.604 0 2.387-.002.827-.306 1.134-1.126 1.137-.802.003-1.603 0-2.425 0zM5.374 5.943V8.58c0 .375-.154.71-.51.81-.27.075-.645.069-.87-.07-.208-.129-.383-.476-.392-.733-.041-1.17-.027-2.342-.014-3.513.006-.542.36-.897.903-.903a167.41 167.41 0 013.538 0c.542.004.924.387.926.881.002.494-.382.88-.921.889-.864.013-1.728.003-2.66.003zm17.923.002c-.89 0-1.71.004-2.53 0-.645-.004-1.055-.359-1.05-.897.004-.537.412-.88 1.065-.882 1.09-.004 2.179-.005 3.269 0 .699.003 1.034.34 1.036 1.046.005 1.083.004 2.165 0 3.248-.002.64-.362 1.047-.904 1.042-.542-.005-.882-.408-.885-1.06-.004-.813 0-1.625 0-2.497h-.001zM5.374 46.889c.9 0 1.746-.006 2.593.002.548.004.925.311.984.78.062.489-.298.974-.809.984-1.238.026-2.478.022-3.716.003-.485-.008-.83-.38-.835-.875a147.213 147.213 0 010-3.56.88.88 0 01.872-.891c.499-.01.9.367.908.9.016.859.005 1.719.005 2.657h-.002zm17.923 0c0-.873-.002-1.672 0-2.471.003-.679.35-1.093.906-1.086.556.006.884.413.885 1.105.002 1.053.004 2.105 0 3.159-.002.734-.331 1.07-1.056 1.072-1.09.005-2.18.004-3.269 0-.645-.002-1.054-.36-1.047-.9.008-.537.415-.875 1.07-.877.817-.004 1.636 0 2.511 0v-.002z"/></symbol><symbol viewBox="0 0 34 57" id="sServicesSlider-icon-5" xmlns="http://www.w3.org/2000/svg"><g clip-path="url(#apa)"><path d="M28.732 51.27c.066.043.1.08.142.092 1.645.538 2.29 1.422 2.292 3.144 0 .427.002.855 0 1.282-.005.879-.328 1.21-1.194 1.211-4.012.002-8.025.001-12.037.001H4.103c-.963 0-1.266-.306-1.267-1.278 0-.507-.004-1.014.002-1.52.015-1.386.834-2.44 2.172-2.805.074-.02.146-.052.277-.1l-.6-1.935C3.103 44.27 1.739 39.123.877 33.855c-.526-3.205-.88-6.428-.522-9.685.128-1.169.364-2.312.868-3.383.113-.24.054-.358-.136-.51C.325 19.66-.02 18.845 0 17.863c.013-.601-.009-1.203.007-1.803.04-1.48 1.255-2.704 2.728-2.744.64-.017 1.284-.003 1.99-.003 0-.64-.004-1.235 0-1.83.02-2.714 1.701-4.937 4.315-5.58.736-.181 1.526-.155 2.293-.184.768-.028 1.54-.006 2.36-.006-.885-2.09-.55-3.854 1.35-5.129 1.291-.865 2.979-.745 4.21.184C20.702 1.864 21 3.2 20.33 5.714c1.077 0 2.14.003 3.205 0 1.08-.003 2.091.255 3.005.834 1.722 1.092 2.633 2.674 2.727 4.717.03.66.005 1.323.005 2.047.605 0 1.166-.002 1.727 0 1.799.009 2.989 1.2 2.998 3.002.003.554 0 1.108 0 1.662 0 .926-.358 1.682-1.05 2.295-.11.098-.228.337-.182.438.824 1.868 1.002 3.845 1.014 5.849.019 3.146-.426 6.245-1.016 9.325-.971 5.069-2.332 10.035-3.915 14.942-.047.146-.079.298-.118.444h.001zm3.066-26.56h-.46c-9.551 0-19.102.003-28.654-.01-.447 0-.547.145-.567.556-.15 3.104.245 6.16.782 9.202.981 5.553 2.466 10.975 4.202 16.334.129.397.31.522.73.521 6.121-.016 12.243-.015 18.364-.003.395 0 .582-.103.693-.5.96-3.406 1.998-6.79 2.895-10.213.979-3.734 1.72-7.525 1.997-11.385.105-1.474.017-2.962.017-4.502zm-14.82-5.7h13.975c.809 0 1.152-.345 1.157-1.15.004-.46 0-.919 0-1.378 0-.964-.304-1.268-1.276-1.268h-18.27c-3.18 0-6.359-.002-9.538.001-.781 0-1.124.348-1.132 1.127-.005.459-.002.918 0 1.377 0 .997.298 1.293 1.299 1.293h13.786v-.002zm10.41-5.71c0-.643.005-1.24 0-1.837-.021-2.19-1.652-3.84-3.832-3.845-4.371-.01-8.743-.009-13.115.007a4.04 4.04 0 00-1.291.217c-2.053.716-3.157 3.201-2.448 5.459h20.687V13.3zM2.42 22.773h29.14c-.21-.51-.397-.958-.58-1.408-.14-.348-.371-.467-.761-.465-4.107.016-8.214.009-12.321.009-4.705 0-9.41-.003-14.115.01-.206 0-.515.072-.597.214-.287.499-.495 1.042-.765 1.64zm2.335 32.29h24.483c.149-1.304.004-1.888-1.569-1.88-7.109.037-14.218.032-21.327.003-1.505-.007-1.686.445-1.614 1.698.003.047.013.092.027.18zm14.132-51.24a1.905 1.905 0 00-1.89-1.905 1.898 1.898 0 00-1.882 1.862c-.015 1.046.83 1.921 1.865 1.93a1.899 1.899 0 001.907-1.886z"/><path d="M19.852 40.839H14.18v-5.674h-2.81v-5.687h2.782v-2.83h5.671v2.802h2.82v5.687h-2.791v5.703-.001zm-3.82-12.306v2.834h-2.769v1.905h2.814v5.647h1.877v-5.674h2.796V31.34h-2.823v-2.81h-1.894v.002z"/></g><defs><clipPath id="apa"><path d="M0 0h34v57H0z"/></clipPath></defs></symbol><symbol viewBox="0 0 39 48" id="service-icon-1" xmlns="http://www.w3.org/2000/svg"><g clip-path="url(#aqa)"><path d="M31.828 36.696c.196-1.166.395-2.333.589-3.5.482-2.906.96-5.81 1.442-8.716.377-2.273.757-4.547 1.127-6.822.03-.19.028-.405-.025-.59-.919-3.198-1.852-6.392-2.767-9.591-.094-.33-.235-.436-.571-.433-2.07.015-4.142.008-6.212.008-.723 0-1.097-.273-1.1-.797-.003-.527.373-.804 1.093-.804l6.964.001c.736 0 .927.146 1.132.85 1.018 3.517 2.04 7.032 3.047 10.55.07.247.087.532.046.785-.58 3.55-1.177 7.098-1.764 10.647-.676 4.088-1.348 8.176-2.024 12.264-.22 1.328-.447 2.654-.672 3.98-.102.594-.349.8-.98.8-2.203.002-4.406.011-6.609-.005-.84-.006-1.515.462-2.265.752.123.007.247.019.37.019 3.166 0 6.331-.005 9.497.01.353.001.467-.11.523-.454.572-3.485 1.16-6.966 1.745-10.447.505-3.009 1.013-6.017 1.518-9.026.482-2.864.966-5.729 1.438-8.594a1.51 1.51 0 00-.048-.626c-1.094-3.965-2.202-7.927-3.29-11.894-.081-.295-.206-.369-.488-.368-3.218.009-6.437.006-9.655.006-.723 0-1.097-.268-1.105-.792-.008-.532.363-.809 1.082-.809h10.407c.69 0 .89.143 1.075.806a5296.08 5296.08 0 013.596 12.97c.058.21.073.451.037.666-.72 4.324-1.45 8.646-2.175 12.969-.776 4.625-1.549 9.251-2.323 13.877-.133.802-.266 1.603-.404 2.404-.121.7-.36.903-1.067.904-4.933 0-9.866-.003-14.799.008-.32 0-.652.074-.957.177-.7.235-.968.154-1.337-.494-1.881-3.303-3.761-6.609-5.64-9.913-2.985-5.246-5.972-10.49-8.945-15.741a2.257 2.257 0 01-.27-.898C.702 16.407.357 11.981.007 7.555c-.045-.563.13-.836.7-1.049L11.94 2.308A4022.19 4022.19 0 0017.722.14c.68-.255.907-.186 1.34.418 2.558 3.56 5.106 7.126 7.68 10.673.463.637.482 1.37.617 2.08.73 3.833 1.44 7.671 2.153 11.509.712 3.823 1.42 7.648 2.132 11.472.026.141.065.279.098.419l.084-.014h.002zM1.65 8.24l.106 1.293c.28 3.575.552 7.152.845 10.727.027.332.115.69.278.977 4.658 8.209 9.331 16.408 13.991 24.617.166.291.298.354.612.235a3541.44 3541.44 0 0113.087-4.894c.278-.104.346-.228.29-.527-.479-2.5-.938-5.002-1.403-7.503-1.228-6.6-2.462-13.2-3.678-19.804-.123-.669-.35-1.248-.755-1.804a1094.246 1094.246 0 01-6.765-9.417c-.223-.312-.402-.349-.743-.22A4952.7 4952.7 0 012.018 7.718c-.294.11-.455.248-.37.522h.002zm26.977 35.38l.012.108h1.332c.497 0 .767-.247.81-.743.004-.037-.01-.075-.025-.16l-2.13.794z"/><path d="M4.234 10.227c.205 3.126.405 6.254.622 9.38.018.267.109.55.24.785 4.257 7.535 8.525 15.065 12.782 22.6.156.276.292.33.587.218 3.172-1.2 6.347-2.39 9.526-3.571.258-.096.31-.22.26-.473-.414-2.158-.82-4.32-1.228-6.48-.032-.17-.067-.34-.081-.512-.037-.443.234-.808.639-.872.418-.068.801.164.892.599.241 1.16.458 2.326.68 3.492.258 1.36.508 2.724.769 4.084.171.893.044 1.126-.8 1.441-3.584 1.34-7.168 2.681-10.75 4.023-.843.316-1.066.24-1.508-.538C12.453 36.619 8.04 28.836 3.64 21.045a2.679 2.679 0 01-.338-1.082c-.26-3.618-.495-7.237-.733-10.856-.039-.583.123-.824.666-1.028L16.84 2.985c.587-.22.851-.146 1.229.366 2.174 2.951 4.349 5.902 6.511 8.863.165.225.281.515.334.791 1.018 5.326 2.022 10.654 3.03 15.981.07.367.093.722-.22.998-.492.434-1.18.132-1.319-.583-.167-.863-.327-1.728-.49-2.592-.835-4.438-1.669-8.877-2.51-13.314a1.377 1.377 0 00-.244-.534c-1.962-2.678-3.933-5.35-5.895-8.03-.166-.227-.306-.289-.584-.183A2001.378 2001.378 0 014.668 9.235c-.38.14-.546.312-.45.713.02.089.01.186.015.28l.001-.001z"/><path d="M12.995 20.135l-2.207.817c-.704.26-1.055.096-1.315-.616-.287-.788-.581-1.572-.863-2.362-.228-.64-.052-1.01.582-1.25.738-.28 1.479-.556 2.26-.848-.193-.534-.378-1.041-.56-1.55-.117-.326-.248-.648-.339-.98-.115-.422.054-.788.454-.945.908-.357 1.822-.7 2.742-1.027.459-.163.836.043 1.03.544.249.645.477 1.298.717 1.947.049.133.108.264.177.43.757-.28 1.483-.55 2.21-.818.695-.257 1.039-.105 1.297.582.294.784.583 1.572.869 2.36.243.668.077 1.032-.579 1.281-.736.28-1.473.557-2.249.851.114.323.212.61.316.894.584 1.6 1.171 3.198 1.754 4.797.28.768.128 1.09-.637 1.378-.74.278-1.481.557-2.224.83-.73.27-1.059.11-1.334-.639-.647-1.76-1.292-3.522-1.938-5.283-.045-.122-.1-.241-.162-.393zm4.908-4.956c-.787.29-1.513.564-2.242.829-.69.25-1.032.09-1.29-.602-.243-.648-.468-1.301-.724-1.943-.042-.106-.229-.248-.31-.226-.338.093-.661.242-1.016.38.272.746.534 1.454.79 2.165.294.813.138 1.138-.662 1.43-.702.259-1.399.53-2.128.807.12.329.24.609.32.9.077.272.195.327.458.22.622-.255 1.255-.485 1.886-.717.709-.26 1.058-.095 1.319.613l1.784 4.868c.313.852.308.839 1.166.541.295-.102.357-.206.242-.511-.653-1.742-1.282-3.494-1.923-5.242-.324-.883-.185-1.172.705-1.498.678-.248 1.35-.51 2.067-.781l-.442-1.233z"/></g><defs><clipPath id="aqa"><path d="M0 0h39v48H0z"/></clipPath></defs></symbol><symbol viewBox="0 0 49 48" id="service-icon-2" xmlns="http://www.w3.org/2000/svg"><path d="M40.024 37.54c2.264.68 3.173 2.247 3.016 4.499 2.21.668 3.151 2.175 3.022 4.46.502 0 .987-.008 1.471.002.43.007.748.28.792.656a.757.757 0 01-.644.832c-.136.018-.276.009-.415.009H.864C.345 47.99.006 47.7 0 47.258c-.007-.457.335-.754.88-.76.416-.003.831-.003 1.247-.005.024 0 .048-.01.131-.029-.131-2.199.78-3.741 2.995-4.41.03-.478.016-.969.102-1.441.271-1.484 1.156-2.47 2.594-2.934.311-.1.362-.242.362-.525-.007-8.589-.007-17.177-.004-25.766 0-1.628.717-2.845 2.21-3.536.464-.214 1.01-.294 1.527-.348.56-.058 1.131-.014 1.698-.014 1.11 0 1.632-.359 1.987-1.414a9.075 9.075 0 011.935-3.27c3.405-3.721 9.522-3.745 12.958-.048a8.902 8.902 0 011.956 3.257c.382 1.137.873 1.468 2.095 1.477.73.005 1.47-.045 2.184.068 1.893.3 3.16 1.817 3.164 3.724.01 4.288.003 8.576.003 12.864V37.54zm-26.125-.063c-.184-.775-.088-1.459.309-2.101.046-.076.01-.24-.04-.333-.984-1.807.163-3.743 2.237-3.768.337-.004.688-.432.567-.741-.444-1.143-.361-2.335-.355-3.52.003-.47.312-.758.795-.767.529-.009 1.057-.018 1.585.003 2.12.087 3.778 1.006 4.964 2.759.06.087.127.17.207.277.063-.08.104-.124.136-.175.605-.97 1.426-1.697 2.442-2.228 1.369-.716 2.841-.673 4.314-.621.36.012.629.273.639.633.031 1.172.107 2.351-.29 3.492-.172.495.106.883.622.888 1.655.016 2.883 1.538 2.379 3.1-.207.642-.25 1.144.01 1.763.162.385.074.873.098 1.33h.953v-25.48c-.471 0-.921.009-1.37-.002a5.93 5.93 0 01-2.37-.557c-1.743-.81-2.831-2.165-3.425-3.973-.83-2.522-3.699-3.682-6.081-2.49-1.194.598-1.893 1.592-2.292 2.841-.418 1.306-1.235 2.334-2.372 3.109-1.046.713-2.21 1.061-3.476 1.075-.41.004-.82 0-1.225 0v25.487h1.04v-.001zm24.595.006c.008-.118.018-.202.018-.288 0-8.639.003-17.277-.002-25.917 0-1.306-.981-2.272-2.292-2.286-.655-.007-1.31.007-1.964-.005-.87-.017-1.609-.346-2.234-.947-.52-.499-.734-1.15-.966-1.8-1.48-4.125-6.579-6.008-10.415-3.857-1.774.994-2.932 2.464-3.56 4.38-.456 1.389-1.642 2.214-3.115 2.226-.566.004-1.132 0-1.699.001-1.509.003-2.449.935-2.45 2.435V37.47h1.51V11.462c0-.716.256-.97.976-.971.617-.002 1.233.006 1.85-.005a4.649 4.649 0 002.914-1.074c.832-.674 1.27-1.578 1.622-2.564a5.797 5.797 0 016.838-3.686c2.2.532 3.597 1.94 4.305 4.062.534 1.6 1.618 2.702 3.271 3.076.916.208 1.896.155 2.848.185.827.027 1.053.228 1.053 1.05v25.948h1.492zm6.027 8.997c.292-2.028-1.062-3.017-2.614-3.004-6.238.05-12.477.02-18.716.02H6.24c-1.705 0-2.76 1.295-2.416 2.983H44.52zM21.664 35.775c-.515.004-.869.26-1.006.658-.142.412-.015.81.349 1.098.626.494.63.932.015 1.416-.215.17-.438.948-.339 1.188.194.47.752.697 1.265.513.786-.283 1.049-.146 1.274.666.127.458.436.681.942.682.511 0 .812-.217.942-.681.228-.814.49-.95 1.274-.667.474.172.97.001 1.21-.415.165-.286.013-1.04-.255-1.263-.655-.547-.65-.913.017-1.462.389-.32.485-.817.24-1.247-.236-.418-.734-.591-1.207-.42-.788.283-1.053.147-1.278-.66a.91.91 0 00-.906-.687c-.567-.001-.863.235-1.002.8-.155.629-.557.833-1.155.595-.15-.06-.309-.095-.379-.115zm19.869 6.203v-.531c-.005-1.529-.931-2.45-2.47-2.451-1.447-.002-2.895-.008-4.342.003-.762.005-1.533-.09-2.278.18a1.063 1.063 0 01-.486.032c-.235-.032-.364.063-.492.246-.352.502-.83.895-1.438.943-.644.051-1.095.26-1.325.871a.407.407 0 01-.12.143c-.206.183-.415.363-.646.563h13.596zm-34.716-.006h13.445c-.303-.385-.65-.785-.945-1.22-.114-.168-.198-.244-.403-.24-.902.018-1.596-.373-2.112-1.097-.055-.077-.13-.182-.209-.195-.516-.086-1.035-.207-1.555-.213-2-.024-4.002-.012-6.003-.008-.621.002-1.148.24-1.588.674-.643.635-.714 1.427-.632 2.3l.002-.001zm12.148-2.953c.046-.029.242-.083.283-.193.096-.264.42-.447.195-.836a2.443 2.443 0 012.149-3.703c.339.003.51-.15.589-.392.054-.17.01-.413-.08-.577-.21-.386-.649-.525-1.113-.41-.713.177-.971.02-1.161-.702-.122-.463-.502-.77-.949-.767-.394.003-.847.374-.95.779-.188.743-.52.914-1.233.64-.619-.238-1.246.087-1.36.718-.072.406.083.729.414.978.597.451.591.93-.01 1.392l-.03.023c-.313.247-.446.57-.37.96.07.367.257.614.686.592.078-.004.158.081.242.093.14.02.3.056.425.013.73-.254 1.028-.105 1.241.646.13.459.474.736 1.034.746h-.002zm8.146-6.155c-.479.003-.823.235-.981.614a.58.58 0 00.53.797c2.033.012 3.197 1.982 2.218 3.75-.195.353.173.97.58.97.46 0 .809-.294.955-.803.182-.635.555-.813 1.166-.595.154.055.35.013.524-.005.122-.013.25-.042.358-.099.154-.08.343-.16.426-.295.255-.41.124-.92-.272-1.234-.641-.507-.641-.927 0-1.438.377-.3.498-.75.315-1.173-.22-.504-.778-.713-1.332-.473-.343.15-.675.185-.933-.105-.14-.157-.202-.392-.269-.6-.116-.359-.542-.716-.912-.736a.981.981 0 00-.953.661c-.031.094-.042.195-.068.291-.132.473-.506.686-.98.563-.146-.038-.292-.07-.371-.09h-.001zm-2.14-.412c.537-.74 1.252-1.064 2.112-1.109.076-.004.165-.102.215-.178.571-.873 1.367-1.288 2.422-1.216.095.006.257-.1.287-.187.22-.646.232-1.313.177-1.981-3.528-.406-5.466 2.537-5.213 4.67zm-1.584.03c.126-2.831-2.367-5.148-5.328-4.665.08.634.15 1.273.253 1.908.015.091.197.23.292.223 1.055-.07 1.85.343 2.423 1.214.05.076.138.177.213.181.86.044 1.572.375 2.146 1.138h.001z"/></symbol><symbol viewBox="0 0 38 48" id="service-icon-3" xmlns="http://www.w3.org/2000/svg"><g clip-path="url(#asa)"><path d="M15.06 46.386h7.887v-8.763h1.573c.007.133.02.261.02.39v8.96c0 .753-.276 1.027-1.033 1.027h-9.024c-.76 0-1.025-.268-1.025-1.034-.001-4.106-.005-8.212.007-12.318 0-.324-.104-.458-.395-.574-4.573-1.829-7.77-5.058-9.583-9.678-.113-.289-.235-.418-.562-.404-.671.03-1.345.014-2.018.007-.6-.005-.905-.307-.906-.911-.003-3.12-.003-6.24 0-9.36 0-.628.301-.921.931-.926.673-.005 1.346-.014 2.019.005.28.008.417-.08.52-.35 1.281-3.393 3.406-6.121 6.433-8.08 1.003-.65 2.114-1.132 3.194-1.653.272-.131.382-.258.366-.555-.022-.426-.011-.853-.004-1.28.01-.563.305-.883.85-.885 3.127-.006 6.254-.006 9.381 0 .527 0 .834.318.848.848.011.453.022.908-.004 1.36-.016.278.092.397.338.49 2.401.906 4.475 2.313 6.23 4.197a16.389 16.389 0 013.4 5.486c.114.306.247.44.59.425.67-.03 1.344-.014 2.017-.007.575.006.887.313.888.89.004 3.133.004 6.266 0 9.399 0 .602-.307.902-.91.908-.659.006-1.319.02-1.978-.006-.325-.012-.481.088-.602.405-1.318 3.458-3.519 6.205-6.624 8.173-.942.597-1.987 1.036-2.998 1.519-.248.118-.369.231-.351.522.026.438.007.879.007 1.354h-1.583v-.465c0-2.934-.004-5.866.005-8.8 0-.274-.062-.414-.34-.523a3.183 3.183 0 01-2.022-3.358 3.209 3.209 0 012.787-2.802c1.423-.173 2.771.658 3.318 2.058.078.2.137.333.403.332 3.021-.012 6.043-.007 9.064-.008.064 0 .128-.011.216-.02V14.42c-.121-.005-.247-.016-.373-.016-2.943 0-5.884.004-8.827-.005-.262 0-.388.065-.488.328-.532 1.4-1.893 2.234-3.314 2.06a3.214 3.214 0 01-2.787-2.802c-.181-1.432.643-2.81 2.02-3.366.187-.076.345-.115.344-.395-.013-2.813-.009-5.626-.01-8.439 0-.038-.012-.078-.024-.148h-7.87c-.007.138-.019.267-.019.397 0 2.693.004 5.386-.007 8.08 0 .283.082.41.35.515 1.375.542 2.202 1.946 2.01 3.366-.197 1.465-1.31 2.589-2.757 2.788-1.406.194-2.79-.642-3.338-2.028-.083-.209-.137-.36-.425-.36-3.02.014-6.042.01-9.063.01-.052 0-.105.01-.193.016v7.982h.42c2.916 0 5.831-.003 8.748.006.272 0 .41-.066.516-.344.53-1.395 1.907-2.225 3.324-2.041a3.21 3.21 0 012.771 2.815c.175 1.43-.655 2.81-2.037 3.35-.23.091-.326.19-.325.452.007 6.466.006 12.932.006 19.398 0 .105.01.209.019.35v-.002zM32.927 12.8c-.74-3.106-5.696-8.093-8.384-8.456 0 1.094-.006 2.185.01 3.276.001.1.11.239.206.293 1.964 1.123 3.497 2.678 4.615 4.657.059.105.211.22.322.22 1.066.018 2.133.01 3.231.01zm-27.85 0c1.1 0 2.167.007 3.234-.01.11-.002.26-.12.32-.226a12.119 12.119 0 014.615-4.653c.095-.054.202-.194.203-.295.014-1.089.009-2.179.009-3.273-2.803.473-7.735 5.444-8.38 8.457zm27.861 11.202c-1.1 0-2.168-.008-3.234.01-.12.003-.281.133-.347.248a12.25 12.25 0 01-4.556 4.609.605.605 0 00-.248.427c-.027.611-.011 1.225-.011 1.837v1.353c3.644-1.288 7.107-4.795 8.396-8.484zm-27.862 0c.666 3.028 5.6 7.999 8.382 8.455 0-1.094.005-2.184-.01-3.273-.001-.101-.108-.24-.203-.294a12.141 12.141 0 01-4.615-4.655c-.06-.105-.211-.221-.321-.223-1.066-.017-2.133-.01-3.233-.01zM27.639 12.8a10.358 10.358 0 00-3.097-3.128c0 .516.003.95 0 1.384-.006.616-.266.895-.876.948-.886.076-1.519.774-1.496 1.65.022.823.71 1.52 1.525 1.544.857.025 1.56-.623 1.636-1.512.053-.62.324-.88.936-.885.43-.004.858 0 1.372 0zm-14.18 14.326v-1.288c.002-.735.21-.967.94-1.044a1.611 1.611 0 001.43-1.674c-.033-.805-.713-1.487-1.51-1.516a1.593 1.593 0 00-1.647 1.453c-.071.721-.315.942-1.042.944h-1.272c.841 1.29 1.821 2.287 3.1 3.125zm-3.063-14.384c.079.034.102.053.125.053.395.003.79.003 1.186.006.642.006.907.254.963.899.076.88.792 1.53 1.647 1.498.814-.031 1.495-.731 1.514-1.556a1.608 1.608 0 00-1.47-1.638c-.664-.06-.899-.319-.902-1-.002-.417 0-.834 0-1.33a10.285 10.285 0 00-3.062 3.068zM27.601 24.06c-.08-.034-.102-.053-.125-.053-.396-.003-.791-.003-1.187-.007-.64-.006-.903-.254-.96-.902-.077-.88-.79-1.527-1.65-1.495-.802.03-1.476.707-1.51 1.515a1.608 1.608 0 001.469 1.678c.665.062.9.32.902 1 .003.418 0 .837 0 1.335a10.443 10.443 0 003.06-3.071z"/><path d="M19.74 11.985h-1.532c0-.701-.04-1.392.013-2.076.043-.573-.161-.957-.56-1.35-1.264-1.248-1.014-.757-1.034-2.475-.01-.906-.005-1.812-.002-2.719.003-.66.293-.961.934-.964.962-.004 1.925-.004 2.888 0 .625.003.923.3.927.93.005.742.001 1.484.001 2.247h-1.567V4.033H18.21c0 .907-.007 1.808.009 2.71.002.11.108.234.195.325.347.365.724.702 1.052 1.084.153.179.302.433.31.657.033.999.016 1.999.013 2.998 0 .06-.032.12-.048.177v.001zM31.688 20.8v-1.583h1.529v-1.613c-.91 0-1.815-.005-2.72.009-.096.002-.202.112-.283.193-.35.344-.666.728-1.046 1.032-.23.183-.548.335-.834.348-.983.041-1.97.016-2.978.016V17.6c.673 0 1.343-.034 2.007.01.57.039.972-.138 1.378-.56 1.23-1.283.73-1.027 2.486-1.048.884-.01 1.767-.005 2.65-.002.655.002.954.296.956.942.004.972.004 1.945 0 2.917-.003.632-.3.934-.92.939-.734.005-1.468.001-2.223.001h-.002zM6.32 16v1.586H4.777V19.2c.521 0 1.049-.049 1.563.011.881.103 1.591-.117 2.113-.877.423-.616 1.017-.8 1.753-.747.798.058 1.604.012 2.435.012v1.568c-.086.01-.185.032-.284.032-.554.003-1.111.044-1.66-.01-.636-.063-1.068.175-1.505.635-1.12 1.18-.72.958-2.281.974-.936.01-1.872.005-2.809 0-.628-.003-.928-.3-.93-.925-.006-.986-.006-1.972 0-2.958.002-.604.306-.91.902-.914.737-.006 1.472-.002 2.25-.002L6.32 16zm11.92 15.213h1.52v13.56h-1.52v-13.56zm-1.613-12.83a2.39 2.39 0 012.379-2.381c1.302.002 2.367 1.079 2.367 2.394 0 1.334-1.079 2.414-2.4 2.403-1.298-.01-2.352-1.095-2.347-2.415zm2.364-.779a.799.799 0 00-.779.794c0 .445.377.813.816.798a.805.805 0 00.76-.814.801.801 0 00-.797-.778zm-.781 8.809h1.582v.79c0 .65-.006 1.302.003 1.952.003.212-.054.322-.286.315-.34-.01-.684.015-1.024-.013-.097-.008-.261-.148-.263-.23-.019-.925-.012-1.852-.012-2.815z"/></g><defs><clipPath id="asa"><path d="M0 0h38v48H0z"/></clipPath></defs></symbol><symbol viewBox="0 0 48 48" id="service-icon-4" xmlns="http://www.w3.org/2000/svg"><g clip-path="url(#ata)"><path d="M39.216 39.584c-.042.093-.085.182-.123.273-.494 1.177-1.908 1.627-2.947.907-.327-.225-.622-.293-1.012-.202-.98.23-1.982-.39-2.298-1.378-.038-.116-.07-.234-.107-.358l-2.493 1.248c.03.047.06.112.107.16.44.463.636 1.017.642 1.66a.56.56 0 00.199.398c1.653 1.145 2.674 2.746 3.26 4.661.184.601-.04.935-.654.996-2.135.211-4.117-.252-5.954-1.381a1.483 1.483 0 00-.413-.151c-.3-.076-.605-.138-.95-.215-.026.059-.074.157-.111.258-.495 1.336-2.07 1.844-3.215 1.019-.309-.222-.602-.313-.977-.212-.76.204-1.439.017-1.998-.546-.157-.158-.268-.155-.449-.048-1.772 1.042-3.678 1.476-5.72 1.28-.68-.066-.892-.394-.684-1.06.666-2.13 1.862-3.837 3.809-4.947.267-.152.306-.478.163-.832-.165-.404-.288-.827-.443-1.236a.503.503 0 00-.192-.25c-.393-.218-.797-.418-1.22-.637-.052.091-.102.173-.145.258-.431.855-1.238 1.257-2.177 1.133-.212-.028-.513.016-.652.154-1.02 1.013-2.822.581-3.277-.714-.012-.033-.044-.059-.073.024-.474.034-.956.142-1.419.083-.81-.102-1.443-.807-1.584-1.623a1.272 1.272 0 00-1.003-1.038C3.29 36.89 1.75 35.992.423 34.698c-.601-.587-.563-.93.135-1.368 1.223-.769 2.542-1.235 3.985-1.3.193-.009.31-.05.39-.26.176-.468.521-.784.95-1.036.198-.117.411-.326.475-.539.47-1.563 1.688-2.108 3.145-1.347.052-.074.11-.15.16-.23.665-1.114 2.124-1.333 3.073-.462.587.54.988.526 1.562-.042.95-.939 2.073-1.582 3.325-1.998.512-.169.847.077.905.684.18 1.876-.09 3.674-.906 5.38-.1.206-.073.474-.11.712-.064.42-.086.854-.214 1.252-.098.306-.155.566-.037.877.437 1.152.004 2.203-1.098 2.707-.042.019-.082.04-.214.106.444.236.823.44 1.207.633.04.02.12-.009.165-.04.434-.301.863-.608 1.294-.913l.07.077c-.01-.061-.014-.124-.03-.184-.408-1.504.519-2.803 2.036-2.835a1.07 1.07 0 00.846-.402c1-1.165 2.637-1.032 3.47.27l.097.152c.087-.056.168-.104.246-.157a2.105 2.105 0 013.203 1.064c.133.393.339.642.72.803.784.333 1.198.965 1.289 1.82.012.112.02.223.033.393l.877-.447c-.281-.453-.627-.845-.777-1.303-.12-.368.01-.817.002-1.229-.005-.266.015-.572-.102-.788-.362-.664-.416-1.313-.125-2.01a.611.611 0 00-.026-.452c-.84-1.652-1.112-3.412-.994-5.25.008-.127.021-.255.045-.379.095-.487.421-.698.878-.545 1.41.476 2.668 1.21 3.656 2.36.196.229.332.273.523.017.833-1.118 2.608-1.01 3.308.223.012.021.031.039.061.076.088-.05.174-.093.255-.143a1.987 1.987 0 012.937 1.033c.13.364.319.598.678.744.58.235.958.689 1.11 1.305.058.239.163.296.383.3 1.58.03 3.01.546 4.328 1.411.469.308.52.696.122 1.1-1.433 1.461-3.12 2.45-5.139 2.775-.382.062-.46.243-.493.568-.12 1.209-1.08 1.996-2.258 1.854-.207-.026-.408-.099-.627-.154l-.001.003zm-14.992 7.043c.668.007 1.075-.43 1.004-.991-.054-.427-.167-.846-.26-1.268-.075-.35-.003-.645.332-.803.319-.15.583-.026.786.248.233.315.465.63.7.944.242.326.556.462.953.353.388-.108.64-.396.656-.83.027-.76.352-1.328.96-1.757.351-.248.456-.619.343-1.009-.104-.358-.398-.59-.809-.631-.372-.037-.746-.068-1.119-.1-.351-.032-.605-.205-.649-.571-.041-.35.154-.57.478-.68.366-.125.733-.25 1.095-.388.41-.156.626-.459.633-.855.007-.396-.193-.7-.61-.867-.664-.262-1.09-.73-1.298-1.426-.132-.446-.402-.653-.804-.676-.405-.023-.685.156-.876.579-.167.37-.314.748-.48 1.118-.134.3-.366.45-.694.379-.323-.071-.485-.287-.49-.627-.006-.407-.006-.815-.029-1.22-.026-.47-.229-.75-.603-.87-.405-.13-.736-.013-.997.322-.442.569-1.018.832-1.73.818-.447-.008-.738.195-.878.572-.14.377-.051.725.277 1.03.295.275.604.535.897.811.237.224.305.503.14.794-.164.289-.426.372-.742.274-.383-.118-.768-.226-1.147-.352-.394-.132-.715-.028-.973.285-.257.312-.284.687-.049 1.061.39.62.485 1.261.242 1.965-.152.44-.037.812.29 1.054.343.255.698.232 1.052.017.332-.203.664-.406.997-.607.286-.172.561-.137.783.104.225.245.22.53.04.805-.194.296-.401.583-.6.876-.32.473-.357.84-.108 1.196.281.402.668.44 1.103.321.622-.169 1.18-.025 1.7.35.177.127.39.204.485.252zM10.67 30.273h.003c.01.19.022.381.03.571.013.33-.118.583-.433.677-.332.097-.585-.046-.747-.353-.177-.336-.343-.678-.528-1.01-.162-.29-.416-.445-.746-.4-.34.045-.58.24-.65.595-.135.697-.505 1.201-1.141 1.505-.33.157-.484.434-.439.805.045.356.263.567.593.66.336.093.676.179 1.014.265.342.088.563.29.544.667-.018.36-.257.532-.582.596a35.93 35.93 0 01-1.031.19c-.346.06-.57.252-.637.605-.067.362.048.66.37.841.604.34.934.86 1.024 1.548.049.37.252.606.612.68.346.072.61-.072.796-.369.195-.31.382-.626.582-.933.174-.267.414-.417.734-.303.33.118.45.383.409.726-.04.34-.083.681-.134 1.02-.058.39.027.714.39.907.345.184.648.088.926-.165.478-.436 1.036-.595 1.666-.463.361.075.646-.038.839-.35.208-.337.139-.654-.102-.948-.232-.283-.465-.566-.69-.854-.204-.26-.226-.542-.022-.804.202-.26.472-.313.771-.163l.975.485c.324.16.634.149.898-.115.248-.246.316-.546.17-.873-.293-.647-.272-1.276.066-1.901.177-.328.121-.645-.126-.914-.242-.264-.542-.29-.861-.164-.314.125-.626.254-.939.381-.322.132-.624.12-.833-.194-.207-.314-.11-.603.134-.86.26-.273.524-.545.77-.831a.703.703 0 00.104-.817c-.148-.303-.39-.478-.722-.44-.725.086-1.322-.135-1.819-.68-.224-.245-.515-.294-.825-.154-.308.14-.451.392-.453.726 0 .203.025.406.04.608zm31.06 2.016c.007-.342-.137-.607-.447-.725-.686-.259-1.119-.73-1.322-1.444-.092-.324-.334-.496-.67-.515-.352-.02-.602.138-.744.463-.143.325-.274.655-.413.98-.137.322-.36.541-.724.468-.357-.072-.5-.342-.505-.702-.005-.394-.01-.789-.038-1.181-.023-.327-.227-.534-.52-.635-.301-.104-.584-.034-.78.219-.451.583-1.026.86-1.757.832-.33-.012-.582.165-.696.483-.116.325-.055.628.21.867.262.236.526.471.789.706.258.23.395.496.22.84-.154.3-.44.39-.848.27-.323-.097-.644-.201-.965-.304-.335-.107-.621-.026-.84.25-.22.277-.247.586-.049.884.394.592.469 1.218.24 1.888-.122.354-.035.654.251.884.278.223.578.213.875.04.304-.176.6-.367.903-.543.335-.195.635-.163.845.094.226.277.187.56-.005.839-.2.291-.406.58-.602.875-.192.29-.213.594-.014.891.197.296.483.408.818.318.674-.183 1.28-.083 1.834.362.273.218.576.231.874.043.302-.192.392-.481.323-.826a39.687 39.687 0 00-.23-1.08c-.077-.34.01-.61.324-.768.322-.162.582-.031.787.234.208.27.41.545.608.823.22.31.507.465.874.357.364-.107.535-.376.554-.768.031-.648.309-1.173.84-1.54.33-.229.462-.532.349-.921-.111-.382-.404-.525-.769-.556-.323-.028-.646-.06-.97-.09-.337-.03-.57-.19-.615-.548-.045-.358.136-.579.456-.693.342-.123.686-.236 1.027-.36.327-.118.514-.348.52-.711h.002zM14.701 46.682c.114.02.162.036.21.035 1.507-.03 2.932-.369 4.25-1.146.318-.189.432-.414.36-.762-1.37-.172-1.636-.451-2.274-1.453-1.202.813-2 1.935-2.546 3.326zm15.637-3.436c-.237.294-.608.554-.665.87-.108.609-.223 1.186-.662 1.694 1.294.63 2.6.929 4.045.901-.577-1.46-1.401-2.6-2.72-3.465h.002zM5.456 34.168c-.181-.261-.307-.483-.473-.67-.093-.103-.252-.212-.378-.209-.975.03-1.894.296-2.762.745-.057.029-.117.05-.216.094.949.799 1.887 1.37 3.01 1.724.05-.698.288-1.268.819-1.685v.001zm40.893-.022a6.75 6.75 0 00-3.209-.877c-.339-.009-.575.106-.705.478.698.489.976 1.211.932 2.11 1.129-.37 2.074-.924 2.98-1.711h.002zm-29.768-2.7c.574-1.203.794-2.477.761-3.871a6.353 6.353 0 00-2.2 1.473c.57.623.732 1.337.547 2.12l.892.279zm15.367.133c-.317-1.07-.01-1.912.855-2.549-.431-.555-1.552-1.29-2.142-1.401a8.71 8.71 0 00.73 3.782c.127.29.272.367.558.168zm13.494-9.039c.32.505.486 1.047.328 1.657-.181.694-.607 1.138-1.255 1.409-.207.086-.429.277-.523.48-.576 1.231-1.814 1.593-2.932.827-.04-.028-.085-.05-.064-.038-.379.245-.696.525-1.065.674-.768.311-1.607.003-2.145-.658-.15-.184-.409-.35-.637-.38-1.306-.183-2.038-1.312-1.654-2.607.013-.046.018-.096.03-.156-.085-.044-.16-.086-.239-.122-1.093-.515-1.468-1.83-.798-2.859.16-.246.25-.476.186-.78-.274-1.31.53-2.357 1.845-2.419.061-.003.121-.008.173-.012.067-.289.098-.57.199-.823a1.866 1.866 0 012.275-1.116c.332.097.594.06.883-.116.596-.36 1.22-.362 1.817-.013.228.133.37.092.565-.048 1.15-.826 2.441-1.26 3.837-1.377.579-.049.841.23.77.822-.168 1.42-.607 2.748-1.36 3.962-.11.178-.168.298.023.484.994.965.918 2.23-.168 3.111-.028.023-.05.055-.092.1l.001-.001zm-8.007-.314c.118.093.351.205.47.392.155.243.087.527-.139.721-.286.245-.594.465-.888.701-.245.195-.31.457-.221.752.086.286.287.435.582.451.639.036 1.15.306 1.514.852.182.273.433.376.748.285.305-.088.435-.318.464-.623.033-.342.054-.685.099-1.025.042-.323.215-.55.549-.58.325-.028.547.134.655.452.11.325.228.646.334.971.1.301.301.47.608.477.305.006.523-.145.63-.443.224-.615.643-1.019 1.262-1.202.318-.094.483-.317.494-.64.01-.312-.156-.523-.439-.645-.31-.133-.621-.266-.925-.415-.287-.14-.452-.378-.376-.71.073-.323.302-.485.629-.493.337-.008.675-.01 1.011-.024.301-.013.526-.148.627-.452.1-.302.02-.562-.216-.752-.521-.42-.75-.966-.733-1.632.007-.301-.134-.52-.4-.63-.282-.115-.539-.053-.745.188-.23.27-.454.542-.694.8-.221.238-.492.308-.78.135-.285-.172-.363-.438-.269-.757.093-.316.187-.633.285-.948.096-.307.063-.58-.199-.79-.259-.208-.524-.195-.796-.014-.527.348-1.087.424-1.681.204-.289-.107-.544-.059-.745.183-.21.252-.222.527-.054.811.142.24.28.481.419.722.253.44.255.729.006.97-.257.25-.528.233-.944-.06-.236-.166-.47-.338-.706-.502-.24-.166-.489-.187-.735-.017-.255.176-.356.425-.276.73.17.644.072 1.23-.334 1.763a.642.642 0 00-.034.783c.167.266.411.35.713.28.365-.084.732-.16 1.23-.269zm8.306-6.764c-.914-.009-2.637.81-2.876 1.338.84-.225 1.564-.034 2.207.668l.67-2.006zM8.153 26.86c-.318.23-.586.49-.904.639-.812.378-1.71.1-2.284-.608-.144-.177-.383-.348-.6-.38-1.355-.198-2.065-1.265-1.697-2.605l.041-.163c-.644-.255-1.113-.674-1.298-1.372-.157-.59-.077-1.14.273-1.632.185-.26.213-.504.158-.818-.054-.316.012-.651.01-.979 0-.18.017-.385-.06-.534A10.467 10.467 0 01.711 15.02c-.105-.729.139-1.017.85-.95a7.849 7.849 0 013.612 1.256c.175.114.409.135.615.196.656.195 1.244.064 1.89-.184.923-.352 1.898.242 2.253 1.192l.092.249c.25-.027.483-.076.715-.073.986.016 1.811.83 1.84 1.842.01.36.126.615.387.857.845.783.802 2.143-.071 2.896-.085.074-.172.143-.277.228.305.493.48 1.011.35 1.595-.156.695-.542 1.197-1.208 1.438-.288.104-.486.248-.614.55-.501 1.191-1.822 1.56-2.873.826l-.117-.078h-.002zM4.62 22.223c.127.11.356.238.485.435.157.24.043.502-.163.68-.294.255-.614.479-.911.73-.221.188-.338.46-.185.712.115.192.338.416.535.439.68.077 1.212.35 1.597.932.166.25.419.309.697.23.283-.08.436-.282.464-.578.033-.341.06-.684.093-1.025.034-.342.201-.58.548-.625.33-.041.551.133.664.44.117.322.22.648.33.972.099.293.292.476.603.487.326.012.546-.162.657-.467a1.805 1.805 0 011.237-1.174c.314-.095.484-.307.496-.636.011-.315-.139-.528-.425-.651-.31-.133-.619-.27-.925-.413-.298-.138-.436-.382-.373-.71.062-.336.295-.486.619-.497.324-.01.649-.012.973-.02.315-.01.56-.13.666-.453.104-.317.011-.572-.24-.778-.489-.403-.726-.926-.706-1.567.01-.331-.127-.574-.43-.685-.287-.107-.538-.017-.738.223-.21.251-.423.501-.642.745-.225.25-.497.352-.805.172-.308-.18-.356-.47-.264-.795.093-.33.194-.656.287-.986a.64.64 0 00-.25-.739c-.239-.178-.49-.17-.734-.008-.538.36-1.108.439-1.715.217-.29-.107-.545-.05-.742.193-.208.256-.202.536-.043.816.17.297.346.59.512.887.162.29.14.568-.105.796-.246.23-.519.224-.789.035-.278-.194-.55-.395-.828-.59-.25-.177-.508-.2-.768-.02a.636.636 0 00-.265.734c.173.647.067 1.229-.339 1.76-.19.248-.191.523-.025.782.169.263.419.34.72.27.364-.086.73-.162 1.226-.27h.001zm-.73-4.703c.04-.209.062-.424.124-.628.065-.213.17-.413.254-.614-.513-.418-1.682-.847-2.292-.798.27.72.525 1.412.797 2.099.023.058.162.109.239.099.282-.035.56-.098.88-.158H3.89zM22.119 2.449c.296-.485.718-.849 1.288-.855.378-.004.756.182 1.136.274.194.047.392.089.59.106.148.013.311-.06.445-.02.378.115.619-.065.889-.301.879-.769 1.912-1.234 3.042-1.476.518-.111.853.181.838.727-.038 1.47-.446 2.8-1.431 3.915-.094.106-.12.284-.151.435-.127.625-.023 1.206.167 1.824.228.74-.207 1.46-.91 1.815-.161.08-.246.136-.218.36.126 1.01-.565 1.827-1.573 1.935-.2.022-.43.124-.573.266-.703.706-1.75.728-2.44.006-.146-.153-.243-.179-.443-.09-.931.408-1.87-.022-2.264-.986a.885.885 0 00-.385-.419c-.925-.47-1.253-1.46-.79-2.414.048-.1.033-.298-.034-.379-.474-.566-.59-1.18-.34-1.883.041-.117-.007-.32-.089-.42-.944-1.165-1.333-2.512-1.295-4.001.02-.789.357-1.02 1.095-.774 1.286.427 2.399 1.121 3.258 2.204.032.04.066.077.102.111.017.016.043.02.087.04h-.001zm1.299 1.986c-.106.13-.222.358-.406.48-.25.165-.513.059-.701-.165-.195-.231-.347-.503-.56-.714-.104-.104-.325-.187-.45-.146-.127.042-.271.242-.285.386a1.847 1.847 0 01-.713 1.329c-.12.098-.237.351-.193.473.053.149.263.286.43.335.248.071.52.054.78.087.307.038.509.212.548.532.04.335-.112.565-.42.68-.27.102-.554.172-.807.303-.124.065-.27.24-.268.363.002.143.124.358.249.413.53.233.873.603 1.064 1.158.046.132.242.284.374.29.133.006.32-.128.401-.255.142-.22.225-.48.327-.726.131-.32.355-.5.701-.425.334.073.504.309.51.66.003.267-.026.54.02.798.027.152.145.352.27.4.125.048.367-.016.458-.12.372-.428.813-.643 1.377-.662.148-.005.369-.157.412-.29.044-.134-.052-.36-.156-.49-.163-.204-.388-.357-.58-.54-.238-.227-.296-.496-.13-.79.168-.299.432-.367.742-.279.252.072.497.19.753.222.16.02.388-.036.487-.148.082-.093.084-.354.013-.478a1.888 1.888 0 01-.19-1.538c.042-.143-.034-.392-.144-.49-.093-.082-.333-.063-.474-.005-.252.105-.474.28-.715.414-.287.16-.56.128-.78-.123-.211-.24-.203-.51-.037-.773.142-.224.33-.424.435-.664.072-.162.107-.413.03-.549-.064-.112-.33-.186-.48-.152-.528.118-.98.002-1.424-.29-.13-.086-.397-.121-.497-.043-.12.096-.185.34-.174.515.018.3.112.596.2 1.016l.003.001zm5.627-2.828c-.232.09-.388.135-.528.21-.319.17-.643.337-.942.542-.623.428-.625.448-.438 1.162a.396.396 0 00.201.222c.157.072.329.118.498.149.083.015.212.004.258-.05.524-.617.831-1.335.952-2.235zm-10.15-.166c-.098.811.39 2.078.826 2.41l.912-1.227-1.738-1.184zm-4.95 14.256c-.821.815-1.776 1-2.486.35-.461-.423-.939-.659-1.513-.85-.882-.295-1.226-1.216-.974-2.333-.098-.057-.205-.116-.31-.176a1.827 1.827 0 01-.615-2.574c.165-.25.248-.478.151-.778-.052-.163-.076-.37-.024-.526.143-.432-.04-.781-.18-1.16-.495-1.347-.54-2.732-.267-4.13.12-.616.483-.79 1.048-.527 1.04.487 1.913 1.183 2.59 2.135.081.115.272.17.423.211.615.162 1.178.052 1.787-.175.855-.32 1.693.248 2.139 1.294.15-.013.308-.032.467-.04a1.755 1.755 0 011.85 1.652c.024.337.116.586.368.827.764.73.713 1.963-.08 2.668a4.937 4.937 0 01-.138.119c.093.442.252.834.24 1.221-.024.795-.45 1.342-1.186 1.646-.177.073-.37.228-.452.398-.549 1.136-1.66 1.477-2.718.808-.03-.02-.066-.033-.12-.06zm1.196-.723c.21-.218.413-.344.491-.526.23-.537.59-.9 1.143-1.07.248-.077.461-.248.404-.515a.992.992 0 00-.372-.545c-.23-.165-.52-.24-.781-.36-.294-.138-.452-.37-.392-.703.063-.351.305-.51.643-.52.3-.01.608.035.895-.03.189-.041.423-.203.49-.37.059-.15-.028-.451-.154-.565-.464-.417-.678-.913-.709-1.538-.009-.183-.186-.45-.345-.507-.16-.058-.431.048-.585.17-.232.186-.4.453-.603.676-.219.242-.484.32-.776.153-.29-.165-.371-.433-.286-.751.082-.306.22-.605.25-.915.02-.196-.059-.474-.196-.591-.12-.103-.426-.11-.573-.024-.535.314-1.065.37-1.656.199-.163-.048-.46.038-.551.167-.104.148-.109.436-.044.622.096.282.291.53.443.793.173.3.164.592-.095.83-.245.224-.526.208-.794.027-.239-.161-.472-.333-.705-.503-.212-.155-.429-.207-.658-.046-.225.158-.28.381-.212.64.152.565.034 1.064-.278 1.557-.106.167-.137.499-.041.65.094.15.393.228.601.225.28-.003.56-.112.84-.179.325-.078.57.039.718.334.15.303.077.564-.194.77-.22.167-.428.351-.65.516-.234.175-.36.389-.274.687.085.292.318.368.583.388.546.04.973.295 1.285.75.16.232.39.39.634.248.175-.101.319-.336.381-.543.08-.26.063-.552.087-.83.03-.35.204-.58.551-.618.35-.039.558.167.672.487.1.287.166.593.307.858.093.176.29.294.508.501l-.002.001zM8.851 4.457a5.866 5.866 0 00.276 2.688c.02.057.106.133.156.13a6.3 6.3 0 00.697-.105c.093-.02.435-1.216.377-1.303A4.649 4.649 0 008.85 4.456zm21.279 8.376c-.59-.223-.988-.64-1.15-1.258-.144-.545-.039-1.047.255-1.531a.99.99 0 00.122-.63c-.207-1.175.46-2.104 1.62-2.238.104-.012.256-.144.28-.246.292-1.247 1.168-1.792 2.375-1.487.17.043.377-.041.563-.083.37-.083.735-.22 1.109-.253.219-.019.361-.052.498-.233.638-.843 1.46-1.452 2.406-1.89.543-.251.903-.08 1.023.52.244 1.212.178 2.412-.069 3.628-.122.602-.104 1.265.423 1.78.738.718.692 1.92-.065 2.617-.074.068-.15.132-.238.21.044.094.084.184.127.272.478.998.022 2.13-1.002 2.534-.17.067-.364.2-.444.357-.631 1.236-1.639 1.533-2.84.796-.059.053-.125.107-.185.168-.79.797-2 .716-2.705-.16a.98.98 0 00-.541-.336c-1.23-.21-1.847-1.105-1.59-2.358.01-.048.015-.097.028-.18zm4.738.283c.305.017.5.172.6.45.1.274.186.552.282.827.09.257.236.447.536.449.281.002.432-.167.525-.409.206-.53.575-.88 1.11-1.05.246-.076.42-.222.435-.507.016-.298-.144-.47-.396-.58-.264-.114-.53-.223-.79-.35-.287-.14-.447-.374-.374-.708.072-.327.3-.489.623-.502.299-.012.608.034.895-.027.19-.04.442-.19.5-.353.059-.162-.026-.47-.157-.593-.453-.425-.672-.92-.7-1.544-.008-.18-.192-.432-.356-.5-.143-.06-.405.048-.555.162-.205.156-.355.39-.53.588-.306.35-.591.437-.878.25-.329-.214-.359-.52-.237-.87.08-.228.146-.46.209-.693.069-.257.078-.508-.16-.693-.232-.182-.46-.138-.692.014-.46.303-.955.35-1.471.178-.258-.085-.5-.084-.677.156-.174.235-.123.476.016.712.148.25.302.498.437.756.144.276.12.555-.11.768-.238.221-.517.234-.79.047-.248-.171-.474-.387-.742-.513a.877.877 0 00-.616-.04c-.248.091-.302.36-.228.617.169.584.046 1.104-.302 1.582-.158.218-.21.479-.02.661.141.134.39.216.586.209.294-.012.584-.124.877-.188.327-.072.57.055.705.357.13.288.07.546-.185.745-.218.17-.431.348-.651.514-.228.172-.38.373-.294.68.082.29.303.383.572.401.546.037.977.286 1.291.739.16.229.357.356.638.28.289-.078.374-.31.4-.58.029-.303.042-.61.09-.91.053-.33.268-.502.584-.532zm3.221-6.678l.09-1.902-.148-.077c-.341.3-.7.58-1.02.903-.462.47-.451.5-.114 1.076h1.193z"/><path d="M21.473 40.593c.009-1.39 1.128-2.506 2.501-2.496 1.373.01 2.47 1.15 2.45 2.545-.019 1.377-1.13 2.49-2.48 2.484-1.367-.006-2.481-1.147-2.471-2.533zm2.494 1.272a1.25 1.25 0 001.226-1.275 1.251 1.251 0 00-1.26-1.242 1.251 1.251 0 00-1.224 1.276c.01.699.567 1.25 1.258 1.241zM8.784 34.353c.005-1.268 1.016-2.303 2.26-2.309 1.253-.006 2.281 1.05 2.272 2.335-.009 1.262-1.038 2.296-2.279 2.29-1.24-.008-2.257-1.052-2.253-2.316zm2.28-1.045a1.022 1.022 0 00-1.04 1.017c-.014.595.436 1.08 1.011 1.09.565.009 1.053-.484 1.051-1.062a1.05 1.05 0 00-1.022-1.044v-.001zm28.047 1.091c-.007 1.3-1.011 2.305-2.294 2.294-1.245-.011-2.24-1.049-2.232-2.326a2.277 2.277 0 012.281-2.277c1.254.005 2.252 1.03 2.245 2.308zm-1.232-.003a1.033 1.033 0 00-1.007-1.052 1.04 1.04 0 00-1.054 1.048c0 .57.455 1.044 1.013 1.053.58.01 1.046-.456 1.049-1.049h-.001zm.359-12.921c.006-1.176.92-2.085 2.086-2.075 1.127.01 2.044.958 2.034 2.103-.01 1.135-.945 2.084-2.06 2.091-1.134.007-2.067-.953-2.06-2.119zm2.09-.826a.839.839 0 00-.864.81.843.843 0 00.809.87.842.842 0 00.847-.832.843.843 0 00-.792-.848zM7.49 19.4c1.134.006 2.04.935 2.04 2.09 0 1.16-.945 2.118-2.078 2.103-1.125-.015-2.04-.96-2.038-2.106.002-1.174.918-2.095 2.077-2.088zm.799 2.07a.814.814 0 00-.843-.82c-.465.012-.806.388-.79.873a.82.82 0 00.822.807.83.83 0 00.812-.859h-.001zM25.526 6.815c-.007.935-.735 1.66-1.657 1.65a1.667 1.667 0 01-1.634-1.688c.012-.917.769-1.668 1.67-1.656.911.011 1.628.761 1.621 1.695v-.001zm-1.727.457l.176.002c.107-.156.272-.3.305-.47.049-.248-.133-.41-.373-.42-.263-.012-.451.158-.415.42.024.167.199.313.306.469h.001zM13.35 8.9a1.864 1.864 0 011.865 1.88c.001 1.049-.823 1.886-1.856 1.884-1.02-.002-1.83-.818-1.842-1.857-.012-1.052.803-1.9 1.833-1.907zm.006 1.258a.605.605 0 00-.605.633c.004.355.27.62.62.617a.606.606 0 00.607-.631.608.608 0 00-.621-.618zm23.021.616c.003 1.054-.813 1.888-1.85 1.89-1.035 0-1.854-.837-1.848-1.89.005-1.036.815-1.864 1.83-1.873a1.857 1.857 0 011.868 1.873zm-1.857.634a.624.624 0 00.02-1.25.607.607 0 00-.626.616.607.607 0 00.606.634z"/></g><defs><clipPath id="ata"><path d="M0 0h48v48H0z"/></clipPath></defs></symbol><symbol viewBox="0 0 32 48" id="service-icon-5" xmlns="http://www.w3.org/2000/svg"><g clip-path="url(#aua)"><path d="M12.69 6.343c-.299-.508-.606-1.02-.9-1.54-.187-.33-.526-.699-.478-.998.045-.278.506-.494.791-.727 1.208-.983 2.423-1.956 3.624-2.947.207-.17.337-.18.549-.006a412.271 412.271 0 004.283 3.471c.21.168.212.295.082.508-.451.741-.886 1.492-1.356 2.286.319.07.587.127.856.184 1.894.402 3.561 1.263 5.006 2.56a.958.958 0 00.717.265c.456-.01.92-.034 1.368.034 1.035.156 1.802.73 2.28 1.676.452.893.88 1.797 1.34 2.686.093.18.257.34.424.459.447.318.729.731.725 1.286-.013 2.058.04 4.12-.088 6.172-.235 3.749-1.47 7.18-3.5 10.316a21.279 21.279 0 01-5.397 5.708c-.239.173-.265.316-.232.62.08.723.076 1.46.04 2.19-.013.257.02.378.227.522 1.823 1.266 2.777 3.027 2.852 5.263.034.993-.622 1.666-1.596 1.666-5.537.003-11.073.003-16.61 0-.975 0-1.629-.673-1.596-1.667.074-2.237 1.032-3.996 2.853-5.261.21-.145.234-.267.228-.522-.018-.791.05-1.584.064-2.377a.492.492 0 00-.167-.355 21.493 21.493 0 01-3.934-3.684C2.187 30.541.43 26.427.095 21.755c-.147-2.062-.076-4.14-.09-6.21-.004-.554.275-.967.724-1.285.176-.124.342-.302.441-.492.443-.854.856-1.723 1.288-2.582.597-1.192 1.561-1.825 2.879-1.776.796.03 1.422-.153 2.056-.697 1.421-1.22 3.112-1.916 4.95-2.232a2.96 2.96 0 00.26-.06c.02-.007.037-.032.087-.078zm17.729 15.43H1.585c.117.764.191 1.504.348 2.227 1.192 5.518 4.074 9.883 8.726 13.023.147.1.35.16.526.16 3.2.01 6.4.01 9.6 0 .2 0 .43-.069.595-.181 4.632-3.143 7.504-7.5 8.691-13.005.155-.722.231-1.462.348-2.224zM2.745 14.01h26.49c-.338-.69-.671-1.335-.974-1.995-.343-.75-.892-1.087-1.716-1.084-3.961.015-7.924.007-11.885.007-3.098 0-6.196.003-9.294-.003-.527-.001-1.03.119-1.303.576-.47.785-.86 1.619-1.318 2.498zm4.897 32.412h16.722c.049-1.821-1.096-3.8-3.091-4.563-.114-.044-.25-.037-.376-.037h-9.79c-.126 0-.258 0-.376.037-1.733.546-3.196 2.695-3.088 4.562zm3.058-7.678v1.509h10.605v-1.509H10.7zM22.91 9.38c-.18-.126-.268-.196-.363-.25-1.362-.778-2.823-1.225-4.386-1.263-1.383-.035-2.768-.02-4.15-.008-1.326.012-2.59.326-3.795.878-.358.164-.694.374-1.04.564l.037.08H22.91zM16 6.27v.037c.431 0 .863.018 1.292-.01a.558.558 0 00.384-.22c.345-.536.652-1.098.99-1.64.134-.215.079-.334-.102-.478a109.216 109.216 0 01-2.283-1.853c-.208-.174-.348-.173-.552 0-.603.51-1.22 1.002-1.835 1.496-.706.567-.71.565-.24 1.356.26.44.435 1.051.821 1.263.4.22 1.008.048 1.526.048v.001zm-4.77 9.338H5.533l2.848 4.038c.964-1.367 1.889-2.676 2.848-4.038h.001zm7.628-.013h-5.711l2.856 4.052 2.856-4.052zm7.614.013h-5.697l2.848 4.038 2.849-4.038zM6.88 20.18l-2.309-3.277L2.26 20.18h4.62zm3.006-.01H14.5l-2.307-3.265-2.305 3.264zm9.926-3.267a6995.68 6995.68 0 00-2.311 3.277h4.624c-.782-1.106-1.526-2.162-2.312-3.277zm9.94 3.285l-2.32-3.284-2.316 3.284h4.635zm-28.21-1.78l.073.026 2-2.84H1.542v2.814zm28.906.11V15.6h-2.056l2.056 2.919z"/></g><defs><clipPath id="aua"><path d="M0 0h32v48H0z"/></clipPath></defs></symbol><symbol viewBox="0 0 43 47" id="service-icon-6" xmlns="http://www.w3.org/2000/svg"><path d="M0 23.498V.816C0 .126.126.001.829.001L42.252 0c.592 0 .748.154.748.747v45.55c0 .538-.167.702-.716.702H.711c-.552 0-.71-.166-.71-.745V23.497L0 23.498zM5.645 5.57v35.846h31.716V5.57H5.645zm-4.48-3.597v43.114c1.053-1.051 2.028-2.036 3.021-3.004.224-.217.308-.437.307-.745-.008-6.388-.006-12.776-.006-19.163 0-5.525.001-11.05-.008-16.574 0-.188-.067-.428-.192-.557C3.324 4.061 2.34 3.1 1.36 2.134c-.049-.048-.107-.087-.197-.16zm40.683 43.07V1.958c-.14.126-.23.202-.315.285-.918.906-1.829 1.818-2.755 2.714a.82.82 0 00-.269.65c.005 11.94.003 23.88.014 35.82 0 .194.101.436.238.575.91.93 1.843 1.838 2.769 2.753.084.084.176.16.318.288zM1.98 1.133c.08.102.105.144.14.177.994.986 1.985 1.977 2.993 2.95.115.11.328.174.495.174 10.582.008 21.164.01 31.746-.003a.976.976 0 00.612-.25c.95-.908 1.876-1.84 2.809-2.766.073-.072.136-.156.244-.281H1.981zM41.013 45.86c-.071-.09-.102-.14-.144-.18-.993-.986-1.983-1.976-2.992-2.949-.114-.11-.33-.164-.5-.164-10.588-.008-21.178-.008-31.768.003a.87.87 0 00-.55.223c-.963.928-1.908 1.876-2.858 2.819-.065.064-.118.141-.206.248h39.018z"/><path d="M6.73 23.49V7.542c0-.74.145-.882.895-.882H35.4c.722 0 .871.145.871.867v31.93c0 .743-.139.88-.894.88H7.527c-.622 0-.794-.172-.795-.791V23.489H6.73zm25.144 6.705c.05.062.087.113.128.157 1.386 1.468 2.047 3.208 2.026 5.213-.01 1.086-.003 2.171-.001 3.256 0 .13.014.259.023.407h1.065V7.803H7.881v31.399h1.093v-.46c.001-1.184-.011-2.368.007-3.552a6.882 6.882 0 011.272-3.92c.26-.372.564-.715.848-1.071-1.927-2.256-1.961-5.893.652-8.213-.032-.06-.064-.125-.1-.187-1.379-2.439-.614-5.261 1.806-6.715.139-.083.255-.26.307-.418 1.058-3.17 3.236-5.121 6.56-5.654 3.972-.637 7.694 1.768 8.883 5.615a.856.856 0 00.412.526c1.824 1.1 2.72 3.119 2.263 5.175-.126.57-.387 1.108-.593 1.678 2.352 2.047 2.723 5.62.584 8.19l-.001-.001zm-9.566-16.872c.287 0 .574-.002.86 0 .563.003.731.16.77.715.105 1.52 1.166 2.685 2.682 2.945 1.026.176 1.033.176 1.046 1.21.003.22.066.319.292.38.993.27 1.604 1.072 1.577 2.028-.026.954-.7 1.734-1.696 1.935-.223.045-.303.138-.396.347-.313.706-.63 1.42-1.042 2.072-.455.718-1.145 1.225-1.884 1.655-.276.162-.321.886-.055.97.73.23 1.422.574 2.227.557a6.814 6.814 0 013.96 1.131c.306.202.435.117.617-.131 1.498-2.045 1.085-4.894-.945-6.452-.547-.42-.571-.586-.163-1.156 1.37-1.91.74-4.495-1.365-5.56-.331-.168-.497-.386-.583-.745-.72-3.016-3.528-5.194-6.68-5.202-3.174-.008-6.009 2.162-6.733 5.184-.093.391-.287.61-.637.788a3.72 3.72 0 00-1.322 5.565c.42.57.395.742-.179 1.181a4.645 4.645 0 00-.929 6.426c.18.249.309.31.59.122.891-.595 1.878-.974 2.95-1.08 1.036-.103 2.092-.073 3.06-.544.158-.076.396-.061.365-.332-.03-.273.107-.567-.258-.772-1.494-.838-2.439-2.107-2.913-3.735a.455.455 0 00-.282-.26c-1.105-.263-1.778-1.022-1.776-2.03.002-1.001.664-1.77 1.75-2 .21-.045.25-.156.324-.33.295-.702.533-1.452.964-2.068 1.391-1.99 3.373-2.881 5.806-2.814h-.002zm4.278 6.675l-.038-.002c0-.518-.011-1.036.004-1.554.008-.255-.072-.354-.338-.414-1.567-.353-2.62-1.3-3.176-2.788-.098-.26-.106-.64-.29-.755-.215-.136-.577-.051-.876-.048-2.267.018-4.235 1.32-5.04 3.419-.574 1.494-.56 3.073-.207 4.59.495 2.128 1.951 3.385 4.127 3.76 2.714.467 5.377-1.492 5.705-4.183.081-.67.087-1.35.127-2.024l.002-.001zm6.292 19.205c.01-.117.024-.212.024-.308 0-1.22.017-2.442-.004-3.663-.059-3.318-2.762-5.957-6.114-6-.294-.004-.435.07-.536.36-.498 1.433-1.02 2.858-1.541 4.284-.225.615-.598.704-1.105.279-.418-.352-.832-.707-1.25-1.058-.07-.058-.153-.102-.258-.172v6.303h6.347c.543 0 .538-.002.625-.528a6.848 6.848 0 00-.424-3.774c-.164-.402-.049-.711.28-.836.307-.117.622.028.75.416.2.606.443 1.22.5 1.848.084.934.02 1.881.02 2.85h2.686v-.001zm-11.961-6.328c-.587.495-1.091.932-1.61 1.352-.4.326-.78.22-.977-.252-.038-.091-.07-.185-.103-.278-.499-1.38-1.002-2.76-1.49-4.144-.083-.236-.194-.327-.452-.32-1.497.034-2.819.482-3.978 1.452-1.456 1.219-2.166 2.764-2.205 4.624-.024 1.172-.006 2.344-.005 3.516 0 .12.015.24.024.375h2.707c-.038-.664-.108-1.3-.102-1.937a7.136 7.136 0 01.632-2.834c.143-.324.44-.45.727-.338.294.115.413.393.31.736-.028.094-.067.185-.103.277-.465 1.192-.557 2.417-.35 3.674.054.333.175.464.548.46 1.994-.023 3.988-.011 5.982-.011h.444v-6.353.001zm-1.778.036c.545-.46 1.038-.87 1.516-1.296.049-.043.043-.208 0-.28a127.285 127.285 0 00-1.518-2.505c-.05-.081-.204-.172-.282-.152-.368.094-.725.225-1.118.353l1.403 3.88zm4.725.001l1.401-3.88c-.389-.129-.736-.255-1.093-.352-.078-.021-.23.033-.271.1-.56.9-1.107 1.809-1.673 2.743l1.636 1.39zM21.48 30.53c.082-.1.125-.142.156-.191.482-.79.976-1.574 1.43-2.38.116-.204.1-.48.162-.808-1.186.303-2.276.305-3.432.005.035.3-.003.547.096.72.499.878 1.034 1.737 1.588 2.654zm-6.149-9.124c0-.5.002-.961-.001-1.424 0-.095-.017-.19-.026-.286-.431.076-.702.391-.717.812-.015.427.236.754.744.898zm12.365-.02c.451-.087.727-.43.718-.866-.01-.422-.285-.747-.718-.821v1.687z"/><path d="M21.56 24.796c-.627-.003-1.141-.194-1.58-.575-.304-.267-.348-.589-.125-.841.213-.242.525-.247.832-.017.58.437 1.038.436 1.626-.002.308-.229.62-.22.832.02.221.254.175.576-.128.843a2.286 2.286 0 01-1.458.573h.001zm.501-4.662c-.016.072-.025.146-.048.216-.198.595-.392 1.193-.601 1.785-.124.352-.42.508-.722.405-.309-.105-.446-.392-.332-.75.195-.61.397-1.218.613-1.822.104-.29.333-.43.648-.365.28.057.408.257.442.529v.002zm-3.561.032a.747.747 0 01-.735-.736c0-.413.354-.752.77-.737a.75.75 0 01.718.754.75.75 0 01-.753.719zm6.735-.747a.75.75 0 01-.723.747.746.746 0 01-.764-.745.746.746 0 01.742-.728c.403 0 .74.326.745.726z"/></symbol><symbol viewBox="0 0 34 48" id="service-icon-7" xmlns="http://www.w3.org/2000/svg"><g clip-path="url(#awa)"><path d="M26.398 7.777l-.765 2.313c-.165.5-.322 1.002-.49 1.501-.591 1.774-2.417 2.407-3.955 1.368a347.893 347.893 0 01-3.511-2.394c-.21-.146-.354-.138-.558.003-1.145.793-2.299 1.571-3.45 2.352-1.617 1.097-3.413.47-4.033-1.407-.398-1.202-.796-2.403-1.178-3.61-.083-.261-.18-.317-.45-.234-1.55.475-3.109.921-4.661 1.387-1.11.333-1.669 1.101-1.67 2.28-.001 3.982 0 7.965-.003 11.947 0 .199-.009.405-.063.594a.804.804 0 01-.854.578.841.841 0 01-.747-.764c-.012-.125-.008-.252-.008-.377 0-3.982-.002-7.965.001-11.947.001-2.015 1.067-3.41 2.99-3.969 1.71-.496 3.417-1.008 5.12-1.534a.8.8 0 00.436-.389A257.52 257.52 0 0010.69.714C10.91.21 11.242 0 11.782 0c3.737.011 7.474.013 11.21-.001.574-.002.911.226 1.142.757.723 1.665 1.482 3.314 2.216 4.975.1.226.232.35.47.42 1.427.413 2.848.842 4.271 1.266C32.938 7.968 34 9.393 34 11.34v28.83c0 .125.003.251-.01.376a.817.817 0 01-.73.735c-.39.042-.754-.174-.866-.555-.058-.2-.066-.42-.066-.631-.003-9.535 0-19.069-.01-28.603 0-.393-.06-.805-.185-1.174-.18-.53-.563-.943-1.092-1.114-1.528-.494-3.07-.947-4.642-1.428zm-14.66-5.168c-.069.091-.107.124-.125.167-.57 1.265-1.141 2.53-1.698 3.801-.052.12-.032.296.01.427a367.16 367.16 0 001.293 3.962c.278.835.812 1.017 1.543.527 1.01-.678 2.013-1.365 3.019-2.05.14-.094.274-.198.438-.318l-4.479-6.517v.001zm11.352-.04l-4.5 6.55c.09.077.131.122.181.156 1.109.755 2.215 1.513 3.33 2.259.657.44 1.221.234 1.474-.53.438-1.319.875-2.638 1.29-3.964a.945.945 0 00-.042-.6c-.395-.932-.817-1.853-1.232-2.778-.152-.339-.309-.675-.5-1.094zM17.4 7.88l4.222-6.144h-8.445l4.224 6.144z"/><path d="M14.86 46.3V15.086c0-.138-.006-.277.005-.415.033-.448.364-.779.792-.798.426-.02.793.28.862.721.025.16.016.326.016.489l.001 30.678v.54h.466c4.331 0 8.662.002 12.993 0 1.377 0 2.195-.753 2.331-2.14.054-.551.396-.882.888-.86.483.02.788.392.782.953-.022 2.06-1.72 3.727-3.843 3.74-2.734.015-5.469.005-8.203.005-6.001 0-12.003.001-18.004-.002C1.951 47.993.426 46.736.063 44.8a4.913 4.913 0 01-.059-.9C0 38.534 0 33.17.002 27.805c0-.742.29-1.145.825-1.149.546-.004.85.413.85 1.174 0 5.352.023 10.704-.016 16.055-.01 1.394.944 2.446 2.41 2.429 3.427-.04 6.855-.013 10.282-.014h.507zm11.394-27.06c1.026 0 2.053-.012 3.079.005.712.012 1.133.732.732 1.279-.147.2-.462.383-.704.387-2.064.03-4.128.025-6.193.011a.817.817 0 01-.842-.859c.013-.47.367-.814.886-.819 1.014-.01 2.028-.003 3.041-.003h.001z"/><path d="M19.405 41.342a1.22 1.22 0 011.209 1.212 1.224 1.224 0 01-1.2 1.224 1.22 1.22 0 01-.009-2.437v.001zm-.009-17.731c.67-.005 1.21.524 1.22 1.194a1.23 1.23 0 01-1.191 1.233c-.652.01-1.21-.542-1.217-1.205a1.201 1.201 0 011.189-1.222zm.026 8.865c.663.005 1.201.56 1.193 1.227-.008.66-.569 1.22-1.216 1.212-.65-.008-1.196-.576-1.192-1.237a1.21 1.21 0 011.215-1.202zm-.017-17.546a1.207 1.207 0 011.21 1.212 1.22 1.22 0 01-1.218 1.212 1.217 1.217 0 01-1.19-1.2 1.205 1.205 0 011.199-1.224h-.001z"/></g><defs><clipPath id="awa"><path d="M0 0h34v48H0z"/></clipPath></defs></symbol><symbol viewBox="0 0 40 48" id="service-icon-8" xmlns="http://www.w3.org/2000/svg"><g clip-path="url(#axa)"><path d="M35.553 9.05c1.025.191 1.92.579 2.674 1.266 1.176 1.071 1.77 2.412 1.77 4.011.004 7.399.002 14.798.002 22.197v4.574c0 1.817-.978 3.196-2.677 3.75-.234.076-.298.183-.291.419.016.636.008 1.274.006 1.912-.002.55-.271.82-.82.82-10.366 0-20.732.004-31.098-.001C2.323 47.996.02 45.625.017 42.746.01 37.834.015 32.923.015 28.012c0-4.487.04-8.974-.014-13.46C-.032 11.738 1.855 9.5 4.36 9.075c.021-.003.04-.024.1-.061 0-.135-.002-.296 0-.455.026-1.385-.044-2.782.1-4.154C4.811 2.017 7.052.02 9.42.014c7.058-.02 14.117-.018 21.176 0 2.364.006 4.61 2.008 4.86 4.39.141 1.36.073 2.743.098 4.116.003.172 0 .345 0 .53zM5.96 30.002c.116-.086.194-.137.265-.198 1.013-.886 2.188-1.316 3.529-1.314 7.28.005 14.562.008 21.843-.002.827 0 1.589.164 2.286.617.045.03.108.032.191.055V14.509c0-3.075.011-6.15-.004-9.223-.011-2.1-1.616-3.773-3.626-3.776-6.96-.01-13.92-.006-20.88.004-.352 0-.717.068-1.052.179-1.605.531-2.566 1.925-2.567 3.715-.003 8.073-.001 16.146-.001 24.22 0 .108.01.215.017.374zm29.58 15.002h-.48c-9.933 0-19.866 0-29.8-.002-1.298 0-2.282-.978-2.283-2.245 0-1.265.998-2.256 2.28-2.256 10.254 0 20.508 0 30.762.002.111 0 .223-.005.334.007a.757.757 0 01.68.757.75.75 0 01-.704.732c-.123.01-.247.004-.37.004H5.565c-.16 0-.323-.01-.48.014a.743.743 0 00-.627.764.734.734 0 00.679.713c.134.012.27.007.407.007 10.23 0 20.459 0 30.688-.004 1.291 0 2.287-.991 2.282-2.25-.004-1.257-.998-2.242-2.294-2.242-10.304-.004-20.607-.004-30.91.004-.367 0-.745.043-1.095.145-1.785.512-2.95 2.281-2.694 4.05.28 1.94 1.791 3.291 3.715 3.292 9.983.006 19.965.004 29.948.004.118 0 .235-.013.355-.02v-1.478.002zm-4.451-9.01h-.533l-20.842.005c-1.272 0-2.29-1-2.294-2.252-.003-1.269.996-2.259 2.275-2.258l21.84.005c.125 0 .248-.005.371.005.35.03.623.292.674.64a.721.721 0 01-.489.788 2.02 2.02 0 01-.583.064c-7.009.003-14.017.002-21.027.003-.296 0-.592-.004-.888.009a.723.723 0 00-.684.622c-.053.357.156.717.51.81.198.053.414.056.622.056 2.752.004 5.503.004 8.255.003 4.53-.004 9.058-.001 13.586-.02 1.227-.006 2.194-1.027 2.185-2.23-.01-1.265-.978-2.241-2.245-2.242-7.256-.005-14.512-.005-21.767-.005-.308 0-.62-.013-.924.03-1.925.28-3.301 2.006-3.18 3.971.118 1.923 1.715 3.474 3.658 3.478 7.07.016 14.142.01 21.212.011.083 0 .165-.017.267-.028v-1.466zm4.466-25.415v.488c0 6.948 0 13.895.002 20.843 0 2.001-.881 3.275-2.732 3.942-.088.032-.218.125-.22.194-.02.48-.011.961-.011 1.457.99 0 1.914-.005 2.839.002.468.004.948-.035 1.4.062.567.121 1.11.36 1.67.552.003-.033.014-.117.014-.2 0-7.885.006-15.77-.012-23.655 0-.487-.11-1.003-.292-1.454-.479-1.185-1.375-1.908-2.659-2.23h.001zM6 37.517c-.077-.12-.098-.163-.13-.198-1.007-1.103-1.419-2.415-1.417-3.906.012-7.449.007-14.897.008-22.346v-.485c-.179.05-.308.08-.434.123-1.527.53-2.526 1.912-2.527 3.559-.007 8.148-.004 16.297-.003 24.446 0 .09.02.181.038.338 1.26-1.228 2.74-1.65 4.464-1.532H6z"/></g><defs><clipPath id="axa"><path d="M0 0h40v48H0z"/></clipPath></defs></symbol><symbol viewBox="0 0 50 50" id="service-icon-9" xmlns="http://www.w3.org/2000/svg"><g clip-path="url(#aya)"><path d="M11.717 43.75V29.134c.004-.639.287-1.001.781-1.003.495 0 .78.363.782 1 .002.443-.015.886.011 1.327.007.121.11.302.214.344 1.952.793 3.91 1.57 5.869 2.35.034.013.074.013.14.024.007-.134.01-.26.02-.385.037-.443.372-.76.792-.754.419.006.74.33.767.78.006.103.002.208.002.312v10.597h8.594v-.45c0-3.163-.005-6.327.01-9.49 0-.241.085-.518.222-.714.184-.264.496-.324.81-.204.322.122.507.365.515.712.012.52-.009 1.042.016 1.562.005.121.107.303.21.346 1.964.797 3.934 1.578 5.905 2.362.022.008.05 0 .125 0v-1.698c.002-.633.294-.998.792-.99.485.007.769.364.769.973.002 2.37 0 4.738 0 7.107v.508h9.905c.79 0 1.05.272 1.026 1.063-.075 2.459-2.072 4.723-4.501 5.093-.372.056-.75.09-1.126.09-12.915.004-25.83.004-38.746.002-2.702 0-4.82-1.635-5.473-4.233a5.536 5.536 0 01-.142-1.119c-.025-.58.29-.892.88-.893 1.471-.006 2.942-.003 4.414-.003h6.417zm36.641 1.584H1.647c.043.158.072.295.116.427a3.885 3.885 0 003.664 2.671c2.317.016 4.635.005 6.952.005 10.637 0 21.275.005 31.912-.012a4.925 4.925 0 001.712-.299c1.263-.483 2.016-1.45 2.355-2.792zm-35.066-1.616h6.239c0-.252-.016-.474.004-.693.02-.235-.078-.346-.291-.43-1.886-.748-3.77-1.504-5.654-2.257-.089-.036-.186-.051-.298-.082v3.462zm6.239-6.599c0-.672-.014-1.269.006-1.866.01-.265-.081-.388-.327-.484-1.222-.475-2.437-.97-3.654-1.457-.743-.297-1.488-.59-2.276-.902 0 .654.013 1.25-.006 1.847-.01.275.077.411.341.513 1.224.472 2.437.968 3.655 1.453.733.292 1.468.58 2.26.895v.001zm-6.25-.806c0 .677.012 1.287-.006 1.896-.008.25.086.366.311.455 1.306.51 2.606 1.035 3.909 1.554.66.263 1.322.523 2.036.805 0-.66-.015-1.267.007-1.872.01-.27-.092-.387-.335-.479-.897-.343-1.785-.709-2.677-1.066l-3.245-1.294zm17.971.781c0 .686.013 1.296-.006 1.905-.009.258.1.362.32.449 1.306.511 2.606 1.036 3.908 1.555.66.263 1.32.523 2.029.802 0-.65-.014-1.246.006-1.84.009-.273-.074-.414-.34-.514-.874-.33-1.737-.689-2.606-1.036l-3.31-1.32zm6.207 6.642l.079-.125c-.117-.08-.225-.185-.354-.237-1.214-.495-2.431-.98-3.649-1.467-.744-.297-1.489-.59-2.254-.892v2.72h6.178v.001z"/><path d="M15.604 18.755v-1.567c-.423-.078-.836-.13-1.236-.232-2.319-.592-3.771-2.312-4.128-4.703-.567-3.8 1.622-6.198 4.146-7.426.686-.334 1.225.017 1.238.782.002.114 0 .229 0 .412.084-.074.128-.097.15-.134.66-1.112 1.255-2.256 1.445-3.553.06-.417.037-.855-.008-1.277-.049-.469.076-.81.445-.98.353-.163.7-.07.989.314 2.151 2.858 3.646 5.994 3.974 9.604.134 1.476-.005 2.918-.764 4.235-.899 1.556-2.32 2.373-4.021 2.776-.201.048-.404.088-.626.135v1.614h.73c.547 0 1.094-.008 1.64.004 1.24.027 2.28 1.029 2.288 2.263.019 2.655.02 5.31 0 7.964-.01 1.267-1.1 2.277-2.367 2.266-1.239-.012-2.292-1.04-2.307-2.288-.018-1.484-.006-2.968-.006-4.451 0-.117.006-.235-.006-.352a.789.789 0 00-.787-.717.775.775 0 00-.764.738c-.017.26-.002.52-.007.78-.021 1.305-1.097 2.391-2.356 2.383-1.248-.01-2.314-1.083-2.327-2.37a185.421 185.421 0 010-3.904 2.325 2.325 0 012.317-2.313c.767-.012 1.534-.003 2.347-.003h.001zm-.046-3.243c-.115-.08-.165-.12-.22-.153-1.212-.728-1.603-1.815-1.006-3.096.403-.869.91-1.694 1.418-2.508.323-.518.981-.53 1.298-.012a42.04 42.04 0 011.516 2.72c.24.464.24.978.088 1.486-.192.642-.627 1.088-1.163 1.471a.8.8 0 00.3-.016c2.047-.54 3.24-2.04 3.296-4.16.062-2.348-.608-4.52-1.628-6.601-.225-.46-.48-.906-.766-1.441-.078.206-.122.31-.157.418-.634 2.002-1.742 3.74-3.017 5.383-.3.385-.667.477-1.028.286-.307-.163-.432-.43-.43-.772.005-.537.002-1.074.002-1.68-.175.119-.276.177-.365.248-2.119 1.687-2.427 4.033-1.51 6.286.537 1.315 2.045 2.251 3.37 2.141h.002zm4.754 9.513c0-1.275.003-2.55-.002-3.826-.002-.534-.294-.875-.785-.877a756.98 756.98 0 00-6.25 0c-.415.002-.757.296-.763.692-.02 1.34-.019 2.681-.002 4.021.006.404.402.747.773.744.37-.003.737-.347.769-.752.022-.272-.011-.548.015-.82.025-.269.057-.547.149-.799.382-1.045 1.48-1.683 2.546-1.504 1.123.19 1.97 1.146 1.982 2.28.015 1.446.004 2.891.004 4.335 0 .13-.004.261.003.39.025.445.35.773.768.78.431.007.784-.33.787-.796.01-1.29.003-2.578.005-3.866v-.002zM16.486 11.7l-.153-.009c-.218.463-.451.92-.652 1.392-.15.353.006.64.295.845.282.2.592.2.871-.009.285-.211.432-.497.279-.85-.201-.462-.426-.913-.64-1.368zm18.689 10.137v1.585c.137.007.274.018.41.02.665.002 1.329-.012 1.992.006 1.22.03 2.248 1.035 2.26 2.25.021 2.148.023 4.296 0 6.443-.015 1.224-1.09 2.23-2.317 2.236-1.25.005-2.325-1-2.355-2.24-.024-1.028-.005-2.057-.008-3.085-.002-.563-.311-.922-.784-.92-.473.002-.766.356-.779.925-.008.35.014.71-.056 1.049-.244 1.196-1.349 2.031-2.489 1.917-1.193-.12-2.132-1.16-2.14-2.394-.008-1.275-.01-2.55 0-3.826.011-1.333 1.024-2.344 2.354-2.36.754-.008 1.509-.001 2.298-.001v-1.614c-1.012-.186-1.933-.58-2.723-1.255-1.515-1.294-2.653-3.65-1.377-6.408a62.028 62.028 0 012.17-4.23c.623-1.11 1.344-2.166 2.039-3.235.378-.58 1.004-.612 1.374-.058 1.606 2.403 3.142 4.845 4.266 7.524.752 1.794.714 3.514-.328 5.184-.8 1.284-2.008 2.078-3.809 2.487h.002zm-.751-13.33c-.08.046-.11.054-.122.072-.178.272-.36.542-.53.819-1.164 1.895-2.326 3.79-3.073 5.903-.475 1.344-.17 2.54.691 3.615.486.606 1.114 1.027 1.894 1.185a.819.819 0 00-.218-.192c-.826-.563-1.22-1.547-.937-2.49.34-1.134.98-2.122 1.67-3.07a.713.713 0 011.199.052c.563.931 1.124 1.874 1.57 2.865.392.874.07 1.832-.66 2.467-.14.121-.291.232-.454.36.06.017.086.033.106.029 1.884-.482 3.157-2.72 2.563-4.578-.817-2.554-2.294-4.765-3.697-7.037h-.002zm-.041 16.497c-1.016 0-2.032-.004-3.048.002-.511.002-.854.289-.858.76a191.076 191.076 0 000 3.905c.004.43.379.79.765.795.4.005.765-.367.787-.818.011-.221.003-.442.004-.664.011-1.367 1.026-2.416 2.338-2.417 1.313-.001 2.338 1.045 2.348 2.408.008.963 0 1.926.003 2.89 0 .591.31.957.795.947.47-.01.764-.366.765-.94.003-1.979.003-3.957 0-5.936 0-.64-.289-.929-.93-.93-.99-.003-1.98 0-2.97 0v-.002zm.075-8.633l-.16.004c-.229.5-.484.988-.676 1.502-.11.297.068.558.32.735.269.189.595.233.829.009.184-.176.4-.512.347-.705-.149-.534-.43-1.031-.66-1.544zm7.729-11.655c0 .259.012.519-.003.777-.025.441-.36.761-.777.76a.769.769 0 01-.774-.763 24.61 24.61 0 010-1.593.77.77 0 01.777-.76c.418 0 .751.32.775.763.014.271.002.545.002.816zm-3.113 1.542c.246 0 .493-.008.739.001.473.017.805.336.81.77.006.432-.326.774-.791.785-.506.014-1.011.012-1.517.001-.472-.01-.805-.337-.81-.768-.006-.446.336-.774.83-.788.247-.007.493-.001.74 0l-.001-.001zm4.676.002c.272 0 .545-.014.816.003a.777.777 0 01.746.793.765.765 0 01-.74.755c-.544.02-1.09.02-1.634 0a.768.768 0 01-.745-.791c.008-.402.32-.722.74-.76.025-.002.051-.002.077-.002h.739v.001zm-3.12 3.084c0-.26-.014-.52.003-.778a.774.774 0 01.754-.744.767.767 0 01.794.741c.02.544.02 1.09 0 1.634a.764.764 0 01-.752.743.776.776 0 01-.796-.741c-.018-.284-.003-.57-.003-.855zM3.127 15.632c0-.273-.014-.546.003-.817a.775.775 0 01.753-.744.768.768 0 01.795.74c.02.544.019 1.09 0 1.634a.765.765 0 01-.751.744.777.777 0 01-.797-.74c-.018-.271-.003-.545-.003-.817zm-1.585 3.121c-.26 0-.52.012-.779-.002-.441-.025-.762-.36-.763-.777a.77.77 0 01.76-.775 24.672 24.672 0 011.596 0 .772.772 0 01.764.774c0 .418-.319.754-.761.777-.272.014-.545.002-.817.003zm4.715-1.559c.246 0 .493-.007.739.002.473.016.806.335.812.767.006.433-.324.776-.79.788-.518.013-1.038.014-1.556-.001-.446-.013-.767-.346-.772-.765-.007-.433.325-.768.79-.789.258-.01.518-.002.777-.002zM3.124 20.29c0-.246-.008-.493.002-.74.02-.466.354-.797.786-.792a.77.77 0 01.767.77c.016.53.017 1.062-.001 1.593a.768.768 0 01-.782.753c-.418-.003-.747-.325-.77-.769-.013-.272-.002-.544-.002-.816zm43.753 10.19c0 .245.007.492-.001.738-.017.472-.337.807-.767.813-.433.007-.777-.323-.79-.789a27.999 27.999 0 010-1.555.774.774 0 01.765-.774c.432-.007.77.323.79.789.01.258.002.519.002.777zm-3.158 3.113c-.26 0-.52.013-.778-.004a.776.776 0 01-.748-.79.766.766 0 01.738-.758c.544-.02 1.09-.02 1.633 0a.768.768 0 01.748.789.777.777 0 01-.739.76c-.284.017-.57.003-.855.003zm4.687 0c-.26 0-.52.013-.778-.004a.775.775 0 01-.748-.79.766.766 0 01.74-.757c.543-.02 1.09-.02 1.633 0 .44.016.755.369.747.788-.007.401-.319.723-.739.763-.025.002-.051.002-.078.002h-.778v-.002zm-3.09 1.556c0-.246-.008-.493.001-.74.017-.471.338-.804.77-.81.432-.005.774.325.786.792a27.15 27.15 0 01-.002 1.555.773.773 0 01-.766.772c-.435.005-.768-.323-.788-.791-.01-.259-.002-.519-.002-.778z"/></g><defs><clipPath id="aya"><path d="M0 0h50v50H0z"/></clipPath></defs></symbol><symbol viewBox="0 0 13 11" id="telegram" xmlns="http://www.w3.org/2000/svg"><path d="M.61 5.224l2.76 1.03 1.075 3.46c.047.233.327.28.514.14L6.502 8.59c.14-.14.374-.14.561 0l2.76 2.01c.186.141.467.048.514-.186l2.057-9.82c.047-.234-.187-.467-.42-.374L.61 4.617c-.28.093-.28.514 0 .607zm3.695.515l5.424-3.32c.093-.047.187.093.093.14L5.38 6.721c-.14.14-.28.327-.28.56l-.14 1.123c0 .14-.235.187-.281 0l-.562-2.057c-.14-.234-.046-.515.188-.608z"/></symbol><symbol viewBox="0 0 12 13" id="viber" xmlns="http://www.w3.org/2000/svg"><path d="M9.288.309a17.896 17.896 0 00-6.618 0C1.707.514.492 1.666.283 2.57a12.788 12.788 0 000 5.349c.251.905 1.466 2.057 2.387 2.262.042 0 .084.042.084.083v2.592c0 .123.167.205.251.082l1.257-1.275s1.005-1.029 1.173-1.194c0 0 .041-.04.083-.04 1.257.04 2.555-.083 3.812-.289.963-.205 2.178-1.357 2.387-2.262a12.79 12.79 0 000-5.349C11.466 1.666 10.251.514 9.288.31zm.042 7.734c-.21.412-.46.74-.88.946l-.377.124a5.345 5.345 0 01-.419-.124c-1.34-.534-2.596-1.275-3.602-2.345A9.886 9.886 0 012.67 4.587c-.167-.37-.335-.7-.46-1.07-.126-.329.083-.658.293-.905.209-.246.46-.41.754-.534.209-.124.418-.041.586.123.335.411.67.823.921 1.275.168.288.126.618-.167.823a.733.733 0 00-.21.165c-.041.041-.125.082-.167.164a.394.394 0 00-.042.37c.335.947.963 1.687 1.927 2.099.167.082.293.123.502.123.294-.04.42-.37.629-.535.209-.164.46-.164.712-.04.21.123.418.287.67.452.21.164.419.288.628.452.126.083.168.288.084.494zM7.57 4.958c-.083 0-.041 0 0 0-.167 0-.209-.083-.25-.206 0-.082 0-.206-.043-.288a.78.78 0 00-.293-.453l-.251-.123c-.126-.041-.21-.041-.335-.041-.126-.041-.168-.124-.168-.247 0-.082.126-.165.21-.165.67.041 1.173.412 1.256 1.193v.165c0 .082-.042.165-.125.165zm-.418-1.81a3.18 3.18 0 00-.67-.206c-.084 0-.21-.042-.294-.042-.125 0-.209-.082-.167-.205 0-.124.084-.206.21-.165.418.041.795.124 1.172.288.754.37 1.173.988 1.299 1.81v.535c-.042.165-.336.206-.377 0 0-.04-.042-.123-.042-.164 0-.37-.084-.74-.252-1.07a2.239 2.239 0 00-.88-.782zm2.262 2.468c-.126 0-.21-.124-.21-.247 0-.247-.042-.494-.084-.74-.167-1.317-1.256-2.387-2.555-2.593-.209-.04-.418-.04-.586-.082-.126 0-.293 0-.335-.164-.042-.124.084-.247.21-.247h.083c1.717.04.084 0 0 0 1.76.04 3.225 1.193 3.519 2.92.041.289.083.577.083.906.084.123 0 .247-.125.247z"/></symbol><symbol viewBox="0 0 24 24" id="vk" xmlns="http://www.w3.org/2000/svg"><path d="M21.579 6.855c.14-.465 0-.806-.662-.806h-2.193c-.558 0-.813.295-.953.619 0 0-1.115 2.719-2.695 4.482-.51.513-.743.675-1.021.675-.139 0-.341-.162-.341-.627V6.855c0-.558-.161-.806-.626-.806H9.642c-.348 0-.558.258-.558.504 0 .528.79.65.871 2.138v3.228c0 .707-.127.836-.407.836-.743 0-2.551-2.73-3.624-5.853-.209-.607-.42-.852-.98-.852H2.752c-.627 0-.752.295-.752.619 0 .582.743 3.462 3.461 7.27 1.812 2.602 4.363 4.012 6.687 4.012 1.393 0 1.565-.313 1.565-.853v-1.966c0-.626.133-.752.574-.752.324 0 .882.164 2.183 1.417 1.486 1.486 1.732 2.153 2.567 2.153h2.192c.626 0 .939-.313.759-.931-.197-.615-.907-1.51-1.849-2.57-.512-.603-1.277-1.253-1.51-1.578-.325-.42-.231-.604 0-.976.001 0 2.672-3.761 2.95-5.04z"/></symbol><symbol viewBox="0 0 13 13" id="whatsapp" xmlns="http://www.w3.org/2000/svg"><path d="M10.756 2.237A6.257 6.257 0 006.322.4C2.854.4.044 3.2.044 6.656a6.32 6.32 0 00.834 3.106L0 13l3.337-.875a6.42 6.42 0 002.985.744c3.468 0 6.278-2.8 6.278-6.257-.044-1.618-.659-3.193-1.844-4.375zm-1.405 6.65c-.131.35-.746.7-1.053.744a2.462 2.462 0 01-.966-.044c-.22-.087-.527-.175-.878-.35-1.58-.656-2.59-2.23-2.678-2.362-.088-.088-.659-.831-.659-1.619 0-.787.395-1.137.527-1.312.132-.175.307-.175.439-.175h.307c.088 0 .22-.044.351.262.132.306.44 1.094.483 1.138a.278.278 0 010 .262.915.915 0 01-.175.263c-.088.087-.176.218-.22.262-.088.088-.175.175-.088.306.088.175.396.657.879 1.094.614.525 1.097.7 1.273.788.175.087.263.043.35-.044.089-.088.396-.438.484-.613.088-.175.22-.13.351-.087.132.044.922.437 1.054.525.175.087.263.131.307.175.044.131.044.437-.088.787z"/></symbol><symbol viewBox="0 0 37 37" id="why-item-1" xmlns="http://www.w3.org/2000/svg"><path d="M10.9 12.87h12M25.75 21.72l-.6.6-.6-.6c-1.35-1.35-3.45-1.5-4.95-.3s-1.65 3.449-.45 4.949c1.8 2.1 3.75 4.35 5.85 6 2.25-1.65 4.35-3.9 6-6.15 1.2-1.5.9-3.6-.45-4.8-1.35-1.2-3.45-1.05-4.8.3z"/><path d="M15.4 32.368H7.9c-1.65 0-3-1.35-3-3V8.37c0-1.65 1.35-3 3-3h18c1.65 0 3 1.35 3 3v6"/></symbol><symbol viewBox="0 0 37 37" id="why-item-2" xmlns="http://www.w3.org/2000/svg"><path d="M30.4 32.067l-3.45-3.3m-17.1 0l-3.45 3.3m23.111-7.109c2.536-6.122-.371-13.141-6.494-15.677-6.123-2.536-13.143.371-15.68 6.493-2.536 6.123.372 13.142 6.495 15.678 6.123 2.536 13.143-.371 15.68-6.494zM5.5 9.57L10 5.82m21.3 3.75l-4.5-3.75"/><path d="M18.1 14.969v6.3l4.8 2.85"/></symbol><symbol viewBox="0 0 37 37" id="why-item-3" xmlns="http://www.w3.org/2000/svg"><path d="M9.8 32.37h-3c-.9 0-1.5-.6-1.5-1.5v-9c0-.9.6-1.5 1.5-1.5h3c.9 0 1.5.6 1.5 1.5v9c0 .9-.6 1.5-1.5 1.5zm10.5-6h3.45c.6 0 1.35-.15 1.8-.6l3.6-2.7c.9-.75 2.1-.6 3 .15.9.9.9 2.4 0 3.15L29 29.52c-.9.9-1.95 1.35-3 1.65l-4.35.9c-.9.15-1.8.15-2.7 0l-3.9-1.05c-.45-.15-.9-.15-1.5-.15H11.3"/><path d="M20.3 26.37h2.25c1.2 0 2.25-1.05 2.25-2.25v-.45c0-1.05-.75-1.95-1.65-2.25l-3.45-.9c-.6-.15-1.2-.15-1.65-.15-1.35 0-2.7.45-3.9 1.2l-2.7 1.8m12.15-7.5a4.2 4.2 0 100-8.4 4.2 4.2 0 000 8.4z"/><path d="M22.85 7.471c-.15-.9-.6-1.65-1.2-2.25a4.255 4.255 0 00-6 0 4.255 4.255 0 000 6c1.05 1.05 2.4 1.35 3.75 1.2"/></symbol><symbol viewBox="0 0 37 37" id="why-item-4" xmlns="http://www.w3.org/2000/svg"><path d="M15.4 3.871h6m-3 28.497c6.627 0 12-5.372 12-11.999 0-6.626-5.373-11.999-12-11.999s-12 5.373-12 12c0 6.626 5.373 11.998 12 11.998z"/><path d="M18.4 19.62c-.45 0-.75.3-.75.75s.3.75.75.75.75-.3.75-.75-.3-.75-.75-.75zM23.65 25.62c-1.35 1.35-3.3 2.25-5.25 2.25-4.2 0-7.5-3.3-7.5-7.5 0-.45 0-.9.15-1.35m2.1-3.9l4.65 4.65m12.6-11.4l-3.45 3.45m1.95-4.95l3 3"/></symbol></svg>