<?xml version="1.0" encoding="utf-8"?><svg xmlns="http://www.w3.org/2000/svg" xmlns:xlink="http://www.w3.org/1999/xlink"><symbol viewBox="0 0 22 24" id="basket" xmlns="http://www.w3.org/2000/svg"><g clip-path="url(#aa)"><path d="M10.363 18.443a2.046 2.046 0 00-2.045 2.042 2.046 2.046 0 004.09 0 2.046 2.046 0 00-2.045-2.042zm6.134 0a2.046 2.046 0 00-2.045 2.042 2.046 2.046 0 004.089 0 2.046 2.046 0 00-2.044-2.042zm3.978-8.199L7.413 6.891a.614.614 0 00-.75.73L8.67 16.4h-.786L5.482 5.895a.613.613 0 00-.474-.464l-4.27-.882A.614.614 0 00.489 5.75l3.885.802L6.797 17.15a.613.613 0 00.598.477h12.07a.615.615 0 00.607-.53l.858-6.175a.613.613 0 00-.455-.678zm-8.14 3.91a.613.613 0 01-1.227 0v-2.696a.613.613 0 011.227 0v2.696zm2.625 0a.613.613 0 01-1.227 0v-1.88a.613.613 0 011.227 0v1.88zm2.625 0a.613.613 0 01-1.227 0v-1.226a.613.613 0 011.227 0v1.226z"/></g><path fill-rule="evenodd" clip-rule="evenodd" d="M16.268 4.568a2.996 2.996 0 00-1.693-.523c-.627 0-1.21.193-1.693.523-.28-.843-.492-1.752-.492-2.383C12.39.98 13.37 0 14.575 0s2.185.98 2.185 2.185c0 .631-.212 1.54-.492 2.383zm-4.722 2.274l.024.006v-.011l-.024.005zm4.972 1.217c-1.333-.33-2.766-.681-4.129-1.013a2.185 2.185 0 114.129 1.013zm4.436 1.103c-.866-.217-2.155-.538-3.618-.9a2.995 2.995 0 00.243-1.425c.87.18 1.762.45 2.308.765.596.344.969.928 1.067 1.56zM9.869 6.439c-.36-.086-.706-.167-1.03-.243a2.19 2.19 0 01-.376-2.667 2.188 2.188 0 013.147-.7c.098.738.338 1.599.61 2.353a3.01 3.01 0 00-.449.774c-.628.113-1.305.278-1.902.483zm10.124.075a3.43 3.43 0 01-.217.114c-.696-.295-1.587-.526-2.397-.672a3.01 3.01 0 00-.449-.774c.262-.727.494-1.553.599-2.273.095-.067.189-.128.278-.18a2.188 2.188 0 012.986.8 2.188 2.188 0 01-.8 2.985z"/><defs><clipPath id="aa"><path transform="translate(0 3.064)" d="M0 0h20.936v20.936H0z"/></clipPath></defs></symbol><symbol viewBox="0 0 344.96 344.96" id="check" xmlns="http://www.w3.org/2000/svg"><g data-name="Слой 2"><path class="bcls-1" d="M321.85 86.24l-40-23.11-23.1-40H212.5L172.48 0l-40 23.11H86.24l-23.11 40-40 23.1v46.21L0 172.48l23.11 40v46.21l40 23.11 23.11 40h46.21l40 23.1 40-23.11h46.21l23.11-40 40-23.11V212.5l23.11-40-23.11-40V86.24zM156.91 243.07a16.79 16.79 0 01-23.34 0l-50.45-50.44a16.19 16.19 0 010-22.89l13.35-13.35a16.19 16.19 0 0122.89 0l25.87 25.87 80.34-80.35a16.19 16.19 0 0122.89 0l13.35 13.35a16.19 16.19 0 010 22.89z" data-name="Capa 1"/></g></symbol><symbol viewBox="0 0 24 24" id="fb" xmlns="http://www.w3.org/2000/svg"><path d="M13.397 20.997v-8.196h2.765l.411-3.209h-3.176V7.548c0-.926.258-1.56 1.587-1.56h1.684v-2.86A22.108 22.108 0 0014.201 3c-2.444 0-4.122 1.492-4.122 4.231v2.355H7.332v3.21h2.753v8.201h3.312z"/></symbol><symbol viewBox="0 0 24 24" id="instagram" xmlns="http://www.w3.org/2000/svg"><path d="M11.999 7.377a4.624 4.624 0 100 9.248 4.624 4.624 0 000-9.248zm0 7.627a3.004 3.004 0 110-6.008 3.004 3.004 0 010 6.008zm4.807-6.719a1.078 1.078 0 100-2.156 1.078 1.078 0 000 2.156z"/><path d="M20.533 6.11A4.605 4.605 0 0017.9 3.48a6.607 6.607 0 00-2.186-.42c-.963-.042-1.268-.054-3.71-.054s-2.755 0-3.71.054a6.554 6.554 0 00-2.184.42 4.6 4.6 0 00-2.633 2.63 6.585 6.585 0 00-.419 2.186c-.043.962-.056 1.267-.056 3.71 0 2.442 0 2.753.056 3.71.015.748.156 1.486.419 2.187a4.61 4.61 0 002.634 2.632 6.583 6.583 0 002.185.45c.963.042 1.268.055 3.71.055s2.755 0 3.71-.055a6.616 6.616 0 002.186-.42 4.613 4.613 0 002.633-2.632c.263-.7.404-1.438.419-2.186.043-.962.056-1.267.056-3.71s0-2.753-.056-3.71a6.583 6.583 0 00-.421-2.217zm-1.218 9.533a5.046 5.046 0 01-.311 1.688 2.987 2.987 0 01-1.712 1.71c-.535.2-1.1.305-1.67.312-.95.044-1.218.055-3.654.055-2.438 0-2.687 0-3.655-.055a4.961 4.961 0 01-1.67-.311 2.984 2.984 0 01-1.718-1.711 5.08 5.08 0 01-.311-1.67c-.043-.95-.053-1.217-.053-3.653 0-2.437 0-2.686.053-3.655a5.038 5.038 0 01.311-1.687c.305-.79.93-1.41 1.719-1.712a5.01 5.01 0 011.669-.311c.95-.043 1.218-.055 3.655-.055s2.687 0 3.654.055a4.96 4.96 0 011.67.31 2.99 2.99 0 011.712 1.713 5.06 5.06 0 01.311 1.669c.043.95.054 1.218.054 3.655 0 2.436 0 2.698-.043 3.654h-.011v-.001z"/></symbol><symbol viewBox="0 0 30 58" id="sServices-icon-1" xmlns="http://www.w3.org/2000/svg"><path d="M19.153 43.012c1.183 1.167 2.253 2.22 3.32 3.277 2.123 2.106 4.243 4.215 6.367 6.32.305.301.588.607.442 1.085-.15.486-.544.625-.993.704-.514.091-1.03.183-1.533.318a.588.588 0 00-.349.355c-.142.544-.24 1.1-.345 1.654-.078.407-.262.736-.68.86-.405.117-.714-.073-.996-.354-1.6-1.599-3.206-3.19-4.812-4.784-.11-.11-.227-.215-.405-.383-.013.237-.027.379-.027.52-.001 1.32.002 2.64-.001 3.96-.002.735-.332 1.07-1.058 1.07-2.285.003-4.57.003-6.854 0-.705 0-1.045-.336-1.047-1.034-.005-1.465-.001-2.93-.001-4.509-.187.166-.307.26-.414.367-1.512 1.498-3.02 2.997-4.532 4.496-.116.116-.23.233-.35.344-.642.602-1.412.372-1.608-.49a30.494 30.494 0 01-.34-1.7c-.042-.243-.144-.358-.39-.4-.485-.082-.963-.203-1.449-.282-.462-.075-.886-.19-1.052-.692-.17-.52.164-.831.487-1.15 3.073-3.051 6.143-6.103 9.214-9.155.114-.113.223-.232.465-.484-.199-.128-.4-.215-.545-.357-1.526-1.505-3.052-3.008-4.56-4.53C2.1 35.002.698 31.332 1.16 27.113c.592-5.402 3.561-9.148 8.576-11.292.311-.133.458-.255.456-.627-.017-1.905 1.07-2.968 2.99-2.971h.554v-1.397c-.954-.276-1.788-.766-2.371-1.604-.773-1.11-.992-2.308-.494-3.586.606-1.557 1.633-2.852 2.663-4.144.047-.058.098-.112.145-.169.784-.933 1.19-.934 1.979.018 1.008 1.215 1.94 2.477 2.639 3.903 1.163 2.373-.321 4.83-2.379 5.47-.112.034-.22.077-.34.12v1.39c.31 0 .605-.005.899 0 1.468.028 2.675 1.182 2.643 2.638-.014.644.212.883.784 1.14 4.687 2.097 7.518 5.662 8.205 10.744.586 4.34-.766 8.112-3.826 11.26-1.535 1.58-3.11 3.12-4.67 4.675-.114.114-.264.194-.458.333l-.002-.002zm-.011-25.407c0 .916.02 1.747-.01 2.574-.013.369.1.582.415.788 4.791 3.138 5.51 9.594 1.53 13.701-.973 1.003-1.98 1.974-2.971 2.96l-6.646 6.604-8.33 8.273c-.11.11-.21.227-.432.468 1.42-.063 2.003.635 1.99 1.96.228-.211.349-.317.462-.43l9.658-9.591c2.692-2.674 5.385-5.345 8.072-8.023 5.159-5.14 4.657-13.401-1.077-17.768a10.786 10.786 0 00-2.661-1.516zm-4.5 20.947c.903-.9 1.759-1.744 2.6-2.602.08-.08.103-.242.103-.366.005-6.868.005-13.735.002-20.603 0-.617-.356-.973-.97-.977-1.134-.008-2.27-.007-3.404 0-.651.004-.991.344-.997.993-.007.771-.002 1.543-.002 2.314 0 6.052-.002 12.104.005 18.156 0 .18.02.415.131.53.813.847 1.65 1.67 2.532 2.555zm-1.249 1.151c-.141-.101-.29-.182-.407-.296-1.627-1.612-3.293-3.188-4.862-4.854-2.135-2.267-2.873-4.98-2.228-8.018.504-2.373 1.85-4.205 3.864-5.564.16-.109.394-.273.4-.418.035-.974.018-1.948.018-2.98-.188.077-.325.125-.455.187-7.547 3.622-9.2 13.153-3.306 19.064 1.544 1.548 3.1 3.084 4.653 4.624.101.1.214.188.297.26l2.026-2.003v-.002zm3.956 16.12V55.3c0-1.407-.03-2.816.015-4.221.018-.584-.144-.996-.575-1.393-.717-.66-1.378-1.384-2.106-2.126-.86.862-1.666 1.65-2.444 2.463a.987.987 0 00-.255.612c-.02 1.6-.013 3.2-.011 4.8 0 .127.02.253.03.388h5.346zm-1.3-9.492l8.518 8.402c.148-.412.198-.998.518-1.314.327-.324.92-.385 1.355-.546l-8.494-8.427-1.898 1.885h.001zm3.106-12.357a6.996 6.996 0 002.655-6.33c-.214-1.91-1.081-3.487-2.655-4.771v11.1zm-9.006.049V22.96c-3.173 2.33-3.925 7.775 0 11.063zM14.66 2.942c-.827 1.063-1.603 2.072-2.093 3.26-.372.903-.059 1.895.745 2.485a2.28 2.28 0 002.71-.012c.802-.597 1.103-1.586.724-2.49-.49-1.173-1.251-2.178-2.086-3.242v-.001zM8.47 5.057c-.096.68-.759 1.141-1.316.846a68.784 68.784 0 01-3.285-1.881c-.407-.246-.478-.75-.251-1.14.236-.406.73-.586 1.156-.352a76.984 76.984 0 013.203 1.846c.22.136.331.45.492.682h.001zm-3.994 6.271c-.48-.001-.828-.268-.939-.657-.115-.404.025-.767.44-1.016.65-.389 1.311-.757 1.968-1.134.348-.2.69-.41 1.043-.6.508-.274 1.02-.148 1.279.3.25.432.118.936-.36 1.22a181.43 181.43 0 01-3.05 1.754c-.139.078-.304.105-.381.13v.003zM24.86 2.424c.466.028.762.218.906.607.148.397.023.793-.37 1.039-.554.346-1.128.661-1.693.988-.451.26-.9.522-1.355.772-.513.28-1.019.165-1.284-.279-.266-.444-.128-.952.375-1.248.997-.588 2.004-1.163 3.012-1.734.138-.078.304-.109.41-.144l-.002-.001zm.962 7.835c.022.776-.646 1.285-1.196.998a62.245 62.245 0 01-3.326-1.9c-.402-.242-.47-.754-.242-1.141.24-.405.73-.58 1.16-.343A81.4 81.4 0 0125.42 9.72c.213.13.322.428.402.539z"/></symbol><symbol viewBox="0 0 13 11" id="telegram" xmlns="http://www.w3.org/2000/svg"><path d="M.61 5.224l2.76 1.03 1.075 3.46c.047.233.327.28.514.14L6.502 8.59c.14-.14.374-.14.561 0l2.76 2.01c.186.141.467.048.514-.186l2.057-9.82c.047-.234-.187-.467-.42-.374L.61 4.617c-.28.093-.28.514 0 .607zm3.695.515l5.424-3.32c.093-.047.187.093.093.14L5.38 6.721c-.14.14-.28.327-.28.56l-.14 1.123c0 .14-.235.187-.281 0l-.562-2.057c-.14-.234-.046-.515.188-.608z"/></symbol><symbol viewBox="0 0 12 13" id="viber" xmlns="http://www.w3.org/2000/svg"><path d="M9.288.309a17.896 17.896 0 00-6.618 0C1.707.514.492 1.666.283 2.57a12.788 12.788 0 000 5.349c.251.905 1.466 2.057 2.387 2.262.042 0 .084.042.084.083v2.592c0 .123.167.205.251.082l1.257-1.275s1.005-1.029 1.173-1.194c0 0 .041-.04.083-.04 1.257.04 2.555-.083 3.812-.289.963-.205 2.178-1.357 2.387-2.262a12.79 12.79 0 000-5.349C11.466 1.666 10.251.514 9.288.31zm.042 7.734c-.21.412-.46.74-.88.946l-.377.124a5.345 5.345 0 01-.419-.124c-1.34-.534-2.596-1.275-3.602-2.345A9.886 9.886 0 012.67 4.587c-.167-.37-.335-.7-.46-1.07-.126-.329.083-.658.293-.905.209-.246.46-.41.754-.534.209-.124.418-.041.586.123.335.411.67.823.921 1.275.168.288.126.618-.167.823a.733.733 0 00-.21.165c-.041.041-.125.082-.167.164a.394.394 0 00-.042.37c.335.947.963 1.687 1.927 2.099.167.082.293.123.502.123.294-.04.42-.37.629-.535.209-.164.46-.164.712-.04.21.123.418.287.67.452.21.164.419.288.628.452.126.083.168.288.084.494zM7.57 4.958c-.083 0-.041 0 0 0-.167 0-.209-.083-.25-.206 0-.082 0-.206-.043-.288a.78.78 0 00-.293-.453l-.251-.123c-.126-.041-.21-.041-.335-.041-.126-.041-.168-.124-.168-.247 0-.082.126-.165.21-.165.67.041 1.173.412 1.256 1.193v.165c0 .082-.042.165-.125.165zm-.418-1.81a3.18 3.18 0 00-.67-.206c-.084 0-.21-.042-.294-.042-.125 0-.209-.082-.167-.205 0-.124.084-.206.21-.165.418.041.795.124 1.172.288.754.37 1.173.988 1.299 1.81v.535c-.042.165-.336.206-.377 0 0-.04-.042-.123-.042-.164 0-.37-.084-.74-.252-1.07a2.239 2.239 0 00-.88-.782zm2.262 2.468c-.126 0-.21-.124-.21-.247 0-.247-.042-.494-.084-.74-.167-1.317-1.256-2.387-2.555-2.593-.209-.04-.418-.04-.586-.082-.126 0-.293 0-.335-.164-.042-.124.084-.247.21-.247h.083c1.717.04.084 0 0 0 1.76.04 3.225 1.193 3.519 2.92.041.289.083.577.083.906.084.123 0 .247-.125.247z"/></symbol><symbol viewBox="0 0 24 24" id="vk" xmlns="http://www.w3.org/2000/svg"><path d="M21.579 6.855c.14-.465 0-.806-.662-.806h-2.193c-.558 0-.813.295-.953.619 0 0-1.115 2.719-2.695 4.482-.51.513-.743.675-1.021.675-.139 0-.341-.162-.341-.627V6.855c0-.558-.161-.806-.626-.806H9.642c-.348 0-.558.258-.558.504 0 .528.79.65.871 2.138v3.228c0 .707-.127.836-.407.836-.743 0-2.551-2.73-3.624-5.853-.209-.607-.42-.852-.98-.852H2.752c-.627 0-.752.295-.752.619 0 .582.743 3.462 3.461 7.27 1.812 2.602 4.363 4.012 6.687 4.012 1.393 0 1.565-.313 1.565-.853v-1.966c0-.626.133-.752.574-.752.324 0 .882.164 2.183 1.417 1.486 1.486 1.732 2.153 2.567 2.153h2.192c.626 0 .939-.313.759-.931-.197-.615-.907-1.51-1.849-2.57-.512-.603-1.277-1.253-1.51-1.578-.325-.42-.231-.604 0-.976.001 0 2.672-3.761 2.95-5.04z"/></symbol><symbol viewBox="0 0 13 13" id="whatsapp" xmlns="http://www.w3.org/2000/svg"><path d="M10.756 2.237A6.257 6.257 0 006.322.4C2.854.4.044 3.2.044 6.656a6.32 6.32 0 00.834 3.106L0 13l3.337-.875a6.42 6.42 0 002.985.744c3.468 0 6.278-2.8 6.278-6.257-.044-1.618-.659-3.193-1.844-4.375zm-1.405 6.65c-.131.35-.746.7-1.053.744a2.462 2.462 0 01-.966-.044c-.22-.087-.527-.175-.878-.35-1.58-.656-2.59-2.23-2.678-2.362-.088-.088-.659-.831-.659-1.619 0-.787.395-1.137.527-1.312.132-.175.307-.175.439-.175h.307c.088 0 .22-.044.351.262.132.306.44 1.094.483 1.138a.278.278 0 010 .262.915.915 0 01-.175.263c-.088.087-.176.218-.22.262-.088.088-.175.175-.088.306.088.175.396.657.879 1.094.614.525 1.097.7 1.273.788.175.087.263.043.35-.044.089-.088.396-.438.484-.613.088-.175.22-.13.351-.087.132.044.922.437 1.054.525.175.087.263.131.307.175.044.131.044.437-.088.787z"/></symbol></svg>