<svg width="24" height="25" viewBox="0 0 24 25" fill="none" xmlns="http://www.w3.org/2000/svg">
<path d="M3.30438 11.2816C2.90761 11.6658 2.89741 12.2989 3.28159 12.6956L9.54219 19.1613C9.92638 19.5581 10.5595 19.5683 10.9562 19.1841C11.353 18.7999 11.3632 18.1668 10.979 17.77L5.41403 12.0228L11.1613 6.45781C11.5581 6.07362 11.5683 5.44054 11.1841 5.04378C10.7999 4.64701 10.1668 4.63681 9.77005 5.02099L3.30438 11.2816ZM18.9838 13.2416C19.536 13.2505 19.9909 12.81 19.9998 12.2578C20.0087 11.7056 19.5682 11.2507 19.016 11.2418L18.9838 13.2416ZM3.98389 12.9999L18.9838 13.2416L19.016 11.2418L4.01611 11.0001L3.98389 12.9999Z" fill="#AAAEBE"/>
</svg>
