<svg width="24" height="25" viewBox="0 0 24 25" fill="none" xmlns="http://www.w3.org/2000/svg">
<path d="M20.7072 12.9473C21.0978 12.5568 21.0978 11.9237 20.7072 11.5331L14.3433 5.16917C13.9527 4.77864 13.3196 4.77864 12.9291 5.16917C12.5385 5.55969 12.5385 6.19286 12.9291 6.58338L18.5859 12.2402L12.9291 17.8971C12.5385 18.2876 12.5385 18.9208 12.9291 19.3113C13.3196 19.7018 13.9527 19.7018 14.3433 19.3113L20.7072 12.9473ZM5.00012 11.2402C4.44784 11.2402 4.00012 11.6879 4.00012 12.2402C4.00012 12.7925 4.44784 13.2402 5.00012 13.2402L5.00012 11.2402ZM20.0001 11.2402L5.00012 11.2402L5.00012 13.2402L20.0001 13.2402L20.0001 11.2402Z" fill="#AAAEBE"/>
</svg>
