<svg width="33" height="33" viewBox="0 0 33 33" fill="none" xmlns="http://www.w3.org/2000/svg">
<path d="M23.2278 28.5252H9.50857C8.0144 28.5252 6.92773 27.3028 6.92773 25.9445V6.79177C6.92773 5.2976 8.15023 4.21106 9.50857 4.21106H23.2278C24.722 4.21106 25.8086 5.43343 25.8086 6.79177V25.9445C25.8086 27.3028 24.5861 28.5252 23.2278 28.5252Z" stroke="#00A5F1" stroke-width="2" stroke-miterlimit="10" stroke-linecap="round" stroke-linejoin="round"/>
<path d="M25.8087 10.8668H6.79199" stroke="#00A5F1" stroke-width="2" stroke-miterlimit="10" stroke-linecap="round" stroke-linejoin="round"/>
<path d="M10.8672 20.2391C10.8672 20.2391 11.003 20.375 10.8672 20.2391C10.8672 20.375 10.8672 20.3751 10.8672 20.3751C10.8672 20.3751 10.8672 20.375 10.8672 20.2391ZM10.8672 20.2391C10.8672 20.375 10.8672 20.2391 10.8672 20.2391Z" stroke="#00A5F1" stroke-width="2" stroke-miterlimit="10" stroke-linecap="round" stroke-linejoin="round"/>
<path d="M16.3003 20.3751C16.3003 20.3751 16.4361 20.3751 16.3003 20.3751C16.3003 20.511 16.3003 20.5111 16.3003 20.5111V20.3751Z" stroke="#00A5F1" stroke-width="2" stroke-miterlimit="10" stroke-linecap="round" stroke-linejoin="round"/>
<path d="M21.7339 20.2391C21.7339 20.2391 21.8697 20.375 21.7339 20.2391C21.7339 20.375 21.7339 20.3751 21.7339 20.3751C21.7339 20.3751 21.7339 20.375 21.7339 20.2391ZM21.7339 20.2391C21.7339 20.375 21.7339 20.2391 21.7339 20.2391Z" stroke="#00A5F1" stroke-width="2" stroke-miterlimit="10" stroke-linecap="round" stroke-linejoin="round"/>
<path d="M10.8672 16.1642C10.8672 16.1642 11.003 16.3 10.8672 16.1642C10.8672 16.3 10.8672 16.3002 10.8672 16.3002C10.8672 16.3002 10.8672 16.3 10.8672 16.1642ZM10.8672 16.1642C10.8672 16.3 10.8672 16.1642 10.8672 16.1642Z" stroke="#00A5F1" stroke-width="2" stroke-miterlimit="10" stroke-linecap="round" stroke-linejoin="round"/>
<path d="M16.3003 16.3002C16.3003 16.3002 16.4361 16.3002 16.3003 16.3002C16.3003 16.436 16.3003 16.4361 16.3003 16.4361V16.3002Z" stroke="#00A5F1" stroke-width="2" stroke-miterlimit="10" stroke-linecap="round" stroke-linejoin="round"/>
<path d="M21.7339 16.1642C21.7339 16.1642 21.8697 16.3 21.7339 16.1642C21.7339 16.3 21.7339 16.3002 21.7339 16.3002C21.7339 16.3002 21.7339 16.3 21.7339 16.1642ZM21.7339 16.1642C21.7339 16.3 21.7339 16.1642 21.7339 16.1642Z" stroke="#00A5F1" stroke-width="2" stroke-miterlimit="10" stroke-linecap="round" stroke-linejoin="round"/>
<path d="M10.8672 24.3142C10.8672 24.3142 11.003 24.45 10.8672 24.3142C10.8672 24.45 10.8672 24.4502 10.8672 24.4502C10.8672 24.4502 10.8672 24.45 10.8672 24.3142ZM10.8672 24.3142C10.8672 24.45 10.8672 24.3142 10.8672 24.3142Z" stroke="#00A5F1" stroke-width="2" stroke-miterlimit="10" stroke-linecap="round" stroke-linejoin="round"/>
<path d="M16.3003 24.4502C16.3003 24.4502 16.4361 24.4502 16.3003 24.4502C16.3003 24.586 16.3003 24.5862 16.3003 24.5862V24.4502Z" stroke="#00A5F1" stroke-width="2" stroke-miterlimit="10" stroke-linecap="round" stroke-linejoin="round"/>
<path d="M21.7339 24.3142C21.7339 24.3142 21.8697 24.45 21.7339 24.3142C21.7339 24.45 21.7339 24.4502 21.7339 24.4502C21.7339 24.4502 21.7339 24.45 21.7339 24.3142ZM21.7339 24.3142C21.7339 24.45 21.7339 24.3142 21.7339 24.3142Z" stroke="#00A5F1" stroke-width="2" stroke-miterlimit="10" stroke-linecap="round" stroke-linejoin="round"/>
</svg>
