<svg width="22" height="22" viewBox="0 0 22 22" fill="none" xmlns="http://www.w3.org/2000/svg">
<path d="M9.61623 12.6631C8.54897 11.5959 7.74855 10.4398 7.30386 9.28365C7.21492 9.01683 7.21488 8.74976 7.4817 8.57188L8.19324 7.86055C8.81581 7.23798 8.81579 6.43737 8.28216 5.90374L7.21489 4.83674C6.50339 4.12524 5.43614 4.12524 4.72464 4.83674L4.10206 5.45905C3.47949 6.08162 3.12377 7.06028 3.30165 8.0386C3.74634 10.351 5.08041 12.9301 7.30386 15.0646C9.43838 17.1991 12.0175 18.6221 14.3299 19.0668C15.3083 19.2447 16.1977 18.9776 16.9092 18.3551L17.5317 17.7328C18.2432 17.0213 18.2432 15.9537 17.5317 15.2422L16.4645 14.1752C15.9308 13.6416 15.1304 13.6416 14.5967 14.1752L13.7963 14.9756C13.6185 15.1535 13.3517 15.2426 13.0848 15.1536C11.7508 14.4421 10.5945 13.6414 9.61623 12.6631Z" stroke="white" stroke-width="1.5" stroke-miterlimit="10" stroke-linecap="round" stroke-linejoin="round"/>
<path d="M13.8848 2.96904V8.30532H19.221" stroke="white" stroke-width="1.5" stroke-miterlimit="10" stroke-linecap="round" stroke-linejoin="round"/>
<path d="M19.221 2.96904L13.8848 8.30532" stroke="white" stroke-width="1.5" stroke-miterlimit="10" stroke-linecap="round" stroke-linejoin="round"/>
</svg>
