<svg width="48" height="48" viewBox="0 0 48 48" fill="none" xmlns="http://www.w3.org/2000/svg">
<g opacity="0.5" clip-path="url(#clip0_98_826)">
<path d="M39.216 39.5843C39.174 39.6767 39.1313 39.766 39.0931 39.8569C38.5991 41.034 37.1853 41.4837 36.1456 40.7645C35.8187 40.5386 35.5241 40.4706 35.1343 40.5622C34.1546 40.7928 33.1524 40.1714 32.836 39.1843C32.7985 39.0675 32.7663 38.95 32.7288 38.8255C31.8848 39.2484 31.0707 39.6561 30.2356 40.0744C30.2664 40.121 30.2963 40.1859 30.3428 40.2347C30.7836 40.6974 30.9792 41.2508 30.9852 41.8936C30.9867 42.0295 31.0759 42.2173 31.1839 42.2921C32.8375 43.4372 33.8577 45.038 34.4439 46.9534C34.6284 47.5542 34.4042 47.8878 33.7903 47.9489C31.6554 48.1603 29.6727 47.6969 27.8361 46.5679C27.7132 46.4923 27.5647 46.4526 27.4231 46.4167C27.1225 46.3411 26.8181 46.2793 26.4726 46.2022C26.4471 46.261 26.3991 46.3587 26.3616 46.4602C25.8669 47.7962 24.2912 48.3038 23.1465 47.4786C22.8384 47.2572 22.5446 47.1664 22.1698 47.2671C21.4104 47.471 20.7313 47.2839 20.1721 46.7213C20.0146 46.5625 19.9044 46.5656 19.723 46.6725C17.951 47.7153 16.0447 48.1489 14.0035 47.9527C13.3236 47.887 13.1107 47.5595 13.3191 46.8938C13.9855 44.7632 15.1811 43.0563 17.1279 41.9463C17.3955 41.7936 17.4345 41.4676 17.2906 41.1142C17.1256 40.7096 17.0027 40.2874 16.8483 39.8782C16.8123 39.7828 16.7403 39.6759 16.6564 39.6286C16.2628 39.4095 15.8588 39.2103 15.4353 38.9912C15.3843 39.082 15.3341 39.1637 15.2913 39.2492C14.8596 40.1042 14.053 40.5058 13.1137 40.3821C12.9023 40.3538 12.601 40.3981 12.4623 40.5355C11.4413 41.5493 9.64 41.1172 9.18498 39.8225C9.17299 39.7889 9.14076 39.763 9.11152 39.8462C8.63777 39.8798 8.15576 39.9882 7.69325 39.9294C6.88367 39.8271 6.25025 39.1217 6.10857 38.3064C6.01862 37.7858 5.63182 37.3781 5.10559 37.2682C3.29077 36.8896 1.75107 35.9918 0.422755 34.6971C-0.178435 34.1108 -0.140205 33.7688 0.558435 33.3298C1.78105 32.5611 3.10037 32.0947 4.54263 32.0298C4.73603 32.0214 4.85372 31.9802 4.93243 31.7702C5.10859 31.3015 5.45416 30.9862 5.88294 30.7343C6.08084 30.6175 6.29448 30.4076 6.35819 30.1953C6.82745 28.6319 8.04632 28.0868 9.50282 28.8479C9.55454 28.7739 9.61376 28.6983 9.66249 28.6174C10.3281 27.5044 11.7869 27.2853 12.7359 28.1563C13.3228 28.696 13.7239 28.6823 14.2981 28.1143C15.2479 27.1753 16.3708 26.5318 17.6234 26.1165C18.1346 25.947 18.4697 26.1929 18.5282 26.8005C18.7088 28.6762 18.4382 30.474 17.6219 32.1802C17.5229 32.3863 17.5492 32.6535 17.5124 32.8916C17.448 33.3115 17.4262 33.7459 17.298 34.1444C17.1998 34.4505 17.1429 34.7101 17.2606 35.0208C17.6983 36.1727 17.2651 37.2239 16.1631 37.7278C16.1212 37.7468 16.0807 37.7682 15.9487 37.8339C16.3933 38.0698 16.7718 38.2736 17.1556 38.4675C17.1954 38.4873 17.2763 38.4583 17.3213 38.427C17.7546 38.1255 18.1841 37.8194 18.6151 37.514C18.6384 37.54 18.6623 37.5652 18.6856 37.5911C18.6751 37.53 18.6706 37.4667 18.6541 37.4071C18.2471 35.9025 19.1736 34.6039 20.6908 34.5719C21.0416 34.5642 21.3055 34.4398 21.5371 34.1696C22.5363 33.0046 24.1742 33.1375 25.0063 34.4398C25.0333 34.4818 25.0603 34.5238 25.1038 34.5917C25.1907 34.536 25.2724 34.4879 25.3496 34.4345C26.5048 33.6344 28.0962 34.152 28.5527 35.4986C28.6862 35.8918 28.8916 36.1414 29.2731 36.3025C30.0565 36.6346 30.471 37.2667 30.5617 38.1224C30.5737 38.2339 30.5812 38.3453 30.5954 38.5148C30.935 38.3415 31.2379 38.1866 31.4717 38.0675C31.1906 37.6148 30.8451 37.2232 30.6951 36.7651C30.5744 36.3972 30.7041 35.9483 30.6966 35.5361C30.6921 35.2704 30.7124 34.9643 30.5947 34.7475C30.2334 34.0841 30.1786 33.4352 30.4695 32.7374C30.522 32.6115 30.507 32.4107 30.444 32.2863C29.6037 30.6343 29.3316 28.8739 29.45 27.0356C29.4583 26.9089 29.471 26.7814 29.495 26.657C29.5895 26.17 29.9163 25.9585 30.3728 26.1119C31.7836 26.5875 33.0407 27.3212 34.0287 28.4724C34.2251 28.7006 34.3615 28.7449 34.5519 28.4892C35.3847 27.3708 37.1598 27.4799 37.8599 28.7121C37.8719 28.7334 37.8914 28.751 37.9214 28.7876C38.0091 28.7388 38.0946 28.6945 38.1763 28.6449C39.2722 27.9731 40.6747 28.454 41.1133 29.6778C41.2437 30.0419 41.4318 30.2763 41.7909 30.4221C42.3704 30.6572 42.7489 31.1106 42.9003 31.7275C42.9588 31.9657 43.0645 32.0229 43.2841 32.0275C44.8643 32.0565 46.2946 32.5726 47.6124 33.4382C48.0809 33.7459 48.1311 34.1337 47.7338 34.5383C46.3013 35.9994 44.6132 36.988 42.5952 37.3132C42.2129 37.3751 42.1342 37.556 42.102 37.8812C41.9821 39.0897 41.0211 39.8775 39.8442 39.7347C39.6373 39.7095 39.4364 39.6362 39.2167 39.5813L39.216 39.5843ZM24.2245 46.6274C24.8916 46.6343 25.2987 46.1976 25.2282 45.6358C25.1742 45.209 25.061 44.7899 24.9688 44.3678C24.8931 44.0181 24.9651 43.7227 25.3002 43.5654C25.6188 43.4158 25.8826 43.5395 26.0858 43.8135C26.3189 44.1281 26.5513 44.4433 26.7852 44.7571C27.028 45.0831 27.3421 45.219 27.7387 45.1098C28.127 45.0021 28.3788 44.7143 28.3946 44.28C28.4223 43.5196 28.7469 42.9524 29.3556 42.5226C29.7064 42.2745 29.8113 41.9043 29.6981 41.5142C29.594 41.1562 29.3001 40.9241 28.8893 40.8829C28.5168 40.8462 28.1434 40.8149 27.7701 40.7821C27.4186 40.7508 27.1645 40.5783 27.121 40.2118C27.0797 39.8622 27.2754 39.6416 27.5985 39.5317C27.965 39.4065 28.3324 39.2813 28.6944 39.1439C29.1037 38.9881 29.3203 38.6851 29.3271 38.2889C29.3338 37.8927 29.1337 37.5881 28.7162 37.4224C28.0527 37.1598 27.6262 36.6918 27.4193 35.9964C27.2866 35.5498 27.0175 35.3429 26.615 35.32C26.2102 35.2971 25.9298 35.4757 25.7387 35.8987C25.5723 36.2681 25.4254 36.6468 25.2597 37.017C25.1255 37.3178 24.8931 37.4674 24.5655 37.3957C24.2425 37.3247 24.0805 37.1086 24.0753 36.7689C24.0693 36.362 24.0686 35.9544 24.0461 35.5483C24.0198 35.0795 23.8174 34.7994 23.4434 34.6788C23.0378 34.5482 22.7073 34.6658 22.4464 35.0009C22.0041 35.5696 21.4277 35.833 20.7163 35.8193C20.2688 35.8109 19.9779 36.0139 19.8377 36.3911C19.6976 36.7682 19.7868 37.1163 20.1151 37.4216C20.4104 37.6957 20.7185 37.956 21.0116 38.2324C21.2493 38.456 21.3175 38.7354 21.1518 39.0263C20.9876 39.3149 20.726 39.3981 20.4097 39.3004C20.0274 39.182 19.6421 39.0744 19.2628 38.9477C18.8692 38.8164 18.5477 38.9202 18.2898 39.2332C18.0327 39.5446 18.0064 39.9202 18.2411 40.2943C18.6301 40.9149 18.7261 41.5554 18.4832 42.2585C18.331 42.6997 18.4457 43.0708 18.7733 43.3135C19.1159 43.5685 19.4712 43.5448 19.825 43.3296C20.1571 43.1273 20.4891 42.9242 20.822 42.7234C21.1083 42.5509 21.3834 42.586 21.6053 42.8272C21.8302 43.0715 21.825 43.3578 21.6451 43.6319C21.4509 43.9281 21.244 44.2151 21.0454 44.5082C20.7245 44.9808 20.6878 45.3487 20.9367 45.7037C21.2185 46.106 21.6053 46.1434 22.0401 46.0251C22.6615 45.8564 23.22 45.9999 23.7402 46.3747C23.9171 46.5022 24.1293 46.5786 24.2245 46.6274ZM10.67 30.2732H10.673C10.6827 30.4633 10.6955 30.6541 10.703 30.8442C10.7157 31.174 10.5853 31.4267 10.2697 31.5206C9.93834 31.6183 9.68498 31.4748 9.52306 31.1679C9.34615 30.832 9.17974 30.49 8.99533 30.1587C8.83342 29.8686 8.57855 29.7129 8.24872 29.7571C7.90989 29.803 7.66852 29.9984 7.59955 30.3526C7.46387 31.0503 7.09431 31.5542 6.45789 31.858C6.12881 32.0153 5.97364 32.2924 6.01937 32.6634C6.06359 33.0191 6.28173 33.2298 6.61156 33.3222C6.94814 33.4161 7.28771 33.5016 7.62579 33.5879C7.96761 33.6757 8.18875 33.878 8.17001 34.2551C8.15202 34.6154 7.91289 34.7872 7.58831 34.8513C7.24498 34.9192 6.90166 34.9826 6.55684 35.0414C6.21127 35.1002 5.98638 35.2933 5.92042 35.646C5.85295 36.0078 5.96764 36.3056 6.29073 36.4872C6.89417 36.827 7.224 37.3461 7.31395 38.0354C7.36267 38.4041 7.56582 38.6408 7.92563 38.7148C8.27195 38.7866 8.53507 38.6431 8.72172 38.3461C8.91737 38.0354 9.10402 37.7201 9.30417 37.4132C9.47808 37.1461 9.71796 36.9964 10.038 37.1102C10.3686 37.2277 10.4878 37.4926 10.4466 37.8362C10.4061 38.1766 10.3641 38.5171 10.3132 38.8568C10.2554 39.2454 10.3401 39.5698 10.703 39.763C11.0478 39.9469 11.3514 39.8508 11.6287 39.5981C12.107 39.1622 12.6647 39.0026 13.2951 39.1347C13.6564 39.2103 13.9405 39.0965 14.1339 38.7843C14.3416 38.4484 14.2726 38.1308 14.032 37.8369C13.7996 37.5537 13.5672 37.2712 13.3416 36.9834C13.1384 36.7239 13.116 36.4407 13.3199 36.1788C13.5222 35.9193 13.7921 35.8658 14.0912 36.0155C14.4158 36.1781 14.7411 36.3399 15.0664 36.501C15.3903 36.6613 15.6999 36.6498 15.9645 36.3857C16.2119 36.1399 16.2801 35.8399 16.1331 35.5132C15.8415 34.8658 15.8618 34.2375 16.1999 33.6115C16.3768 33.284 16.3213 32.9665 16.0739 32.6977C15.8318 32.4344 15.532 32.4084 15.2126 32.5344C14.8985 32.6588 14.5867 32.7878 14.2741 32.9153C13.9518 33.0466 13.6497 33.0359 13.4413 32.7207C13.2344 32.4069 13.3311 32.1183 13.5747 31.8618C13.8348 31.5878 14.0987 31.316 14.3453 31.0297C14.553 30.7885 14.5919 30.5076 14.4488 30.2129C14.3011 29.9098 14.0582 29.735 13.7269 29.7739C13.002 29.8594 12.4053 29.6381 11.9083 29.0938C11.6842 28.8479 11.3926 28.7991 11.083 28.9388C10.7749 29.0785 10.6317 29.3312 10.6302 29.6648C10.6295 29.8678 10.655 30.0709 10.6692 30.2732H10.67ZM41.7302 32.2893C41.7369 31.9473 41.593 31.6817 41.2827 31.5641C40.5975 31.3053 40.1643 30.8343 39.9611 30.1198C39.8689 29.7961 39.6275 29.6236 39.291 29.6045C38.9386 29.5846 38.689 29.7426 38.5466 30.0679C38.4042 30.3931 38.273 30.7228 38.1343 31.0488C37.9971 31.3702 37.7745 31.5893 37.4102 31.516C37.0526 31.4443 36.9102 31.174 36.9049 30.8137C36.8997 30.4198 36.8944 30.0251 36.8667 29.6327C36.8435 29.306 36.6403 29.0991 36.3465 28.9983C36.0459 28.8945 35.7633 28.964 35.5676 29.2167C35.1156 29.7999 34.5414 30.0762 33.8098 30.0488C33.4807 30.0366 33.2281 30.2144 33.1141 30.532C32.9979 30.8572 33.0594 31.1603 33.3248 31.3992C33.5864 31.6351 33.8495 31.8702 34.1126 32.1046C34.3705 32.3351 34.5084 32.6008 34.3323 32.9451C34.1786 33.2451 33.8922 33.3352 33.4852 33.2146C33.1621 33.1184 32.8413 33.0138 32.5197 32.9107C32.1846 32.8039 31.899 32.8848 31.6801 33.1611C31.4605 33.4382 31.4335 33.7474 31.6314 34.0451C32.0249 34.6368 32.0999 35.2628 31.8705 35.933C31.7491 36.2872 31.836 36.5872 32.1224 36.817C32.3998 37.0399 32.7003 37.03 32.9972 36.8575C33.3008 36.6811 33.5961 36.4903 33.8997 36.314C34.2348 36.1193 34.5347 36.1513 34.7445 36.4078C34.9709 36.685 34.9319 36.9682 34.74 37.2468C34.5392 37.5384 34.3338 37.8262 34.1381 38.1217C33.9455 38.4125 33.9252 38.7164 34.1239 39.0133C34.321 39.3087 34.6074 39.421 34.9417 39.3309C35.6156 39.1484 36.2228 39.2484 36.776 39.6927C37.0489 39.9111 37.3524 39.924 37.65 39.7355C37.9521 39.5439 38.0421 39.2545 37.9731 38.9095C37.9012 38.5484 37.8247 38.1881 37.743 37.8301C37.6658 37.4903 37.7535 37.2193 38.0668 37.0621C38.3892 36.9002 38.6493 37.0308 38.8539 37.2964C39.0623 37.5659 39.2647 37.8407 39.4619 38.1194C39.6815 38.4293 39.9686 38.5835 40.3359 38.4759C40.6995 38.369 40.8711 38.1003 40.8899 37.7079C40.9214 37.0598 41.1987 36.5353 41.7309 36.1674C42.0608 35.9391 42.192 35.6361 42.0788 35.2467C41.9678 34.865 41.6755 34.7223 41.3104 34.691C40.9873 34.6635 40.6642 34.6307 40.3404 34.6017C40.0031 34.5711 39.77 34.4116 39.725 34.0528C39.68 33.6947 39.8614 33.4741 40.1815 33.3596C40.5226 33.2375 40.8666 33.1237 41.2077 33.0001C41.5345 32.8817 41.7219 32.6519 41.7287 32.2886L41.7302 32.2893ZM14.7014 46.6816C14.8153 46.7015 14.8633 46.7183 14.9105 46.7175C16.418 46.687 17.843 46.348 19.1601 45.5709C19.4794 45.3823 19.5934 45.1571 19.5206 44.809C18.1519 44.6372 17.885 44.3578 17.2471 43.3555C16.0454 44.1693 15.2464 45.2907 14.7014 46.6816ZM30.3376 43.2456C30.1007 43.5402 29.7304 43.7998 29.6734 44.1166C29.5647 44.725 29.45 45.3022 29.0108 45.8098C30.3053 46.4404 31.6112 46.7389 33.0557 46.7114C32.4792 45.2503 31.6546 44.1113 30.3368 43.2456H30.3376ZM5.45566 34.168C5.275 33.907 5.14907 33.6848 4.9834 33.4985C4.89045 33.3947 4.73078 33.2856 4.60485 33.2894C3.63035 33.3199 2.71132 33.5848 1.84252 34.0337C1.7863 34.0627 1.72633 34.0848 1.62663 34.1276C2.57564 34.9269 3.51416 35.4979 4.63633 35.8521C4.68655 35.1536 4.92493 34.5841 5.45566 34.1673V34.168ZM46.3486 34.1459C45.2991 33.5581 44.2519 33.2993 43.1402 33.2695C42.8014 33.2604 42.5653 33.3749 42.4348 33.7474C43.1335 34.236 43.4108 34.9582 43.3673 35.8574C44.4955 35.4872 45.4408 34.933 46.3478 34.1459H46.3486ZM16.5814 31.4465C17.1549 30.2434 17.3753 28.9686 17.3423 27.5746C16.4825 27.9281 15.7771 28.3975 15.1422 29.048C15.7126 29.6709 15.8745 30.3854 15.6886 31.1679C15.999 31.2649 16.2696 31.3496 16.5814 31.4465ZM31.9485 31.5794C31.6314 30.5099 31.938 29.6671 32.803 29.0304C32.372 28.4754 31.2513 27.7395 30.6614 27.6288C30.6239 28.9518 30.8653 30.206 31.3908 31.4114C31.5175 31.7008 31.6629 31.7779 31.9485 31.5794Z" fill="#7488A6"/>
<path d="M45.442 22.5408C45.7629 23.0454 45.9285 23.5866 45.7696 24.1973C45.589 24.8913 45.1632 25.3348 44.5148 25.6058C44.3079 25.6921 44.086 25.8829 43.9923 26.0852C43.4158 27.3173 42.1782 27.6792 41.0598 26.9127C41.0193 26.8853 40.9751 26.8631 40.9961 26.8753C40.6175 27.1204 40.2997 27.3998 39.9309 27.5494C39.1625 27.8601 38.3237 27.5517 37.7855 26.8914C37.6356 26.7074 37.377 26.5417 37.1491 26.5104C35.8433 26.328 35.1109 25.1989 35.4947 23.9042C35.5082 23.8576 35.5134 23.808 35.5247 23.7477C35.44 23.7042 35.3642 23.6622 35.2863 23.6256C34.1926 23.111 33.8185 21.7957 34.488 20.7674C34.6484 20.5208 34.7376 20.2911 34.6739 19.9865C34.3995 18.6765 35.2046 17.6299 36.5194 17.568C36.5801 17.565 36.6401 17.5596 36.6918 17.5558C36.7593 17.2672 36.79 16.9855 36.8905 16.7329C37.2503 15.8229 38.224 15.3381 39.1663 15.6168C39.4984 15.7145 39.76 15.6763 40.0493 15.5015C40.6445 15.1419 41.2682 15.1389 41.8664 15.4878C42.0943 15.6206 42.2352 15.5801 42.4309 15.4397C43.5808 14.6137 44.8723 14.1793 46.2681 14.0625C46.8468 14.0144 47.1092 14.293 47.0387 14.8847C46.8701 16.3054 46.4308 17.6329 45.6782 18.8467C45.568 19.0246 45.5103 19.1452 45.7014 19.3315C46.6954 20.2964 46.6189 21.5606 45.5335 22.4423C45.505 22.4652 45.4833 22.4965 45.4413 22.5415L45.442 22.5408ZM37.4354 22.2263C37.5531 22.3194 37.7862 22.4308 37.9054 22.6179C38.0599 22.8606 37.9916 23.1454 37.766 23.3393C37.4797 23.5843 37.1723 23.8042 36.8777 24.0401C36.6326 24.2355 36.5681 24.4974 36.6566 24.792C36.7428 25.0783 36.9444 25.2272 37.239 25.2432C37.8777 25.2791 38.3897 25.5493 38.7525 26.0951C38.9347 26.3684 39.1858 26.4707 39.5006 26.3799C39.8057 26.2921 39.9361 26.0616 39.9654 25.757C39.9976 25.415 40.0193 25.0722 40.0636 24.7317C40.1056 24.4088 40.2795 24.1813 40.613 24.1523C40.9376 24.1241 41.1603 24.2859 41.2682 24.6042C41.3784 24.9287 41.4961 25.2501 41.6025 25.5753C41.7015 25.8761 41.9031 26.0448 42.2097 26.0516C42.5148 26.0585 42.7329 25.9074 42.8409 25.6089C43.0643 24.9936 43.4826 24.5905 44.1025 24.4073C44.4196 24.3134 44.5845 24.0905 44.5957 23.7668C44.6062 23.4546 44.4398 23.2439 44.1572 23.1225C43.8469 22.9889 43.5358 22.8561 43.2322 22.7072C42.9451 22.5667 42.7802 22.3293 42.8559 21.9972C42.9293 21.6743 43.158 21.5117 43.4848 21.5041C43.8221 21.4957 44.1595 21.4949 44.496 21.4804C44.7974 21.4674 45.0223 21.3323 45.1235 21.0277C45.2232 20.7262 45.143 20.4659 44.9068 20.2758C44.3858 19.8559 44.1572 19.3101 44.1737 18.6436C44.1812 18.3429 44.0403 18.1238 43.7734 18.0138C43.4923 17.8986 43.2352 17.9612 43.029 18.2024C42.7997 18.4711 42.5748 18.7444 42.3349 19.0024C42.1138 19.2399 41.8432 19.3101 41.5546 19.1368C41.2697 18.965 41.1917 18.6994 41.2862 18.3803C41.3791 18.0635 41.4728 17.7474 41.571 17.4321C41.667 17.1245 41.634 16.8527 41.3724 16.6428C41.113 16.4344 40.8477 16.4474 40.5756 16.6275C40.0493 16.9756 39.4886 17.052 38.8949 16.8321C38.6063 16.7252 38.3507 16.7733 38.1498 17.0146C37.9392 17.2672 37.9279 17.5421 38.0958 17.826C38.2375 18.0658 38.3754 18.307 38.5149 18.5482C38.7682 18.9872 38.7697 19.2765 38.5209 19.5185C38.2645 19.7681 37.9931 19.7513 37.5771 19.4582C37.341 19.2918 37.1078 19.12 36.871 18.9559C36.6311 18.7902 36.3822 18.7688 36.1356 18.9391C35.8807 19.1154 35.7803 19.3643 35.8597 19.6681C36.0292 20.3132 35.9325 20.8995 35.5262 21.4323C35.3373 21.6797 35.3253 21.9507 35.4917 22.2148C35.6588 22.4812 35.9032 22.5644 36.2053 22.495C36.5704 22.411 36.9369 22.3347 37.4347 22.2263H37.4354ZM45.7411 15.4618C44.8274 15.4534 43.104 16.2718 42.8649 16.8C43.7059 16.5748 44.4286 16.7657 45.0725 17.468C45.3056 16.7695 45.5155 16.1397 45.7411 15.4618Z" fill="#7488A6"/>
<path d="M8.15343 26.8593C7.83485 27.0891 7.56724 27.3509 7.2494 27.499C6.43682 27.8769 5.53878 27.599 4.96458 26.8906C4.82065 26.7135 4.58153 26.5432 4.36564 26.5119C3.01034 26.3127 2.30045 25.2455 2.66776 23.9057C2.68051 23.8584 2.69175 23.8103 2.70899 23.7431C2.06508 23.4881 1.59582 23.069 1.41066 22.3713C1.25399 21.7819 1.3342 21.2315 1.68427 20.7392C1.86868 20.4796 1.89716 20.2353 1.84244 19.9208C1.78772 19.6055 1.85443 19.2696 1.85293 18.9421C1.85219 18.7627 1.86868 18.5566 1.79222 18.4085C1.236 17.3413 0.880687 16.2122 0.710525 15.019C0.606328 14.29 0.849953 14.0022 1.56059 14.0694C2.86191 14.1915 4.06804 14.6037 5.17297 15.3252C5.34763 15.4389 5.58151 15.4603 5.7884 15.5213C6.44357 15.716 7.03201 15.5847 7.67818 15.3374C8.60095 14.9847 9.5762 15.5794 9.93077 16.529C9.96075 16.6099 9.99074 16.6916 10.023 16.7779C10.2726 16.7512 10.5057 16.7016 10.7381 16.7054C11.7238 16.7206 12.5492 17.5352 12.5776 18.5467C12.5881 18.9078 12.7036 19.162 12.9652 19.404C13.81 20.1872 13.7665 21.5468 12.894 22.3003C12.8093 22.3736 12.7216 22.443 12.6174 22.5278C12.9225 23.0209 13.0979 23.5393 12.9667 24.1233C12.8108 24.818 12.4255 25.3203 11.7591 25.5608C11.4712 25.6646 11.2726 25.8089 11.1451 26.1119C10.6436 27.3021 9.32283 27.6715 8.27187 26.9372C8.2224 26.9028 8.17142 26.87 8.15493 26.8593H8.15343ZM4.61901 22.224C4.74644 22.3339 4.97507 22.4621 5.10401 22.6591C5.26068 22.8996 5.14673 23.1614 4.94134 23.3393C4.64749 23.5942 4.32666 23.8179 4.02981 24.0698C3.80868 24.2569 3.69249 24.5286 3.84466 24.7813C3.9601 24.9729 4.18348 25.1974 4.37988 25.2195C5.05978 25.2974 5.59201 25.5707 5.97656 26.1516C6.14297 26.4028 6.39559 26.4608 6.6737 26.3822C6.95705 26.3012 7.10997 26.1005 7.13846 25.8043C7.17144 25.463 7.19768 25.1203 7.23141 24.779C7.26514 24.437 7.4323 24.1981 7.77938 24.1538C8.10846 24.1126 8.33034 24.2866 8.44278 24.5943C8.56047 24.9157 8.66317 25.2424 8.77261 25.5661C8.87156 25.8592 9.06496 26.0417 9.37605 26.0531C9.70213 26.0646 9.92177 25.8913 10.0327 25.5859C10.2516 24.9806 10.6669 24.5943 11.2696 24.4118C11.5837 24.3172 11.7538 24.105 11.7658 23.7759C11.7771 23.4614 11.6271 23.2477 11.3415 23.1248C11.0312 22.9919 10.7224 22.8553 10.4158 22.7125C10.1182 22.5736 9.98024 22.3301 10.0425 22.0018C10.1054 21.6659 10.3378 21.5163 10.6616 21.5048C10.9862 21.4941 11.3108 21.4934 11.6354 21.4842C11.9495 21.4758 12.1946 21.3552 12.301 21.0315C12.4052 20.7155 12.3123 20.4597 12.0619 20.2536C11.5724 19.8513 11.3355 19.3284 11.355 18.6871C11.3648 18.3558 11.2276 18.1131 10.9248 18.0016C10.6384 17.8955 10.3873 17.9848 10.1871 18.2245C9.97649 18.4764 9.76435 18.7261 9.54471 18.9696C9.31983 19.22 9.04847 19.3223 8.73963 19.1421C8.43229 18.962 8.38356 18.6726 8.47577 18.3474C8.56872 18.0176 8.66992 17.6909 8.76287 17.3611C8.84907 17.0573 8.75912 16.8069 8.5125 16.6222C8.27412 16.4435 8.023 16.4512 7.77863 16.6145C7.24115 16.9741 6.67145 17.0527 6.06426 16.8306C5.77341 16.7245 5.51929 16.7809 5.32214 17.0237C5.1145 17.2802 5.1205 17.5596 5.27942 17.8398C5.44808 18.1367 5.62499 18.4291 5.7914 18.7268C5.95257 19.0162 5.93083 19.2948 5.68571 19.5231C5.43983 19.7521 5.16697 19.7467 4.89711 19.5582C4.61901 19.3643 4.34615 19.1635 4.06879 18.9681C3.81842 18.791 3.56055 18.7673 3.30119 18.9475C3.04332 19.1269 2.95637 19.3857 3.03582 19.6818C3.20898 20.3292 3.10329 20.9109 2.697 21.4415C2.50735 21.6896 2.50585 21.9652 2.67226 22.224C2.84092 22.4873 3.09055 22.5637 3.39189 22.4934C3.7562 22.4079 4.12276 22.3316 4.61826 22.2232L4.61901 22.224ZM3.89038 17.5199C3.92936 17.3115 3.95185 17.0955 4.01407 16.8924C4.07929 16.6794 4.18348 16.4786 4.26819 16.2779C3.75545 15.8603 2.58606 15.4305 1.97587 15.4801C2.24648 16.2 2.50135 16.8924 2.77271 17.5787C2.79595 17.6375 2.93463 17.6879 3.01184 17.6779C3.29369 17.6428 3.5718 17.5802 3.89113 17.5199H3.89038Z" fill="#7488A6"/>
<path d="M22.1188 2.44899C22.4149 1.96423 22.8369 1.60009 23.4067 1.59398C23.7845 1.59017 24.163 1.77567 24.5431 1.86804C24.7372 1.91537 24.9351 1.9566 25.1338 1.97415C25.2807 1.98713 25.4441 1.91308 25.5775 1.95354C25.9561 2.06881 26.1967 1.88865 26.4666 1.65276C27.3459 0.884026 28.3788 0.419118 29.5085 0.177122C30.0272 0.0656659 30.3616 0.358046 30.3473 0.903874C30.3091 2.37417 29.9006 3.70324 28.9156 4.81933C28.8219 4.92544 28.7956 5.10331 28.7649 5.2537C28.6382 5.87892 28.7424 6.45986 28.9321 7.07821C29.1599 7.81871 28.7252 8.53706 28.022 8.8928C27.8609 8.97372 27.7761 9.02945 27.8039 9.25236C27.9298 10.2639 27.2387 11.0799 26.2312 11.1883C26.031 11.2097 25.8002 11.312 25.6585 11.454C24.9554 12.1601 23.9089 12.1823 23.2177 11.4601C23.0716 11.3074 22.9749 11.2815 22.7747 11.3693C21.8437 11.7784 20.9044 11.3479 20.5109 10.3845C20.4427 10.2173 20.2853 10.0463 20.1263 9.96537C19.2006 9.49588 18.873 8.50576 19.3355 7.55076C19.3835 7.45075 19.3692 7.25303 19.3018 7.17211C18.828 6.60567 18.7126 5.9919 18.9622 5.28882C19.0034 5.17202 18.9547 4.96972 18.873 4.86895C17.9292 3.70401 17.5402 2.35661 17.5777 0.867994C17.5971 0.079407 17.9345 -0.151138 18.6728 0.0939116C19.9592 0.520649 21.0716 1.21534 21.9314 2.29783C21.9629 2.33753 21.9966 2.37494 22.0334 2.40929C22.0498 2.42456 22.0761 2.4299 22.1196 2.44975L22.1188 2.44899ZM23.4179 4.43534C23.3122 4.56512 23.196 4.79337 23.0116 4.91551C22.7627 5.07964 22.4989 4.97353 22.3107 4.74986C22.1158 4.51855 21.9636 4.24678 21.7515 4.03608C21.6466 3.9315 21.4262 3.84905 21.3002 3.89028C21.1743 3.9315 21.0296 4.13227 21.0161 4.27579C20.9637 4.83154 20.7313 5.25675 20.3033 5.60486C20.1826 5.70334 20.0656 5.95602 20.1098 6.07817C20.1631 6.22703 20.373 6.36368 20.5409 6.41253C20.7882 6.48429 21.0604 6.46673 21.3197 6.49956C21.6271 6.53849 21.8287 6.71178 21.8677 7.03241C21.9082 7.36678 21.756 7.59656 21.4472 7.71259C21.178 7.81413 20.8939 7.88359 20.6413 8.0149C20.5169 8.07979 20.3715 8.25537 20.373 8.37827C20.3752 8.52103 20.4967 8.73631 20.6218 8.79127C21.1511 9.02411 21.4951 9.39435 21.6863 9.94934C21.732 10.0814 21.9277 10.2333 22.0596 10.2394C22.193 10.2455 22.3797 10.1112 22.4614 9.98446C22.6031 9.7646 22.6863 9.50428 22.7875 9.25847C22.9194 8.93708 23.1435 8.75768 23.4891 8.83326C23.8227 8.90578 23.9928 9.14167 23.9981 9.49283C24.0018 9.76002 23.9734 10.0326 24.0191 10.2913C24.0461 10.4425 24.1638 10.6433 24.2889 10.6906C24.4141 10.7387 24.6563 10.6753 24.747 10.5707C25.1195 10.1425 25.5603 9.92797 26.124 9.90888C26.2717 9.90354 26.4928 9.75239 26.5363 9.61956C26.5805 9.4852 26.4838 9.25847 26.3804 9.12869C26.217 8.92487 25.9921 8.77219 25.8009 8.58974C25.5618 8.36224 25.5041 8.09277 25.6697 7.7981C25.8376 7.50037 26.1023 7.43167 26.4119 7.52022C26.6637 7.59198 26.9088 7.7103 27.1645 7.7416C27.3249 7.76145 27.5528 7.70572 27.6517 7.59427C27.7342 7.50113 27.7357 7.24005 27.6652 7.11638C27.3834 6.62247 27.3174 6.12931 27.4756 5.57814C27.5168 5.43462 27.4411 5.18576 27.3309 5.08804C27.2379 5.0056 26.998 5.02468 26.8571 5.08346C26.6053 5.18805 26.3826 5.36286 26.142 5.49722C25.8549 5.65677 25.582 5.62547 25.3616 5.37432C25.151 5.13461 25.1592 4.8636 25.3249 4.601C25.4666 4.37656 25.6547 4.17655 25.7604 3.93684C25.8324 3.775 25.8669 3.52385 25.7897 3.38796C25.726 3.27574 25.4591 3.20246 25.3092 3.23605C24.7822 3.35437 24.3309 3.23834 23.8864 2.94519C23.7567 2.85969 23.4891 2.82458 23.3894 2.90321C23.2687 2.99863 23.2043 3.24368 23.2147 3.41773C23.2327 3.71851 23.3272 4.01395 23.4156 4.43381L23.4179 4.43534ZM29.0452 1.60696C28.8129 1.6978 28.6569 1.74208 28.5168 1.81689C28.1982 1.98789 27.8736 2.15431 27.5753 2.3589C26.9523 2.78717 26.9501 2.80702 27.1375 3.52079C27.1607 3.60858 27.2537 3.70401 27.3384 3.74294C27.495 3.8147 27.6667 3.8605 27.8361 3.8918C27.9186 3.90707 28.0483 3.89562 28.094 3.84218C28.618 3.2246 28.9253 2.507 29.046 1.60696H29.0452ZM18.8955 1.44054C18.7965 2.25203 19.2845 3.51927 19.7208 3.85134C20.0072 3.46659 20.2928 3.08184 20.6331 2.6238C20.1016 2.26195 19.5334 1.87491 18.8955 1.43978V1.44054Z" fill="#7488A6"/>
<path d="M13.9447 15.6969C13.1238 16.5115 12.1688 16.6977 11.4589 16.0473C10.9979 15.6244 10.5204 15.3885 9.94622 15.1969C9.06392 14.9022 8.71985 13.9808 8.97247 12.864C8.87352 12.8075 8.76708 12.7479 8.66138 12.6876C7.76634 12.1723 7.47399 10.986 8.04745 10.1142C8.21236 9.86307 8.29482 9.63634 8.19812 9.33556C8.14565 9.17296 8.12241 8.96608 8.17413 8.80958C8.31731 8.37827 8.13365 8.02863 7.99423 7.64922C7.49873 6.30259 7.4545 4.9178 7.72661 3.51926C7.84655 2.90396 8.21012 2.72991 8.77457 2.99328C9.81579 3.48032 10.6883 4.17578 11.3645 5.12773C11.4462 5.243 11.6366 5.29873 11.788 5.33919C12.4027 5.50103 12.9664 5.3911 13.5751 5.16361C14.4304 4.84375 15.2677 5.41171 15.7137 6.45756C15.8637 6.44459 16.0218 6.42626 16.1808 6.41863C17.1508 6.37435 17.9618 7.08278 18.0316 8.06985C18.0555 8.40727 18.147 8.65614 18.3989 8.89661C19.1635 9.62718 19.1117 10.8601 18.3187 11.5654C18.2534 11.6235 18.1867 11.6792 18.1807 11.6838C18.2737 12.1258 18.4326 12.5182 18.4214 12.9052C18.3966 13.6999 17.9716 14.2472 17.2347 14.5511C17.0578 14.6236 16.8652 14.7793 16.7834 14.9488C16.234 16.0855 15.1238 16.426 14.0653 15.7572C14.0346 15.7374 13.9994 15.7244 13.9447 15.6977V15.6969ZM15.141 14.974C15.3509 14.7557 15.5541 14.6297 15.632 14.448C15.8629 13.9106 16.2227 13.548 16.7745 13.3777C17.0226 13.3014 17.2362 13.1304 17.1792 12.8632C17.1365 12.6601 16.9768 12.4403 16.8067 12.3181C16.5773 12.1533 16.2865 12.0784 16.0256 11.9571C15.7317 11.8204 15.5743 11.5883 15.6343 11.2555C15.6973 10.9036 15.9386 10.7456 16.2767 10.7341C16.5766 10.7242 16.8854 10.77 17.1725 10.7059C17.3607 10.6639 17.5953 10.502 17.662 10.3341C17.7205 10.1852 17.6343 9.88368 17.5076 9.76993C17.0436 9.35312 16.8299 8.85691 16.7992 8.23246C16.7902 8.04924 16.6133 7.78282 16.4536 7.7248C16.2947 7.66678 16.0226 7.77289 15.8689 7.8958C15.6373 8.08054 15.4694 8.34773 15.2662 8.5714C15.0473 8.8134 14.782 8.8905 14.4904 8.72408C14.2003 8.55919 14.1186 8.29124 14.204 7.9729C14.2857 7.66678 14.4244 7.36829 14.4544 7.05759C14.4739 6.86216 14.3952 6.58429 14.258 6.46672C14.1388 6.36443 13.8322 6.3568 13.6853 6.44306C13.1501 6.75681 12.6201 6.81331 12.0294 6.64154C11.866 6.59421 11.5699 6.67971 11.4777 6.80949C11.3735 6.95682 11.369 7.24462 11.4335 7.43089C11.5302 7.71335 11.7251 7.96069 11.8765 8.22406C12.0496 8.52484 12.0414 8.81645 11.782 9.05387C11.5369 9.27754 11.2558 9.26151 10.9882 9.08059C10.7491 8.91951 10.5159 8.74775 10.2828 8.57751C10.0714 8.42331 9.85402 8.37063 9.62464 8.53247C9.4005 8.69049 9.34428 8.9134 9.41325 9.17143C9.56467 9.73711 9.44698 10.2364 9.13514 10.7288C9.02944 10.8959 8.99796 11.228 9.09391 11.3792C9.18836 11.5288 9.48746 11.6067 9.6951 11.6044C9.97546 11.6006 10.2558 11.4922 10.5347 11.425C10.86 11.3471 11.1059 11.4639 11.2528 11.7593C11.4027 12.0616 11.33 12.3227 11.0594 12.5288C10.839 12.696 10.6314 12.88 10.4095 13.0449C10.1749 13.2197 10.0482 13.4335 10.1351 13.732C10.2198 14.0236 10.453 14.0999 10.7176 14.1198C11.264 14.1602 11.6906 14.4152 12.0032 14.8702C12.1628 15.1022 12.3937 15.2595 12.6373 15.1183C12.812 15.0167 12.9559 14.7816 13.0181 14.5755C13.0976 14.3144 13.0811 14.0228 13.1051 13.7442C13.1343 13.3953 13.309 13.1655 13.6561 13.1273C14.0069 13.0884 14.2145 13.2945 14.3277 13.6144C14.4289 13.9014 14.4941 14.2068 14.6351 14.4724C14.728 14.648 14.9252 14.7664 15.1425 14.9732L15.141 14.974ZM8.85029 4.45671C8.7296 5.40866 8.83454 6.28656 9.12689 7.14462C9.14638 7.20187 9.23334 7.27821 9.28281 7.2744C9.51669 7.25455 9.74982 7.21638 9.97995 7.16981C10.0729 7.15073 10.4155 5.95372 10.357 5.86746C9.96946 5.29873 9.48746 4.83459 8.85029 4.45594V4.45671Z" fill="#7488A6"/>
<path d="M30.1301 12.8327C29.5409 12.6105 29.1421 12.1922 28.9795 11.5746C28.8363 11.0303 28.9413 10.528 29.2351 10.044C29.34 9.87147 29.3925 9.61268 29.3573 9.41343C29.1496 8.23857 29.8175 7.30952 30.9779 7.17592C31.0814 7.16371 31.2328 7.03241 31.2568 6.93011C31.5492 5.68272 32.4255 5.13766 33.6323 5.44302C33.8025 5.48577 34.0086 5.40179 34.1945 5.35981C34.5656 5.2766 34.9299 5.13919 35.304 5.10712C35.5229 5.08804 35.6653 5.05521 35.8025 4.87429C36.4404 4.03074 37.2612 3.42155 38.208 2.98412C38.7514 2.73296 39.1105 2.90473 39.2312 3.50399C39.4748 4.71626 39.4088 5.91632 39.1622 7.13241C39.04 7.73397 39.058 8.39736 39.585 8.91112C40.3226 9.63024 40.2769 10.8311 39.5198 11.5288C39.4463 11.5967 39.3706 11.6609 39.2822 11.7395C39.3256 11.8334 39.3661 11.9227 39.4088 12.0113C39.8871 13.009 39.4306 14.1411 38.4066 14.545C38.2365 14.6122 38.0431 14.745 37.9628 14.9022C37.3317 16.1382 36.3242 16.4351 35.1226 15.6977C35.0641 15.7511 34.9981 15.8053 34.9382 15.8657C34.1481 16.6634 32.9389 16.5825 32.2328 15.7069C32.1046 15.5481 31.8872 15.4038 31.6916 15.3702C30.4615 15.1603 29.8453 14.2648 30.1017 13.0121C30.1114 12.964 30.1174 12.9151 30.1301 12.8319V12.8327ZM34.8677 13.1159C35.1728 13.1327 35.3684 13.2877 35.4681 13.5655C35.5671 13.8396 35.654 14.1182 35.75 14.3931C35.8399 14.6503 35.9861 14.8396 36.286 14.8419C36.5671 14.8442 36.7177 14.6755 36.8114 14.4335C37.0168 13.9022 37.3856 13.5526 37.9216 13.3839C38.1675 13.3068 38.3414 13.1609 38.3564 12.8762C38.3721 12.5777 38.2117 12.4052 37.9598 12.296C37.696 12.1815 37.4291 12.0731 37.1705 11.9464C36.8834 11.8052 36.723 11.5723 36.7957 11.238C36.8677 10.9105 37.0963 10.7494 37.4186 10.7364C37.7177 10.7242 38.0266 10.77 38.3144 10.7089C38.5048 10.6685 38.7559 10.5188 38.8144 10.3562C38.8729 10.1944 38.7882 9.88598 38.657 9.76307C38.2042 9.33786 37.9853 8.84394 37.9576 8.21872C37.9494 8.03856 37.7649 7.78664 37.6008 7.7187C37.4576 7.65915 37.196 7.76679 37.0461 7.88054C36.8407 8.03703 36.6915 8.27063 36.5168 8.46912C36.2095 8.81875 35.9246 8.90578 35.6375 8.71875C35.3092 8.50499 35.2792 8.19887 35.4014 7.84847C35.4809 7.62098 35.5468 7.38891 35.6098 7.15608C35.6788 6.89881 35.6878 6.64765 35.4509 6.46291C35.2185 6.28122 34.9899 6.32474 34.7582 6.47742C34.298 6.77972 33.8032 6.82629 33.2868 6.65529C33.0289 6.56979 32.7875 6.57132 32.6099 6.81102C32.4359 7.04615 32.4869 7.28738 32.6263 7.52327C32.774 7.77366 32.9277 8.021 33.0626 8.27903C33.2073 8.55538 33.1826 8.83402 32.9532 9.04701C32.7148 9.26839 32.4359 9.28137 32.1631 9.09357C31.915 8.92257 31.6886 8.70653 31.421 8.58133C31.2433 8.49812 30.9854 8.4737 30.8055 8.54011C30.5567 8.63248 30.5027 8.9012 30.5769 9.1577C30.7456 9.7417 30.6234 10.2623 30.2748 10.7402C30.1166 10.9578 30.0642 11.2189 30.2553 11.4013C30.3962 11.5349 30.6444 11.6174 30.8408 11.6097C31.1346 11.5983 31.4247 11.4861 31.7178 11.4219C32.0446 11.3502 32.2875 11.4769 32.4232 11.7792C32.5529 12.067 32.4929 12.325 32.238 12.5243C32.0199 12.6945 31.807 12.8716 31.5866 13.038C31.3588 13.2098 31.2073 13.4113 31.2928 13.7175C31.3745 14.0083 31.5956 14.1014 31.8647 14.119C32.4112 14.1556 32.8422 14.4045 33.1563 14.858C33.3152 15.087 33.5131 15.2145 33.7942 15.1381C34.0828 15.0603 34.1676 14.8282 34.1938 14.5587C34.223 14.2549 34.2365 13.9488 34.2845 13.6488C34.337 13.3182 34.5521 13.1464 34.8684 13.1159H34.8677ZM38.0895 6.43772C38.1195 5.79647 38.1488 5.1659 38.1787 4.5361C38.1293 4.51015 38.0805 4.48419 38.0311 4.459C37.69 4.75825 37.3302 5.03918 37.0116 5.3621C36.5491 5.83158 36.5596 5.86136 36.8969 6.43772H38.0895Z" fill="#7488A6"/>
<path d="M21.4727 40.5928C21.4817 39.2026 22.6009 38.0866 23.9742 38.0972C25.3467 38.1079 26.4442 39.2477 26.4247 40.6424C26.4052 42.0188 25.2942 43.1318 23.9442 43.1257C22.5769 43.1204 21.463 41.9791 21.4727 40.5928ZM23.9667 41.8654C24.6533 41.857 25.2035 41.2859 25.193 40.5905C25.1833 39.895 24.6218 39.3416 23.9337 39.3484C23.2508 39.3553 22.6991 39.9294 22.7088 40.6241C22.7186 41.3226 23.2763 41.8738 23.9667 41.8654Z" fill="#7488A6"/>
<path d="M8.78419 34.3535C8.78869 33.0848 9.79992 32.0504 11.0435 32.0443C12.2969 32.0382 13.3253 33.0939 13.3164 34.3787C13.3074 35.6414 12.2781 36.675 11.0375 36.6682C9.79692 36.6613 8.78044 35.617 8.78419 34.3535ZM11.0638 33.3077C10.4933 33.2993 10.0383 33.7436 10.0241 34.3245C10.0098 34.92 10.4596 35.4055 11.0353 35.4147C11.5997 35.4238 12.0877 34.9307 12.0862 34.3535C12.0847 33.7879 11.6237 33.3161 11.0638 33.3085V33.3077Z" fill="#7488A6"/>
<path d="M39.1112 34.3986C39.1044 35.6994 38.1 36.704 36.8166 36.6926C35.5715 36.6819 34.5768 35.6444 34.585 34.3665C34.594 33.0993 35.6105 32.0847 36.8661 32.0901C38.1202 32.0954 39.1179 33.1207 39.1112 34.3978V34.3986ZM37.8788 34.3963C37.8811 33.8192 37.4365 33.3543 36.8721 33.3436C36.2926 33.3321 35.8181 33.8047 35.8181 34.3917C35.8181 34.9627 36.2731 35.436 36.8309 35.4452C37.4111 35.4551 37.8773 34.9887 37.8796 34.3963H37.8788Z" fill="#7488A6"/>
<path d="M38.2381 21.4751C38.2441 20.2994 39.1586 19.3902 40.3243 19.4002C41.4509 19.4093 42.3677 20.3575 42.358 21.5026C42.3482 22.6377 41.4127 23.5874 40.2973 23.5943C39.1639 23.6011 38.2313 22.6415 38.2373 21.4751H38.2381ZM40.328 20.6491C39.8692 20.6315 39.4779 20.998 39.4637 21.4598C39.4495 21.9232 39.8175 22.3186 40.2725 22.3293C40.7283 22.34 41.1143 21.9606 41.1203 21.4972C41.1263 21.0514 40.7658 20.6659 40.328 20.6491Z" fill="#7488A6"/>
<path d="M7.49049 19.3994C8.62391 19.4063 9.53094 20.3353 9.53094 21.4896C9.53094 22.6507 8.58493 23.608 7.45226 23.5927C6.32709 23.5782 5.41257 22.6339 5.41406 21.4873C5.41556 20.3132 6.33159 19.3925 7.49124 19.3994H7.49049ZM8.28883 21.4705C8.28134 20.9957 7.91253 20.6353 7.44627 20.6491C6.98076 20.662 6.64043 21.0384 6.65542 21.5232C6.66967 21.9781 7.03323 22.3354 7.47775 22.3301C7.93651 22.3247 8.29633 21.9438 8.28958 21.4712L8.28883 21.4705Z" fill="#7488A6"/>
<path d="M25.5261 6.81483C25.5186 7.74999 24.7907 8.47445 23.8687 8.46453C22.9609 8.4546 22.2225 7.69197 22.2345 6.77742C22.2465 5.85982 23.0036 5.10941 23.9054 5.12086C24.8162 5.13231 25.5328 5.88196 25.5261 6.81559V6.81483ZM23.799 7.2721L23.9751 7.27363C24.0816 7.1179 24.2472 6.97438 24.2802 6.80338C24.3289 6.55604 24.1475 6.39344 23.9069 6.38351C23.6438 6.37206 23.4556 6.5423 23.4924 6.80338C23.5164 6.97133 23.691 7.11713 23.7982 7.27287L23.799 7.2721Z" fill="#7488A6"/>
<path d="M13.3503 8.90043C14.3795 8.89356 15.2138 9.73406 15.2146 10.7791C15.2161 11.8288 14.3915 12.6655 13.3593 12.664C12.3391 12.6624 11.5287 11.8456 11.5167 10.8074C11.5047 9.75544 12.3196 8.9073 13.3503 8.90043ZM13.3563 10.1585C13.007 10.1623 12.7476 10.4333 12.7513 10.7914C12.7551 11.1463 13.0212 11.4112 13.3713 11.4082C13.7206 11.4051 13.9815 11.1334 13.9785 10.7769C13.9747 10.4226 13.7056 10.1555 13.357 10.1593L13.3563 10.1585Z" fill="#7488A6"/>
<path d="M36.3766 10.7738C36.3796 11.828 35.564 12.6617 34.5273 12.6632C33.4921 12.6647 32.6735 11.8273 32.6787 10.7738C32.684 9.73787 33.4936 8.90958 34.5093 8.90119C35.5423 8.89279 36.3736 9.72565 36.3766 10.7738ZM34.5198 11.4082C34.8646 11.412 35.1457 11.1387 35.1517 10.7936C35.1577 10.4509 34.8811 10.1638 34.5393 10.1585C34.1892 10.1524 33.9193 10.4181 33.9141 10.7738C33.9089 11.1303 34.1705 11.4044 34.5198 11.4082Z" fill="#7488A6"/>
</g>
<defs>
<clipPath id="clip0_98_826">
<rect width="48" height="48" fill="white"/>
</clipPath>
</defs>
</svg>
