<svg width="32" height="48" viewBox="0 0 32 48" fill="none" xmlns="http://www.w3.org/2000/svg">
<g opacity="0.5" clip-path="url(#clip0_98_798)">
<path d="M12.6894 6.34254C12.3914 5.83451 12.0836 5.32263 11.7894 4.80225C11.6027 4.47334 11.2643 4.10429 11.3123 3.80472C11.3565 3.52678 11.8176 3.31137 12.1034 3.0782C13.3113 2.09535 14.526 1.12176 15.7271 0.131184C15.9336 -0.0394446 16.0639 -0.0487095 16.2758 0.125008C17.6956 1.29162 19.1237 2.44896 20.5587 3.59626C20.7683 3.7638 20.7706 3.8912 20.641 4.10429C20.1899 4.84548 19.7547 5.59594 19.2853 6.39041C19.6038 6.45912 19.8721 6.51703 20.1411 6.57416C22.0349 6.97564 23.7023 7.83651 25.1472 9.1336C25.3644 9.32816 25.5801 9.40614 25.8636 9.39919C26.3201 9.38838 26.7842 9.36522 27.2323 9.43316C28.2672 9.58912 29.0339 10.1628 29.5125 11.1093C29.9636 12.0019 30.3927 12.906 30.8522 13.7946C30.9452 13.9745 31.109 14.1351 31.2759 14.254C31.7225 14.5721 32.0045 14.9852 32.0007 15.5403C31.9877 17.5979 32.0411 19.6609 31.913 21.7123C31.6783 25.4607 30.4437 28.8918 28.4128 32.028C26.9625 34.267 25.1663 36.1756 23.0157 37.736C22.7771 37.9089 22.7505 38.0517 22.784 38.3559C22.864 39.0794 22.8602 39.8167 22.8236 40.5455C22.8107 40.8034 22.8434 40.9239 23.0515 41.0682C24.8736 42.3337 25.8285 44.0948 25.9032 46.3307C25.9368 47.3236 25.2806 47.9968 24.3074 47.9968C18.7701 47.9999 13.2335 47.9999 7.69622 47.9968C6.72227 47.9968 6.0684 47.3236 6.10117 46.3299C6.1751 44.0932 7.13304 42.3337 8.95442 41.069C9.16324 40.9239 9.18839 40.8019 9.18229 40.5471C9.164 39.7557 9.23182 38.9628 9.2463 38.1699C9.24859 38.0502 9.17238 37.8842 9.07864 37.8155C7.61925 36.7485 6.29779 35.5309 5.14476 34.1311C2.1871 30.541 0.431252 26.4266 0.0959338 21.7547C-0.0519109 19.6933 0.0189631 17.6156 0.00524557 15.5449C0.00143514 14.9906 0.279597 14.5775 0.729228 14.2602C0.905269 14.1359 1.0714 13.9583 1.17048 13.7676C1.61325 12.9145 2.0263 12.0451 2.45764 11.1858C3.05511 9.99369 4.01915 9.36136 5.3368 9.41C6.13318 9.43934 6.75885 9.25713 7.39291 8.71282C8.8142 7.49371 10.5045 6.79652 12.3434 6.48074C12.4303 6.46607 12.5172 6.44368 12.6025 6.42052C12.6239 6.41434 12.6399 6.38887 12.6902 6.34331L12.6894 6.34254ZM30.4186 21.7725H1.58505C1.70241 22.5368 1.77633 23.2773 1.93256 23.9999C3.12523 29.518 6.00744 33.8825 10.6592 37.0233C10.8063 37.1221 11.0082 37.1831 11.1851 37.1831C14.3851 37.1924 17.5843 37.1932 20.7843 37.1824C20.9847 37.1824 21.2141 37.1144 21.3795 37.0017C26.0122 33.8594 28.8837 29.5018 30.0711 23.9968C30.2265 23.275 30.302 22.5345 30.4193 21.7725H30.4186ZM2.74495 14.0108H29.2351C28.8967 13.3213 28.5637 12.6759 28.2611 12.0158C27.9182 11.2668 27.3687 10.9287 26.5449 10.9318C22.5836 10.9472 18.6215 10.9387 14.6602 10.9387C11.5623 10.9387 8.46364 10.9418 5.36576 10.9356C4.83916 10.9349 4.33618 11.0545 4.06259 11.5116C3.59239 12.2968 3.20296 13.1306 2.74495 14.01V14.0108ZM7.64211 46.4226H24.3638C24.4126 44.602 23.2679 42.6224 21.2728 41.8596C21.1592 41.8164 21.0228 41.8233 20.8971 41.8233C17.6338 41.8218 14.3698 41.8218 11.1066 41.8233C10.9808 41.8233 10.849 41.8233 10.7308 41.8596C8.99786 42.4055 7.53542 44.5549 7.64287 46.4218L7.64211 46.4226ZM10.7004 38.7451V40.2537H21.3048V38.7451H10.7004ZM22.9105 9.37912C22.7291 9.25327 22.6423 9.18301 22.547 9.12819C21.1851 8.35071 19.7235 7.90445 18.1612 7.86585C16.778 7.8311 15.3933 7.84577 14.0101 7.85813C12.6848 7.87048 11.4205 8.18394 10.2157 8.73598C9.85826 8.89966 9.52218 9.11044 9.17619 9.29959L9.21277 9.37989H22.9105V9.37912ZM16.0007 6.26919V6.30625C16.4313 6.30625 16.8634 6.32401 17.2924 6.29622C17.4273 6.28772 17.6033 6.18967 17.6757 6.07695C18.021 5.53958 18.3281 4.97751 18.6665 4.43551C18.7998 4.22087 18.7449 4.10197 18.5643 3.95837C17.7969 3.3492 17.0325 2.73463 16.2811 2.10461C16.0731 1.93089 15.9328 1.93167 15.7286 2.10461C15.1258 2.61418 14.5085 3.10677 13.8935 3.6009C13.1878 4.1676 13.1848 4.16606 13.6542 4.95744C13.9148 5.39675 14.0894 6.00823 14.475 6.21978C14.8751 6.43905 15.4832 6.26842 16.0007 6.26842V6.26919ZM11.23 15.6067H5.53342C6.49593 16.9709 7.41958 18.2812 8.38134 19.6454C9.34538 18.2781 10.2698 16.9686 11.2293 15.6067H11.23ZM18.8585 15.5943H13.1467C14.113 16.9648 15.0404 18.2812 16.003 19.6462C16.9708 18.2727 17.8945 16.9625 18.8593 15.5943H18.8585ZM26.4717 15.6067H20.7751C21.7377 16.9709 22.6613 18.2812 23.6231 19.6454C24.5871 18.2788 25.5107 16.9686 26.4717 15.6067ZM6.88079 20.1812C6.10651 19.0818 5.3589 18.0202 4.57243 16.9038C3.78519 18.0187 3.03987 19.0749 2.25873 20.1812H6.88079ZM9.88722 20.1704H14.4986C13.7167 19.0633 12.9706 18.0078 12.1918 16.9061L9.88722 20.1704ZM19.8134 16.9045C19.0254 18.021 18.277 19.0818 17.502 20.1812H22.1256C21.3444 19.0749 20.5999 18.0187 19.8142 16.9045H19.8134ZM29.7525 20.189C28.9584 19.0648 28.2123 18.0086 27.4327 16.9053C26.6424 18.0264 25.8979 19.0826 25.1175 20.189H29.7518H29.7525ZM1.54237 18.4086L1.61553 18.4348C2.27169 17.5029 2.92861 16.5702 3.61601 15.5943H1.54237V18.4086ZM30.4491 18.5197V15.6005H28.393C29.0834 16.581 29.7358 17.5068 30.4491 18.5197Z" fill="#7488A6"/>
</g>
<defs>
<clipPath id="clip0_98_798">
<rect width="32" height="48" fill="white"/>
</clipPath>
</defs>
</svg>
