<svg width="39" height="48" viewBox="0 0 39 48" fill="none" xmlns="http://www.w3.org/2000/svg">
<g opacity="0.5" clip-path="url(#clip0_98_786)">
<path d="M31.828 36.6963C32.0243 35.5295 32.2229 34.3627 32.4168 33.1951C32.8988 30.2901 33.3777 27.3852 33.8589 24.4802C34.2356 22.2066 34.6163 19.9331 34.9859 17.6579C35.0168 17.4675 35.0144 17.253 34.9614 17.0689C34.0425 13.8703 33.1086 10.6764 32.1944 7.47692C32.1003 7.14721 31.9594 7.04078 31.623 7.04398C29.5526 7.05918 27.4813 7.05198 25.4108 7.05198C24.6882 7.05198 24.3139 6.77909 24.3115 6.25492C24.3083 5.72834 24.6843 5.45145 25.4037 5.45145C27.7251 5.45145 30.0464 5.45145 32.3678 5.45225C33.1038 5.45225 33.2954 5.5979 33.4996 6.30293C34.5182 9.81851 35.5399 13.3341 36.5475 16.8529C36.6179 17.0993 36.6337 17.3842 36.5926 17.6371C36.0132 21.1871 35.4165 24.7347 34.8292 28.2839C34.1525 32.3716 33.4814 36.4602 32.8047 40.548C32.5846 41.8756 32.3583 43.2024 32.1327 44.5285C32.0314 45.1223 31.7845 45.3272 31.1521 45.328C28.9495 45.3304 26.7468 45.3392 24.5442 45.3232C23.7037 45.3167 23.0285 45.7849 22.279 46.0754C22.4025 46.0818 22.526 46.0938 22.6494 46.0938C25.8153 46.0946 28.9803 46.089 32.1462 46.1034C32.4992 46.105 32.6131 45.9938 32.6693 45.6497C33.2408 42.1653 33.8288 38.6841 34.4137 35.203C34.9194 32.194 35.4268 29.1858 35.9325 26.1768C36.4145 23.3126 36.8981 20.4485 37.3698 17.5827C37.403 17.3818 37.3769 17.1554 37.3223 16.9569C36.2277 12.9916 35.1205 9.03024 34.0314 5.06332C33.9507 4.76802 33.8256 4.6944 33.5439 4.6952C30.3258 4.704 27.1069 4.7008 23.8889 4.7008C23.1655 4.7008 22.7919 4.43271 22.784 3.90853C22.7761 3.37716 23.1465 3.10026 23.8659 3.10026C27.3349 3.10026 30.8039 3.10026 34.2728 3.10026C34.963 3.10026 35.1632 3.24271 35.3476 3.90613C36.5506 8.22838 37.7521 12.5506 38.944 16.8753C39.0018 17.0857 39.0168 17.3274 38.9812 17.5419C38.2618 21.8657 37.5305 26.188 36.8055 30.511C36.0299 35.1358 35.2574 39.7621 34.4834 44.3876C34.3496 45.1895 34.2174 45.9914 34.0789 46.7916C33.9578 47.4927 33.7188 47.6951 33.012 47.6959C28.0789 47.6967 23.1457 47.6927 18.2133 47.7039C17.8936 47.7039 17.5611 47.7776 17.2556 47.8808C16.5568 48.1161 16.2877 48.0345 15.9189 47.387C14.0376 44.0835 12.1578 40.7784 10.2781 37.4741C7.29432 32.2284 4.30734 26.9842 1.33383 21.7329C1.18345 21.4672 1.08927 21.1407 1.06394 20.835C0.702243 16.4071 0.357167 11.9808 0.00654973 7.55535C-0.037772 6.99196 0.137141 6.71907 0.706201 6.5062C4.4506 5.10573 8.19579 3.70847 11.9402 2.308C13.8682 1.58696 15.7954 0.863518 17.7218 0.140077C18.4025 -0.115209 18.6288 -0.0463856 19.0625 0.557816C21.6197 4.1174 24.1682 7.68419 26.7429 11.231C27.2051 11.868 27.2241 12.6018 27.3586 13.3101C28.0899 17.1442 28.7983 20.9822 29.5122 24.8195C30.2237 28.6432 30.9321 32.4685 31.6436 36.2921C31.6697 36.433 31.7085 36.5706 31.7417 36.7107L31.8264 36.6971L31.828 36.6963ZM1.64962 8.24038C1.6884 8.70854 1.72323 9.12067 1.75568 9.53281C2.03506 13.1084 2.30812 16.6848 2.60096 20.2596C2.62787 20.5925 2.71572 20.9502 2.87876 21.2367C7.53729 29.4459 12.2101 37.6454 16.8702 45.8537C17.0356 46.145 17.1678 46.2082 17.482 46.089C21.8406 44.4477 26.2031 42.8183 30.5688 41.1954C30.8474 41.0913 30.9154 40.9673 30.8585 40.668C30.3804 38.1688 29.9214 35.6663 29.456 33.1647C28.2276 26.5641 26.9938 19.9643 25.7781 13.3613C25.6546 12.6923 25.4275 12.1129 25.023 11.5575C22.7484 8.43244 20.499 5.28899 18.2576 2.13994C18.0352 1.82784 17.8564 1.79103 17.5152 1.91987C12.3525 3.86212 7.18668 5.79316 2.01844 7.71781C1.72402 7.82744 1.56256 7.96589 1.64883 8.24038H1.64962ZM28.6265 43.6186L28.6392 43.7274C29.0832 43.7274 29.5272 43.7274 29.9712 43.7274C30.4683 43.7274 30.7384 43.4796 30.7817 42.984C30.7849 42.9472 30.7706 42.9087 30.7564 42.8231C30.0353 43.092 29.3309 43.3553 28.6265 43.6178V43.6186Z" fill="#7488A6"/>
<path d="M4.23417 10.2266C4.43916 13.3532 4.6386 16.4807 4.85626 19.6065C4.87446 19.8738 4.96469 20.1579 5.09686 20.3916C9.35333 27.9269 13.6209 35.4566 17.8782 42.9919C18.0341 43.268 18.1702 43.3216 18.4654 43.2104C21.6368 42.0092 24.8121 40.8192 27.9906 39.6388C28.2494 39.5428 28.3009 39.4195 28.2518 39.1659C27.8371 37.0075 27.4311 34.8468 27.0235 32.6869C26.991 32.5164 26.9562 32.346 26.942 32.1739C26.9048 31.7306 27.1762 31.3665 27.5807 31.3016C27.9986 31.2344 28.3824 31.4657 28.4734 31.901C28.714 33.0614 28.9309 34.2274 29.1525 35.3926C29.4113 36.7538 29.6606 38.1167 29.9218 39.4772C30.0935 40.3695 29.9661 40.6031 29.1224 40.9184C25.5379 42.2581 21.9542 43.5993 18.3712 44.9414C17.5291 45.2567 17.3059 45.1815 16.8643 44.4028C12.4527 36.6194 8.03951 28.836 3.63978 21.0454C3.45775 20.7229 3.32874 20.3316 3.30183 19.9627C3.04144 16.3454 2.80717 12.7258 2.56894 9.10703C2.53015 8.52364 2.6924 8.28276 3.23535 8.07949C7.77041 6.38133 12.3055 4.68316 16.8398 2.98499C17.427 2.76492 17.6914 2.83935 18.0689 3.35072C20.243 6.3021 22.418 9.25268 24.5802 12.2137C24.7449 12.4393 24.8612 12.729 24.9142 13.0051C25.9321 18.3309 26.9364 23.6591 27.9439 28.9865C28.0136 29.353 28.0365 29.7083 27.7239 29.9844C27.2316 30.4181 26.5446 30.1164 26.4053 29.401C26.2376 28.5383 26.0777 27.6732 25.9146 26.8089C25.0796 22.3707 24.2462 17.9316 23.4041 13.4949C23.3685 13.3076 23.2743 13.1156 23.1611 12.9611C21.1991 10.2826 19.2276 7.61054 17.2664 4.93124C17.1001 4.70397 16.9601 4.64235 16.6815 4.74798C12.6806 6.25488 8.67743 7.75458 4.66789 9.23508C4.28799 9.37512 4.12178 9.54718 4.21755 9.94811C4.23892 10.0369 4.22863 10.1338 4.23338 10.2274L4.23417 10.2266Z" fill="#7488A6"/>
<path d="M12.9955 20.1347C12.2428 20.4132 11.5154 20.6821 10.7881 20.9518C10.0845 21.2127 9.73307 21.0478 9.47347 20.3356C9.18617 19.5481 8.89175 18.7638 8.60999 17.974C8.38205 17.3338 8.55776 16.964 9.19172 16.7232C9.93015 16.4431 10.671 16.1678 11.4521 15.8757C11.259 15.3419 11.0738 14.8345 10.8918 14.3256C10.7754 13.9999 10.644 13.6782 10.553 13.346C10.4383 12.9235 10.6068 12.5578 11.0065 12.4009C11.9151 12.044 12.8293 11.7015 13.7489 11.3742C14.208 11.2109 14.5855 11.4174 14.7786 11.9176C15.0279 12.5626 15.2559 13.2164 15.4957 13.8646C15.5448 13.9983 15.6041 14.1287 15.673 14.2952C16.4304 14.0151 17.1562 13.7454 17.8827 13.4773C18.5784 13.2204 18.9219 13.3717 19.1799 14.0591C19.4744 14.8433 19.7632 15.6308 20.049 16.4183C20.2919 17.0873 20.1257 17.4506 19.4704 17.7003C18.7343 17.9804 17.9975 18.2573 17.2211 18.551C17.335 18.8743 17.4332 19.1608 17.5369 19.4449C18.121 21.0446 18.7082 22.6427 19.2907 24.2425C19.5701 25.0099 19.419 25.3324 18.6544 25.6197C17.9136 25.8982 17.1728 26.1767 16.4304 26.4504C15.7007 26.7201 15.3714 26.5608 15.096 25.811C14.4494 24.0504 13.8043 22.289 13.1577 20.5284C13.1126 20.406 13.0588 20.2867 12.9955 20.1347ZM17.9025 15.1787C17.1158 15.4699 16.39 15.7428 15.6611 16.0077C14.9717 16.2574 14.629 16.0974 14.3702 15.4059C14.128 14.7585 13.9033 14.1047 13.6468 13.4629C13.6049 13.3572 13.4181 13.2148 13.3374 13.2372C12.9994 13.33 12.6757 13.4789 12.3211 13.6173C12.5934 14.3632 12.8554 15.0714 13.1118 15.7821C13.4054 16.5951 13.2487 16.92 12.4494 17.2129C11.7473 17.4706 11.0501 17.7419 10.3211 18.0188C10.4406 18.3477 10.5601 18.6278 10.6417 18.9191C10.7177 19.1912 10.8364 19.2456 11.0991 19.1384C11.7212 18.8839 12.3536 18.6542 12.9852 18.4221C13.6935 18.162 14.0434 18.3269 14.3038 19.0351C14.8989 20.6573 15.4933 22.2802 16.0885 23.9032C16.4011 24.7554 16.3964 24.7418 17.2543 24.4441C17.5495 24.3417 17.6113 24.2377 17.4965 23.9328C16.8428 22.1906 16.2135 20.4388 15.5733 18.691C15.2495 17.8083 15.3881 17.5186 16.2784 17.1929C16.9559 16.9448 17.6279 16.6832 18.3449 16.4119C18.1938 15.9909 18.0576 15.6092 17.9033 15.1787H17.9025Z" fill="#7488A6"/>
</g>
<defs>
<clipPath id="clip0_98_786">
<rect width="39" height="48" fill="white"/>
</clipPath>
</defs>
</svg>
