<svg width="57" height="56" viewBox="0 0 57 56" fill="none" xmlns="http://www.w3.org/2000/svg">
<path d="M55.9643 54.0445V55.7864H0.456998V54.0445C0.618291 54.0445 0.789441 54.0445 0.960591 54.0445C2.93195 54.0445 4.90332 54.0534 6.87379 54.0338C7.11662 54.0311 7.39888 53.9288 7.59333 53.781C8.44729 53.1357 9.27616 52.4566 10.1722 51.7428C6.78418 48.6551 3.4248 45.5941 0 42.4735C0.452517 42.0427 0.877257 41.6511 1.28676 41.2443C4.76174 37.7961 8.23851 34.348 11.7063 30.8927C14.1069 28.5011 16.9967 27.336 20.3982 27.3306C22.4028 27.328 24.3212 27.6315 26.1215 28.5304C26.3338 28.6364 26.4656 28.6034 26.6188 28.4272C27.4978 27.4179 28.3849 26.4147 29.2756 25.4161C29.4226 25.2505 29.4522 25.125 29.3366 24.9123C28.9432 24.1824 29.0167 23.5095 29.574 22.8998C32.9021 19.2514 36.2381 15.6092 39.5733 11.967C40.0509 11.4454 40.6441 11.2434 41.3529 11.352C41.4757 11.3707 41.6594 11.3306 41.7373 11.2461C42.232 10.7129 42.7051 10.1593 43.223 9.57004C43.0465 9.42585 42.8942 9.29412 42.7347 9.17217C41.4676 8.20555 40.1979 7.24338 38.9317 6.27497C37.8968 5.4837 37.7695 4.48681 38.5706 3.45521C39.0724 2.80991 39.5823 2.16994 40.0904 1.52998C40.9327 0.469895 41.9721 0.335493 43.0555 1.15792C45.6765 3.14903 48.293 5.14458 50.9113 7.13835C52.5933 8.41917 54.277 9.69999 55.958 10.9826C57.0486 11.8139 57.1821 12.7921 56.3505 13.862C55.8308 14.5313 55.3066 15.1971 54.7752 15.8575C54.0315 16.7832 52.9625 16.9336 52.0073 16.2269C50.9185 15.4205 49.8477 14.5901 48.7697 13.7676C48.4011 13.4864 48.0678 13.5134 47.7697 13.8486C47.3763 14.2919 46.983 14.736 46.6003 15.1686C47.2383 16.3969 47.1828 16.8526 46.2553 17.8673C43.0537 21.3698 39.8466 24.8678 36.6458 28.3711C36.0876 28.9817 35.4406 29.2657 34.6046 29.0467C34.4899 29.0164 34.2945 29.0689 34.2175 29.1553C33.1718 30.3151 32.1323 31.4819 31.1171 32.6675C31.0302 32.769 31.0651 33.0583 31.1457 33.2034C31.9235 34.5945 32.4244 36.0694 32.6001 37.6546C32.9227 40.5678 32.2058 43.2149 30.5248 45.6048C30.2963 45.9297 30.3339 46.1112 30.5212 46.445C30.9513 47.2114 31.5696 47.7143 32.3062 48.1727C32.842 48.5064 33.3331 48.712 33.9773 48.7307C35.2498 48.7681 36.3295 49.3164 37.2534 50.1887C37.421 50.3471 37.671 50.4744 37.8995 50.5064C40.0921 50.8162 41.783 51.8807 42.9202 53.773C43.0779 54.0356 43.2705 54.0427 43.5143 54.0427C47.4713 54.0409 51.4284 54.0418 55.3854 54.0427C55.562 54.0427 55.7394 54.0427 55.9652 54.0427L55.9643 54.0445ZM2.5341 42.4379C2.73213 42.5874 2.85758 42.6675 2.96601 42.7663C5.73039 45.2799 8.50195 47.7846 11.2448 50.3213C11.6534 50.6987 12.0056 50.8705 12.5307 50.6444C12.7027 50.5705 12.9196 50.6061 13.1006 50.5474C13.2879 50.486 13.5038 50.4112 13.6275 50.2732C14.7745 48.9933 16.167 48.0854 17.7772 47.4873C17.9672 47.417 18.1616 47.2559 18.2692 47.0841C19.9842 44.3578 22.4072 43.0779 25.6654 43.4508C25.8159 43.4677 26.0587 43.3725 26.134 43.2523C27.6152 40.8829 27.7451 38.4548 26.3419 36.0124C23.9368 31.8264 17.7494 31.7436 14.8802 34.7005C12.8291 36.8144 10.6982 38.8518 8.62561 40.9452C8.29496 41.279 8.10141 41.2799 7.82362 40.9292C7.63993 40.6978 7.41591 40.4958 7.19368 40.2982C7.00192 40.1273 7.01447 39.9929 7.19368 39.8228C7.56018 39.4748 7.91592 39.1143 8.27435 38.7574C9.91058 37.1321 11.5827 35.5407 13.175 33.8727C15.1813 31.7712 17.5944 30.8366 20.5058 30.8865C26.3446 30.9862 30.4468 36.5322 28.6753 42.0516C28.4513 42.7494 28.1072 43.4099 27.8115 44.1059C28.0534 44.2465 28.3276 44.3711 28.5606 44.5492C28.8419 44.7637 28.9925 44.7165 29.1932 44.4272C31.9594 40.4423 31.2811 34.8954 27.6152 31.6439C25.5112 29.7774 23.0273 29.0511 20.2343 29.1099C17.4394 29.1686 15.0478 30.1032 13.0692 32.0658C9.9527 35.1571 6.84063 38.2536 3.72319 41.3431C3.36565 41.6982 2.98213 42.0276 2.5341 42.4379ZM10.2143 54.0151H40.8664C40.7606 53.8781 40.7015 53.7793 40.6217 53.7009C39.7481 52.8447 38.6988 52.332 37.4729 52.2928C36.9451 52.2759 36.5786 52.1148 36.2453 51.7312C35.6835 51.0832 34.9863 50.6284 34.1162 50.5234C33.6592 50.4682 33.1888 50.5234 32.7318 50.4726C32.4899 50.4459 32.2094 50.3534 32.0355 50.1949C31.1977 49.4286 30.2443 48.9088 29.1099 48.7717C28.5247 48.7005 27.9306 48.7014 27.307 48.6684V46.9212H28.5292C26.5901 44.5394 22.5515 44.6239 20.6966 46.939H21.8992V48.7147C19.5246 48.5768 17.4367 49.2052 15.6141 50.8126C16.0128 51.0076 16.3516 51.1553 16.6688 51.3396C16.7638 51.3947 16.8793 51.5852 16.8489 51.6538C16.6392 52.121 16.3937 52.5732 16.1437 53.0601C15.1437 52.5136 14.166 52.1282 13.0298 52.332C11.8909 52.5367 11.114 53.2781 10.2143 54.016V54.0151ZM55.0781 12.5918C50.6147 9.18286 46.1747 5.79077 41.7033 2.37466C41.0725 3.17395 40.4784 3.92606 39.861 4.70933C44.3279 8.12188 48.7581 11.5068 53.2358 14.9283C53.8567 14.1406 54.4508 13.3876 55.0781 12.5918ZM29.8778 31.344C30.8957 30.194 31.894 29.0663 32.9191 27.9092C32.2112 27.3547 31.5597 26.8446 30.8706 26.3061C29.8868 27.4223 28.9298 28.5082 27.9736 29.5923C28.6152 30.1833 29.2246 30.7441 29.8778 31.3449V31.344ZM43.9399 17.7516C44.3897 17.2612 44.7965 16.8179 45.2347 16.34C43.7956 15.2345 42.4067 14.1682 40.9811 13.0734C40.5474 13.5478 40.1405 13.9928 39.7015 14.4735C41.1235 15.5736 42.5098 16.6453 43.9399 17.7516ZM42.7284 19.0716C41.2911 17.9626 39.9085 16.8954 38.4891 15.8006C38.0957 16.2296 37.7319 16.6275 37.3412 17.0547C38.7812 18.1655 40.1755 19.2407 41.5841 20.3275C41.973 19.9003 42.3207 19.5184 42.7275 19.0716H42.7284ZM36.1297 26.2866C34.7336 25.2096 33.3967 24.1753 32.0508 23.1517C31.9898 23.1054 31.8088 23.1206 31.7524 23.1766C31.4612 23.4624 31.1914 23.7712 30.8859 24.1032C32.3259 25.2096 33.7121 26.2732 35.1395 27.3689C35.4675 27.0102 35.774 26.6764 36.1297 26.2866ZM34.0114 20.6942C33.6924 21.0431 33.4101 21.3529 33.1028 21.6902C34.4809 22.7539 35.8071 23.781 37.1414 24.7984C37.2131 24.8527 37.395 24.8767 37.4434 24.8304C37.7158 24.5687 37.9631 24.2821 38.2498 23.9688C36.8036 22.8509 35.4218 21.7828 34.0123 20.6942H34.0114ZM35.2193 19.3689C36.6557 20.4779 38.041 21.5487 39.4577 22.6426C39.7687 22.3053 40.0545 21.9946 40.3717 21.6502C38.9317 20.5385 37.5473 19.4704 36.1288 18.3756C35.8206 18.712 35.5428 19.0155 35.2193 19.368V19.3689ZM46.7804 12.2616C46.0609 11.7125 45.3817 11.1944 44.6648 10.6479C44.1299 11.2532 43.6236 11.8255 43.0797 12.4396C43.7938 12.9986 44.4677 13.5246 45.1747 14.0783C45.7186 13.4632 46.2347 12.8793 46.7804 12.2616Z" fill="#00A5F1"/>
<path d="M24.5336 48.7016C26.2407 48.7301 27.5454 49.3888 28.6296 50.5318C28.7945 50.7053 28.7712 50.8246 28.6099 50.9751C28.3599 51.2083 28.1036 51.4397 27.8841 51.7005C27.6466 51.9836 27.4746 51.9418 27.2443 51.6899C26.5624 50.943 25.7174 50.5095 24.6887 50.4899C23.6241 50.4694 22.7388 50.8834 22.0309 51.656C21.7737 51.9364 21.5766 52.0041 21.3284 51.6685C21.2415 51.5501 21.1178 51.4584 21.0148 51.3516C20.3311 50.6421 20.2406 50.8727 21.0605 50.1071C22.0605 49.1743 23.2702 48.7292 24.5336 48.7007V48.7016Z" fill="#00A5F1"/>
</svg>
