<svg width="30" height="58" viewBox="0 0 30 58" fill="none" xmlns="http://www.w3.org/2000/svg">
<path d="M19.1533 43.0117C20.3361 44.1795 21.406 45.2316 22.4723 46.289C24.596 48.3949 26.7161 50.5035 28.8398 52.6086C29.1445 52.9103 29.4276 53.2156 29.2816 53.6936C29.1328 54.1796 28.7377 54.3193 28.2887 54.3985C27.7753 54.4893 27.2592 54.581 26.7565 54.7163C26.614 54.7546 26.4446 54.929 26.407 55.0714C26.2645 55.6153 26.1677 56.1716 26.062 56.7252C25.984 57.132 25.8003 57.4613 25.3819 57.5841C24.9769 57.7025 24.6677 57.512 24.3863 57.2308C22.786 55.6322 21.1802 54.0407 19.5744 52.4466C19.4633 52.3362 19.3468 52.2321 19.1685 52.0638C19.156 52.3015 19.1425 52.443 19.1425 52.5845C19.1407 53.9045 19.1443 55.2245 19.1407 56.5445C19.1389 57.2788 18.8092 57.6135 18.0825 57.6144C15.7984 57.6171 13.5134 57.6171 11.2293 57.6144C10.5241 57.6144 10.1836 57.2779 10.1818 56.5801C10.1773 55.115 10.1809 53.6491 10.1809 52.071C9.99361 52.2365 9.87443 52.3309 9.7669 52.4377C8.25523 53.9357 6.74624 55.4355 5.23546 56.9344C5.11897 57.0501 5.00427 57.1667 4.88509 57.2779C4.24261 57.8805 3.47288 57.65 3.27664 56.7884C3.1485 56.225 3.03201 55.658 2.93613 55.0883C2.89491 54.8453 2.79276 54.7296 2.54724 54.6878C2.06246 54.6059 1.58396 54.4849 1.09829 54.4065C0.635912 54.3309 0.212069 54.2161 0.0462953 53.7141C-0.124855 53.1943 0.210278 52.8827 0.532864 52.5632C3.6055 49.5129 6.67634 46.4608 9.74719 43.4087C9.86099 43.2957 9.97031 43.1773 10.2123 42.9254C10.0133 42.7972 9.8126 42.71 9.66744 42.5676C8.14142 41.0633 6.61451 39.56 5.10642 38.0379C2.1001 35.0019 0.698638 31.3321 1.16012 27.1131C1.75152 21.7112 4.72111 17.9648 9.73644 15.8206C10.0474 15.688 10.1943 15.5661 10.1916 15.194C10.1746 13.2892 11.2624 12.2256 13.1818 12.2229C13.3575 12.2229 13.534 12.2229 13.7365 12.2229V10.8264C12.7822 10.5504 11.9479 10.06 11.3646 9.22155C10.5922 8.11162 10.3735 6.91446 10.8709 5.63631C11.4766 4.07866 12.5044 2.78359 13.534 1.49208C13.5806 1.43423 13.6317 1.37994 13.6792 1.32297C14.4632 0.390165 14.8682 0.389276 15.6577 1.34077C16.6658 2.55573 17.5977 3.81787 18.2966 5.24378C19.4597 7.61674 17.9758 10.0743 15.9184 10.7133C15.8064 10.748 15.6971 10.7908 15.5779 10.8335V12.2238C15.8889 12.2238 16.1828 12.2185 16.4767 12.2238C17.9445 12.2523 19.1524 13.4058 19.1201 14.862C19.1058 15.5064 19.3325 15.745 19.9042 16.0013C24.5906 18.0992 27.4222 21.664 28.1086 26.7464C28.6947 31.0864 27.3434 34.8577 24.2833 38.0068C22.7483 39.5858 21.1739 41.1265 19.6139 42.6806C19.4992 42.7945 19.3495 42.8746 19.1551 43.0144L19.1533 43.0117ZM19.1416 17.6052C19.1416 18.5211 19.1613 19.3516 19.1327 20.1793C19.1192 20.5478 19.2321 20.7606 19.5475 20.9671C24.338 24.1046 25.0566 30.5613 21.0762 34.6681C20.104 35.6712 19.0968 36.6423 18.1058 37.6276C15.8907 39.8297 13.6756 42.0308 11.4596 44.232C8.68355 46.9895 5.90662 49.747 3.13058 52.5053C3.02036 52.6148 2.92 52.7323 2.69778 52.9726C4.11805 52.9103 4.7014 53.6081 4.68796 54.9326C4.91556 54.7216 5.03653 54.6157 5.15033 54.5027C8.36992 51.3064 11.5895 48.1092 14.8082 44.912C17.5 42.2382 20.1927 39.5671 22.88 36.8888C28.0387 31.7495 27.5369 23.4878 21.803 19.121C21.0099 18.5167 20.1623 18.004 19.1416 17.6052ZM14.6415 38.5524C15.5448 37.6525 16.4005 36.8078 17.2428 35.9498C17.3217 35.8697 17.345 35.7077 17.345 35.584C17.3495 28.7161 17.3504 21.8491 17.3468 14.9813C17.3468 14.3636 16.991 14.0084 16.3772 14.004C15.2428 13.9959 14.1075 13.9968 12.9731 14.004C12.3216 14.0084 11.982 14.3484 11.9757 14.9973C11.9686 15.7681 11.9739 16.5398 11.9739 17.3115C11.9739 23.3632 11.9721 29.4148 11.9793 35.4665C11.9793 35.6463 11.9999 35.8822 12.1101 35.997C12.9229 36.8443 13.7598 37.6677 14.6424 38.5524H14.6415ZM13.3933 39.7033C13.2517 39.6018 13.1021 39.5208 12.9865 39.4069C11.3592 37.7949 9.69342 36.2186 8.1244 34.5533C5.98905 32.2862 5.25069 29.5733 5.89586 26.5354C6.40035 24.1616 7.74536 22.3298 9.75973 20.9706C9.92013 20.862 10.154 20.6983 10.1594 20.5532C10.1952 19.5794 10.1782 18.6048 10.1782 17.5723C9.99002 17.6497 9.85293 17.6978 9.72299 17.7601C2.17626 21.3818 0.522111 30.9128 6.41738 36.8239C7.96131 38.3717 9.51779 39.908 11.0698 41.4478C11.1711 41.5484 11.284 41.6357 11.3673 41.7077C12.0331 41.05 12.663 40.426 13.3933 39.7051V39.7033ZM17.3495 55.8227V55.3002C17.3495 53.893 17.3199 52.484 17.3638 51.0785C17.3817 50.4955 17.2204 50.0825 16.7894 49.6864C16.0717 49.026 15.4113 48.3024 14.6828 47.56C13.8225 48.4216 13.017 49.2094 12.2392 50.0229C12.094 50.1742 11.9865 50.4279 11.9838 50.6353C11.9632 52.2347 11.9712 53.8351 11.973 55.4355C11.973 55.5619 11.9927 55.6883 12.0035 55.8227H17.3486H17.3495ZM16.0493 46.3308C18.8889 49.1319 21.7492 51.9526 24.5673 54.7332C24.7152 54.3211 24.7654 53.7354 25.0853 53.4185C25.4123 53.0946 26.0046 53.034 26.4401 52.8729C23.6094 50.0647 20.7644 47.2414 17.9463 44.4456C17.3405 45.0473 16.7016 45.682 16.0484 46.3308H16.0493ZM19.1551 33.9738C20.8791 32.6556 22.1103 30.3236 21.8101 27.6436C21.596 25.7335 20.7286 24.1571 19.1551 22.8727V33.9738ZM10.1495 34.0228V22.96C6.97563 25.2893 6.22383 30.7348 10.1495 34.0228ZM14.6604 2.94203C13.8333 4.00479 13.0573 5.01414 12.5671 6.2024C12.1953 7.10494 12.508 8.09738 13.3118 8.68661C14.12 9.27852 15.2177 9.27407 16.0224 8.67504C16.8244 8.0778 17.1246 7.08892 16.7464 6.18549C16.2554 5.01236 15.4946 4.00657 14.6595 2.94292L14.6604 2.94203Z" fill="#00A5F1"/>
<path d="M8.47048 5.05723C8.3746 5.73732 7.7115 6.19843 7.15415 5.90289C6.04033 5.31093 4.94891 4.67446 3.86914 4.02197C3.46232 3.77629 3.39153 3.27245 3.61824 2.88167C3.8539 2.47575 4.34854 2.29594 4.77417 2.53005C5.85394 3.12379 6.92744 3.73178 7.97674 4.37626C8.19807 4.51156 8.30829 4.82579 8.46869 5.05813L8.47048 5.05723Z" fill="#00A5F1"/>
<path d="M4.47563 11.3276C3.99534 11.3267 3.64856 11.0597 3.53745 10.6707C3.42185 10.2665 3.56254 9.90422 3.97652 9.65498C4.62617 9.26598 5.28837 8.89834 5.94519 8.52091C6.29287 8.32152 6.63517 8.11144 6.98822 7.92094C7.4963 7.64677 8.00796 7.77318 8.26692 8.22093C8.51692 8.65266 8.3852 9.15738 7.90759 9.44045C6.89772 10.0378 5.87799 10.6172 4.85647 11.195C4.71847 11.2733 4.5527 11.3 4.47563 11.3258V11.3276Z" fill="#00A5F1"/>
<path d="M24.8596 2.42383C25.3264 2.45231 25.6221 2.64192 25.7664 3.03093C25.9143 3.42795 25.7888 3.82408 25.3954 4.06977C24.8417 4.41605 24.2682 4.73117 23.7027 5.05787C23.252 5.3178 22.804 5.5804 22.3479 5.82965C21.8353 6.11006 21.329 5.99522 21.0638 5.55103C20.7977 5.10683 20.9366 4.59942 21.4393 4.30299C22.4366 3.71459 23.4429 3.14042 24.451 2.56893C24.589 2.49059 24.7547 2.46033 24.8605 2.42472L24.8596 2.42383Z" fill="#00A5F1"/>
<path d="M25.8217 10.2588C25.8441 11.035 25.1756 11.5442 24.6254 11.2567C23.4946 10.6656 22.3924 10.0175 21.3001 9.35794C20.8978 9.11492 20.8297 8.60308 21.0582 8.21586C21.2974 7.81083 21.7876 7.63636 22.2177 7.87314C23.2975 8.46688 24.3692 9.07842 25.4203 9.72023C25.6326 9.85019 25.742 10.1475 25.8217 10.2588Z" fill="#00A5F1"/>
</svg>
