<svg width="74" height="55" viewBox="0 0 74 55" fill="none" xmlns="http://www.w3.org/2000/svg">
<g clip-path="url(#clip0_59_1292)">
<path d="M66.084 31.4581C66.752 31.6245 67.3568 31.7418 67.9401 31.9273C69.4337 32.4025 70.3844 33.6666 70.4154 35.1641C70.4476 36.7023 69.5434 37.9915 68.0475 38.5457C67.9008 38.5996 67.7588 38.6666 67.5453 38.7564C68.4066 39.7499 69.2333 40.7075 70.0647 41.6616C71.2159 42.9831 72.367 44.3046 73.5242 45.6201C73.9023 46.0499 74.1516 46.5024 73.8928 47.0841C73.6279 47.6802 73.1305 47.8311 72.5245 47.8239C71.1527 47.8083 69.7808 47.8466 68.4101 47.8035C67.9747 47.7904 67.4988 47.6719 67.1218 47.4588C63.9176 45.6513 60.7373 43.8019 57.5344 41.9919C57.2612 41.8375 56.8449 41.7681 56.549 41.8507C53.7779 42.6324 51.0175 43.4559 48.2547 44.2699C48.1294 44.307 48.0101 44.3692 47.7644 44.6087C47.9469 44.7236 48.1533 44.8133 48.3096 44.957C51.0604 47.4947 53.8053 50.0396 56.5514 52.5833C56.6969 52.7185 56.8472 52.8514 56.9773 53.001C57.291 53.359 57.3912 53.7695 57.2111 54.222C57.0238 54.6901 56.6695 54.9845 56.1685 54.9881C53.7433 55.0025 51.3181 55.0073 48.8929 54.9785C48.603 54.9749 48.2893 54.7894 48.0328 54.6182C43.5952 51.6628 39.1683 48.6917 34.727 45.7434C34.4503 45.5603 34.0757 45.4418 33.7441 45.437C31.4776 45.4107 29.2122 45.4226 26.9457 45.4226C26.7512 45.4226 26.5568 45.4226 26.2812 45.4226C26.2812 45.8464 26.2943 46.2199 26.2788 46.5909C26.249 47.3187 25.7945 47.8047 25.0752 47.8083C22.6106 47.8227 20.1437 47.8562 17.6803 47.7904C16.3765 47.7556 15.3935 47.0338 14.7803 45.8787C14.5931 45.5244 14.3867 45.4179 14.0002 45.4131C12.2931 45.3927 10.5717 45.455 8.88139 45.261C6.10548 44.9438 3.70295 43.7049 1.7919 41.6592C-0.0511482 39.6853 -0.506841 37.3379 0.577517 34.8469C1.66903 32.3379 3.69579 31.069 6.4216 31.0654C20.5159 31.0499 34.6113 31.0535 48.7056 31.0678C49.4655 31.0678 50.1204 30.9206 50.7837 30.5256C52.919 29.2531 55.0937 28.0477 57.2421 26.798C57.5439 26.6233 57.8266 26.3815 58.0509 26.1133C59.8176 24.0077 61.5747 21.895 63.3188 19.7703C63.7017 19.3046 64.1324 19.064 64.7503 19.0772C66.1412 19.1059 67.5334 19.0844 68.9243 19.0879C70.1924 19.0915 70.6958 19.8313 70.2258 21.0104C68.9291 24.2675 67.6276 27.5222 66.3285 30.7794C66.2486 30.9793 66.1794 31.1839 66.0804 31.4545L66.084 31.4581ZM30.4338 43.013C30.4505 42.9723 30.4683 42.9328 30.485 42.8921C29.3494 42.132 28.2125 41.3731 27.0781 40.6118C26.4136 40.1665 26.1703 39.6877 26.3242 39.1358C26.49 38.5385 26.9624 38.2428 27.7664 38.2428C31.9404 38.2428 36.1156 38.2488 40.2896 38.2357C40.8228 38.2345 41.2439 38.3925 41.6304 38.7564C42.8329 39.89 44.0628 40.9936 45.2581 42.1344C45.573 42.4348 45.8557 42.5043 46.2673 42.3774C47.7477 41.9201 49.2388 41.4988 50.724 41.0595C51.8012 40.7399 52.8772 40.4131 53.9532 40.0899L54.0296 39.9223C53.9544 39.8959 53.8721 39.8804 53.8029 39.8421C52.8701 39.3094 51.9408 38.7731 51.0091 38.2381C50.3077 37.8347 50.0262 37.3343 50.1777 36.7561C50.3339 36.1564 50.8087 35.8512 51.6092 35.8512C55.8034 35.85 59.9977 35.8548 64.192 35.8452C64.7038 35.844 65.1034 35.9984 65.4708 36.3623C65.6199 36.5107 65.911 36.5742 66.1365 36.5706C66.4072 36.567 66.6768 36.4557 66.9453 36.3827C67.6908 36.1804 68.0392 35.8081 68.0296 35.2323C68.0201 34.6601 67.6801 34.2472 66.9047 34.1263C65.2394 33.8665 63.5633 33.4954 61.8909 33.4906C45.4323 33.4416 28.9724 33.4583 12.5138 33.4583C12.3432 33.4583 12.1726 33.4834 11.9675 33.499C11.9675 33.7875 11.9675 34.0245 11.9675 34.2615C11.9615 38.1088 9.44802 40.6345 5.62235 40.6381C5.19886 40.6381 4.77657 40.6381 4.35309 40.6381C5.71539 41.901 7.27811 42.6886 9.04601 42.8706C10.6612 43.037 12.2979 42.9735 13.925 43.0393C14.3545 43.0573 14.5883 42.9364 14.8006 42.5354C15.4508 41.3072 16.5136 40.662 17.8962 40.6465C20.2415 40.6189 22.588 40.6333 24.9332 40.6405C25.8243 40.6429 26.2681 41.1085 26.2812 42.0219C26.286 42.3499 26.2812 42.6778 26.2812 43.0154H30.4302L30.4338 43.013ZM31.6935 40.6381L31.6434 40.7518C31.7973 40.8655 31.9464 40.9852 32.105 41.0918C34.8451 42.9268 37.6258 44.7032 40.3087 46.6173C41.5684 47.5162 42.8293 47.9819 44.3753 47.8382C45.4692 47.7365 46.5786 47.8191 47.7799 47.8191C47.6737 47.6683 47.6403 47.6 47.5902 47.5522C45.1722 45.3065 42.7554 43.0597 40.3278 40.8236C40.2109 40.7159 40.0105 40.6465 39.8494 40.6453C37.1308 40.6345 34.4121 40.6381 31.6935 40.6381ZM65.5543 26.2737C64.0596 26.2737 62.6913 26.2594 61.3254 26.2893C61.131 26.2929 60.8745 26.4629 60.76 26.6316C59.8307 28.0082 58.5483 28.9371 57.0894 29.6685C56.4512 29.9881 55.844 30.3688 55.2261 30.7291C55.1092 30.7973 55.009 30.8967 54.9016 30.9817C54.9171 31.0319 54.9314 31.0822 54.9469 31.1337C57.7431 31.1337 60.5405 31.1361 63.3367 31.1241C63.4619 31.1241 63.6552 31.0104 63.7005 30.9003C64.3173 29.3968 64.9137 27.8849 65.5543 26.2737ZM9.51721 33.4703C8.29328 33.4703 7.09798 33.4044 5.91342 33.4846C3.8127 33.6283 2.20465 35.6309 2.45397 37.7221C2.47544 37.9065 2.67704 38.2153 2.79872 38.2177C4.06917 38.2381 5.35871 38.3422 6.6065 38.1614C8.74301 37.8526 9.87986 35.9386 9.51721 33.4703ZM56.1279 38.244C56.1136 38.2919 56.1005 38.3398 56.0862 38.3877C57.3578 39.1155 58.6259 39.8481 59.9047 40.5627C60.0478 40.6429 60.2494 40.6345 60.4248 40.6357C62.0913 40.6405 63.7566 40.6405 65.4231 40.6357C65.5662 40.6357 65.7094 40.6022 65.9432 40.5735C65.5531 40.1234 65.1785 39.781 64.9149 39.3681C64.3173 38.432 63.5192 38.165 62.4193 38.2153C60.3258 38.3111 58.2251 38.2428 56.1267 38.2428L56.1279 38.244ZM52.9727 52.6024C50.9304 50.2766 50.8051 50.2191 47.9421 50.2155C47.4865 50.2155 47.0308 50.2155 46.5751 50.2155C46.3735 50.2155 46.1719 50.2155 45.9703 50.2155C47.0224 51.0702 48.0913 51.7861 49.1637 52.4971C49.2436 52.5498 49.345 52.5976 49.4357 52.5988C50.5773 52.606 51.7201 52.6036 52.9727 52.6036V52.6024ZM63.0361 23.8785C64.2123 23.8785 65.2167 23.8892 66.22 23.8665C66.3559 23.8629 66.5552 23.7264 66.61 23.6008C66.9011 22.9328 67.1564 22.2481 67.4546 21.4892C66.6506 21.4892 65.9241 21.4832 65.1988 21.4964C65.0962 21.4988 64.965 21.5658 64.897 21.646C64.3077 22.3403 63.7292 23.0429 63.0361 23.8785ZM64.4771 43.0358C64.4664 43.0836 64.4556 43.1303 64.4449 43.1782C65.4911 43.7791 66.5707 44.3286 67.5727 44.9965C68.3577 45.5196 69.1629 45.4346 70.1494 45.3939C69.4361 44.5775 68.8074 43.8509 68.168 43.1339C68.1119 43.0717 67.9914 43.0393 67.902 43.0393C66.7604 43.0334 65.6199 43.0358 64.4783 43.0358H64.4771ZM21.5346 45.3819H23.8644V43.0788H21.5346V45.3819ZM19.0784 45.4202V43.0346C18.2851 43.0884 17.4048 42.7616 16.9479 43.6259C16.7773 43.9479 16.7785 44.5189 16.9526 44.8385C17.4155 45.6908 18.2887 45.3819 19.0784 45.4202Z" fill="#00A5F1"/>
<path d="M60.9124 14.3021C59.3055 14.3188 57.948 13.8759 56.7742 12.935C56.4724 12.6932 56.2374 12.6454 55.8676 12.7627C54.0674 13.3361 52.2912 13.2235 50.5961 12.388C48.9379 11.5704 47.8011 10.3064 47.7748 8.36119C47.7498 6.40883 48.8556 5.09449 50.5245 4.30565C51.3273 3.92619 51.8677 3.44977 52.3592 2.69923C53.7728 0.545773 55.8652 -0.343621 58.3822 0.118433C60.8527 0.57091 62.4226 2.14022 63.0799 4.57378C63.1885 4.97359 63.365 5.16512 63.7229 5.32432C65.3834 6.0605 66.5775 7.22042 66.8137 9.11053C67.0356 10.8821 65.9226 12.6478 64.0867 13.5563C63.0549 14.0674 61.9598 14.3152 60.91 14.3033L60.9124 14.3021ZM60.8587 11.9128C61.9419 11.896 63.0274 11.6387 63.8792 10.7744C64.6629 9.97838 64.6987 8.96808 63.8458 8.25824C63.3018 7.80457 62.5956 7.51609 61.924 7.25633C61.2524 6.99657 60.9219 6.68056 60.879 5.9791C60.7621 4.05547 59.5596 2.68008 57.7834 2.43708C56.0012 2.19289 54.4587 3.1948 53.8623 5.01668C53.6738 5.59006 53.3147 5.8977 52.7397 6.04254C52.2817 6.15745 51.8176 6.30708 51.4061 6.53093C50.7189 6.9044 50.163 7.43708 50.1547 8.29176C50.1452 9.17397 50.7046 9.727 51.4108 10.1136C52.8745 10.9145 54.3704 10.9109 55.8723 10.1938C56.7074 9.79523 57.0998 9.87184 57.7118 10.5542C58.5325 11.4675 59.5525 11.9116 60.8575 11.914L60.8587 11.9128Z" fill="#00A5F1"/>
<path d="M12.733 23.8821C11.5437 23.8893 10.1945 23.4045 8.97651 22.4828C8.78683 22.3391 8.42777 22.2853 8.19515 22.3535C6.42486 22.8778 4.68798 22.8131 3.02029 22.0339C1.26551 21.2151 0.0463566 19.9127 0.0606716 17.8574C0.0737937 15.8273 1.29892 14.544 3.03938 13.7624C3.7086 13.4619 4.14521 13.092 4.51859 12.4528C5.77592 10.303 8.13073 9.21965 10.6311 9.6853C13.1028 10.145 14.6822 11.6867 15.3574 14.1143C15.4719 14.5261 15.6413 14.7451 16.029 14.9103C17.4009 15.4981 18.4518 16.4354 18.9361 17.8921C19.5052 19.6039 18.793 21.4844 17.167 22.6456C15.9431 23.5194 14.5605 23.8785 12.7342 23.8833L12.733 23.8821ZM13.3366 21.4868C14.0607 21.4904 14.9614 21.2714 15.7511 20.7159C17.0668 19.7894 17.0764 18.3793 15.7439 17.4852C15.293 17.1823 14.749 16.9992 14.2253 16.8292C13.5048 16.5946 13.2018 16.263 13.1612 15.5101C13.061 13.6499 11.8359 12.2601 10.0811 12.0147C8.31683 11.7681 6.72667 12.7653 6.16839 14.5225C5.96082 15.1749 5.56955 15.5041 4.9206 15.6405C4.51859 15.7255 4.11658 15.8763 3.75393 16.0703C3.04295 16.4485 2.45723 16.9752 2.43934 17.8526C2.42145 18.76 3.00359 19.319 3.73365 19.7116C5.18423 20.4885 6.66225 20.4789 8.14385 19.7775C8.98724 19.3777 9.38806 19.4483 9.9869 20.1198C10.8196 21.0535 11.8598 21.5 13.3366 21.4868Z" fill="#00A5F1"/>
<path d="M15.5864 35.8774H17.8947V38.1937H15.5864V35.8774Z" fill="#00A5F1"/>
<path d="M21.4818 35.8833V38.2079H19.1724V35.8833H21.4818Z" fill="#00A5F1"/>
<path d="M22.7427 35.8762H25.0533V38.1937H22.7427V35.8762Z" fill="#00A5F1"/>
<path d="M45.3233 38.2235H43.0317V35.8845H45.3233V38.2235Z" fill="#00A5F1"/>
<path d="M46.5986 35.8799H48.9153V38.1973H46.5986V35.8799Z" fill="#00A5F1"/>
</g>
<defs>
<clipPath id="clip0_59_1292">
<rect width="74" height="55" fill="white"/>
</clipPath>
</defs>
</svg>
