<svg width="34" height="57" viewBox="0 0 34 57" fill="none" xmlns="http://www.w3.org/2000/svg">
<g clip-path="url(#clip0_69_1474)">
<path d="M28.7323 51.2694C28.7975 51.3131 28.8324 51.3492 28.8739 51.3625C30.519 51.9001 31.1649 52.7842 31.1659 54.5061C31.1659 54.9334 31.1677 55.3608 31.1659 55.7882C31.1611 56.6667 30.8382 56.9981 29.9722 56.9991C25.9597 57.001 21.9472 57 17.9347 57C13.3245 57 8.71325 57 4.10299 57C3.13976 57 2.83663 56.6942 2.83568 55.7217C2.83568 55.2155 2.8319 54.7084 2.83757 54.2022C2.85268 52.8165 3.67237 51.7614 5.00955 51.3967C5.08415 51.3768 5.15592 51.3454 5.28719 51.2979C5.0851 50.6455 4.88679 50.0035 4.68659 49.3615C3.10293 44.271 1.7393 39.1245 0.876178 33.8564C0.351126 30.6511 -0.00205714 27.4278 0.354903 24.1712C0.483333 23.0021 0.719418 21.8587 1.22275 20.7883C1.33607 20.5481 1.27658 20.4303 1.08677 20.2774C0.324684 19.6601 -0.0199996 18.8462 -0.000168452 17.8642C0.0130523 17.263 -0.00866751 16.6609 0.00738626 16.0607C0.0470485 14.581 1.26241 13.3568 2.73464 13.3169C3.37584 13.2998 4.01894 13.3141 4.72436 13.3141C4.72436 12.6749 4.72058 12.0794 4.72436 11.484C4.74419 8.76969 6.42606 6.54736 9.03999 5.9044C9.77563 5.72301 10.566 5.74865 11.3328 5.72016C12.1015 5.69167 12.8731 5.71351 13.6928 5.71351C12.8079 3.62414 13.1431 1.85957 15.0432 0.585048C16.3341 -0.280142 18.0216 -0.159529 19.2521 0.769293C20.7026 1.86431 21.001 3.19866 20.3315 5.71446C21.408 5.71446 22.4713 5.71731 23.5356 5.71446C24.6159 5.71066 25.6273 5.96898 26.5414 6.54831C28.263 7.64048 29.1742 9.22176 29.2677 11.2655C29.298 11.9256 29.2725 12.5885 29.2725 13.3122C29.8778 13.3122 30.4387 13.3103 30.9997 13.3122C32.7986 13.3207 33.9885 14.5126 33.9979 16.3142C34.0008 16.8679 33.9979 17.4216 33.9979 17.9762C33.9979 18.9022 33.64 19.6582 32.9488 20.2707C32.8383 20.3686 32.7202 20.6079 32.7656 20.7095C33.59 22.5767 33.7675 24.554 33.7798 26.5579C33.7987 29.7043 33.3539 32.8032 32.7637 35.8831C31.7929 40.9517 30.4321 45.9178 28.8494 50.825C28.8022 50.9712 28.7701 51.1232 28.7314 51.2685L28.7323 51.2694ZM31.7976 24.7097C31.6456 24.7097 31.4926 24.7097 31.3387 24.7097C21.7867 24.7097 12.2356 24.7135 2.68364 24.6993C2.23697 24.6993 2.13687 24.8446 2.11704 25.2558C1.96689 28.3595 2.36162 31.4166 2.89895 34.4576C3.88012 40.0106 5.36462 45.4334 7.10126 50.7917C7.22969 51.1887 7.41101 51.3141 7.83124 51.3131C13.9524 51.297 20.0737 51.2979 26.1949 51.3103C26.5905 51.3103 26.7766 51.2068 26.888 50.8107C27.8475 47.4041 28.8862 44.0203 29.7833 40.5975C30.7617 36.8632 31.503 33.072 31.7797 29.2123C31.8854 27.7384 31.7967 26.2501 31.7967 24.7097H31.7976ZM16.9781 19.0105C21.6365 19.0105 26.295 19.0114 30.9534 19.0105C31.7617 19.0105 32.1045 18.6648 32.1102 17.8594C32.114 17.4007 32.1102 16.941 32.1102 16.4823C32.1102 15.5184 31.8061 15.2145 30.8344 15.2135C24.7444 15.2135 18.6534 15.2135 12.5633 15.2135C9.38468 15.2135 6.20508 15.2116 3.02644 15.2154C2.24453 15.2154 1.90173 15.563 1.89418 16.3418C1.88945 16.8005 1.89229 17.2601 1.89323 17.7189C1.89418 18.7161 2.19164 19.0124 3.19264 19.0124C7.7878 19.0124 12.3839 19.0124 16.9791 19.0124L16.9781 19.0105ZM27.3885 13.2998C27.3885 12.6569 27.3932 12.0605 27.3885 11.4631C27.3668 9.27209 25.7359 7.62244 23.5564 7.61769C19.185 7.60819 14.8127 7.60914 10.4414 7.62529C10.0098 7.62719 9.55749 7.69936 9.14954 7.84182C7.09654 8.55791 5.99261 11.0433 6.70181 13.3008H27.3894L27.3885 13.2998ZM2.42017 22.7732H31.5587C31.3491 22.2623 31.1621 21.815 30.9798 21.3648C30.8391 21.0172 30.6078 20.8976 30.2177 20.8995C26.1108 20.9156 22.0039 20.909 17.8969 20.909C13.1923 20.909 8.48755 20.9061 3.78191 20.9184C3.57604 20.9184 3.26725 20.9906 3.18509 21.1331C2.89801 21.6317 2.69025 22.1749 2.42017 22.7723V22.7732ZM4.75458 55.0636H29.2385C29.3867 53.7586 29.2422 53.1755 27.669 53.1831C20.56 53.2202 13.451 53.2154 6.34201 53.186C4.83674 53.1793 4.65637 53.6314 4.72814 54.8841C4.73097 54.9306 4.74136 54.9762 4.75458 55.0636ZM18.8866 3.82358C18.8913 2.78079 18.0339 1.9156 16.9979 1.9175C15.9752 1.9194 15.13 2.75515 15.1149 3.77989C15.0998 4.82553 15.9459 5.70116 16.98 5.71066C18.0216 5.72016 18.8828 4.86826 18.8866 3.82358Z" fill="#00A5F1"/>
<path d="M19.8517 40.8387H14.1809V35.1651H11.3696V29.4782H14.1517V26.6471H19.8234V29.4497H22.6422V35.1366H19.8517V40.8396V40.8387ZM16.0328 28.5332V31.3672H13.263V33.2723H16.0772V38.9193H17.9536V33.2448H20.7498V31.3396H17.9271V28.5313H16.0328V28.5332Z" fill="#00A5F1"/>
</g>
<defs>
<clipPath id="clip0_69_1474">
<rect width="34" height="57" fill="white"/>
</clipPath>
</defs>
</svg>
