<svg width="56" height="53" viewBox="0 0 56 53" fill="none" xmlns="http://www.w3.org/2000/svg">
<path d="M27.7362 52.229C18.9116 52.229 10.0871 52.229 1.26256 52.229C0.258066 52.229 0 51.97 0 50.9598C0 34.5708 0 18.1817 0 1.79275C0 0.890207 0.292122 0.604492 1.21149 0.604492C18.9206 0.604492 36.6297 0.604492 54.3388 0.604492C55.2788 0.604492 55.5574 0.883976 55.5574 1.82924C55.5574 18.2031 55.5574 34.5779 55.5574 50.9517C55.5574 51.9798 55.3038 52.229 54.2563 52.229C45.4166 52.229 36.5768 52.229 27.738 52.229H27.7362ZM28.7093 2.398V50.4204H53.7276V2.39889H28.7093V2.398ZM1.82889 2.398V50.4186H26.8446V2.39889H1.82889V2.398Z" fill="#00A5F1"/>
<path d="M41.2258 10.3955C44.3889 10.3955 47.552 10.3955 50.7152 10.3955C50.8639 10.3955 51.0145 10.3874 51.1623 10.4044C51.6193 10.456 51.9598 10.8272 51.967 11.2696C51.9751 11.7298 51.6256 12.1179 51.148 12.1678C51.0154 12.182 50.8801 12.1749 50.7456 12.1749C44.4041 12.1749 38.0626 12.1749 31.7211 12.1749C30.8976 12.1749 30.4783 11.8811 30.4684 11.2999C30.4586 10.7061 30.895 10.3937 31.7355 10.3937C34.8986 10.3937 38.0617 10.3937 41.2249 10.3937L41.2258 10.3955Z" fill="#00A5F1"/>
<path d="M41.2201 14.8458C44.3832 14.8458 47.5464 14.8458 50.7095 14.8458C50.8583 14.8458 51.0088 14.8377 51.1567 14.8538C51.6146 14.9036 51.956 15.2721 51.9667 15.7146C51.9775 16.1748 51.6289 16.5664 51.1531 16.6181C51.0052 16.6341 50.8547 16.6252 50.7059 16.6252C44.3796 16.6252 38.0524 16.6252 31.7262 16.6252C30.8982 16.6252 30.4815 16.3359 30.4681 15.7546C30.4546 15.1609 30.8937 14.844 31.7297 14.844C34.8929 14.844 38.056 14.844 41.2192 14.844L41.2201 14.8458Z" fill="#00A5F1"/>
<path d="M41.2184 19.2962C44.3816 19.2962 47.5447 19.2962 50.7078 19.2962C50.8718 19.2962 51.0385 19.2873 51.1998 19.3095C51.6335 19.3701 51.957 19.7377 51.9677 20.1632C51.9794 20.6047 51.6514 20.9982 51.2007 21.0623C51.0394 21.0854 50.8727 21.0756 50.7087 21.0756C44.3825 21.0756 38.0553 21.0765 31.729 21.0765C30.8921 21.0765 30.4539 20.7578 30.4691 20.1641C30.4844 19.5828 30.901 19.2953 31.729 19.2953C34.8921 19.2953 38.0553 19.2953 41.2184 19.2953V19.2962Z" fill="#00A5F1"/>
<path d="M41.2156 23.7462C44.3787 23.7462 47.5419 23.7462 50.705 23.7462C50.869 23.7462 51.0357 23.7364 51.197 23.7595C51.6477 23.8219 51.9774 24.2126 51.9676 24.656C51.9586 25.0806 51.636 25.4509 51.2023 25.5132C51.041 25.5363 50.8744 25.5265 50.7104 25.5265C44.3841 25.5265 38.0569 25.5274 31.7306 25.5274C30.8928 25.5274 30.4546 25.2114 30.4681 24.6177C30.4815 24.0364 30.9 23.7462 31.7253 23.7462C34.8884 23.7462 38.0515 23.7462 41.2147 23.7462H41.2156Z" fill="#00A5F1"/>
<path d="M44.803 37.0978C46.8317 37.0978 48.8604 37.0862 50.8882 37.1111C51.1732 37.1147 51.5406 37.2259 51.7153 37.4227C51.8864 37.6158 51.9787 38.0271 51.8873 38.2585C51.7879 38.5113 51.4483 38.6796 51.1947 38.8603C51.1239 38.911 50.9913 38.8772 50.8873 38.8772C46.8308 38.8772 42.7734 38.8772 38.7169 38.8772C38.6568 38.8772 38.5977 38.879 38.5376 38.8754C38.0054 38.8434 37.6255 38.4588 37.638 37.9639C37.6496 37.4876 38.0224 37.112 38.5385 37.1022C39.3441 37.0871 40.1497 37.0969 40.9544 37.0969C42.2366 37.0969 43.5198 37.0969 44.8021 37.0969L44.803 37.0978Z" fill="#00A5F1"/>
<path d="M44.7876 43.3284C42.7446 43.3284 40.7006 43.3257 38.6576 43.3311C38.2678 43.332 37.9031 43.226 37.7714 42.8629C37.6773 42.602 37.6818 42.2451 37.7857 41.9887C37.9398 41.6077 38.3323 41.5445 38.732 41.5454C41.3574 41.5525 43.982 41.549 46.6075 41.549C48.0395 41.549 49.4714 41.5472 50.9033 41.5499C51.5556 41.5516 51.9634 41.8944 51.9678 42.4311C51.9723 42.9688 51.5619 43.3266 50.9185 43.3275C48.8755 43.3311 46.8316 43.3284 44.7885 43.3284H44.7876Z" fill="#00A5F1"/>
<path d="M41.2202 5.94515C42.9648 5.94515 44.7104 5.92823 46.4541 5.96206C46.7435 5.9674 47.119 6.12407 47.2893 6.33949C47.4443 6.53533 47.4855 6.96439 47.3717 7.18604C47.2471 7.42727 46.903 7.65782 46.6253 7.69877C46.0858 7.77978 45.5249 7.72548 44.9738 7.72548C42.0956 7.72548 39.2174 7.72548 36.3401 7.72548C36.1762 7.72548 36.0113 7.73082 35.8482 7.72192C35.333 7.69254 34.9602 7.33024 34.9494 6.85489C34.9387 6.36174 35.3195 5.95672 35.8527 5.9496C36.9557 5.93535 38.0597 5.94426 39.1628 5.94426C39.8492 5.94426 40.5347 5.94426 41.2211 5.94426L41.2202 5.94515Z" fill="#00A5F1"/>
<path d="M35.393 28.197C36.6753 28.197 37.9567 28.1952 39.239 28.1979C39.9155 28.1997 40.3322 28.5548 40.3188 29.1085C40.3062 29.6435 39.8994 29.9764 39.2408 29.9764C36.6771 29.9791 34.1125 29.9791 31.5489 29.9764C30.875 29.9764 30.4548 29.6159 30.4691 29.0658C30.4825 28.5317 30.8911 28.1988 31.5471 28.197C32.8294 28.1943 34.1108 28.197 35.393 28.197Z" fill="#00A5F1"/>
<path d="M4.47959 32.6471C4.47959 30.9275 4.47601 29.207 4.47959 27.4874C4.48587 24.7771 6.40705 22.8616 9.12842 22.8572C12.607 22.8527 16.0846 22.8519 19.5632 22.8572C22.2568 22.8616 24.186 24.7815 24.1905 27.4633C24.1968 30.9035 24.1968 34.3436 24.1905 37.7837C24.1851 40.5474 22.2675 42.4353 19.4745 42.4379C15.9959 42.4406 12.5183 42.4406 9.03971 42.4379C6.46619 42.4353 4.49841 40.4994 4.48049 37.9422C4.46795 36.178 4.4778 34.413 4.4778 32.6489L4.47959 32.6471ZM11.6598 34.1068C10.7575 33.1402 10.7019 31.9769 10.7494 30.786C10.7611 30.4896 10.7476 30.1932 10.7548 29.8959C10.796 28.0997 12.1957 26.5973 13.9806 26.4291C15.8059 26.2573 17.5327 27.4526 17.8069 29.247C17.9664 30.2866 17.9028 31.3743 17.8212 32.4308C17.7845 32.9035 17.4583 33.3547 17.2558 33.8122C17.2101 33.9164 17.1321 34.0072 17.0542 34.1264C19.5694 35.4962 20.7218 37.6155 20.6107 40.4994C20.8598 40.3747 21.0542 40.3062 21.2164 40.1914C22.0014 39.6387 22.4001 38.8785 22.4001 37.919C22.4001 34.4041 22.4055 30.8901 22.3974 27.3752C22.3939 25.7784 21.2317 24.6391 19.6151 24.6365C16.107 24.6311 12.5989 24.632 9.08988 24.6365C7.42139 24.6382 6.27532 25.7757 6.27264 27.4322C6.26815 30.9168 6.26816 34.4015 6.27622 37.887C6.27622 38.1798 6.30758 38.4851 6.3945 38.7628C6.65257 39.5799 7.18394 40.1531 8.06029 40.4931C7.94829 37.6039 9.11049 35.4891 11.6589 34.1068H11.6598ZM9.87753 40.6195H18.7961C18.9592 38.6418 18.3795 37.0192 16.65 35.9733C15.1312 35.0557 13.5425 35.0583 12.0236 35.9751C10.2924 37.0201 9.71176 38.6409 9.87753 40.6195ZM16.1258 30.9097C16.1258 30.5839 16.1348 30.2582 16.124 29.9333C16.0909 28.956 15.3059 28.1976 14.3355 28.1976C13.3668 28.1976 12.5729 28.9595 12.5487 29.9333C12.5326 30.5546 12.5335 31.1767 12.5487 31.7971C12.5729 32.7708 13.3677 33.5336 14.3355 33.5336C15.3024 33.5336 16.09 32.7726 16.1249 31.7971C16.1357 31.5016 16.1267 31.2052 16.1258 30.9097Z" fill="#00A5F1"/>
<path d="M11.6481 7.72582C11.6481 6.87045 11.6454 6.07294 11.6481 5.27542C11.6508 4.48058 11.9626 4.16816 12.7574 4.16549C13.8327 4.16193 14.9071 4.16104 15.9824 4.16638C16.6867 4.16994 17.0182 4.50372 17.0227 5.20956C17.0272 6.02398 17.0236 6.83841 17.0236 7.72493C17.6831 7.72493 18.3185 7.72493 18.9529 7.72493C20.4923 7.72493 20.607 7.83975 20.6079 9.36091C20.6079 10.251 20.6124 11.1411 20.6079 12.0303C20.6035 12.7272 20.2638 13.0601 19.5568 13.0645C18.7369 13.069 17.917 13.0654 17.0245 13.0654C17.0245 13.247 17.0245 13.4028 17.0245 13.5585C17.0245 15.6796 17.0245 17.7998 17.0245 19.9209C17.0245 20.7718 16.7208 21.0753 15.8704 21.0762C14.8103 21.0771 13.7503 21.0797 12.6902 21.0744C11.9859 21.0708 11.6508 20.7371 11.6499 20.0321C11.6463 17.8968 11.6481 15.7606 11.6481 13.6253C11.6481 13.4633 11.6481 13.3013 11.6481 13.0654C11.0799 13.0654 10.5342 13.0654 9.98942 13.0654C9.64623 13.0654 9.30213 13.0761 8.95894 13.061C8.441 13.0378 8.07809 12.6987 8.07092 12.1869C8.05479 11.0004 8.0548 9.81396 8.06914 8.62748C8.07541 8.07474 8.44727 7.73472 9.02345 7.72849C9.87293 7.71781 10.7224 7.72582 11.6472 7.72582H11.6481ZM9.88906 9.5051V11.2853C10.7099 11.2853 11.4984 11.2853 12.287 11.2853C13.1373 11.2862 13.4402 11.5879 13.4402 12.4397C13.4411 14.5439 13.4402 16.6489 13.4402 18.7531C13.4402 18.924 13.4402 19.0949 13.4402 19.2675H15.2324C15.2324 19.0806 15.2324 18.9213 15.2324 18.7611C15.2324 16.6569 15.2324 14.5519 15.2324 12.4477C15.2324 11.5745 15.529 11.2862 16.4215 11.2844C17.2064 11.2835 17.9923 11.2844 18.7764 11.2844V9.5051C17.9466 9.5051 17.1571 9.50688 16.3668 9.5051C15.5442 9.50243 15.2333 9.19268 15.2315 8.37736C15.2297 7.58163 15.2315 6.7859 15.2315 5.98126H13.4402C13.4402 6.80103 13.442 7.58519 13.4402 8.36846C13.4375 9.19535 13.1338 9.50243 12.3139 9.5051C11.5119 9.50777 10.7108 9.5051 9.88906 9.5051Z" fill="#00A5F1"/>
<path d="M5.37356 5.94316C5.37356 6.86448 5.37446 7.72171 5.37356 8.57893C5.37356 8.95369 5.22034 9.2884 4.8646 9.38809C4.59399 9.46376 4.21853 9.45753 3.99451 9.31955C3.78573 9.19048 3.61099 8.84331 3.60203 8.58606C3.56081 7.41638 3.57516 6.24403 3.5877 5.07258C3.59398 4.53135 3.94792 4.17618 4.49094 4.16995C5.67016 4.1566 6.84939 4.15749 8.02862 4.16906C8.57074 4.1744 8.95336 4.55717 8.95515 5.05121C8.95694 5.54525 8.57343 5.93158 8.034 5.9396C7.17019 5.95295 6.30637 5.94316 5.37356 5.94316Z" fill="#00A5F1"/>
<path d="M23.297 5.94505C22.4063 5.94505 21.5864 5.94861 20.7674 5.94416C20.1223 5.9406 19.7119 5.58631 19.7163 5.04776C19.7208 4.51099 20.1294 4.16828 20.7818 4.16561C21.8714 4.16205 22.961 4.16116 24.0506 4.16561C24.7496 4.16917 25.0847 4.50654 25.0874 5.21244C25.0919 6.29489 25.091 7.37733 25.0874 8.45977C25.0847 9.0998 24.7254 9.50749 24.1833 9.50215C23.6411 9.49681 23.3006 9.09356 23.2979 8.44196C23.2944 7.62924 23.2979 6.81652 23.2979 5.94505H23.297Z" fill="#00A5F1"/>
<path d="M5.37402 46.8889C6.27369 46.8889 7.12048 46.8835 7.96728 46.8906C8.51478 46.8951 8.89202 47.2022 8.95116 47.6704C9.01299 48.16 8.65277 48.6452 8.14201 48.655C6.90363 48.6808 5.66436 48.6772 4.42598 48.6576C3.9412 48.6496 3.59621 48.2784 3.59083 47.7826C3.57649 46.5969 3.57649 45.4103 3.59083 44.2237C3.5971 43.7119 3.98243 43.3416 4.46272 43.3318C4.96184 43.3211 5.36237 43.6985 5.37133 44.2317C5.38657 45.0907 5.37582 45.9506 5.37582 46.8889H5.37402Z" fill="#00A5F1"/>
<path d="M23.2971 46.8887C23.2971 46.0163 23.2953 45.217 23.2971 44.4176C23.2998 43.7393 23.6465 43.3254 24.203 43.3316C24.7585 43.3378 25.0865 43.7455 25.0883 44.4372C25.0901 45.4903 25.0919 46.5424 25.0883 47.5955C25.0865 48.3299 24.7567 48.6655 24.0318 48.6681C22.9422 48.6726 21.8526 48.6717 20.763 48.6681C20.1178 48.6655 19.7092 48.3085 19.7164 47.7682C19.7236 47.2314 20.1313 46.8932 20.7863 46.8905C21.6035 46.8869 22.4216 46.8905 23.2971 46.8905V46.8887Z" fill="#00A5F1"/>
</svg>
