<svg width="13" height="11" viewBox="0 0 13 11" fill="none" xmlns="http://www.w3.org/2000/svg">
<path d="M0.610445 5.22445L3.3693 6.25318L4.44478 9.71342C4.49154 9.94723 4.77211 9.99399 4.95915 9.85371L6.50223 8.59118C6.64251 8.4509 6.87631 8.4509 7.06335 8.59118L9.8222 10.6019C10.0092 10.7421 10.2898 10.6486 10.3366 10.4148L12.394 0.595198C12.4408 0.361397 12.207 0.127599 11.9732 0.221119L0.610445 4.61657C0.329884 4.71009 0.329884 5.13093 0.610445 5.22445ZM4.30451 5.73881L9.72867 2.41884C9.82219 2.37208 9.91572 2.51237 9.8222 2.55913L5.37998 6.72078C5.2397 6.86106 5.09942 7.0481 5.09942 7.2819L4.95915 8.40414C4.95915 8.54442 4.72534 8.59118 4.67858 8.40414L4.11746 6.3467C3.97717 6.1129 4.07071 5.83233 4.30451 5.73881Z" fill="white"/>
</svg>
