<svg width="12" height="13" viewBox="0 0 12 13" fill="none" xmlns="http://www.w3.org/2000/svg">
<path d="M9.28796 0.30856C7.10995 -0.102853 4.84817 -0.102853 2.67016 0.30856C1.70681 0.514267 0.492147 1.66622 0.282723 2.57133C-0.0942409 4.34041 -0.0942409 6.15063 0.282723 7.9197C0.534031 8.82481 1.74869 9.97677 2.67016 10.1825C2.71204 10.1825 2.75392 10.2236 2.75392 10.2648V12.8567C2.75392 12.9801 2.92147 13.0624 3.00524 12.9389L4.26178 11.6636C4.26178 11.6636 5.26701 10.635 5.43455 10.4705C5.43455 10.4705 5.47644 10.4293 5.51833 10.4293C6.77487 10.4705 8.0733 10.347 9.32984 10.1413C10.2932 9.93563 11.5079 8.78367 11.7173 7.87856C12.0942 6.10949 12.0942 4.29927 11.7173 2.53019C11.466 1.66622 10.2513 0.514267 9.28796 0.30856ZM9.32984 8.04313C9.12042 8.45454 8.86911 8.78367 8.45026 8.98938C8.32461 9.03052 8.19895 9.07166 8.0733 9.1128C7.90576 9.07166 7.7801 9.03052 7.65445 8.98938C6.31414 8.45454 5.05759 7.714 4.05236 6.64432C3.50785 6.0272 3.04712 5.3278 2.67016 4.58726C2.50262 4.21699 2.33508 3.88785 2.20942 3.51758C2.08377 3.18845 2.29319 2.85932 2.50262 2.61247C2.71204 2.36563 2.96335 2.20106 3.25654 2.07764C3.46597 1.95421 3.67539 2.0365 3.84293 2.20106C4.17801 2.61247 4.51309 3.02389 4.7644 3.47644C4.93194 3.76443 4.89005 4.09356 4.59686 4.29927C4.51309 4.34041 4.4712 4.38155 4.38743 4.46383C4.34555 4.50497 4.26178 4.54612 4.21989 4.6284C4.13612 4.75182 4.13612 4.87525 4.17801 4.99867C4.51309 5.94492 5.14136 6.68546 6.10471 7.09688C6.27225 7.17916 6.39791 7.2203 6.60733 7.2203C6.90052 7.17916 7.02618 6.85003 7.2356 6.68546C7.44503 6.5209 7.69633 6.5209 7.94764 6.64432C8.15707 6.76775 8.36649 6.93231 8.6178 7.09688C8.82722 7.26144 9.03665 7.38487 9.24607 7.54943C9.37173 7.63172 9.41361 7.83742 9.32984 8.04313ZM7.57068 4.95753C7.48691 4.95753 7.52879 4.95753 7.57068 4.95753C7.40314 4.95753 7.36126 4.87525 7.31937 4.75182C7.31937 4.66954 7.31937 4.54612 7.27749 4.46383C7.2356 4.29927 7.15183 4.1347 6.98429 4.01128C6.90052 3.97014 6.81675 3.929 6.73298 3.88785C6.60733 3.84671 6.52356 3.84671 6.39791 3.84671C6.27225 3.80557 6.23037 3.72329 6.23037 3.59987C6.23037 3.51758 6.35602 3.4353 6.43979 3.4353C7.10995 3.47644 7.61256 3.84671 7.69633 4.6284C7.69633 4.66954 7.69633 4.75182 7.69633 4.79296C7.69633 4.87525 7.65445 4.95753 7.57068 4.95753ZM7.15183 3.14731C6.94241 3.06503 6.73298 2.98275 6.48167 2.9416C6.3979 2.9416 6.27225 2.90046 6.18848 2.90046C6.06283 2.90046 5.97906 2.81818 6.02094 2.69476C6.02094 2.57133 6.10471 2.48905 6.23037 2.53019C6.64921 2.57133 7.02618 2.65362 7.40314 2.81818C8.15707 3.18845 8.57592 3.80557 8.70157 4.6284C8.70157 4.66954 8.70157 4.71068 8.70157 4.75182C8.70157 4.83411 8.70157 4.91639 8.70157 5.03981C8.70157 5.08095 8.70157 5.1221 8.70157 5.16324C8.65969 5.3278 8.36649 5.36894 8.32461 5.16324C8.32461 5.1221 8.28272 5.03981 8.28272 4.99867C8.28272 4.6284 8.19895 4.25813 8.03141 3.929C7.78011 3.55872 7.48691 3.31188 7.15183 3.14731ZM9.41361 5.61579C9.28796 5.61579 9.20419 5.49237 9.20419 5.36894C9.20419 5.1221 9.1623 4.87525 9.12042 4.6284C8.95288 3.31188 7.86388 2.2422 6.56545 2.03649C6.35602 1.99535 6.1466 1.99535 5.97906 1.95421C5.8534 1.95421 5.68586 1.95421 5.64398 1.78965C5.60209 1.66622 5.72775 1.5428 5.8534 1.5428C5.89529 1.5428 5.93717 1.5428 5.93717 1.5428C7.65445 1.58394 6.02094 1.5428 5.93717 1.5428C7.69634 1.58394 9.1623 2.7359 9.4555 4.46383C9.49738 4.75182 9.53927 5.03981 9.53927 5.36894C9.62304 5.49237 9.53927 5.61579 9.41361 5.61579Z" fill="white"/>
</svg>
