<svg width="13" height="13" viewBox="0 0 13 13" fill="none" xmlns="http://www.w3.org/2000/svg">
<path d="M10.7561 2.23749C9.57073 1.05624 7.99024 0.399994 6.32195 0.399994C2.85366 0.399994 0.0439018 3.19999 0.0439018 6.65624C0.0439018 7.74999 0.351219 8.84374 0.878049 9.76249L0 13L3.33659 12.125C4.25854 12.6062 5.26829 12.8687 6.32195 12.8687C9.79024 12.8687 12.6 10.0687 12.6 6.61249C12.5561 4.99374 11.9415 3.41874 10.7561 2.23749ZM9.35122 8.88749C9.21951 9.23749 8.60488 9.58749 8.29756 9.63124C8.03414 9.67499 7.68293 9.67499 7.33171 9.58749C7.1122 9.49999 6.80488 9.41249 6.45366 9.23749C4.87317 8.58124 3.86342 7.00624 3.77561 6.87499C3.68781 6.78749 3.11707 6.04374 3.11707 5.25624C3.11707 4.46874 3.51219 4.11874 3.6439 3.94374C3.77561 3.76874 3.95122 3.76874 4.08293 3.76874C4.17073 3.76874 4.30244 3.76874 4.39024 3.76874C4.47805 3.76874 4.60976 3.72499 4.74146 4.03124C4.87317 4.33749 5.18049 5.12499 5.22439 5.16874C5.26829 5.25624 5.26829 5.34374 5.22439 5.43124C5.18049 5.51874 5.13658 5.60624 5.04878 5.69374C4.96097 5.78124 4.87317 5.91249 4.82927 5.95624C4.74146 6.04374 4.65366 6.13124 4.74146 6.26249C4.82927 6.43749 5.13658 6.91874 5.61951 7.35624C6.23415 7.88124 6.71707 8.05624 6.89268 8.14374C7.06829 8.23124 7.1561 8.18749 7.2439 8.09999C7.33171 8.01249 7.63902 7.66249 7.72683 7.48749C7.81463 7.31249 7.94634 7.35624 8.07805 7.39999C8.20975 7.44374 9 7.83749 9.13171 7.92499C9.30732 8.01249 9.39512 8.05624 9.43902 8.09999C9.48292 8.23124 9.48293 8.53749 9.35122 8.88749Z" fill="white"/>
</svg>
