<svg width="37" height="37" viewBox="0 0 37 37" fill="none" xmlns="http://www.w3.org/2000/svg">
<path d="M9.80005 32.3694H6.80005C5.90005 32.3694 5.30005 31.7694 5.30005 30.8694V21.8694C5.30005 20.9694 5.90005 20.3694 6.80005 20.3694H9.80005C10.7 20.3694 11.3 20.9694 11.3 21.8694V30.8694C11.3 31.7694 10.7 32.3694 9.80005 32.3694Z" stroke="#0060F1" stroke-width="2" stroke-linecap="round" stroke-linejoin="round"/>
<path d="M20.3 26.3692H23.75C24.35 26.3692 25.1 26.2192 25.55 25.7692L29.1501 23.0693C30.0501 22.3193 31.2501 22.4692 32.1501 23.2192C33.0501 24.1192 33.0501 25.6192 32.1501 26.3692L29 29.5192C28.1 30.4192 27.05 30.8691 26 31.1691L21.6501 32.0693C20.7501 32.2193 19.8501 32.2193 18.9501 32.0693L15.05 31.0192C14.6 30.8692 14.15 30.8692 13.55 30.8692H11.3" stroke="#0060F1" stroke-width="2" stroke-linecap="round" stroke-linejoin="round"/>
<path d="M20.3001 26.3694H22.5501C23.7501 26.3694 24.8001 25.3194 24.8001 24.1194V23.6693C24.8001 22.6193 24.0502 21.7193 23.1502 21.4193L19.7002 20.5193C19.1002 20.3693 18.5001 20.3694 18.0501 20.3694C16.7001 20.3694 15.3502 20.8195 14.1502 21.5695L11.4502 23.3694" stroke="#0060F1" stroke-width="2" stroke-linecap="round" stroke-linejoin="round"/>
<path d="M23.6001 15.8707C25.9197 15.8707 27.8001 13.9902 27.8001 11.6706C27.8001 9.351 25.9197 7.4707 23.6001 7.4707C21.2805 7.4707 19.4001 9.351 19.4001 11.6706C19.4001 13.9902 21.2805 15.8707 23.6001 15.8707Z" stroke="#0060F1" stroke-width="2" stroke-linecap="round" stroke-linejoin="round"/>
<path d="M22.85 7.47114C22.7 6.57114 22.25 5.82114 21.65 5.22114C20 3.57114 17.3 3.57114 15.65 5.22114C14 6.87114 14 9.57114 15.65 11.2211C16.7 12.2711 18.05 12.571 19.4 12.421" stroke="#0060F1" stroke-width="2" stroke-linecap="round" stroke-linejoin="round"/>
</svg>
