<svg width="37" height="37" viewBox="0 0 37 37" fill="none" xmlns="http://www.w3.org/2000/svg">
<path d="M15.3999 3.87097H21.3999" stroke="#0060F1" stroke-width="2" stroke-linecap="round" stroke-linejoin="round"/>
<path d="M18.3999 32.3683C25.0273 32.3683 30.3999 26.9962 30.3999 20.3694C30.3999 13.7426 25.0273 8.37048 18.3999 8.37048C11.7725 8.37048 6.3999 13.7426 6.3999 20.3694C6.3999 26.9962 11.7725 32.3683 18.3999 32.3683Z" stroke="#0060F1" stroke-width="2" stroke-linecap="round" stroke-linejoin="round"/>
<path d="M18.3999 19.6195C17.9499 19.6195 17.6499 19.9195 17.6499 20.3695C17.6499 20.8195 17.9499 21.1195 18.3999 21.1195C18.8499 21.1195 19.1499 20.8195 19.1499 20.3695C19.1499 19.9195 18.8499 19.6195 18.3999 19.6195Z" stroke="#0060F1" stroke-width="2" stroke-miterlimit="10" stroke-linecap="round" stroke-linejoin="round"/>
<path d="M23.6499 25.6195C22.2999 26.9695 20.3499 27.8695 18.3999 27.8695C14.1999 27.8695 10.8999 24.5695 10.8999 20.3695C10.8999 19.9195 10.8999 19.4697 11.0499 19.0197" stroke="#0060F1" stroke-width="2" stroke-linecap="round" stroke-linejoin="round"/>
<path d="M13.1499 15.1199L17.7999 19.77" stroke="#0060F1" stroke-width="2" stroke-linecap="round" stroke-linejoin="round"/>
<path d="M30.3998 8.37048L26.9498 11.8206" stroke="#0060F1" stroke-width="2" stroke-linecap="round" stroke-linejoin="round"/>
<path d="M28.8999 6.87073L31.8999 9.87073" stroke="#0060F1" stroke-width="2" stroke-linecap="round" stroke-linejoin="round"/>
</svg>
