<svg width="37" height="37" viewBox="0 0 37 37" fill="none" xmlns="http://www.w3.org/2000/svg">
<path d="M10.8999 12.8701H22.8999" stroke="#0060F1" stroke-width="2" stroke-miterlimit="10" stroke-linecap="round" stroke-linejoin="round"/>
<path d="M25.7499 21.7191L25.1499 22.3193L24.5499 21.7191C23.1999 20.3693 21.0999 20.2193 19.5999 21.4192C18.0999 22.6191 17.9499 24.869 19.1499 26.3688C20.9499 28.4686 22.8999 30.7184 24.9999 32.3683C27.2499 30.7184 29.3499 28.4685 30.9999 26.2187C32.1999 24.7188 31.8999 22.6191 30.5499 21.4192C29.1999 20.2193 27.0999 20.3693 25.7499 21.7191Z" stroke="#0060F1" stroke-width="2" stroke-linecap="round" stroke-linejoin="round"/>
<path d="M15.3999 32.3683H7.8999C6.2499 32.3683 4.8999 31.0184 4.8999 29.3686V8.37046C4.8999 6.72061 6.2499 5.37073 7.8999 5.37073H25.8999C27.5499 5.37073 28.8999 6.72061 28.8999 8.37046V14.3699" stroke="#0060F1" stroke-width="2" stroke-miterlimit="10" stroke-linecap="round" stroke-linejoin="round"/>
</svg>
